<?xml version="1.0" encoding="UTF-8"?><svg xmlns="http://www.w3.org/2000/svg" xmlns:xlink="http://www.w3.org/1999/xlink" viewBox="0 0 128 128"><defs><radialGradient id="e" cx="45.2448" cy="30.458" fx="45.2448" fy="30.458" r="81.9515" gradientTransform="translate(0 .2216) scale(1 .9616)" gradientUnits="userSpaceOnUse"><stop offset="0" stop-color="#fff"/><stop offset="1" stop-color="#e4e4e4"/></radialGradient><linearGradient id="i" x1="90.1551" y1="17.6115" x2="71.1468" y2="34.0769" gradientUnits="userSpaceOnUse"><stop offset="0" stop-color="#fff"/><stop offset="1" stop-color="#adadad"/></linearGradient><clipPath id="m"><path d="m43.2676,82.5343c0-21.4639,17.454-38.9257,38.9081-38.9257s38.9081,17.4619,38.9081,38.9257-17.454,38.9257-38.9081,38.9257-38.9081-17.4628-38.9081-38.9257m-3.5936,0c0,23.4356,19.0662,42.5017,42.5017,42.5017s42.5017-19.0662,42.5017-42.5017-19.0662-42.5017-42.5017-42.5017-42.5017,19.0662-42.5017,42.5017" style="fill:none;"/></clipPath><linearGradient id="n" x1="1.697" y1=".2089" x2="2.674" y2=".2089" gradientTransform="translate(63.9999 -112.0814) rotate(90) scale(87 -87)" gradientUnits="userSpaceOnUse"><stop offset="0" stop-color="#414141"/><stop offset=".206" stop-color="#3e3e3e"/><stop offset="1" stop-color="#3a3a3a"/></linearGradient><clipPath id="o"><rect x="39.6905" y="40.0491" width="84.9704" height="84.9704" style="fill:none;"/></clipPath><clipPath id="p"><path d="m82.1758,40.0491c-23.4268,0-42.4851,19.0584-42.4851,42.4851s19.0584,42.4851,42.4851,42.4851,42.4851-19.0584,42.4851-42.4851-19.0584-42.4851-42.4851-42.4851" style="fill:none;"/></clipPath><radialGradient id="r" cx=".3481" cy="-2.8137" fx=".3481" fy="-2.8137" r=".9771" gradientTransform="translate(61.2666 -71.6795) scale(52.3911 -52.1409)" gradientUnits="userSpaceOnUse"><stop offset="0" stop-color="#000"/><stop offset=".6733" stop-color="#000"/><stop offset="1" stop-color="#fff"/></radialGradient><mask id="q" x="39.6906" y="40.0491" width="84.9703" height="84.9703" maskUnits="userSpaceOnUse"><rect x="39.6906" y="40.0491" width="84.9703" height="84.9703" style="fill:url(#r);"/></mask><radialGradient id="s" cx=".3481" cy="-2.8137" fx=".3481" fy="-2.8137" r=".9771" gradientTransform="translate(61.2666 -71.6794) scale(52.3911 -52.1409)" gradientUnits="userSpaceOnUse"><stop offset="0" stop-color="#fcfcfc"/><stop offset=".6733" stop-color="#fcfcfc"/><stop offset="1" stop-color="#fcfcfc"/></radialGradient><clipPath id="t"><rect x="39.6739" y="40.0325" width="85.0036" height="85.0035" style="fill:none;"/></clipPath><clipPath id="u"><path d="m82.1758,125.036c-23.4356,0-42.5017-19.0662-42.5017-42.5017s19.0662-42.5017,42.5017-42.5017,42.5017,19.0662,42.5017,42.5017-19.0662,42.5017-42.5017,42.5017m0-81.4275c-21.4541,0-38.9081,17.4619-38.9081,38.9257s17.454,38.9257,38.9081,38.9257,38.9081-17.4619,38.9081-38.9257-17.454-38.9257-38.9081-38.9257" style="fill:none;"/></clipPath><radialGradient id="w" cx=".4174" cy="-3.3788" fx=".4174" fy="-3.3788" r=".9771" gradientTransform="translate(63.3765 -64.8113) scale(43.582 -43.3738)" gradientUnits="userSpaceOnUse"><stop offset="0" stop-color="#000"/><stop offset=".1088" stop-color="#000"/><stop offset=".8856" stop-color="#000"/><stop offset=".8925" stop-color="#1e1e1e"/><stop offset=".9073" stop-color="#585858"/><stop offset=".922" stop-color="#8b8b8b"/><stop offset=".9364" stop-color="#b5b5b5"/><stop offset=".9504" stop-color="#d5d5d5"/><stop offset=".9638" stop-color="#ececec"/><stop offset=".9764" stop-color="#fafafa"/><stop offset=".9874" stop-color="#fff"/><stop offset="1" stop-color="#fff"/></radialGradient><mask id="v" x="39.674" y="40.0325" width="85.0035" height="85.0035" maskUnits="userSpaceOnUse"><rect x="39.674" y="40.0325" width="85.0035" height="85.0035" style="fill:url(#w);"/></mask><radialGradient id="x" cx=".4174" cy="-3.3788" fx=".4174" fy="-3.3788" r=".9771" gradientTransform="translate(63.3765 -64.8113) scale(43.582 -43.3738)" gradientUnits="userSpaceOnUse"><stop offset="0" stop-color="#0f0f0d"/><stop offset=".1088" stop-color="#0f0f0d"/><stop offset=".8856" stop-color="#414141"/><stop offset=".8974" stop-color="#373736"/><stop offset=".93" stop-color="#21211f"/><stop offset=".9607" stop-color="#131311"/><stop offset=".9874" stop-color="#0f0f0d"/><stop offset="1" stop-color="#0f0f0d"/></radialGradient><clipPath id="y"><rect x="42.9675" y="43.8362" width="78.4164" height="78.4166" style="fill:none;"/></clipPath><clipPath id="z"><rect x="39.6739" y="40.0325" width="85.0036" height="85.0035" style="fill:none;"/></clipPath><clipPath id="aa"><path d="m43.25,82.5343c0,21.4639,17.4619,38.9257,38.9257,38.9257s38.9257-17.4619,38.9257-38.9257-17.4619-38.9257-38.9257-38.9257-38.9257,17.4619-38.9257,38.9257" style="fill:none;"/></clipPath><radialGradient id="ab" cx=".2566" cy="-2.8249" fx=".2566" fy="-2.8249" r=".9771" gradientTransform="translate(64.829 -90.8183) scale(70.7693 -52.0906)" gradientUnits="userSpaceOnUse"><stop offset="0" stop-color="#2e6b26"/><stop offset="1" stop-color="#6ab536"/></radialGradient><clipPath id="ac"><rect x="43.25" y="43.6085" width="77.8515" height="77.8515" style="fill:none;"/></clipPath><clipPath id="ad"><path d="m82.1758,43.6085c-21.4639,0-38.9257,17.4619-38.9257,38.9257s17.4619,38.9257,38.9257,38.9257,38.9257-17.4619,38.9257-38.9257-17.4619-38.9257-38.9257-38.9257" style="fill:none;"/></clipPath><radialGradient id="ae" cx=".4832" cy="-3.1926" fx=".4832" fy="-3.1926" r=".9771" gradientTransform="translate(67.594 -76.9273) scale(37.4438 -45.9916)" gradientUnits="userSpaceOnUse"><stop offset="0" stop-color="#000"/><stop offset=".7192" stop-color="#fff"/><stop offset="1" stop-color="#fff"/></radialGradient><clipPath id="af"><rect x="70.5812" y="46.8445" width="23.1889" height="23.1893" style="fill:none;"/></clipPath><clipPath id="ag"><path d="m82.1758,46.8445c-6.3928,0-11.5947,5.2018-11.5947,11.5947s5.2018,11.5947,11.5947,11.5947,11.5947-5.2008,11.5947-11.5947-5.2018-11.5947-11.5947-11.5947" style="fill:none;"/></clipPath><radialGradient id="ah" cx="1.0992" cy="-8.9443" fx="1.0992" fy="-8.9443" r=".9771" gradientTransform="translate(64.1957 -91.2625) scale(16.532 -16.453)" gradientUnits="userSpaceOnUse"><stop offset="0" stop-color="#6ab536"/><stop offset="1" stop-color="#2e6b26"/></radialGradient><clipPath id="ai"><rect x="61.521" y="43.9593" width="41.7756" height="72.4642" style="fill:none;"/></clipPath><clipPath id="aj"><path d="m61.9518,49.2901c-.002.0127-.0039.0264-.0059.0391-.0508.0098-.0508-.002.0059-.0391m29.3936,24.9842l-.5384,9.6191,6.3528,6.9205-6.3528,6.9205,4.1994,4.5746-4.1994,4.5746.5384,9.5399h-17.8732v-42.149c-7.1061-3.6366-11.9513-11.495-11.9513-20.5269,0-1.5115.212-2.9087.425-4.4182.7709-.1446,13.2371-5.3699,13.2371-5.3699-.1036.5647,14.5551.5647,14.4516,0,0,0,12.0441,5.1823,13.2517,5.4363.3058,1.4841.4104,2.8628.4104,4.3518,0,9.0319-4.9527,16.8903-11.9513,20.5269m11.5204-24.9842c.0078.0352.0137.0703.0205.1055.1329.0283.1368-.002-.0205-.1055" style="fill:none;"/></clipPath><radialGradient id="al" cx=".7848" cy="-3.8225" fx=".7848" fy="-3.8225" r=".9771" gradientTransform="translate(64.1787 -81.7712) scale(23.1531 -38.4417)" gradientUnits="userSpaceOnUse"><stop offset="0" stop-color="#fff"/><stop offset=".2094" stop-color="#bebebe"/><stop offset=".6923" stop-color="#1e1e1e"/><stop offset=".7813" stop-color="#000"/><stop offset="1" stop-color="#000"/></radialGradient><mask id="ak" x="61.5209" y="43.9593" width="41.7758" height="72.464" maskUnits="userSpaceOnUse"><rect x="61.5209" y="43.9593" width="41.7758" height="72.464" style="fill:url(#al);"/></mask><radialGradient id="am" cx=".7848" cy="-3.8225" fx=".7848" fy="-3.8225" r=".9771" gradientTransform="translate(64.1787 -81.7712) scale(23.1531 -38.4417)" gradientUnits="userSpaceOnUse"><stop offset="0" stop-color="#000"/><stop offset=".6266" stop-color="#3e3e3e"/><stop offset=".7813" stop-color="#4f4f4f"/><stop offset="1" stop-color="#4f4f4f"/></radialGradient><clipPath id="an"><rect x="49.2058" y="49.7218" width="59.6829" height="62.7363" style="fill:none;"/></clipPath><clipPath id="ao"><path d="m77.2983,77.3539h2.4837v24.5699h-2.4837v-24.5699Zm12.2385,27.0536l-.4446-6.4749,3.4597-3.4597-3.4597-3.4588,5.2331-5.2341-5.2331-5.2331.4446-7.2732c5.7636-2.7494,9.8428-8.6928,9.8428-15.5234,0-1.1519-.0879-2.2169-.3537-3.3699,9.8428,5.9424,15.8741,16.5864,15.9621,28.1176,0,18.095-14.6323,32.8201-32.8123,32.8201-18.0911,0-32.8123-14.6362-32.8123-32.8201,0-11.5312,6.0304-22.1752,15.9631-28.1176-.1778,1.1529-.3556,2.2179-.3556,3.3699,0,6.8306,3.9913,12.774,9.8448,15.5234v31.1337l7.3601,7.3621,7.3611-7.3621Zm-13.4804-52.7774c0-.4426.0889-.8872.1778-1.3298,1.9512-.3557,3.9903-.5325,5.9415-.5325,2.0401-.0889,3.9903.1768,5.9415.5325.0889.4426.1778.8872.1778,1.3298,0,3.3708-2.7494,6.1203-6.1193,6.1203s-6.1193-2.7494-6.1193-6.1203m-32.7889,30.9041c0,21.4629,17.454,38.9257,38.9081,38.9257s38.9081-17.4628,38.9081-38.9257-17.454-38.9257-38.9081-38.9257-38.9081,17.4619-38.9081,38.9257" style="fill:none;"/></clipPath><radialGradient id="ap" cx=".3217" cy="-2.6188" fx=".3217" fy="-2.6188" r=".9771" gradientTransform="translate(63.8436 -96.2077) scale(56.5059 -56.236)" gradientUnits="userSpaceOnUse"><stop offset="0" stop-color="#fff"/><stop offset=".5058" stop-color="#dbdbdb"/><stop offset="1" stop-color="#e3e3e3"/><stop offset="1" stop-color="#e3e3e3"/></radialGradient></defs><g style="isolation:isolate;"><g id="b"><g id="c"><rect width="128" height="128" style="fill:none;"/><path id="d" d="m99.6484,95.6895l-77.7104-10.3515c-.3108,0-.5627.2423-.5627.5411l-4.8869,35.4126c0,.2989.2519.5411.5627.5411l81.4466-3.4824c.3108,0,.5627-.2423.5627-.5411l1.1507-21.5788c0-.2989-.2519-.5411-.5627-.5411Z" style="fill:#444;"/><path id="f" d="m99.0592,117.4695H13.9369c-.3254,0-.5891-.2522-.5891-.5633V8.7305c0-.3111.2638-.5633.5891-.5633h60.1595l25.5519,25.0158v83.7232c0,.3111-.2638.5633-.5891.5633Z" style="fill:url(#e); stroke:#444; stroke-linecap:round; stroke-linejoin:round; stroke-width:1.4709px;"/><g id="g"><path d="m22.9324,35.9114h4.4648v-12.57l-3.0307,3.2877-1.8944-1.9754,4.9522-5.4256h3.8562v16.6832h4.4648v3.5176h-12.8129v-3.5176Z" style="fill:#969797;"/><path d="m45.4195,39.8214c-2.2371,0-3.91-.8746-5.0196-2.6248-1.1097-1.7408-1.6645-4.3567-1.6645-7.8476,0-3.5087.5548-6.1335,1.6645-7.8748,1.1097-1.7408,2.7778-2.6112,5.0061-2.6112,2.2371,0,3.9105.8704,5.0196,2.6112,1.1097,1.7413,1.6645,4.3661,1.6645,7.8748,0,6.9814-2.2235,10.4724-6.6706,10.4724Zm-.0136-3.3823c.9289,0,1.6055-.5637,2.0297-1.6917.4237-1.1452.6358-2.945.6358-5.3984,0-2.4623-.2121-4.2663-.6358-5.412-.4242-1.1274-1.1008-1.6912-2.0297-1.6912-.92,0-1.5919.5637-2.0161,1.6912-.4237,1.1457-.6358,2.9497-.6358,5.412,0,2.4534.2121,4.2532.6358,5.3984.4242,1.128,1.0961,1.6917,2.0161,1.6917Zm.0136-3.2339c-.1536,0-.2706-.1646-.3516-.4937-.0815-.3291-.1489-.6969-.2032-1.1029-.036-.3427-.0721-.7508-.1081-1.2246-.036-.4733-.0543-.8364-.0543-1.0893,0-.1708.0089-.4843.0272-.9404.0183-.455.0543-.8902.1081-1.3056.1264-1.0553.3114-1.583.5548-1.583.1353,0,.2523.1515.3521.4535.0987.302.1755.6881.2299,1.1567.036.3788.0695.7962.1014,1.2518.0313.4556.0475.8051.0475,1.0485,0,.1536-.0068.4509-.0204.8929s-.0475.884-.1014,1.326c-.1175,1.0736-.3114,1.6102-.582,1.6102Z" style="fill:#969797;"/><path d="m62.1022,39.8214c-2.2371,0-3.91-.8746-5.0196-2.6248-1.1097-1.7408-1.6645-4.3567-1.6645-7.8476,0-3.5087.5548-6.1335,1.6645-7.8748,1.1097-1.7408,2.7778-2.6112,5.0061-2.6112,2.2371,0,3.911.8704,5.0196,2.6112,1.1097,1.7413,1.6645,4.3661,1.6645,7.8748,0,6.9814-2.2235,10.4724-6.6706,10.4724Zm-.0136-3.3823c.9289,0,1.6055-.5637,2.0297-1.6917.4237-1.1452.6358-2.945.6358-5.3984,0-2.4623-.2121-4.2663-.6358-5.412-.4242-1.1274-1.1008-1.6912-2.0297-1.6912-.92,0-1.5919.5637-2.0161,1.6912-.4237,1.1457-.6358,2.9497-.6358,5.412,0,2.4534.2121,4.2532.6358,5.3984.4242,1.128,1.0961,1.6917,2.0161,1.6917Zm.0136-3.2339c-.1536,0-.2706-.1646-.3516-.4937-.0815-.3291-.1489-.6969-.2032-1.1029-.036-.3427-.0721-.7508-.1081-1.2246-.036-.4733-.0543-.8364-.0543-1.0893,0-.1708.0089-.4843.0272-.9404.0183-.455.0543-.8902.1081-1.3056.1264-1.0553.3114-1.583.5548-1.583.1353,0,.2523.1515.3521.4535.0987.302.1755.6881.2299,1.1567.036.3788.0695.7962.1014,1.2518.0313.4556.0475.8051.0475,1.0485,0,.1536-.0068.4509-.0204.8929s-.0475.884-.1014,1.326c-.1175,1.0736-.3114,1.6102-.582,1.6102Z" style="fill:#969797;"/><path d="m72.9815,35.9114h4.4648v-12.57l-3.0312,3.2877-1.8944-1.9754,4.9528-5.4256h3.8556v16.6832h4.4659v3.5176h-12.8135v-3.5176Z" style="fill:#969797;"/><path d="m28.7368,73.0739c-2.2371,0-3.91-.8746-5.0196-2.6248-1.1097-1.7408-1.6645-4.3572-1.6645-7.8482,0-3.5087.5548-6.1335,1.6645-7.8748,1.1097-1.7408,2.7778-2.6112,5.0061-2.6112,2.2371,0,3.9105.8704,5.0196,2.6112,1.1097,1.7413,1.6645,4.3661,1.6645,7.8748,0,6.9819-2.2235,10.4729-6.6706,10.4729Zm-.0136-3.3823c.9289,0,1.6055-.5642,2.0297-1.6917.4237-1.1452.6358-2.9455.6358-5.3989,0-2.4623-.2121-4.2663-.6358-5.412-.4242-1.1274-1.1008-1.6912-2.0297-1.6912-.92,0-1.5919.5637-2.0161,1.6912-.4237,1.1457-.6358,2.9497-.6358,5.412,0,2.4534.2121,4.2537.6358,5.3989.4242,1.1274,1.0961,1.6917,2.0161,1.6917Zm.0136-3.2339c-.1536,0-.2706-.1651-.3516-.4942-.0815-.3291-.1489-.6969-.2032-1.1029-.036-.3427-.0721-.7508-.1081-1.2246-.036-.4733-.0543-.8364-.0543-1.0893,0-.1708.0089-.4843.0272-.9404.0183-.455.0543-.8902.1081-1.3056.1264-1.0553.3114-1.583.5548-1.583.1353,0,.2523.1515.3521.4535.0987.302.1755.6881.2299,1.1567.036.3788.0695.7962.1014,1.2518.0313.4556.0475.8051.0475,1.0485,0,.1536-.0068.4509-.0204.8929s-.0475.884-.1014,1.326c-.1175,1.0736-.3114,1.6107-.582,1.6107Z" style="fill:#969797;"/><path d="m39.6151,69.1639h4.4648v-12.5705l-3.0307,3.2877-1.8944-1.9754,4.9522-5.4256h3.8562v16.6837h4.4648v3.5171h-12.8129v-3.5171Z" style="fill:#969797;"/><path d="m62.1022,73.0739c-2.2371,0-3.91-.8746-5.0196-2.6248-1.1097-1.7408-1.6645-4.3572-1.6645-7.8482,0-3.5087.5548-6.1335,1.6645-7.8748,1.1097-1.7408,2.7778-2.6112,5.0061-2.6112,2.2371,0,3.911.8704,5.0196,2.6112,1.1097,1.7413,1.6645,4.3661,1.6645,7.8748,0,6.9819-2.2235,10.4729-6.6706,10.4729Zm-.0136-3.3823c.9289,0,1.6055-.5642,2.0297-1.6917.4237-1.1452.6358-2.9455.6358-5.3989,0-2.4623-.2121-4.2663-.6358-5.412-.4242-1.1274-1.1008-1.6912-2.0297-1.6912-.92,0-1.5919.5637-2.0161,1.6912-.4237,1.1457-.6358,2.9497-.6358,5.412,0,2.4534.2121,4.2537.6358,5.3989.4242,1.1274,1.0961,1.6917,2.0161,1.6917Zm.0136-3.2339c-.1536,0-.2706-.1651-.3516-.4942-.0815-.3291-.1489-.6969-.2032-1.1029-.036-.3427-.0721-.7508-.1081-1.2246-.036-.4733-.0543-.8364-.0543-1.0893,0-.1708.0089-.4843.0272-.9404.0183-.455.0543-.8902.1081-1.3056.1264-1.0553.3114-1.583.5548-1.583.1353,0,.2523.1515.3521.4535.0987.302.1755.6881.2299,1.1567.036.3788.0695.7962.1014,1.2518.0313.4556.0475.8051.0475,1.0485,0,.1536-.0068.4509-.0204.8929s-.0475.884-.1014,1.326c-.1175,1.0736-.3114,1.6107-.582,1.6107Z" style="fill:#969797;"/><path d="m72.9815,69.1639h4.4648v-12.5705l-3.0312,3.2877-1.8944-1.9754,4.9528-5.4256h3.8556v16.6837h4.4659v3.5171h-12.8135v-3.5171Z" style="fill:#969797;"/><path d="m22.9324,102.4154h4.4648v-12.569l-3.0307,3.2872-1.8944-1.9748,4.9522-5.4261h3.8562v16.6827h4.4648v3.5181h-12.8129v-3.5181Z" style="fill:#969797;"/><path d="m39.6151,102.4154h4.4648v-12.569l-3.0307,3.2872-1.8944-1.9748,4.9522-5.4261h3.8562v16.6827h4.4648v3.5181h-12.8129v-3.5181Z" style="fill:#969797;"/><path d="m56.2978,102.4154h4.4648v-12.569l-3.0307,3.2872-1.8944-1.9748,4.9522-5.4261h3.8562v16.6827h4.4653v3.5181h-12.8135v-3.5181Z" style="fill:#969797;"/><path d="m78.7859,106.3264c-2.2371,0-3.91-.8756-5.0196-2.6258-1.1097-1.7408-1.6645-4.3561-1.6645-7.8471,0-3.5087.5548-6.1335,1.6645-7.8743s2.7773-2.6112,5.0061-2.6112c2.2371,0,3.911.8704,5.0207,2.6112,1.1076,1.7408,1.6635,4.3655,1.6635,7.8743,0,6.9819-2.2235,10.4729-6.6706,10.4729Zm-.0136-3.3833c.9289,0,1.606-.5632,2.0302-1.6906.4242-1.1462.6353-2.9455.6353-5.3989,0-2.4628-.2111-4.2663-.6353-5.4125-.4242-1.1274-1.1013-1.6906-2.0302-1.6906-.9205,0-1.5924.5632-2.0166,1.6906-.4232,1.1462-.6353,2.9497-.6353,5.4125,0,2.4534.2121,4.2527.6353,5.3989.4242,1.1274,1.0961,1.6906,2.0166,1.6906Zm.0136-3.2339c-.1536,0-.2706-.164-.3511-.4932-.0825-.3291-.1494-.6969-.2038-1.1034-.0366-.3417-.0721-.7502-.1087-1.2236-.0355-.4744-.0543-.837-.0543-1.0898,0-.1714.0094-.4848.0272-.9404.0188-.4556.0543-.8902.1087-1.3051.1264-1.0553.3114-1.583.5548-1.583.1358,0,.2529.1505.3511.4524.1003.303.1776.6886.2299,1.1577.0376.3782.0711.7962.1024,1.2507.0313.4556.0481.8056.0481,1.0491,0,.1536-.0084.4514-.0209.8934s-.0481.884-.1024,1.326c-.117,1.0731-.3093,1.6091-.581,1.6091Z" style="fill:#969797;"/></g><path id="h" d="m98.5128,34.4319l-20.7901,2.358c-.3034.0344-.5716-.1903-.5776-.484l-.0692-3.3535c-.0057-.2757.2229-.5032.5096-.5071l20.8593-.2873c.2885-.004.5246.2198.5246.4973v1.2828c0,.2521-.1962.4643-.4566.4939Z" style="fill:#444;"/><polygon id="j" points="99.2445 32.9451 74.0964 32.9451 74.0964 8.3148 99.2445 32.9451" style="fill:url(#i); stroke:#444; stroke-linejoin:round; stroke-width:1.63px;"/></g><g id="k"><g id="l"><g><g style="clip-path:url(#m);"><rect x="39.674" y="40.0325" width="85.0035" height="85.0035" style="fill:url(#n);"/></g><g><g style="mix-blend-mode:lighten; opacity:.32;"><g style="clip-path:url(#o);"><g style="clip-path:url(#p);"><g style="mask:url(#q);"><rect x="39.6906" y="40.0491" width="84.9703" height="84.9703" style="fill:url(#s);"/></g></g></g></g><g style="opacity:.44;"><g style="clip-path:url(#t);"><g style="clip-path:url(#u);"><g style="mask:url(#v);"><rect x="39.674" y="40.0325" width="85.0035" height="85.0035" style="fill:url(#x);"/></g></g></g></g><g style="opacity:.35;"><g style="clip-path:url(#y);"><path d="m82.1758,43.8363c-21.6192,0-39.2081,17.5889-39.2081,39.2081s17.5889,39.2081,39.2081,39.2081,39.2081-17.5889,39.2081-39.2081-17.5889-39.2081-39.2081-39.2081" style="fill:#0f0f0d;"/></g></g><g style="opacity:.35;"><g style="clip-path:url(#z);"><path d="m82.1758,125.036c-23.4356,0-42.5017-19.0662-42.5017-42.5017s19.0662-42.5017,42.5017-42.5017,42.5017,19.0662,42.5017,42.5017-19.0662,42.5017-42.5017,42.5017m0-84.0938c-23.4356,0-42.5017,18.8122-42.5017,41.936s19.0662,41.937,42.5017,41.937,42.5017-18.8131,42.5017-41.937-19.0662-41.936-42.5017-41.936" style="fill:#0f0f0d;"/></g></g></g><g style="clip-path:url(#aa);"><rect x="43.25" y="43.6085" width="77.8515" height="77.8515" style="fill:url(#ab);"/></g><g><g style="mix-blend-mode:multiply; opacity:.13;"><g style="clip-path:url(#ac);"><g style="clip-path:url(#ad);"><rect x="43.25" y="43.6085" width="77.8515" height="77.8515" style="fill:url(#ae);"/></g></g></g><g style="mix-blend-mode:lighten;"><g style="clip-path:url(#af);"><g style="clip-path:url(#ag);"><rect x="70.5811" y="46.8445" width="23.1893" height="23.1893" style="fill:url(#ah);"/></g></g></g><g style="mix-blend-mode:multiply; opacity:.3;"><g style="clip-path:url(#ai);"><g style="clip-path:url(#aj);"><g style="mask:url(#ak);"><rect x="61.5209" y="43.9593" width="41.7758" height="72.464" style="fill:url(#am);"/></g></g></g></g><g style="mix-blend-mode:multiply; opacity:.2;"><g style="clip-path:url(#an);"><path d="m61.3359,107.9594c-6.9078-6.0069-11.281-14.8629-11.281-24.7722,0-11.5312,6.0304-22.1752,15.9631-28.1186-.1778,1.1529-.3547,2.2179-.3547,3.3708,0,6.8296,3.9903,12.773,9.8438,15.5224v31.1337l7.3601,7.3621,7.3611-7.3621-.4436-6.4749,3.4588-3.4597-3.4588-3.4588,5.2321-5.2331-5.2321-5.2341.4436-7.2732c5.7636-2.7494,9.8438-8.6928,9.8438-15.5224,0-1.1529-.0889-2.2179-.3547-3.3708,3.6034,2.1759,6.6938,4.9839,9.1716,8.2336-5.9913-8.2277-15.7237-13.58-26.7136-13.58-18.2083,0-32.9696,14.69-32.9696,32.8123,0,10.2542,4.727,19.4082,12.1301,25.4248m19.1375-5.3474h-2.4827v-24.5699h2.4827v24.5699Zm-3.5477-51.6235c1.9512-.3547,3.9903-.5325,5.9414-.5325,2.0401-.0889,3.9913.1778,5.9424.5325.0879.4436.1768.8872.1768,1.3308,0,3.3708-2.7494,6.1203-6.1193,6.1203s-6.1193-2.7494-6.1193-6.1203c0-.4436.0889-.8872.1778-1.3308" style="fill:#0f0f0d;"/></g></g></g><g style="clip-path:url(#ao);"><rect x="43.2676" y="43.6085" width="77.8163" height="77.8515" style="fill:url(#ap);"/></g></g></g></g></g></g></svg>