<?xml version="1.0" encoding="UTF-8"?><svg xmlns="http://www.w3.org/2000/svg" xmlns:xlink="http://www.w3.org/1999/xlink" viewBox="0 0 128 128"><defs><radialGradient id="e" cx="45.2448" cy="30.458" fx="45.2448" fy="30.458" r="81.9515" gradientTransform="translate(0 .2216) scale(1 .9616)" gradientUnits="userSpaceOnUse"><stop offset="0" stop-color="#fff"/><stop offset="1" stop-color="#e4e4e4"/></radialGradient><linearGradient id="i" x1="90.1551" y1="17.6115" x2="71.1468" y2="34.0769" gradientUnits="userSpaceOnUse"><stop offset="0" stop-color="#fff"/><stop offset="1" stop-color="#adadad"/></linearGradient><linearGradient id="l" x1="81.9988" y1="35.5291" x2="81.9988" y2="120.7632" gradientUnits="userSpaceOnUse"><stop offset="0" stop-color="#414141"/><stop offset=".196" stop-color="#3e3e3e"/><stop offset="1" stop-color="#3a3a3a"/></linearGradient><radialGradient id="n" cx="491.9784" cy="94.7777" fx="491.9784" fy="94.7777" r="145.0197" gradientTransform="translate(-94.8078 41.726) scale(.3539)" gradientUnits="userSpaceOnUse"><stop offset=".6733" stop-color="#fcfcfc" stop-opacity="0"/><stop offset="1" stop-color="#fcfcfc"/></radialGradient><radialGradient id="p" cx="497.8187" cy="113.8802" fx="497.8187" fy="113.8802" r="120.6359" gradientTransform="translate(-94.8078 41.726) scale(.3539)" gradientUnits="userSpaceOnUse"><stop offset=".1088" stop-color="#0f0f0d" stop-opacity="0"/><stop offset=".8856" stop-color="#414141" stop-opacity="0"/><stop offset=".9339" stop-color="#1e1e1d" stop-opacity=".6841"/><stop offset=".9874" stop-color="#0f0f0d"/></radialGradient><radialGradient id="t" cx="501.8393" cy="41.5468" fx="501.8393" fy="41.5468" r="234.3144" gradientTransform="translate(-94.8078 47.9453) scale(.3539 .2026)" gradientUnits="userSpaceOnUse"><stop offset="0" stop-color="#2e6b26"/><stop offset="1" stop-color="#6ab536"/></radialGradient><radialGradient id="v" cx="500.0862" cy="40.3112" fx="500.0862" fy="40.3112" r="45.7609" gradientTransform="translate(-94.8078 41.726) scale(.3539)" gradientUnits="userSpaceOnUse"><stop offset="0" stop-color="#6ab536"/><stop offset="1" stop-color="#2e6b26"/></radialGradient><radialGradient id="x" cx="522.417" cy="69.7272" fx="522.417" fy="69.7272" r="67.589" gradientTransform="translate(-93.3852 26.3712) scale(.3356 .5572)" gradientUnits="userSpaceOnUse"><stop offset="0" stop-color="#000"/><stop offset=".7842" stop-color="#4f4f4f" stop-opacity="0"/></radialGradient><radialGradient id="aa" cx="499.1115" cy="26.557" fx="499.1115" fy="26.557" r="156.4096" gradientTransform="translate(-94.8078 41.726) scale(.3539)" gradientUnits="userSpaceOnUse"><stop offset="0" stop-color="#f5f5f5"/><stop offset=".5481" stop-color="#f2f2f2"/></radialGradient></defs><g style="isolation:isolate;"><g id="b"><g id="c"><rect width="128" height="128" style="fill:none; stroke-width:0px;"/><path id="d" d="m99.6484,95.6895l-77.7104-10.3515c-.3108,0-.5627.2423-.5627.5411l-4.8869,35.4126c0,.2989.2519.5411.5627.5411l81.4466-3.4824c.3108,0,.5627-.2423.5627-.5411l1.1507-21.5788c0-.2989-.2519-.5411-.5627-.5411Z" style="fill:#444; stroke-width:0px;"/><path id="f" d="m99.0592,117.4695H13.9369c-.3254,0-.5891-.2522-.5891-.5633V8.7305c0-.3111.2638-.5633.5891-.5633h60.1595l25.5519,25.0158v83.7232c0,.3111-.2638.5633-.5891.5633Z" style="fill:url(#e); stroke:#444; stroke-linecap:round; stroke-linejoin:round; stroke-width:1.4709px;"/><g id="g"><path d="m22.9324,35.9114h4.4648v-12.57l-3.0307,3.2877-1.8944-1.9754,4.9522-5.4256h3.8562v16.6832h4.4648v3.5176h-12.8129v-3.5176Z" style="fill:#969797; stroke-width:0px;"/><path d="m45.4195,39.8214c-2.2371,0-3.91-.8746-5.0196-2.6248-1.1097-1.7408-1.6645-4.3567-1.6645-7.8476,0-3.5087.5548-6.1335,1.6645-7.8748,1.1097-1.7408,2.7778-2.6112,5.0061-2.6112,2.2371,0,3.9105.8704,5.0196,2.6112,1.1097,1.7413,1.6645,4.3661,1.6645,7.8748,0,6.9814-2.2235,10.4724-6.6706,10.4724Zm-.0136-3.3823c.9289,0,1.6055-.5637,2.0297-1.6917.4237-1.1452.6358-2.945.6358-5.3984,0-2.4623-.2121-4.2663-.6358-5.412-.4242-1.1274-1.1008-1.6912-2.0297-1.6912-.92,0-1.5919.5637-2.0161,1.6912-.4237,1.1457-.6358,2.9497-.6358,5.412,0,2.4534.2121,4.2532.6358,5.3984.4242,1.128,1.0961,1.6917,2.0161,1.6917Zm.0136-3.2339c-.1536,0-.2706-.1646-.3516-.4937-.0815-.3291-.1489-.6969-.2032-1.1029-.036-.3427-.0721-.7508-.1081-1.2246-.036-.4733-.0543-.8364-.0543-1.0893,0-.1708.0089-.4843.0272-.9404.0183-.455.0543-.8902.1081-1.3056.1264-1.0553.3114-1.583.5548-1.583.1353,0,.2523.1515.3521.4535.0987.302.1755.6881.2299,1.1567.036.3788.0695.7962.1014,1.2518.0313.4556.0475.8051.0475,1.0485,0,.1536-.0068.4509-.0204.8929s-.0475.884-.1014,1.326c-.1175,1.0736-.3114,1.6102-.582,1.6102Z" style="fill:#969797; stroke-width:0px;"/><path d="m62.1022,39.8214c-2.2371,0-3.91-.8746-5.0196-2.6248-1.1097-1.7408-1.6645-4.3567-1.6645-7.8476,0-3.5087.5548-6.1335,1.6645-7.8748,1.1097-1.7408,2.7778-2.6112,5.0061-2.6112,2.2371,0,3.911.8704,5.0196,2.6112,1.1097,1.7413,1.6645,4.3661,1.6645,7.8748,0,6.9814-2.2235,10.4724-6.6706,10.4724Zm-.0136-3.3823c.9289,0,1.6055-.5637,2.0297-1.6917.4237-1.1452.6358-2.945.6358-5.3984,0-2.4623-.2121-4.2663-.6358-5.412-.4242-1.1274-1.1008-1.6912-2.0297-1.6912-.92,0-1.5919.5637-2.0161,1.6912-.4237,1.1457-.6358,2.9497-.6358,5.412,0,2.4534.2121,4.2532.6358,5.3984.4242,1.128,1.0961,1.6917,2.0161,1.6917Zm.0136-3.2339c-.1536,0-.2706-.1646-.3516-.4937-.0815-.3291-.1489-.6969-.2032-1.1029-.036-.3427-.0721-.7508-.1081-1.2246-.036-.4733-.0543-.8364-.0543-1.0893,0-.1708.0089-.4843.0272-.9404.0183-.455.0543-.8902.1081-1.3056.1264-1.0553.3114-1.583.5548-1.583.1353,0,.2523.1515.3521.4535.0987.302.1755.6881.2299,1.1567.036.3788.0695.7962.1014,1.2518.0313.4556.0475.8051.0475,1.0485,0,.1536-.0068.4509-.0204.8929s-.0475.884-.1014,1.326c-.1175,1.0736-.3114,1.6102-.582,1.6102Z" style="fill:#969797; stroke-width:0px;"/><path d="m72.9815,35.9114h4.4648v-12.57l-3.0312,3.2877-1.8944-1.9754,4.9528-5.4256h3.8556v16.6832h4.4659v3.5176h-12.8135v-3.5176Z" style="fill:#969797; stroke-width:0px;"/><path d="m28.7368,73.0739c-2.2371,0-3.91-.8746-5.0196-2.6248-1.1097-1.7408-1.6645-4.3572-1.6645-7.8482,0-3.5087.5548-6.1335,1.6645-7.8748,1.1097-1.7408,2.7778-2.6112,5.0061-2.6112,2.2371,0,3.9105.8704,5.0196,2.6112,1.1097,1.7413,1.6645,4.3661,1.6645,7.8748,0,6.9819-2.2235,10.4729-6.6706,10.4729Zm-.0136-3.3823c.9289,0,1.6055-.5642,2.0297-1.6917.4237-1.1452.6358-2.9455.6358-5.3989,0-2.4623-.2121-4.2663-.6358-5.412-.4242-1.1274-1.1008-1.6912-2.0297-1.6912-.92,0-1.5919.5637-2.0161,1.6912-.4237,1.1457-.6358,2.9497-.6358,5.412,0,2.4534.2121,4.2537.6358,5.3989.4242,1.1274,1.0961,1.6917,2.0161,1.6917Zm.0136-3.2339c-.1536,0-.2706-.1651-.3516-.4942-.0815-.3291-.1489-.6969-.2032-1.1029-.036-.3427-.0721-.7508-.1081-1.2246-.036-.4733-.0543-.8364-.0543-1.0893,0-.1708.0089-.4843.0272-.9404.0183-.455.0543-.8902.1081-1.3056.1264-1.0553.3114-1.583.5548-1.583.1353,0,.2523.1515.3521.4535.0987.302.1755.6881.2299,1.1567.036.3788.0695.7962.1014,1.2518.0313.4556.0475.8051.0475,1.0485,0,.1536-.0068.4509-.0204.8929s-.0475.884-.1014,1.326c-.1175,1.0736-.3114,1.6107-.582,1.6107Z" style="fill:#969797; stroke-width:0px;"/><path d="m39.6151,69.1639h4.4648v-12.5705l-3.0307,3.2877-1.8944-1.9754,4.9522-5.4256h3.8562v16.6837h4.4648v3.5171h-12.8129v-3.5171Z" style="fill:#969797; stroke-width:0px;"/><path d="m62.1022,73.0739c-2.2371,0-3.91-.8746-5.0196-2.6248-1.1097-1.7408-1.6645-4.3572-1.6645-7.8482,0-3.5087.5548-6.1335,1.6645-7.8748,1.1097-1.7408,2.7778-2.6112,5.0061-2.6112,2.2371,0,3.911.8704,5.0196,2.6112,1.1097,1.7413,1.6645,4.3661,1.6645,7.8748,0,6.9819-2.2235,10.4729-6.6706,10.4729Zm-.0136-3.3823c.9289,0,1.6055-.5642,2.0297-1.6917.4237-1.1452.6358-2.9455.6358-5.3989,0-2.4623-.2121-4.2663-.6358-5.412-.4242-1.1274-1.1008-1.6912-2.0297-1.6912-.92,0-1.5919.5637-2.0161,1.6912-.4237,1.1457-.6358,2.9497-.6358,5.412,0,2.4534.2121,4.2537.6358,5.3989.4242,1.1274,1.0961,1.6917,2.0161,1.6917Zm.0136-3.2339c-.1536,0-.2706-.1651-.3516-.4942-.0815-.3291-.1489-.6969-.2032-1.1029-.036-.3427-.0721-.7508-.1081-1.2246-.036-.4733-.0543-.8364-.0543-1.0893,0-.1708.0089-.4843.0272-.9404.0183-.455.0543-.8902.1081-1.3056.1264-1.0553.3114-1.583.5548-1.583.1353,0,.2523.1515.3521.4535.0987.302.1755.6881.2299,1.1567.036.3788.0695.7962.1014,1.2518.0313.4556.0475.8051.0475,1.0485,0,.1536-.0068.4509-.0204.8929s-.0475.884-.1014,1.326c-.1175,1.0736-.3114,1.6107-.582,1.6107Z" style="fill:#969797; stroke-width:0px;"/><path d="m72.9815,69.1639h4.4648v-12.5705l-3.0312,3.2877-1.8944-1.9754,4.9528-5.4256h3.8556v16.6837h4.4659v3.5171h-12.8135v-3.5171Z" style="fill:#969797; stroke-width:0px;"/><path d="m22.9324,102.4154h4.4648v-12.569l-3.0307,3.2872-1.8944-1.9748,4.9522-5.4261h3.8562v16.6827h4.4648v3.5181h-12.8129v-3.5181Z" style="fill:#969797; stroke-width:0px;"/><path d="m39.6151,102.4154h4.4648v-12.569l-3.0307,3.2872-1.8944-1.9748,4.9522-5.4261h3.8562v16.6827h4.4648v3.5181h-12.8129v-3.5181Z" style="fill:#969797; stroke-width:0px;"/><path d="m56.2978,102.4154h4.4648v-12.569l-3.0307,3.2872-1.8944-1.9748,4.9522-5.4261h3.8562v16.6827h4.4653v3.5181h-12.8135v-3.5181Z" style="fill:#969797; stroke-width:0px;"/><path d="m78.7859,106.3264c-2.2371,0-3.91-.8756-5.0196-2.6258-1.1097-1.7408-1.6645-4.3561-1.6645-7.8471,0-3.5087.5548-6.1335,1.6645-7.8743s2.7773-2.6112,5.0061-2.6112c2.2371,0,3.911.8704,5.0207,2.6112,1.1076,1.7408,1.6635,4.3655,1.6635,7.8743,0,6.9819-2.2235,10.4729-6.6706,10.4729Zm-.0136-3.3833c.9289,0,1.606-.5632,2.0302-1.6906.4242-1.1462.6353-2.9455.6353-5.3989,0-2.4628-.2111-4.2663-.6353-5.4125-.4242-1.1274-1.1013-1.6906-2.0302-1.6906-.9205,0-1.5924.5632-2.0166,1.6906-.4232,1.1462-.6353,2.9497-.6353,5.4125,0,2.4534.2121,4.2527.6353,5.3989.4242,1.1274,1.0961,1.6906,2.0166,1.6906Zm.0136-3.2339c-.1536,0-.2706-.164-.3511-.4932-.0825-.3291-.1494-.6969-.2038-1.1034-.0366-.3417-.0721-.7502-.1087-1.2236-.0355-.4744-.0543-.837-.0543-1.0898,0-.1714.0094-.4848.0272-.9404.0188-.4556.0543-.8902.1087-1.3051.1264-1.0553.3114-1.583.5548-1.583.1358,0,.2529.1505.3511.4524.1003.303.1776.6886.2299,1.1577.0376.3782.0711.7962.1024,1.2507.0313.4556.0481.8056.0481,1.0491,0,.1536-.0084.4514-.0209.8934s-.0481.884-.1024,1.326c-.117,1.0731-.3093,1.6091-.581,1.6091Z" style="fill:#969797; stroke-width:0px;"/></g><path id="h" d="m98.5128,34.4319l-20.7901,2.358c-.3034.0344-.5716-.1903-.5776-.484l-.0692-3.3535c-.0057-.2757.2229-.5032.5096-.5071l20.8593-.2873c.2885-.004.5246.2198.5246.4973v1.2828c0,.2521-.1962.4643-.4566.4939Z" style="fill:#444; stroke-width:0px;"/><polygon id="j" points="99.2445 32.9451 74.0964 32.9451 74.0964 8.3148 99.2445 32.9451" style="fill:url(#i); stroke:#444; stroke-linejoin:round; stroke-width:1.63px;"/></g><g id="k"><rect x="37.2125" y="37.8482" width="89.5728" height="89.5728" style="fill:none; stroke-width:0px;"/><path id="m" d="m81.9989,125.2517c-23.4992,0-42.6172-19.118-42.6172-42.6171s19.1179-42.6171,42.6172-42.6171,42.617,19.1179,42.617,42.6171-19.1177,42.6171-42.617,42.6171Zm0-81.6484c-21.5125,0-39.0142,17.5094-39.0142,39.0313s17.5017,39.0313,39.0142,39.0313,39.014-17.5095,39.014-39.0313-17.5015-39.0313-39.014-39.0313Z" style="fill:url(#l); stroke-width:0px;"/><path id="o" d="m81.9989,40.0342c-23.4901,0-42.6005,19.1104-42.6005,42.6004s19.1104,42.6004,42.6005,42.6004,42.6003-19.1106,42.6003-42.6004-19.1103-42.6004-42.6003-42.6004Z" style="fill:url(#n); mix-blend-mode:lighten; opacity:.32; stroke-width:0px;"/><path id="q" d="m81.9989,125.2517c-23.4992,0-42.6172-19.118-42.6172-42.6171s19.1179-42.6171,42.6172-42.6171,42.617,19.1179,42.617,42.6171-19.1177,42.6171-42.617,42.6171Zm0-81.6484c-21.5125,0-39.0142,17.5094-39.0142,39.0313s17.5017,39.0313,39.0142,39.0313,39.014-17.5095,39.014-39.0313-17.5015-39.0313-39.014-39.0313Z" style="fill:url(#p); opacity:.44; stroke-width:0px;"/><path id="r" d="m81.9989,43.8316c-21.6783,0-39.3147,17.6364-39.3147,39.3146s17.6364,39.3146,39.3147,39.3146,39.3145-17.6366,39.3145-39.3146-17.6363-39.3146-39.3145-39.3146Z" style="fill:rgba(15,15,13,.35); stroke-width:0px;"/><path id="s" d="m81.9989,125.2517c-23.4992,0-42.6172-19.118-42.6172-42.6171s19.1179-42.6171,42.6172-42.6171,42.617,19.1179,42.617,42.6171-19.1177,42.6171-42.617,42.6171Zm0-84.322c-23.4992,0-42.6172,18.8636-42.6172,42.0501s19.118,42.0501,42.6172,42.0501,42.617-18.8638,42.617-42.0501-19.1178-42.0501-42.617-42.0501Z" style="fill:#0f0f0d; opacity:.35; stroke-width:0px;"/><path id="u" d="m81.9989,43.6033c-21.522,0-39.0314,17.5093-39.0314,39.0313s17.5093,39.0313,39.0314,39.0313,39.0312-17.5095,39.0312-39.0313-17.5092-39.0313-39.0312-39.0313Z" style="fill:url(#t); stroke-width:0px;"/><path id="w" d="m81.9988,46.8484c-6.4106,0-11.626,5.2154-11.626,11.6259s5.2154,11.6259,11.626,11.6259,11.6259-5.2154,11.6259-11.6259-5.2153-11.6259-11.6259-11.6259Z" style="fill:url(#v); mix-blend-mode:lighten; opacity:.7; stroke-width:0px;"/><path id="y" d="m61.4861,49.2998c-.0019.0134-.0038.0264-.0056.0398-.0507.0095-.0515-.0026.0056-.0398Zm29.4734,25.0525l-.5398,9.6446,6.3697,6.9394-6.3697,6.9394,4.2105,4.5871-4.2105,4.5871.5398,9.5658h-17.9216v-42.2634c-7.1255-3.6462-11.9837-11.5265-11.9837-20.583,0-1.5157.2122-2.9161.4262-4.4297.773-.1457,13.2731-5.3847,13.2731-5.3847-.1038.5663,14.5942.5663,14.4904,0,0,0,12.0767,5.1964,13.2884,5.4512.3065,1.488.411,2.8698.411,4.3631,0,9.0565-4.9662,16.9369-11.9837,20.583Zm11.5519-25.0525c.0076.0358.0135.0708.0209.1064.1327.0279.1372-.0025-.0209-.1064Z" style="fill:url(#x); mix-blend-mode:multiply; opacity:.3; stroke-width:0px;"/><path id="z" d="m61.0865,108.1292c-6.9263-6.0238-11.3114-14.9033-11.3114-24.8402,0-11.5624,6.0468-22.2353,16.0061-28.1944-.1778,1.1562-.3557,2.2235-.3557,3.3798,0,6.8485,4.0015,12.8075,9.8704,15.5647v31.2184l7.3806,7.3821,7.3806-7.3821-.4446-6.4927,3.468-3.4687-3.468-3.4687,5.2464-5.2475-5.2464-5.2475.4446-7.2932c5.78-2.7572,9.8704-8.7163,9.8704-15.5647,0-1.1562-.0889-2.2235-.3557-3.3798,3.6139,2.1818,6.7125,4.9976,9.1965,8.2556-6.0071-8.2497-15.7657-13.617-26.7855-13.617-18.2582,0-33.0594,14.7305-33.0594,32.9015,0,10.282,4.7401,19.4612,12.163,25.4945Zm19.1892-5.362h-2.4898v-24.6368h2.4898v24.6368Zm-3.5569-51.7639c1.9563-.3558,4.0015-.5336,5.9578-.5336,2.0452-.089,4.0015.1779,5.9578.5336.0889.4447.1779.8894.1779,1.3341,0,3.3798-2.7566,6.137-6.1357,6.137s-6.1357-2.7572-6.1357-6.137c0-.4447.089-.8894.1779-1.3341Z" style="fill:#0f0f0d; mix-blend-mode:multiply; opacity:.2; stroke-width:0px;"/><path id="ab" d="m81.9989,43.6033c-21.5125,0-39.0142,17.5093-39.0142,39.0313s17.5017,39.0313,39.0142,39.0313,39.014-17.5095,39.014-39.0313-17.5015-39.0313-39.014-39.0313Zm-5.9578,6.7097c1.9563-.3558,4.0015-.5336,5.9578-.5336,2.0452-.089,4.0015.1779,5.9578.5336.0889.4447.1779.8894.1779,1.3341,0,3.3798-2.7566,6.137-6.1357,6.137s-6.1357-2.7572-6.1357-6.137c0-.4447.089-.8894.1779-1.3341Zm3.5569,27.1271v24.6368h-2.4898v-24.6368h2.4898Zm2.4009,38.0669c-18.1403,0-32.9014-14.6753-32.9014-32.9083,0-11.5624,6.0468-22.2353,16.0061-28.1944-.1778,1.1562-.3557,2.2235-.3557,3.3798,0,6.8485,4.0015,12.8075,9.8704,15.5647v31.2184l7.3806,7.3821,7.3806-7.3821-.4446-6.4927,3.468-3.4687-3.468-3.4687,5.2464-5.2475-5.2464-5.2475.4446-7.2932c5.78-2.7572,9.8704-8.7163,9.8704-15.5647,0-1.1562-.0889-2.2235-.3557-3.3798,9.8704,5.9591,15.9172,16.632,16.0061,28.1944,0,18.144-14.6723,32.9083-32.9014,32.9083Z" style="fill:url(#aa); stroke-width:0px;"/></g></g></g></svg>