<svg version="1" xmlns="http://www.w3.org/2000/svg" viewBox="0 0 48 48" enable-background="new 0 0 48 48"><path fill="#7cb342" d="M24 4C13 4 4 13 4 24s9 20 20 20 20-9 20-20S35 4 24 4z"/><path fill="#0277bd" d="M45 24c0 11.7-9.5 21-21 21S3 35.7 3 24 12.3 3 24 3s21 9.3 21 21zM23.8 33.7c0-.4-.2-.6-.6-.8-1.3-.4-2.5-.4-3.6-1.5-.2-.4-.2-.8-.4-1.3-.4-.4-1.5-.6-2.1-.8-.8.0-1.7.0-2.7.0-.4.0-1.1.0-1.5.0-.6-.2-1.1-1.1-1.5-1.7.0-.2.0-.6-.4-.6-.4-.2-.8.2-1.3.0-.2-.2-.2-.4-.2-.6.0-.6.4-1.3.8-1.7.6-.4 1.3.2 1.9.2.2.0.2.0.4.2.6.2.8 1 .8 1.7.0.2.0.4.0.4.0.2.2.2.4.2.2-1.1.2-2.1.4-3.2.0-1.3 1.3-2.5 2.3-2.9.4-.2.6.2 1.1.0 1.3-.4 4.4-1.7 3.8-3.4-.4-1.5-1.7-2.9-3.4-2.7-.4.2-.6.4-1 .6-.6.4-1.9 1.7-2.5 1.7-1.1-.2-1.1-1.7-.8-2.3.2-.8 2.1-3.6 3.4-3.1.2.2.6.6.8.8.4.2 1.1.2 1.7.2.2.0.4.0.6-.2.2-.2.2-.2.2-.4.0-.6-.6-1.3-1-1.7-.4-.4-1.1-.8-1.7-1.1-2.1-.6-5.5.2-7.1 1.7s-2.9 4-3.8 6.1c-.4 1.3-.8 2.9-1 4.4-.2 1-.4 1.9.2 2.9.6 1.3 1.9 2.5 3.2 3.4.8.6 2.5.6 3.4 1.7.6.8.4 1.9.4 2.9.0 1.3.8 2.3 1.3 3.4.2.6.4 1.5.6 2.1.0.2.2 1.5.2 1.7 1.3.6 2.3 1.3 3.8 1.7.2.0 1-1.3 1-1.5.6-.6 1.1-1.5 1.7-1.9.4-.2.8-.4 1.3-.8.4-.4.6-1.3.8-1.9C23.8 35.1 24 34.3 23.8 33.7zM24.2 14.3c.2.0.4-.2.8-.4.6-.4 1.3-1.1 1.9-1.5.6-.4 1.3-1.1 1.7-1.5.6-.4 1.1-1.3 1.3-1.9.2-.4.8-1.3.6-1.9-.2-.4-1.3-.6-1.7-.8-1.7-.4-3.1-.6-4.8-.6-.6.0-1.5.2-1.7.8-.2 1.1.6.8 1.5 1.1.0.0.2 1.7.2 1.9.2 1-.4 1.7-.4 2.7.0.6.0 1.7.4 2.1L24.2 14.3zM41.8 29c.2-.4.2-1.1.4-1.5.2-1 .2-2.1.2-3.1.0-2.1-.2-4.2-.8-6.1-.4-.6-.6-1.3-.8-1.9-.4-1.1-1-2.1-1.9-2.9-.8-1.1-1.9-4-3.8-3.1-.6.2-1 1-1.5 1.5-.4.6-.8 1.3-1.3 1.9-.2.2-.4.6-.2.8.0.2.2.2.4.2.4.2.6.2 1 .4.2.0.4.2.2.4.0.0.0.2-.2.2-1 1.1-2.1 1.9-3.1 2.9-.2.2-.4.6-.4.8s.2.2.2.4-.2.2-.4.4c-.4.2-.8.4-1.1.6-.2.4.0 1.1-.2 1.5-.2 1.1-.8 1.9-1.3 2.9-.4.6-.6 1.3-1 1.9.0.8-.2 1.5.2 2.1 1 1.5 2.9.6 4.4 1.3.4.2.8.2 1.1.6.6.6.6 1.7.8 2.3.2.8.4 1.7.8 2.5.2 1 .6 2.1.8 2.9 1.9-1.5 3.6-3.1 4.8-5.2C40.6 32.4 41.2 30.7 41.8 29z"/></svg>