<svg version="1" xmlns="http://www.w3.org/2000/svg" viewBox="0 0 48 48" enable-background="new 0 0 48 48"><path fill="#e65100" d="M25.6 34.4c.1-.4.1-.9.1-1.4s0-.9-.1-1.4l2.8-2c.3-.2.4-.6.2-.9l-2.7-4.6c-.2-.3-.5-.4-.8-.3L22 25.3c-.7-.6-1.5-1-2.4-1.4l-.3-3.4c0-.3-.3-.6-.6-.6h-5.3c-.3.0-.6.3-.6.6L12.4 24c-.9.3-1.6.8-2.4 1.4L6.9 24c-.3-.1-.7.0-.8.3l-2.7 4.6c-.2.3-.1.7.2.9l2.8 2c-.1.4-.1.9-.1 1.4s0 .9.1 1.4l-2.8 2c-.3.2-.4.6-.2.9l2.7 4.6c.2.3.5.4.8.3L10 41c.7.6 1.5 1 2.4 1.4l.3 3.4c0 .3.3.6.6.6h5.3c.3.0.6-.3.6-.6l.3-3.4c.9-.3 1.6-.8 2.4-1.4l3.1 1.4c.3.1.7.0.8-.3l2.7-4.6c.2-.3.1-.7-.2-.9l-2.7-2.2zM16 38c-2.8.0-5-2.2-5-5 0-2.8 2.2-5 5-5s5 2.2 5 5-2.2 5-5 5z"/><path fill="#ffa000" d="M41.9 15.3C42 14.8 42 14.4 42 14s0-.8-.1-1.3l2.5-1.8c.3-.2.3-.5.2-.8l-2.5-4.3c-.2-.3-.5-.4-.8-.2l-2.9 1.3c-.7-.5-1.4-.9-2.2-1.3l-.3-3.1C36 2.2 35.8 2 35.5 2h-4.9c-.3.0-.6.2-.6.5l-.3 3.1c-.8.3-1.5.7-2.2 1.3l-2.9-1.3c-.3-.1-.6.0-.8.2l-2.5 4.3c-.2.3-.1.6.2.8l2.5 1.8C24 13.2 24 13.6 24 14s0 .8.1 1.3l-2.5 1.8c-.3.2-.3.5-.2.8l2.5 4.3c.2.3.5.4.8.2l2.9-1.3c.7.5 1.4.9 2.2 1.3l.3 3.1c0 .3.3.5.6.5h4.9c.3.0.6-.2.6-.5l.3-3.1c.8-.3 1.5-.7 2.2-1.3l2.9 1.3c.3.1.6.0.8-.2l2.5-4.3c.2-.3.1-.6-.2-.8l-2.8-1.8zM33 19c-2.8.0-5-2.2-5-5s2.2-5 5-5 5 2.2 5 5-2.2 5-5 5z"/></svg>