<svg viewBox="0 0 48 48" xmlns="http://www.w3.org/2000/svg" xmlns:xlink="http://www.w3.org/1999/xlink" xmlns:serif="http://www.serif.com/" style="fill-rule:evenodd;clip-rule:evenodd;stroke-linejoin:round;stroke-miterlimit:2"><g transform="matrix(2,0,0,2,0,-2056.8)"><g transform="matrix(0.911796,0,0,0.873805,0.555331,131.585)"><path d="M5 1030.4C3.895 1030.4 3 1031.3 3 1032.4v18c0 1.09999999999991.895 2 2 2H19c1.105.0 2-.900000000000091 2-2v-18c0-1.10000000000014-.895-2-2-2H5z" style="fill:#d8d8d8;fill-rule:nonzero"/></g><g transform="matrix(0.911796,0,0,0.873805,0.555331,131.585)"><path d="M6 1028.4C5.448 1028.4 5 1028.8 5 1029.4v3c0 .5.448 1 1 1s1-.5 1-1v-3c0-.600000000000136-.448-1-1-1zm4 0C9.448 1028.4 9 1028.8 9 1029.4v3c0 .5.448 1 1 1s1-.5 1-1v-3c0-.600000000000136-.448-1-1-1zm4 0c-.552.0-1 .399999999999864-1 1v3c0 .5.448 1 1 1s1-.5 1-1v-3c0-.600000000000136-.448-1-1-1zm4 0c-.552.0-1 .399999999999864-1 1v3c0 .5.448 1 1 1s1-.5 1-1v-3c0-.600000000000136-.448-1-1-1z" style="fill:#95a5a6;fill-rule:nonzero"/><rect x="6" y="1043.4" width="12" height="1" style="fill:#95a5a6"/><rect x="6" y="1040.4" width="12" height="1" style="fill:#95a5a6"/><rect x="6" y="1037.4" width="12" height="1" style="fill:#95a5a6"/><g transform="matrix(1,0,0,1,0,1028.4)"><rect x="6" y="18" width="4" height="1" style="fill:#95a5a6"/></g></g><g transform="matrix(0.911796,0,0,0.873805,0.555331,131.585)"><path d="M5 1032.4c0 .5.448 1 1 1s1-.5 1-1H5zm4 0c0 .5.448 1 1 1s1-.5 1-1H9zm4 0c0 .5.448 1 1 1s1-.5 1-1H13zm4 0c0 .5.448 1 1 1s1-.5 1-1H17z" style="fill:#7f8c8d;fill-rule:nonzero"/></g><g transform="matrix(0.911796,0,0,0.873805,0.555331,131.585)"><path d="M3 1049.4v1c0 1.09999999999991.895 2 2 2H19c1.105.0 2-.900000000000091 2-2v-1c0 1.09999999999991-.895 2-2 2H5C3.895 1051.4 3 1050.5 3 1049.4z" style="fill:#95a5a6;fill-rule:nonzero"/></g><g transform="matrix(0.64474,0.617876,-0.64474,0.617876,705.61,455.249)"><path d="M-63 1003.4v13l2 2 2-2v-13h-4z" style="fill:#ecf0f1;fill-rule:nonzero"/><path d="M-61 1003.4v15l2-2v-13h-2z" style="fill:#bdc3c7;fill-rule:nonzero"/><rect x="-63" y="1004.4" width="4" height="11" style="fill:#e67e22"/><path d="M-61 1000.4c-1.105.0-2 .899999999999977-2 2v1h4v-1C-59 1001.3-59.895 1000.4-61 1000.4z" style="fill:#7f8c8d;fill-rule:nonzero"/><g transform="matrix(1,0,0,1,-7,1)"><path d="M-55.406 1016-54 1017.4-52.594 1016h-2.812z" style="fill:#34495e;fill-rule:nonzero"/><path d="M-54 1016V1017.4L-52.594 1016H-54z" style="fill:#2c3e50;fill-rule:nonzero"/></g><path d="M-61 1000.4c-1.105.0-2 .899999999999977-2 2v1h2v-3z" style="fill:#95a5a6;fill-rule:nonzero"/><rect x="-61" y="1004.4" width="2" height="11" style="fill:#d35400"/></g></g></svg>