<svg version="1" xmlns="http://www.w3.org/2000/svg" viewBox="0 0 48 48" enable-background="new 0 0 48 48"><path fill="#673ab7" d="M38 44H12V4h26c2.2.0 4 1.8 4 4v32c0 2.2-1.8 4-4 4z"/><path fill="#311b92" d="M10 4h2v40h-2c-2.2.0-4-1.8-4-4V8c0-2.2 1.8-4 4-4z"/><path fill="#fff" d="M36 24.2c-.1 4.8-3.1 6.9-5.3 6.7-.6-.1-2.1-.1-2.9-1.6-.8 1-1.8 1.6-3.1 1.6-2.6.0-3.3-2.5-3.4-3.1-.1-.7-.2-1.4-.1-2.2.1-1 1.1-6.5 5.7-6.5 2.2.0 3.5 1.1 3.7 1.3L30 27.2c0 .3-.2 1.6 1.1 1.6 2.1.0 2.4-3.9 2.4-4.6.1-1.2.3-8.2-7-8.2-6.9.0-7.9 7.4-8 9.2-.5 8.5 6 8.5 7.2 8.5 1.7.0 3.7-.7 3.9-.8l.4 2c-.3.2-2 1.1-4.4 1.1-2.2.0-10.1-.4-9.8-10.8C16.1 23.1 17.4 14 26.6 14c9.2.0 9.4 8.1 9.4 10.2zM24.1 25.5c-.1 1 0 1.8.2 2.3s.6.8 1.2.8c.1.0.3.0.4-.1.2-.1.3-.1.5-.3.2-.1.3-.3.5-.6.2-.2.3-.6.4-1l.5-5.4c-.2-.1-.5-.1-.7-.1-.5.0-.9.1-1.2.3s-.6.5-.9.8c-.2.4-.4.8-.6 1.3S24.2 24.8 24.1 25.5z"/></svg>