<svg version="1" xmlns="http://www.w3.org/2000/svg" viewBox="0 0 48 48" enable-background="new 0 0 48 48"><path fill="#546e7a" d="M14 13H8v-1.8C8 10.5 8.5 10 9.2 10h3.6c.7.0 1.2.5 1.2 1.2V13z"/><path fill="#5e35b1" d="M40 40H8c-2.2.0-4-1.8-4-4V22h40v14c0 2.2-1.8 4-4 4z"/><path fill="#42257a" d="M12.7 22c-.4 1.3-.7 2.6-.7 4 0 6.6 5.4 12 12 12s12-5.4 12-12c0-1.4-.3-2.7-.7-4H12.7z"/><path fill="#78909c" d="M8 12h32c2.2.0 4 1.8 4 4v6H4v-6c0-2.2 1.8-4 4-4z"/><path fill="#78909c" d="M33.9 13.1H14.2L17.6 8c.4-.6 1-.9 1.7-.9h9.6c.7.0 1.3.3 1.7.9l3.3 5.1z"/><path fill="#455a64" d="M35.3 22c-1.6-4.7-6.1-8-11.3-8s-9.7 3.3-11.3 8H35.3z"/><circle fill="#b388ff" cx="24" cy="26" r="9"/><path fill="#c7a7ff" d="M29 23c-1.2-1.4-3-2.2-4.8-2.2s-3.6.8-4.8 2.2c-.5.5-.4 1.3.1 1.8s1.3.4 1.8-.1c1.5-1.7 4.3-1.7 5.8.0.3.3.6.4 1 .4.3.0.6-.1.9-.3C29.4 24.4 29.5 23.5 29 23z"/><rect x="36" y="15" fill="#dbe2e5" width="5" height="4"/></svg>