<svg version="1" xmlns="http://www.w3.org/2000/svg" viewBox="0 0 48 48" enable-background="new 0 0 48 48"><rect x="17" y="29" fill="#039be5" width="14" height="2"/><rect x="13" y="33" fill="#039be5" width="22" height="2"/><rect x="9" y="37" fill="#039be5" width="30" height="2"/><rect x="5" y="41" fill="#039be5" width="38" height="2"/><path fill="#81d4fa" d="M35 13c-.4.0-.8.0-1.2.1C32.9 8.5 28.9 5 24 5c-4.1.0-7.6 2.5-9.2 6-.3.0-.5.0-.8.0-4.4.0-8 3.6-8 8s3.6 8 8 8c2.4.0 18.5.0 21 0 3.9.0 7-3.1 7-7s-3.1-7-7-7z"/><path fill="#039be5" d="M28 21c0-2.2-1.8-4-4-4s-4 1.8-4 4c0 .5.0 6 0 6h8s0-5.5.0-6z"/></svg>