<svg xmlns:dc="http://purl.org/dc/elements/1.1/" xmlns:cc="http://creativecommons.org/ns#" xmlns:rdf="http://www.w3.org/1999/02/22-rdf-syntax-ns#" xmlns:svg="http://www.w3.org/2000/svg" xmlns="http://www.w3.org/2000/svg" xmlns:sodipodi="http://sodipodi.sourceforge.net/DTD/sodipodi-0.dtd" xmlns:inkscape="http://www.inkscape.org/namespaces/inkscape" id="svg859" viewBox="0 0 16.933333 16.933333" height="48pt" width="48pt" sodipodi:docname="C13_KGPG_Key3.svg" inkscape:version="0.92.4 (5da689c313, 2019-01-14)"><sodipodi:namedview pagecolor="#ffffff" bordercolor="#666666" borderopacity="1" objecttolerance="10" gridtolerance="10" guidetolerance="10" inkscape:pageopacity="0" inkscape:pageshadow="2" inkscape:window-width="3840" inkscape:window-height="2050" id="namedview2690" showgrid="false" inkscape:zoom="14.75" inkscape:cx="32" inkscape:cy="32" inkscape:window-x="-12" inkscape:window-y="-12" inkscape:window-maximized="1" inkscape:current-layer="layer1"/><defs id="defs853"/><g transform="translate(0,-280.06665)" id="layer1"><g id="g16" style="isolation:isolate" transform="matrix(0.35277777,0,0,0.35277777,0.84704631,280.27082)"><path style="fill:#bbb7af" id="path10" d="m26.919 47-4.54-1.997-10-17.321 7.621-4.4 4 6.928-.27 2.466 2.27.998 1 1.732-.27 2.466 2.27.999 1 1.732-.54 4.93z" inkscape:connector-curvature="0"/><path style="fill:#bbb7af" id="path12" d="M18.481 8.917c-1.218-1.375-2.82-1.951-4.15-1.761-1.774.447-4.474 1.198-7.142 2.738-2.667 1.54-4.667 3.502-5.941 4.815-.83 1.057-1.132 2.733-.55 4.475.533 1.655 1.415 3.917 2.715 6.169s2.818 4.147 3.985 5.436c1.218 1.375 2.757 1.988 4.1 1.674 1.824-.36 4.524-1.111 7.191-2.651 2.668-1.54 4.668-3.503 5.942-4.816.943-1.006 1.132-2.732.6-4.387-.533-1.656-1.415-3.918-2.715-6.17-1.35-2.338-2.868-4.233-4.035-5.522zm-3.116 7.804-6.351 3.666c-.699.404-1.72-.046-2.27-.999l-1-1.732c-.3-.519 1.469-2.002 3.945-3.432 2.477-1.43 4.646-2.221 4.946-1.701l1 1.732c.55.953.429 2.062-.27 2.466z" inkscape:connector-curvature="0"/><rect style="fill:#99968e" id="rect14" transform="matrix(0.866,-0.5,0.5,0.866,-16.05,16.645)" height="19" width="2" y="28.771999" x="22.035"/></g><g id="g24" style="isolation:isolate" transform="matrix(0.35277777,0,0,0.35277777,0.33319598,280.49083)"><path style="fill:#c1b395" id="path18" d="M40.107 35.664l-4.959-.134L19.346 23.27l5.394-6.952 6.321 4.903.681 2.385 2.48.067 1.58 1.226.681 2.385 2.479.067 1.58 1.226 1.363 4.77z" inkscape:connector-curvature="0"/><path style="fill:#c1b395" id="path20" d="M17.907 3.591C16.26 2.777 14.559 2.85 13.4 3.528 11.926 4.612 9.709 6.327 7.821 8.76c-1.887 2.434-2.998 5.007-3.681 6.704-.37 1.291-.017 2.957 1.181 4.35 1.118 1.332 2.79 3.093 4.844 4.687 2.054 1.594 4.175 2.775 5.743 3.527 1.647.814 3.303.8 4.429.002 1.552-1.023 3.769-2.738 5.657-5.171 1.888-2.434 2.998-5.006 3.682-6.703.493-1.289.016-2.958-1.102-4.29-1.119-1.331-2.79-3.092-4.845-4.686-2.133-1.655-4.254-2.837-5.822-3.589zm.063 8.402-4.495 5.794c-.495.638-1.61.607-2.479-.067L9.415 16.494c-.474-.368.604-2.409 2.357-4.669 1.753-2.259 3.463-3.81 3.937-3.443l1.58 1.226c.869.675 1.176 1.748.681 2.385z" inkscape:connector-curvature="0"/><rect style="fill:#998e76" id="rect22" transform="matrix(0.613,-0.79,0.79,0.613,-10.103,37.482)" height="18.999001" width="2" y="19.555" x="32.212002"/></g><g id="g32" style="isolation:isolate" transform="matrix(0.35277777,0,0,0.35277777,0.3165993,280.13828)"><path style="fill:#ffa000" id="path26" d="m46.241 21.973-4.623 1.798-19.319-5.176 2.278-8.501 7.727 2.071 1.553 1.934 2.311-.899 1.932.518 1.552 1.934 2.312-.899 1.931.518L47 19.14z" inkscape:connector-curvature="0"/><path style="fill:#ffa000" id="path28" d="M13.345 1.011C11.512.9 9.971 1.626 9.166 2.7 8.227 4.271 6.849 6.711 6.052 9.686c-.798 2.975-.824 5.777-.796 7.606.16 1.334 1.131 2.733 2.775 3.553 1.547.794 3.77 1.769 6.282 2.442 2.511.673 4.924.94 6.661 1.026 1.834.112 3.355-.543 4.083-1.715 1.035-1.545 2.414-3.984 3.211-6.959.797-2.975.823-5.777.796-7.607C29.019 6.654 27.932 5.3 26.385 4.505c-1.547-.794-3.77-1.769-6.282-2.442-2.608-.699-5.021-.966-6.758-1.052zm3.315 7.721-1.898 7.084c-.209.779-1.249 1.183-2.312.899l-1.932-.518c-.579-.155-.377-2.455.363-5.217.74-2.763 1.715-4.855 2.295-4.7l1.932.518c1.062.285 1.761 1.155 1.552 1.934z" inkscape:connector-curvature="0"/><rect style="fill:#d68600" id="rect30" transform="matrix(0.259,-0.966,0.966,0.259,9.747,49.803)" height="19.002001" width="2" y="9.0480003" x="36.331001"/></g><path id="path1476" d="m1.2718723 285.05146c-.4335907-.51274-.66891663-1.19158-.60320725-1.91499.13142168-1.44685 1.41721875-2.52408 2.87190845-2.40606 1.4546897.11801 2.5274119 1.38658 2.3959935 2.83343-.032853.3617-.2719825.91422-.6349261 1.27228-.3629437.35806-.8161697.60089-1.1766211.66014" style="fill:none;fill-opacity:1;stroke:#7e7e7e;stroke-width:.78058332;stroke-linecap:round;stroke-linejoin:round;stroke-miterlimit:3;stroke-dasharray:none;stroke-opacity:1" inkscape:connector-curvature="0"/></g></svg>