<svg xmlns="http://www.w3.org/2000/svg" xmlns:xlink="http://www.w3.org/1999/xlink" style="isolation:isolate" viewBox="0 0 48 48" width="48pt" height="48pt"><defs><clipPath id="_clipPath_9XF8Wkv3dtlahEmPO8KNtUI9KomMyJLu"><rect width="48" height="48"/></clipPath></defs><g clip-path="url(#_clipPath_9XF8Wkv3dtlahEmPO8KNtUI9KomMyJLu)"><path d="M24 2C11.85 2 2 11.8 2 24c0 12 9.85 22 22 22S46 36 46 24C46 11.8 36.15 2 24 2zm0 8c7.732.0 14 6.2 14 14 0 7.6-6.268 14-14 14S10 31.6 10 24c0-7.8 6.268-14 14-14z" fill="rgb(154,159,162)"/><path d="M34 6.6C24.434 1 12.202 4.4 6.68 14 1.157 23.4 4.434 35.8 14 41.2 23.566 46.8 35.798 43.4 41.32 34 46.844 24.4 43.566 12.2 34 6.6zM26 20.4c1.914 1.2 2.568 3.6 1.464 5.6-1.104 1.8-3.55 2.4-5.464 1.4-1.914-1.2-2.569-3.6-1.464-5.4 1.104-2 3.55-2.6 5.464-1.6z" fill="rgb(158,186,204)"/><path d="M27 18.8C24.13 17 20.46 18 18.804 21c-1.657 2.8-.674 6.4 2.196 8.2C23.87 30.8 27.54 29.8 29.196 27c1.658-3 .674-6.6-2.196-8.2zm-1 1.6c1.914 1.2 2.568 3.6 1.464 5.6-1.104 1.8-3.55 2.4-5.464 1.4-1.914-1.2-2.569-3.6-1.464-5.4 1.104-2 3.55-2.6 5.464-1.6z" fill="rgb(236,240,241)"/><path d="M12.02 7.8c-4.498 3.4-7.244 8.4-7.875 13.6l15.929 2C20.204 22.2 20.734 21.4 21.638 20.6L12.02 7.8zM43.846 26.2l-15.876-2C27.84 25.4 27.256 26.2 26.354 27l9.618 12.8c4.496-3.4 7.242-8.4 7.874-13.6z" fill="rgb(214,228,232)"/><path d="M24 16c-4.418.0-8 3.6-8 8s3.582 8 8 8 8-3.6 8-8-3.582-8-8-8zm0 2c3.314.0 6 2.6 6 6 0 3.2-2.686 6-6 6s-6-2.8-6-6c0-3.4 2.686-6 6-6z" fill="rgb(154,159,162)"/></g></svg>