<svg xmlns:dc="http://purl.org/dc/elements/1.1/" xmlns:cc="http://creativecommons.org/ns#" xmlns:rdf="http://www.w3.org/1999/02/22-rdf-syntax-ns#" xmlns:svg="http://www.w3.org/2000/svg" xmlns="http://www.w3.org/2000/svg" xmlns:sodipodi="http://sodipodi.sourceforge.net/DTD/sodipodi-0.dtd" xmlns:inkscape="http://www.inkscape.org/namespaces/inkscape" width="48pt" height="48pt" viewBox="0 0 16.933334 16.933333" id="svg2112" inkscape:version="0.92.4 (5da689c313, 2019-01-14)" sodipodi:docname="C18_Display.svg"><defs id="defs2106"/><sodipodi:namedview id="base" pagecolor="#ffffff" bordercolor="#666666" borderopacity="1" inkscape:pageopacity="0" inkscape:pageshadow="2" inkscape:zoom="7.9195959" inkscape:cx="-2.8571425" inkscape:cy="54.923727" inkscape:document-units="pt" inkscape:current-layer="layer1" showgrid="false" units="pt" inkscape:window-width="3840" inkscape:window-height="2050" inkscape:window-x="-12" inkscape:window-y="-12" inkscape:window-maximized="1"/><g inkscape:label="Layer 1" inkscape:groupmode="layer" id="layer1" transform="translate(0,-280.06668)"><g transform="matrix(0.33674243,0,0,0.35277778,0.38484848,280.06668)" style="isolation:isolate" id="g882"><path style="fill:#95a5a6" inkscape:connector-curvature="0" d="m18.271 33.952c.023.306.057.592.057.905.0 3.371-1.369 6.343-3.495 8.143h7.334 3.666 7.334c-2.127-1.8-3.495-4.772-3.495-8.143.0-.313.033-.599.057-.905h-3.896-3.666z" id="path872"/><path style="fill:#7f8c8d" inkscape:connector-curvature="0" d="m18.271 33.952c.023.181.057.543.057.905.0.905-.085 1.81-.286 2.714h11.916c-.201-.904-.286-1.809-.286-2.714.0-.362.033-.724.057-.905h-3.896-3.666z" id="path874"/><path style="fill:#bdc3c7" inkscape:connector-curvature="0" d="M3.833 5C2.821 5 2 5.706 2 6.765v1.764 3.53 3.529 3.53 1.764 1.765 1.765 3.529 3.53 1.764C2 34.118 2.821 35 3.833 35h1.834H29.5h11 1.833 1.834C45.179 35 46 34.118 46 33.235V31.471 19.118 17.353 15.588 12.059 8.529 6.765C46 5.706 45.179 5 44.167 5H42.333 33.167 31.333h-16.5H7.5 5.667z" id="path876"/><rect style="fill:#4d6680" x="5" y="8" width="38" height="24" id="rect878"/><path style="fill:#3f5873" inkscape:connector-curvature="0" d="M43 8 5 32H40.434 43v-2.954z" id="path880"/></g></g></svg>