<svg xmlns:dc="http://purl.org/dc/elements/1.1/" xmlns:cc="http://creativecommons.org/ns#" xmlns:rdf="http://www.w3.org/1999/02/22-rdf-syntax-ns#" xmlns:svg="http://www.w3.org/2000/svg" xmlns="http://www.w3.org/2000/svg" xmlns:sodipodi="http://sodipodi.sourceforge.net/DTD/sodipodi-0.dtd" xmlns:inkscape="http://www.inkscape.org/namespaces/inkscape" style="isolation:isolate" viewBox="0 0 48 48" width="48pt" height="48pt" id="svg3279" sodipodi:docname="C19_Mail_Generic.svg" inkscape:version="0.92.4 (5da689c313, 2019-01-14)"><sodipodi:namedview pagecolor="#ffffff" bordercolor="#666666" borderopacity="1" objecttolerance="10" gridtolerance="10" guidetolerance="10" inkscape:pageopacity="0" inkscape:pageshadow="2" inkscape:window-width="3840" inkscape:window-height="2050" id="namedview3281" showgrid="false" inkscape:zoom="14.75" inkscape:cx="32" inkscape:cy="32" inkscape:window-x="-12" inkscape:window-y="-12" inkscape:window-maximized="1" inkscape:current-layer="g3277"/><defs id="defs3263"><clipPath id="_clipPath_yCn9pWrMJ5G2bSE2XYUdljYvpNSOoGZX"><rect width="48" height="48" id="rect3260"/></clipPath></defs><g clip-path="url(#_clipPath_yCn9pWrMJ5G2bSE2XYUdljYvpNSOoGZX)" id="g3277"><path d="M40 44H8c-2.2.0-4-1.8-4-4V19.1c0-1.3.6-2.5 1.7-3.3L24 3 42.3 15.8c1.1.7 1.7 2 1.7 3.3V40c0 2.2-1.8 4-4 4z" id="path3265" inkscape:connector-curvature="0" style="fill:#78909c"/><rect x="12" y="14" width="24" height="22" id="rect3267" style="fill:#fff"/><path d="M40 44H8c-2.2.0-4-1.8-4-4V20L24 33 44 20v20c0 2.2-1.8 4-4 4z" id="path3269" inkscape:connector-curvature="0" style="fill:#cfd8dc"/><path style="fill:none;stroke:#1c7b9d;stroke-width:1;stroke-linecap:butt;stroke-linejoin:miter;stroke-miterlimit:4;stroke-dasharray:none;stroke-opacity:1" d="m16.220641 18.2845h15" id="path3828" inkscape:connector-curvature="0" sodipodi:nodetypes="cc"/><path style="isolation:isolate;fill:none;stroke:#1c7b9d;stroke-width:1.00023127;stroke-linecap:butt;stroke-linejoin:miter;stroke-miterlimit:4;stroke-dasharray:none;stroke-opacity:1" d="m16.220642 22.374742h15" id="path3828-4" inkscape:connector-curvature="0" sodipodi:nodetypes="cc"/><path style="isolation:isolate;fill:none;stroke:#1c7b9d;stroke-width:.99975002;stroke-linecap:butt;stroke-linejoin:miter;stroke-miterlimit:4;stroke-dasharray:none;stroke-opacity:1" d="m19.720642 26.464985h8" id="path3828-7" inkscape:connector-curvature="0" sodipodi:nodetypes="cc"/></g></svg>