<svg version="1" xmlns="http://www.w3.org/2000/svg" viewBox="0 0 48 48" enable-background="new 0 0 48 48"><rect x="8" y="39" fill="#455a64" width="6" height="3"/><rect x="34" y="39" fill="#455a64" width="6" height="3"/><path fill="#78909c" d="M40 41H8c-2.2.0-4-1.8-4-4V11c0-2.2 1.8-4 4-4h32c2.2.0 4 1.8 4 4v26c0 2.2-1.8 4-4 4z"/><path fill="#90a4ae" d="M40 38H8c-.6.0-1-.4-1-1V11c0-.6.4-1 1-1h32c.6.0 1 .4 1 1v26C41 37.6 40.6 38 40 38z"/><path fill="#37474f" d="M29 14c-5.5.0-10 4.5-10 10s4.5 10 10 10 10-4.5 10-10-4.5-10-10-10zm0 17c-3.9.0-7-3.1-7-7s3.1-7 7-7 7 3.1 7 7-3.1 7-7 7z"/><g fill="#b0bec5"><path d="M35.3 19.1l.4-.4c.4-.4.4-1 0-1.4s-1-.4-1.4.0l-.4.4C34.4 18.1 34.9 18.6 35.3 19.1z"/><path d="M22.7 19.1c.4-.5.9-1 1.4-1.4l-.4-.4c-.4-.4-1-.4-1.4.0s-.4 1 0 1.4L22.7 19.1z"/><path d="M21 24c0-.3.0-.7.1-1h-.6c-.6.0-1 .4-1 1s.4 1 1 1h.6C21 24.7 21 24.3 21 24z"/><path d="M29 16c.3.0.7.0 1 .1v-.6c0-.6-.4-1-1-1s-1 .4-1 1v.6C28.3 16 28.7 16 29 16z"/><path d="M35.3 28.9c-.4.5-.9 1-1.4 1.4l.4.4c.2.2.5.3.7.3s.5-.1.7-.3c.4-.4.4-1 0-1.4L35.3 28.9z"/><path d="M22.7 28.9l-.4.4c-.4.4-.4 1 0 1.4.2.2.5.3.7.3s.5-.1.7-.3l.4-.4C23.6 29.9 23.1 29.4 22.7 28.9z"/><path d="M37.5 23h-.6c0 .3.1.7.1 1s0 .7-.1 1h.6c.6.0 1-.4 1-1S38.1 23 37.5 23z"/><path d="M29 32c-.3.0-.7.0-1-.1v.6c0 .6.4 1 1 1s1-.4 1-1v-.6C29.7 32 29.3 32 29 32z"/></g><path fill="#455a64" d="M12 20c-1.1.0-2 .9-2 2v8c0 1.1.9 2 2 2s2-.9 2-2v-8c0-1.1-.9-2-2-2z"/><path fill="#cfd8dc" d="M12 18c-1.1.0-2 .9-2 2v8c0 1.1.9 2 2 2s2-.9 2-2v-8c0-1.1-.9-2-2-2z"/></svg>