<svg xmlns:dc="http://purl.org/dc/elements/1.1/" xmlns:cc="http://creativecommons.org/ns#" xmlns:rdf="http://www.w3.org/1999/02/22-rdf-syntax-ns#" xmlns:svg="http://www.w3.org/2000/svg" xmlns="http://www.w3.org/2000/svg" xmlns:sodipodi="http://sodipodi.sourceforge.net/DTD/sodipodi-0.dtd" xmlns:inkscape="http://www.inkscape.org/namespaces/inkscape" height="48pt" width="48pt" id="svg24" sodipodi:docname="C26_FileSave.svg" inkscape:version="0.92.4 (5da689c313, 2019-01-14)"><defs id="defs28"/><sodipodi:namedview pagecolor="#ffffff" bordercolor="#666666" borderopacity="1" objecttolerance="10" gridtolerance="10" guidetolerance="10" inkscape:pageopacity="0" inkscape:pageshadow="2" inkscape:window-width="3840" inkscape:window-height="2050" id="namedview26" showgrid="false" units="pt" inkscape:zoom="9.83" inkscape:cx="12" inkscape:cy="12" inkscape:window-x="-12" inkscape:window-y="-12" inkscape:window-maximized="1" inkscape:current-layer="svg24"/><g transform="matrix(2.7777778,0,0,2.777774,-1.3333334,-2857.9961)" id="g22"><path d="m5 1031.4c-1.1046.0-2 .9-2 2v14c0 1.1.8954 2 2 2h13 1c1.105.0 2-.9 2-2v-13l-3-3z" id="path2" inkscape:connector-curvature="0" style="fill:#3498db"/><path d="m7 3v5c0 .5523.4477 1 1 1h8c.552.0 1-.4477 1-1V3z" transform="translate(0,1028.4)" id="path6" inkscape:connector-curvature="0" style="fill:#ecf0f1"/><path d="m6 1040.4c-.5523.0-1 .4-1 1v3 2 3h4 6 4v-3-2-3c0-.6-.448-1-1-1h-4-4z" id="path8" inkscape:connector-curvature="0" style="fill:#ecf0f1"/><g id="g16" style="fill:#bdc3c7"><rect height="1" width="14" y="1048.4" x="5" id="rect10"/><rect height="1" width="10" y="1042.4" x="7" id="rect12"/><rect height="1" width="10" y="1044.4" x="7" id="rect14"/></g><rect height="4" width="3" y="1032.4" x="13" id="rect18" style="fill:#3498db"/></g></svg>