<svg viewBox="0 0 48 48" xmlns="http://www.w3.org/2000/svg" xmlns:xlink="http://www.w3.org/1999/xlink" xmlns:serif="http://www.serif.com/" style="fill-rule:evenodd;clip-rule:evenodd;stroke-linejoin:round;stroke-miterlimit:2"><g id="g12" transform="matrix(2.22222,0,0,1.81818,-2.66667,-1872.31)"><g id="rect10-6-5-2" transform="matrix(-5.25,7.59998e-16,5.08759e-16,-0.172483,-35.25,872.761)"><rect x="-10.5" y="-1055.25" width="3" height="1.65" style="fill:#7f8c8d"/></g><g id="rect10-6-5-21" serif:id="rect10-6-5-2" transform="matrix(-2,2.73541e-16,1.83114e-16,-0.172483,-5.99999,873.412)"><rect x="-10.5" y="-1055.25" width="3" height="1.65" style="fill:#7f8c8d"/></g><path id="path2" d="M19.875 1035.94v12.25C19.875 1049.15 19.092 1049.94 18.125 1049.94H5.875c-.967.0-1.75-.789999999999964-1.75-1.75v-12.25h15.75z" style="fill:#7f8c8d;fill-rule:nonzero"/><path id="path4" d="M4.125 1035.07v12.25c0 .960000000000036.783 1.75 1.75 1.75h12.25C19.092 1049.07 19.875 1048.28 19.875 1047.32v-12.25H4.125z" style="fill:#95a5a6;fill-rule:nonzero"/><rect id="rect6" x="14.625" y="1045.57" width="4.375" height="3.5" style="fill:#7f8c8d"/><path id="path8" d="M5.875 1030.69c-.967.0-1.75.779999999999973-1.75 1.75v12.25c0 .970000000000027.783 1.75 1.75 1.75h12.25C19.092 1046.44 19.875 1045.66 19.875 1044.69v-12.25C19.875 1031.47 19.092 1030.69 18.125 1030.69H5.875z" style="fill:#bdc3c7;fill-rule:nonzero"/><rect id="rect10" x="15.5" y="1047.32" width="2.625" height=".875" style="fill:#f1c40f"/><g id="rect10-6" transform="matrix(2,0,0,1.66667,-12,-703.612)"><rect x="10.5" y="1053.6" width="3" height="1.65" style="fill:#edb715"/></g><g id="rect10-6-5" transform="matrix(-2.74376e-16,-0.667461,1.48632,-7.10324e-16,-5.83586,349.146)"><rect x="-1053.61" y="11.325" width="3.667" height="1.35" style="fill:#bdc3c7"/></g><g id="rect10-6-5-22" serif:id="rect10-6-5-2" transform="matrix(-1.625,9.35494e-17,6.2624e-17,-1,-8.0625,-0.760633)"><rect x="-10.5" y="-1055.25" width="3" height="1.65" style="fill:#bdc3c7"/></g><g id="rect10-6-5-2-1" transform="matrix(-1.625,9.35494e-17,6.2624e-17,-1,-6.9375,-0.760633)"><rect x="-16.5" y="-1055.25" width="3" height="1.65" style="fill:#bdc3c7"/></g></g></svg>