<svg viewBox="0 0 48 48" xmlns="http://www.w3.org/2000/svg" xmlns:xlink="http://www.w3.org/1999/xlink" xmlns:serif="http://www.serif.com/" style="fill-rule:evenodd;clip-rule:evenodd;stroke-linejoin:round;stroke-miterlimit:2"><g><path d="M41 6H7c-.6.0-1 .4-1 1V42H42V7C42 6.4 41.6 6 41 6z" style="fill:#cfd8dc;fill-rule:nonzero"/></g><rect x="8" y="13" width="32" height="27" style="fill:#263238"/><g transform="matrix(1.00639,0,0,1.00639,12.7027,31.2351)"><g><text x="0" y="0" style="font-family:roboto-bold,roboto;font-weight:700;font-size:22px;fill:#76ff03">>_</text></g></g><g><circle cx="13.5" cy="9.5" r="1.5" style="fill:#90a4ae"/><circle cx="9.5" cy="9.5" r="1.5" style="fill:#90a4ae"/></g><g transform="matrix(1,0,0,1,1.02128,-0.291791)"><g id="polygon2" transform="matrix(0.438989,0,0,0.598621,-3.05709,20.013)"><path d="M22 45l-4-4V21H30v8l-2 2 2 2v2l-2 2 2 2v2l-4 4H22z" style="fill:#ffa000;fill-rule:nonzero"/></g><g id="path4" transform="matrix(0.438989,0,0,0.598621,-3.05709,20.013)"><path d="M38 7.8c-.5-1.8-2-3.1-3.7-3.6C31.9 3.7 28.2 3 24 3s-7.9.7-10.3 1.2C12 4.7 10.5 6 10 7.8c-.5 1.7-1 4.1-1 6.7s.5 5 1 6.7c.5 1.8 1.9 3.1 3.7 3.5C16.1 25.3 19.8 26 24 26S31.9 25.3 34.3 24.8C36.1 24.4 37.5 23 38 21.3s1-4.1 1-6.7c0-2.7-.5-5.1-1-6.8zM29 13H19c-1.1.0-2-.9-2-2V9c0-.6 3.1-1 7-1s7 .4 7 1v2C31 12.1 30.1 13 29 13z" style="fill:#ffa000;fill-rule:nonzero"/></g><g id="rect8" transform="matrix(0.598621,0,0,0.598621,-7.50244,20.013)"><rect x="23.559" y="26" width="2" height="19" style="fill:#d68600"/></g></g></svg>