<svg viewBox="0 0 48 48" xmlns="http://www.w3.org/2000/svg" style="fill-rule:evenodd;clip-rule:evenodd;stroke-linejoin:round;stroke-miterlimit:2"><path d="M41 6H7c-.6 0-1 .4-1 1v35h36V7c0-.6-.4-1-1-1z" style="fill:#cfd8dc;fill-rule:nonzero"/><path style="fill:#263238" d="M8 13h32v27H8z"/><path d="M.046-.081v-.138l.343-.135-.343-.133v-.138l.492.213v.117l-.492.214z" style="fill:#76ff03;fill-rule:nonzero" transform="translate(12.703 31.235) scale(22.14058)"/><path style="fill:#76ff03;fill-rule:nonzero" d="M-.009.109h.57v.089h-.57z" transform="translate(25.632 31.235) scale(22.14058)"/><circle cx="13.5" cy="9.5" r="1.5" style="fill:#90a4ae"/><circle cx="9.5" cy="9.5" r="1.5" style="fill:#90a4ae"/><g><path d="m22 45-4-4V21h12v8l-2 2 2 2v2l-2 2 2 2v2l-4 4h-4z" style="fill:#ffa000;fill-rule:nonzero" transform="matrix(.43899 0 0 .59862 -2.036 19.721)"/><path d="M38 7.8c-.5-1.8-2-3.1-3.7-3.6C31.9 3.7 28.2 3 24 3c-4.2 0-7.9.7-10.3 1.2C12 4.7 10.5 6 10 7.8c-.5 1.7-1 4.1-1 6.7 0 2.6.5 5 1 6.7.5 1.8 1.9 3.1 3.7 3.5 2.4.6 6.1 1.3 10.3 1.3 4.2 0 7.9-.7 10.3-1.2 1.8-.4 3.2-1.8 3.7-3.5s1-4.1 1-6.7c0-2.7-.5-5.1-1-6.8zM29 13H19c-1.1 0-2-.9-2-2V9c0-.6 3.1-1 7-1s7 .4 7 1v2c0 1.1-.9 2-2 2z" style="fill:#ffa000;fill-rule:nonzero" transform="matrix(.43899 0 0 .59862 -2.036 19.721)"/><path style="fill:#d68600" d="M23.559 26h2v19h-2z" transform="translate(-6.481 19.721) scale(.59862)"/></g></svg>