<svg version="1" xmlns="http://www.w3.org/2000/svg" viewBox="0 0 48 48" enable-background="new 0 0 48 48"><path fill="#ff5722" d="M6 10v28c0 2.2 1.8 4 4 4h28c2.2.0 4-1.8 4-4V10c0-2.2-1.8-4-4-4H10C7.8 6 6 7.8 6 10z"/><g fill="#bf360c"><rect x="6" y="35" width="36" height="2"/><rect x="6" y="31" width="36" height="2"/><path d="M6.1 39c.2.8.6 1.5 1.2 2h33.2c.6-.5 1-1.2 1.2-2H6.1z"/><path d="M6.1 9h35.7c-.2-.8-.6-1.5-1.2-2H7.4C6.8 7.5 6.3 8.2 6.1 9z"/><rect x="6" y="23" width="36" height="2"/><rect x="6" y="27" width="36" height="2"/><rect x="6" y="15" width="36" height="2"/><rect x="6" y="11" width="36" height="2"/><rect x="6" y="19" width="36" height="2"/></g><g fill="#ff8a65"><rect x="27" y="6" width="2" height="5"/><rect x="27" y="13" width="2" height="6"/><rect x="27" y="29" width="2" height="6"/><rect x="31" y="6" width="2" height="1"/><rect x="19" y="29" width="2" height="6"/><rect x="31" y="9" width="2" height="6"/><rect x="23" y="6" width="2" height="1"/><rect x="23" y="25" width="2" height="6"/><rect x="23" y="9" width="2" height="6"/><rect x="19" y="21" width="2" height="6"/><rect x="23" y="17" width="2" height="6"/><rect x="23" y="33" width="2" height="6"/><rect x="27" y="21" width="2" height="6"/><rect x="39" y="33" width="2" height="6"/><rect x="39" y="17" width="2" height="6"/><rect x="39" y="25" width="2" height="6"/><path d="M39 6.1V7h1.6C40.2 6.6 39.6 6.3 39 6.1z"/><rect x="31" y="17" width="2" height="6"/><path d="M40.6 41H39v.9C39.6 41.7 40.2 41.4 40.6 41z"/><rect x="35" y="13" width="2" height="6"/><rect x="31" y="33" width="2" height="6"/><rect x="35" y="29" width="2" height="6"/><rect x="39" y="9" width="2" height="6"/><rect x="35" y="21" width="2" height="6"/><rect x="31" y="25" width="2" height="6"/><rect x="35" y="37" width="2" height="5"/><rect x="35" y="6" width="2" height="5"/><rect x="31" y="41" width="2" height="1"/><rect x="23" y="41" width="2" height="1"/><rect x="27" y="37" width="2" height="5"/><rect x="19" y="37" width="2" height="5"/><rect x="7" y="17" width="2" height="6"/><path d="M9 41H7.4c.5.4 1 .7 1.6.9V41z"/><path d="M7.4 7H9V6.1c-.6.2-1.2.5-1.6.9z"/><rect x="7" y="33" width="2" height="6"/><rect x="7" y="25" width="2" height="6"/><rect x="7" y="9" width="2" height="6"/><rect x="11" y="29" width="2" height="6"/><rect x="15" y="17" width="2" height="6"/><rect x="15" y="33" width="2" height="6"/><rect x="15" y="9" width="2" height="6"/><rect x="15" y="6" width="2" height="1"/><rect x="19" y="6" width="2" height="5"/><rect x="15" y="25" width="2" height="6"/><rect x="15" y="41" width="2" height="1"/><rect x="11" y="21" width="2" height="6"/><rect x="11" y="6" width="2" height="5"/><rect x="11" y="37" width="2" height="5"/><rect x="19" y="13" width="2" height="6"/><rect x="11" y="13" width="2" height="6"/></g></svg>