<svg viewBox="0 0 48 48" xmlns="http://www.w3.org/2000/svg" xmlns:xlink="http://www.w3.org/1999/xlink" xmlns:serif="http://www.serif.com/" style="fill-rule:evenodd;clip-rule:evenodd;stroke-linejoin:round;stroke-miterlimit:2"><g id="Layer-1" serif:id="Layer 1" transform="matrix(1,0,0,1,0,-793.89)"><g id="g882" transform="matrix(0.336742,0,0,0.352778,1.09091,793.89)"><path id="path876" d="M10.865 14.173c-2.868.0-5.196 2.001-5.196 5.003V94.209C5.669 96.712 7.997 99.213 10.865 99.213H125.198C128.066 99.213 130.394 96.712 130.394 94.209V19.176c0-3.002-2.328-5.003-5.19600000000001-5.003H10.865z" style="fill:#bdc3c7;fill-rule:nonzero"/><rect id="rect878" x="14.173" y="22.677" width="107.717" height="68.031" style="fill:#78c2e6"/></g><g transform="matrix(1.02638,0,0,0.871313,-1.30567,796.29)"><path d="M16.119 22.586v4.773l-6.078-7.16 6.078-7.16v4.773H33.192V13.039l6.078 7.16-6.078 7.16V22.586H16.119z" style="fill:#297dd4"/></g><g id="rect10-6-5-2" transform="matrix(-11.6667,1.38181e-15,1.13058e-15,-0.313605,-81,506.683)"><rect x="-10.5" y="-1055.25" width="3" height="1.65" style="fill:#7f8c8d"/></g><g id="rect10-6-5-21" serif:id="rect10-6-5-2" transform="matrix(-4.44445,4.97347e-16,4.06921e-16,-0.313605,-16,507.502)"><rect x="-10.5" y="-1055.25" width="3" height="1.65" style="fill:#7f8c8d"/></g><g id="rect10-6-5" transform="matrix(-6.9496e-16,-1.4362,3.30294,-1.29644e-15,-15.6353,-679.095)"><rect x="-1053.61" y="11.325" width="3.667" height="1.35" style="fill:#bdc3c7"/></g><g id="rect10-6-5-22" serif:id="rect10-6-5-2" transform="matrix(-3.61111,1.7009e-16,1.39164e-16,-1.81818,-20.5833,-1081.54)"><rect x="-10.5" y="-1055.25" width="3" height="1.65" style="fill:#bdc3c7"/></g><g id="rect10-6-5-2-1" transform="matrix(-3.61111,1.7009e-16,1.39164e-16,-1.81818,-18.0833,-1081.54)"><rect x="-16.5" y="-1055.25" width="3" height="1.65" style="fill:#bdc3c7"/></g><g id="rect10-6" transform="matrix(4.44444,0,0,2.81115,-29.3333,-2128.55)"><rect x="10.5" y="1053.6" width="3" height="1.65" style="fill:#1cad07"/></g></g></svg>