<svg viewBox="0 0 48 48" xmlns="http://www.w3.org/2000/svg" xmlns:xlink="http://www.w3.org/1999/xlink" xmlns:serif="http://www.serif.com/" style="fill-rule:evenodd;clip-rule:evenodd;stroke-linejoin:round;stroke-miterlimit:2"><path id="path2" d="M40 12H22L18 8H8C5.8 8 4 9.8 4 12v8H44V16c0-2.2-1.8-4-4-4z" style="fill:#ffa000;fill-rule:nonzero"/><path id="path4" d="M40 12H8c-2.2.0-4 1.8-4 4V36c0 2.2 1.8 4 4 4H40c2.2.0 4-1.8 4-4V16c0-2.2-1.8-4-4-4z" style="fill:#ffca28;fill-rule:nonzero"/><g transform="matrix(1,0,0,1,9.45665e-05,1.57568)"><rect id="rect822" x="20.492" y="13" width="7.015" height="2" style="fill:#ff0025"/><rect id="rect822-7" x="20.492" y="17.045" width="7.015" height="2" style="fill:#ff0025"/><rect id="rect822-7-8" x="20.492" y="21.09" width="7.015" height="2" style="fill:#ff0025"/><rect id="rect822-7-33" x="20.492" y="25.135" width="7.015" height="2" style="fill:#ff0025"/><g transform="matrix(0.941767,0,0,0.465036,11.2143,14.2783)"><path d="M17.301 27.646l-3.725 6.451-3.724-6.451h7.449z" style="fill:#ff0025;fill-rule:nonzero"/></g></g></svg>