<svg viewBox="0 0 48 48" xmlns="http://www.w3.org/2000/svg" xmlns:xlink="http://www.w3.org/1999/xlink" xmlns:serif="http://www.serif.com/" style="fill-rule:evenodd;clip-rule:evenodd"><g transform="matrix(1.00042,0,0,0.960739,-0.00969865,-761.485)"><g id="Layer-1" serif:id="Layer 1"><g id="text1433"><path id="path1435" d="M13.263 817.539C10.951 817.539 9.107 816.781 7.732 815.266 6.357 813.734 5.669 811.695 5.669 809.148 5.669 806.367 6.396 804.18 7.849 802.586 9.302 800.977 11.263 800.172 13.732 800.172c2.39.0 4.242.741999999999962 5.555 2.226C20.615 803.883 21.279 805.969 21.279 808.656 21.279 811.344 20.537 813.5 19.052 815.125 17.583 816.735 15.654 817.539 13.263 817.539zM13.591 802.75C12.107 802.75 10.935 803.305 10.076 804.414 9.216 805.508 8.786 807.016 8.786 808.938 8.786 810.828 9.208 812.305 10.052 813.367 10.896 814.414 12.044 814.938 13.497 814.938 14.966 814.938 16.115 814.391 16.943 813.297 17.771 812.203 18.185 810.688 18.185 808.75 18.185 806.859 17.771 805.391 16.943 804.344 16.13 803.281 15.013 802.75 13.591 802.75zM35.763 800.687 14.201 834.532H10.849l21.539-33.845h3.375zM33.279 834.813C30.966 834.813 29.123 834.047 27.748 832.516 26.373 830.985 25.685 828.953 25.685 826.422 25.685 823.641 26.419 821.446 27.888 819.836 29.357 818.211 31.31 817.399 33.748 817.399c2.375.0 4.226.75 5.554 2.25C40.631 821.149 41.295 823.25 41.295 825.953 41.295 828.625 40.552 830.774 39.068 832.399 37.599 834.008 35.67 834.813 33.279 834.813zM33.607 820.047C32.107 820.047 30.927 820.594 30.068 821.688 29.224 822.781 28.802 824.297 28.802 826.235 28.802 828.094 29.224 829.555 30.068 830.618 30.912 831.664 32.06 832.188 33.513 832.188 34.982 832.188 36.131 831.641 36.959 830.547 37.787 829.438 38.201 827.922 38.201 826 38.201 824.094 37.787 822.625 36.959 821.594 36.146 820.563 35.029 820.047 33.607 820.047z" style="fill:#5e35b1;fill-rule:nonzero;stroke:#5e35b1;stroke-width:.75px"/></g></g></g></svg>