<svg viewBox="0 0 48 48" xmlns="http://www.w3.org/2000/svg" xmlns:xlink="http://www.w3.org/1999/xlink" xmlns:serif="http://www.serif.com/" style="fill-rule:evenodd;clip-rule:evenodd;stroke-linejoin:round;stroke-miterlimit:2"><g id="Layer-1" serif:id="Layer 1" transform="matrix(1,0,0,1,0,-793.89)"><g id="g882" transform="matrix(0.336742,0,0,0.352778,1.09091,793.89)"><path id="path872" d="M51.792 96.242C51.857 97.109 51.953 97.92 51.953 98.807c0 9.556-3.88 17.98-9.907 23.083H94.017C87.987 116.787 84.11 108.363 84.11 98.807 84.11 97.92 84.203 97.109 84.271 96.242H51.792z" style="fill:#95a5a6;fill-rule:nonzero"/><path id="path874" d="M51.792 96.242C51.857 96.755 51.953 97.781 51.953 98.807c0 2.566-.241 5.131-.810000000000002 7.693H84.92C84.351 103.938 84.11 101.373 84.11 98.807 84.11 97.781 84.203 96.755 84.271 96.242H51.792z" style="fill:#7f8c8d;fill-rule:nonzero"/><path id="path876" d="M10.865 14.173c-2.868.0-5.196 2.001-5.196 5.003V94.209C5.669 96.712 7.997 99.213 10.865 99.213H125.198C128.066 99.213 130.394 96.712 130.394 94.209V19.176c0-3.002-2.328-5.003-5.19600000000001-5.003H10.865z" style="fill:#bdc3c7;fill-rule:nonzero"/><rect id="rect878" x="14.173" y="22.677" width="107.717" height="68.031" style="fill:#78c2e6"/></g><g transform="matrix(0.907586,0,0,0.944558,3.45296,44.9469)"><g transform="matrix(1,0,0,1,-0.8462,791.224)"><path d="M23.008 13.977 11.395 15.698 11.365 22.381H23.008V13.977z" style="fill:#297dd4"/></g><g transform="matrix(1,0,0,-1,-0.8462,836.988)"><path d="M23.008 13.977 11.395 15.698 11.365 22.381H23.008V13.977z" style="fill:#297dd4"/></g><g transform="matrix(-1,0,0,-1,46.1246,836.988)"><path d="M23.008 13.831 11.365 12.324V22.381H23.008v-8.55z" style="fill:#297dd4"/></g><g transform="matrix(-1,0,0,1,46.1246,791.224)"><path d="M23.008 13.831 11.365 12.266V22.381H23.008v-8.55z" style="fill:#297dd4"/></g></g></g></svg>