<svg viewBox="0 0 48 48" xmlns="http://www.w3.org/2000/svg" xmlns:xlink="http://www.w3.org/1999/xlink" xmlns:serif="http://www.serif.com/" style="fill-rule:evenodd;clip-rule:evenodd;stroke-linejoin:round;stroke-miterlimit:2"><g transform="matrix(0.983029,0,0,0.983029,-2.15274,-4.69129)"><circle cx="26.604" cy="29.187" r="20.345" style="fill:#0090ff"/></g><g transform="matrix(31.8224,0,0,31.8224,16.3008,35.374)"><path d="M.169-.218C.169-.263.175-.3.186-.327.197-.354.217-.38.247-.407.276-.433.296-.454.306-.471.315-.487.32-.505.32-.523.32-.578.295-.605.244-.605.22-.605.201-.598.186-.583.172-.568.164-.548.164-.522H.022C.023-.584.043-.633.082-.668.122-.703.176-.721.244-.721.313-.721.367-.704.405-.671.443-.637.462-.59.462-.529.462-.501.456-.475.443-.451.431-.426.409-.399.378-.369L.339-.331C.314-.307.3-.28.296-.248l-.002.03H.169zm-.014.15C.155-.09.163-.108.177-.122.192-.136.211-.143.234-.143S.276-.136.291-.122c.015.014.022.032.022.054C.313-.047.306-.029.292-.015.277-.001.258.006.234.006.211.006.191-.001.177-.015.163-.029.155-.047.155-.068z" style="fill:#fff;fill-rule:nonzero"/></g></svg>