<svg viewBox="0 0 48 48" xmlns="http://www.w3.org/2000/svg" xmlns:xlink="http://www.w3.org/1999/xlink" xmlns:serif="http://www.serif.com/" style="fill-rule:evenodd;clip-rule:evenodd;stroke-linejoin:round;stroke-miterlimit:2"><g transform="matrix(1.76777,1.76777,-1.76777,1.76777,1915.49,-1651.82)"><g><path d="M-63 1003.4v13l2 2 2-2v-13h-4z" style="fill:#ecf0f1;fill-rule:nonzero"/><path d="M-61 1003.4v15l2-2v-13h-2z" style="fill:#bdc3c7;fill-rule:nonzero"/><rect x="-63" y="1004.4" width="4" height="11" style="fill:#e67e22"/><path d="M-61 1000.4c-1.105.0-2 .899999999999977-2 2v1h4v-1C-59 1001.3-59.895 1000.4-61 1000.4z" style="fill:#7f8c8d;fill-rule:nonzero"/><g transform="matrix(1,0,0,1,-7,1)"><path d="M-55.406 1016-54 1017.4-52.594 1016h-2.812z" style="fill:#3c546c;fill-rule:nonzero"/><path d="M-54 1016V1017.4L-52.594 1016H-54z" style="fill:#4d5b6a;fill-rule:nonzero"/></g><path d="M-61 1000.4c-1.105.0-2 .899999999999977-2 2v1h2v-3z" style="fill:#95a5a6;fill-rule:nonzero"/><rect x="-61" y="1004.4" width="2" height="11" style="fill:#d35400"/></g></g></svg>