<svg viewBox="0 0 48 48" xmlns="http://www.w3.org/2000/svg" xmlns:xlink="http://www.w3.org/1999/xlink" xmlns:serif="http://www.serif.com/" style="fill-rule:evenodd;clip-rule:evenodd;stroke-linejoin:round;stroke-miterlimit:2"><g transform="matrix(2,0,0,2,0,-2056.8)"><g><g transform="matrix(1,0,0,1,-1,0)"><path d="M6.094 1029.5v1L10 1034.4l-1 3-3 1L2.094 1034.5C2.039 1034.8 2 1035 2 1035.4 2 1035.4 1.996 1035.5 2 1035.6 1.996 1035.7 2 1035.8 2 1035.9c0 3 2.462 5.5 5.5 5.5C7.959 1041.4 8.387 1041.3 8.813 1041.2L10.969 1043.3 15 1047.4l3 3C18.507 1050.9 19.214 1051.2 20 1051.2 21.541 1051.2 22.781 1050 22.781 1048.4 22.781 1047.6 22.487 1046.9 22 1046.4L21.969 1046.3 19 1043.4 14.969 1039.3 12.812 1037.2C12.918 1036.7 13 1036.3 13 1035.9 13 1032.8 10.538 1030.4 7.5 1030.4H7.094V1029.5h-1zM20 1046.9C20.828 1046.9 21.5 1047.5 21.5 1048.4 21.5 1049.2 20.828 1049.9 20 1049.9S18.5 1049.2 18.5 1048.4C18.5 1047.5 19.172 1046.9 20 1046.9z" style="fill:#7f8c8d;fill-rule:nonzero"/><path d="M7 1029.4c-.313.0-.609.0-.906.0999999999999091L10 1033.4l-1 3-3 1L2.094 1033.5C2.039 1033.8 2 1034 2 1034.4 2 1034.4 1.996 1034.5 2 1034.6 1.996 1034.7 2 1034.8 2 1034.9c0 3 2.462 5.5 5.5 5.5C7.959 1040.4 8.387 1040.3 8.813 1040.2L10.969 1042.3 15 1046.4l3 3C18.507 1049.9 19.214 1050.2 20 1050.2 21.541 1050.2 22.781 1049 22.781 1047.4 22.781 1046.6 22.487 1045.9 22 1045.4L21.969 1045.3 19 1042.4 14.969 1038.3 12.812 1036.2C12.918 1035.7 13 1035.3 13 1034.9 13 1031.8 10.538 1029.4 7.5 1029.4H7zm13 16.5C20.828 1045.9 21.5 1046.5 21.5 1047.4 21.5 1048.2 20.828 1048.9 20 1048.9S18.5 1048.2 18.5 1047.4C18.5 1046.5 19.172 1045.9 20 1045.9z" style="fill:#95a5a6;fill-rule:nonzero"/></g><path d="M11 1038.4 9.031 1040.3 9 1040.4C9.007 1040.4 8.994 1040.4 9 1040.4 8.999 1040.4 8.997 1040.4 9 1040.5 9.077 1040.7 9.063 1041 9 1041.4L9.969 1042.3 12 1044.4C12.365 1044.3 12.719 1044.3 13 1044.4l2-2-1.5-1.5 1.5-1.5-1-1-1.5 1.5-1.5-1.5z" style="fill:#7f8c8d;fill-rule:nonzero"/><path d="M11.5 1039.9l1 1 9-9-1-1-9 9z" style="fill:#bdc3c7;fill-rule:nonzero"/><path d="M21 1031.4l-9 9 .5.5 9-9-.5-.5z" style="fill:#95a5a6;fill-rule:nonzero"/><path d="M22 1029.4l-2.5 1.5 2 2 1.5-2.5-1-1z" style="fill:#95a5a6;fill-rule:nonzero"/><g><path d="M11 1037.4l-2 2C9.337 1040.2 8.584 1041.8 8 1042.4 7.416 1042.9 5.884 1043.7 5 1043.4l-4 4 4 4 4-4c-.337-.900000000000091.416-2.5 1-3C10.584 1043.8 12.116 1043 13 1043.4l2-2-4-4z" style="fill:#f39c12;fill-rule:nonzero"/><path d="M11 1037.4l-2 2C9.337 1040.2 8.584 1041.8 8 1042.4 7.416 1042.9 5.884 1043.7 5 1043.4l-4 4 2 2 10-10-2-2z" style="fill:#f1c40f;fill-rule:nonzero"/><path d="M9.031 1039.3 9 1039.4C9.011 1039.4 8.991 1039.4 9 1039.5 9.01 1039.4 9.023 1039.4 9.031 1039.3zM14.5 1040.9l-1.5 1.5C12.116 1042 10.584 1042.8 10 1043.4 9.435 1043.9 8.742 1045.4 9 1046.3 9.176 1045.5 9.62 1044.7 10 1044.4 10.584 1043.8 12.116 1043 13 1043.4l2-2-.5-.5zm-5.531 5.5-3.969 4-3.5-3.5-.5.5 4 4 4-4C8.895 1047.1 8.9 1046.7 8.969 1046.4z" style="fill:#e67e22;fill-rule:nonzero"/></g></g></g></svg>