<svg viewBox="0 0 48 48" xmlns="http://www.w3.org/2000/svg" xmlns:xlink="http://www.w3.org/1999/xlink" xmlns:serif="http://www.serif.com/" style="fill-rule:evenodd;clip-rule:evenodd;stroke-linejoin:round;stroke-miterlimit:2"><g transform="matrix(1.79561,0,0,1.79561,2.43561,2.30747)"><path d="M21.086 8.255 20.399 8.741C19.912 9.171 19.499 9.681 19.169 10.246 18.739 11.016 18.519 11.886 18.525 12.766 18.54 13.849 18.815 14.801 19.365 15.626c.387.6.904 1.114 1.534 1.536C21.209 17.372 21.481 17.517 21.739 17.612 21.619 17.987 21.487 18.352 21.334 18.712 20.987 19.519 20.574 20.292 20.084 21.022 19.652 21.652 19.312 22.122 19.054 22.432 18.652 22.912 18.264 23.272 17.874 23.529c-.43.285-.934999999999999.436-1.452.436C16.072 23.98 15.722 23.935 15.388 23.838 15.098 23.743 14.812 23.636 14.532 23.515 14.239 23.381 13.936 23.267 13.627 23.175 13.247 23.075 12.857 23.027 12.463 23.028 12.063 23.028 11.673 23.078 11.303 23.173 10.993 23.261 10.693 23.369 10.396 23.498 9.976 23.673 9.701 23.788 9.541 23.838 9.217 23.934 8.885 23.992 8.551 24.013 8.031 24.013 7.547 23.863 7.065 23.563L7.078 23.55C6.605 23.234 6.185 22.847 5.834 22.4 5.451 21.937 5.096 21.45 4.77 20.946c-.766-1.12-1.365-2.345-1.78-3.636-.41-1.23-.647-2.418-.71-3.581C2.987 13.101 3.846 12.263 4.738 12.081 6.29 11.764 7.893 12.304 9.444 12.376 10.327 12.417 11.084 12.291 11.938 12.081 12.518 11.938 13.224 11.932 13.742 11.629 14.212 11.355 16.734 10.287 17.473 9.876 18.677 9.204 19.738 8.297 21.086 8.255z" style="fill:#4b98d1"/></g><g transform="matrix(1.79561,0,0,1.79561,2.46527,2.44192)"><path d="M2.277 13.661 2.247 12.963c0-1.57.34-2.94 1.002-4.09.49-.9 1.22-1.653 2.1-2.182C6.199 6.161 7.189 5.871 8.189 5.851c.35.0.73.0499999999999998 1.13.15C9.609 6.081 9.959 6.211 10.389 6.371 10.939 6.581 11.239 6.711 11.339 6.741c.32.12.59.17.799999999999999.17C12.299 6.911 12.529 6.861 12.784 6.781 12.929 6.731 13.204 6.641 13.594 6.471 13.98 6.331 14.286 6.211 14.529 6.121 14.899 6.011 15.257 5.911 15.579 5.861 15.969 5.801 16.356 5.781 16.727 5.811 17.437 5.861 18.087 6.011 18.667 6.231c1.016.408 1.79 1.045 2.403 1.95C20.574 8.585 19.562 9.507 19.562 9.507s-2.296 2.773-3.928 3.228C13.885 13.223 10.839 12.556 9.072 12.434 7.723 12.341 6.168 11.802 5.036 12.006c-1.055.19-2.052 1.032-2.759 1.655z" style="fill:#68b7f0"/></g><g transform="matrix(1.79561,0,0,1.79561,2.46527,2.44192)"><path d="M13.932 5.09c-.68.34-1.326.484-1.973.436C11.859 4.88 11.959 4.216 12.229 3.489c.24-.62.560000000000001-1.18 1-1.68C13.689 1.289 14.239.859 14.859.549c.66-.34 1.29-.52 1.89-.55.0800000000000019.68.0 1.35-.25 2.07C16.271 2.709 15.931 3.299 15.499 3.829 15.064 4.349 14.524 4.779 13.913 5.089L13.932 5.09z" style="fill:#67b7f0"/></g></svg>