<svg xmlns="http://www.w3.org/2000/svg" xmlns:xlink="http://www.w3.org/1999/xlink" width="48" height="48" viewBox="0 0 48 48" enable-background="new 0 0 48 48"><path fill="#cfd8dc" d="M6 10c0-2.209 1.791-4 4-4h28c2.209.0 4 1.791 4 4v28c0 2.209-1.791 4-4 4H10c-2.209.0-4-1.791-4-4V10z"/><path fill="#37474f" d="M39 17.271c0 .191-.148.349-.334.349h-1.799l-8.164 18.179c-.052.12-.17.2-.297.202h-.004c-.127.0-.242-.074-.298-.193l-3.874-8.039-4.18 8.049c-.06.116-.167.181-.303.184-.125-.004-.239-.082-.292-.199l-8.252-18.182h-1.87C9.149 17.619 9 17.462 9 17.271V16.35C9 16.155 9.149 16 9.333 16h6.657c.184.0.333.155.333.35v.921c0 .191-.149.349-.333.349h-1.433l5.696 13.748 2.964-5.793-3.757-7.953h-.904c-.184.0-.333-.157-.333-.35V16.35c0-.191.149-.348.333-.348h4.924c.184.0.333.156.333.348v.922c0 .192-.149.35-.333.35h-.867l2.162 4.948 2.572-4.948H25.77c-.187.0-.334-.157-.334-.35V16.35c0-.191.147-.348.334-.348h4.784c.187.0.333.156.333.348v.922c0 .192-.146.35-.333.35h-1.05l-3.757 7.141 3.063 6.584 5.905-13.725h-1.872c-.184.0-.334-.157-.334-.35V16.35c0-.191.15-.348.334-.348h5.822c.186.0.334.156.334.348V17.271z"/></svg>