<svg viewBox="0 0 48 48" xmlns="http://www.w3.org/2000/svg" xmlns:xlink="http://www.w3.org/1999/xlink" xmlns:serif="http://www.serif.com/" style="fill-rule:evenodd;clip-rule:evenodd;stroke-linejoin:round;stroke-miterlimit:2"><g transform="matrix(1.83333,0,0,1.83333,2,-1884.29)"><g transform="matrix(1.02273,0,0,0.886365,-0.272728,120.043)"><rect x="0" y="1031.4" width="24" height="14" style="fill:#16a085"/><rect x="0" y="1032.4" width="24" height="14" style="fill:#1abc9c"/><path d="M5 1033.4C5 1035.6 3.209 1037.4 1 1037.4V1041.3C3.209 1041.3 5 1043.1 5 1045.4H19V1045.3c0-2.20000000000005 1.791-4 4-4V1037.4c-2.209.0-4-1.80000000000018-4-4H5z" style="fill:#ecf0f1;fill-rule:nonzero"/><g transform="matrix(1,0,0,1,0,1028.4)"><path d="M16 11c0 2.761-1.791 5-4 5s-4-2.239-4-5 1.791-5 4-5 4 2.239 4 5z" style="fill:#1abc9c;fill-rule:nonzero"/></g><g transform="matrix(8.00001,0,0,9.23078,9.54947,1042.51)"><path d="M.392-.136c0 .019.001.033.003.042C.397-.084.401-.076.406-.07.411-.064.419-.059.429-.056c.01.004.023.006.038.008.016.002.036.003.061.004V0H.106V-.044C.143-.046.168-.048.184-.051.199-.054.211-.058.219-.063.227-.069.233-.077.237-.087.241-.097.243-.113.243-.136V-.489C.243-.503.24-.512.235-.518.23-.524.223-.527.214-.527.206-.527.195-.523.18-.516.165-.508.141-.493.107-.47L.077-.521.332-.674H.395C.393-.643.392-.6.392-.544v.408z" style="fill:#fff;fill-rule:nonzero"/></g></g><g transform="matrix(1.9176,0,0,1.1179,17.9635,-117.595)"><g transform="matrix(1,0,0,1,-18.773,13.418)"><g transform="matrix(0.52148,0,0,0.89455,-9.6523,1024.7)"><path d="M40 5c-.875.0-1.642.202-2.188.5H37v1C37 7.329 38.343 8 40 8s3-.671 3-1.5v-1H42.188C41.642 5.202 40.875 5 40 5z" style="fill:#f39c12;fill-rule:nonzero"/></g><g transform="matrix(0.52148,0,0,0.89455,-9.1309,1022.9)"><path d="M42 7.5C42 8.328 40.657 9 39 9S36 8.328 36 7.5C36 6.672 37.343 6 39 6s3 .672 3 1.5z" style="fill:#f1c40f;fill-rule:nonzero"/></g></g><g><g transform="matrix(1,0,0,1,-18.773,11.629)"><g transform="matrix(0.52148,0,0,0.89455,-9.6523,1024.7)"><path d="M40 5c-.875.0-1.642.202-2.188.5H37v1C37 7.329 38.343 8 40 8s3-.671 3-1.5v-1H42.188C41.642 5.202 40.875 5 40 5z" style="fill:#f39c12;fill-rule:nonzero"/></g><g transform="matrix(0.52148,0,0,0.89455,-9.1309,1022.9)"><path d="M42 7.5C42 8.328 40.657 9 39 9S36 8.328 36 7.5C36 6.672 37.343 6 39 6s3 .672 3 1.5z" style="fill:#f1c40f;fill-rule:nonzero"/></g></g><g transform="matrix(1,0,0,1,-18.773,9.8401)"><g transform="matrix(0.52148,0,0,0.89455,-9.6523,1024.7)"><path d="M40 5c-.875.0-1.642.202-2.188.5H37v1C37 7.329 38.343 8 40 8s3-.671 3-1.5v-1H42.188C41.642 5.202 40.875 5 40 5z" style="fill:#f39c12;fill-rule:nonzero"/></g><g transform="matrix(0.52148,0,0,0.89455,-9.1309,1022.9)"><path d="M42 7.5C42 8.328 40.657 9 39 9S36 8.328 36 7.5C36 6.672 37.343 6 39 6s3 .672 3 1.5z" style="fill:#f1c40f;fill-rule:nonzero"/></g></g><g transform="matrix(1,0,0,1,-18.773,8.0509)"><g transform="matrix(0.52148,0,0,0.89455,-9.6523,1024.7)"><path d="M40 5c-.875.0-1.642.202-2.188.5H37v1C37 7.329 38.343 8 40 8s3-.671 3-1.5v-1H42.188C41.642 5.202 40.875 5 40 5z" style="fill:#f39c12;fill-rule:nonzero"/></g><g transform="matrix(0.52148,0,0,0.89455,-9.1309,1022.9)"><path d="M42 7.5C42 8.328 40.657 9 39 9S36 8.328 36 7.5C36 6.672 37.343 6 39 6s3 .672 3 1.5z" style="fill:#f1c40f;fill-rule:nonzero"/></g></g><g transform="matrix(1,0,0,1,-15.123,13.418)"><g transform="matrix(0.52148,0,0,0.89455,-9.6523,1024.7)"><path d="M40 5c-.875.0-1.642.202-2.188.5H37v1C37 7.329 38.343 8 40 8s3-.671 3-1.5v-1H42.188C41.642 5.202 40.875 5 40 5z" style="fill:#f39c12;fill-rule:nonzero"/></g><g transform="matrix(0.52148,0,0,0.89455,-9.1309,1022.9)"><path d="M42 7.5C42 8.328 40.657 9 39 9S36 8.328 36 7.5C36 6.672 37.343 6 39 6s3 .672 3 1.5z" style="fill:#f1c40f;fill-rule:nonzero"/></g></g><g transform="matrix(1,0,0,1,-14.08,12.524)"><g transform="matrix(0.52148,0,0,0.89455,-9.6523,1024.7)"><path d="M40 5c-.875.0-1.642.202-2.188.5H37v1C37 7.329 38.343 8 40 8s3-.671 3-1.5v-1H42.188C41.642 5.202 40.875 5 40 5z" style="fill:#f39c12;fill-rule:nonzero"/></g><g transform="matrix(0.52148,0,0,0.89455,-9.1309,1022.9)"><path d="M42 7.5C42 8.328 40.657 9 39 9S36 8.328 36 7.5C36 6.672 37.343 6 39 6s3 .672 3 1.5z" style="fill:#f1c40f;fill-rule:nonzero"/></g></g><g transform="matrix(1,0,0,1,-18.773,6.2618)"><g transform="matrix(0.52148,0,0,0.89455,-9.6523,1024.7)"><path d="M40 5c-.875.0-1.642.202-2.188.5H37v1C37 7.329 38.343 8 40 8s3-.671 3-1.5v-1H42.188C41.642 5.202 40.875 5 40 5z" style="fill:#f39c12;fill-rule:nonzero"/></g><g transform="matrix(0.52148,0,0,0.89455,-9.1309,1022.9)"><path d="M42 7.5C42 8.328 40.657 9 39 9S36 8.328 36 7.5C36 6.672 37.343 6 39 6s3 .672 3 1.5z" style="fill:#f1c40f;fill-rule:nonzero"/></g></g></g></g></g></svg>