<svg baseProfile="basic" id="svg2" xmlns:cc="http://creativecommons.org/ns#" xmlns:dc="http://purl.org/dc/elements/1.1/" xmlns:osb="http://www.openswatchbook.org/uri/2009/osb" xmlns:rdf="http://www.w3.org/1999/02/22-rdf-syntax-ns#" xmlns:svg="http://www.w3.org/2000/svg" xmlns="http://www.w3.org/2000/svg" xmlns:xlink="http://www.w3.org/1999/xlink" viewBox="0 0 100 100"><circle style="fill-rule:evenodd;clip-rule:evenodd;fill:#fff;stroke:#515151;stroke-width:3.1319;stroke-linecap:round;stroke-linejoin:round" cx="50" cy="50" r="45.9"/><linearGradient id="SVGID_1_" gradientUnits="userSpaceOnUse" x1="50.2693" y1="-1470.9402" x2="49.6968" y2="-1392.7863" gradientTransform="matrix(1 0 0 -1 0 -1384.1102)"><stop offset="0" style="stop-color:gray"/><stop offset="1" style="stop-color:#4b4b4d"/></linearGradient><path style="fill:url(#SVGID_1_)" d="M56.7 13.7c.1.5.2 1 .2 1.5.0 3.8-3.1 6.9-6.9 6.9-3.8.0-6.9-3.1-6.9-6.9.0-.5.1-1 .2-1.5 2.2-.4 4.5-.6 6.7-.6C52.3 13 54.5 13.3 56.7 13.7zM30.6 22.1c0 7.7 4.5 14.4 11.1 17.5v35.1L50 83l8.3-8.3-.5-7.3 3.9-3.9-3.9-3.9 5.9-5.9-5.9-5.9.5-8.2c6.5-3.1 11.1-9.8 11.1-17.5.0-1.3-.1-2.5-.4-3.8C80.1 25 86.9 37 87 50c0 20.4-16.5 37-37 37-20.4.0-37-16.5-37-37 0-13 6.8-25 18-31.7C30.8 19.6 30.6 20.8 30.6 22.1zM44.5 44.2h2.8v27.7h-2.8V44.2v0 0z"/><linearGradient id="SVGID_2_" gradientUnits="userSpaceOnUse" x1="73.8" y1="1532.1382" x2="73.8" y2="1574.0038" gradientTransform="matrix(1 0 0 1 0 -1484)"><stop offset="0" style="stop-color:#d69029"/><stop offset="1" style="stop-color:#af7125"/></linearGradient><path style="fill:url(#SVGID_2_)" d="M59.6 94.8c-3.7.0-6.7-3-6.7-6.7V67.6c0-3.3 2.5-6.1 5.7-6.6v-4.1c0-8.4 6.8-15.2 15.2-15.2S89 48.5 89 56.9V61c3.2.5 5.7 3.3 5.7 6.6v20.5c0 3.7-3 6.7-6.7 6.7.0.0-28.4.0-28.4.0zM79.7 61v-5c0-3.2-2.6-5.9-5.9-5.9S68 52.7 68 56v5H79.7z"/><path style="fill:#fff" d="M73.8 42.7c7.8.0 14.2 6.4 14.2 14.2V62c3.1.0 5.7 2.6 5.7 5.7v20.5c0 3.1-2.6 5.7-5.7 5.7H59.6c-3.1.0-5.7-2.6-5.7-5.7V67.6c0-3.1 2.6-5.7 5.7-5.7v-5.1C59.6 49.1 66 42.7 73.8 42.7M67 62h13.7v-6c0-3.8-3.1-6.9-6.9-6.9C70 49.1 67 52.2 67 56v6M73.8 40.7c-8.9.0-16.2 7.3-16.2 16.2v3.3c-3.3.9-5.7 3.9-5.7 7.4v20.5c0 4.2 3.4 7.7 7.7 7.7H88c4.2.0 7.7-3.4 7.7-7.7V67.6c0-3.5-2.4-6.5-5.7-7.4v-3.3C90 48 82.7 40.7 73.8 40.7v0zM69 60v-4c0-2.7 2.2-4.9 4.9-4.9 2.7.0 4.9 2.2 4.9 4.9v4H69v0z"/></svg>