<?xml version="1.0" encoding="UTF-8"?><svg xmlns="http://www.w3.org/2000/svg" xmlns:xlink="http://www.w3.org/1999/xlink" viewBox="0 0 121.8 121.8"><defs><style>.cls-1{fill:url(#linear-gradient-2);stroke:#383838;stroke-miterlimit:10;stroke-width:3px;}.cls-2{opacity:.35;}.cls-2,.cls-3{fill:#0f0f0d;}.cls-4{fill:url(#radial-gradient-2);opacity:.44;}.cls-5{fill:url(#radial-gradient-6);}.cls-6{fill:url(#radial-gradient);opacity:.32;}.cls-6,.cls-7{mix-blend-mode:lighten;}.cls-8{fill:rgba(15,15,13,.35);}.cls-9{fill:none;isolation:isolate;}.cls-10{fill:url(#radial-gradient-3);}.cls-11{fill:url(#radial-gradient-5);opacity:.3;}.cls-11,.cls-3{mix-blend-mode:multiply;}.cls-3{opacity:.2;}.cls-12{fill:url(#linear-gradient);}.cls-7{fill:url(#radial-gradient-4);opacity:.7;}</style><linearGradient id="linear-gradient" x1="60.9" y1="-6.41" x2="60.9" y2="115.39" gradientUnits="userSpaceOnUse"><stop offset="0" stop-color="#414141"/><stop offset=".2" stop-color="#3e3e3e"/><stop offset="1" stop-color="#3a3a3a"/></linearGradient><radialGradient id="radial-gradient" cx="569.86" cy="-378.63" fx="569.86" fy="-378.63" r="207.23" gradientTransform="translate(-144.62 183.52) scale(.35)" gradientUnits="userSpaceOnUse"><stop offset=".67" stop-color="#fcfcfc" stop-opacity="0"/><stop offset="1" stop-color="#fcfcfc"/></radialGradient><radialGradient id="radial-gradient-2" cx="578.2" cy="-351.33" fx="578.2" fy="-351.33" r="172.39" gradientTransform="translate(-144.62 183.52) scale(.35)" gradientUnits="userSpaceOnUse"><stop offset=".11" stop-color="#0f0f0d" stop-opacity="0"/><stop offset=".89" stop-color="#414141" stop-opacity="0"/><stop offset=".93" stop-color="#1e1e1d" stop-opacity=".68"/><stop offset=".99" stop-color="#0f0f0d"/></radialGradient><radialGradient id="radial-gradient-3" cx="583.95" cy="-454.7" fx="583.95" fy="-454.7" r="334.84" gradientTransform="translate(-144.62 115.45) scale(.35 .2)" gradientUnits="userSpaceOnUse"><stop offset="0" stop-color="#5e5e60"/><stop offset="1" stop-color="#9c9c9c"/></radialGradient><radialGradient id="radial-gradient-4" cx="581.44" cy="-456.46" fx="581.44" fy="-456.46" r="65.39" gradientTransform="translate(-144.62 183.52) scale(.35)" gradientUnits="userSpaceOnUse"><stop offset="0" stop-color="#9e9e9e"/><stop offset="1" stop-color="gray"/></radialGradient><radialGradient id="radial-gradient-5" cx="612.11" cy="-393.35" fx="612.11" fy="-393.35" r="96.59" gradientTransform="translate(-144.61 255.2) scale(.34 .56)" gradientUnits="userSpaceOnUse"><stop offset="0" stop-color="#000"/><stop offset=".78" stop-color="#4f4f4f" stop-opacity="0"/></radialGradient><radialGradient id="radial-gradient-6" cx="580.05" cy="-476.12" fx="580.05" fy="-476.12" r="223.51" gradientTransform="translate(-144.62 183.52) scale(.35)" gradientUnits="userSpaceOnUse"><stop offset="0" stop-color="#f5f5f5"/><stop offset=".53" stop-color="#f2f2f2"/></radialGradient><linearGradient id="linear-gradient-2" x1="-972.41" y1="823.61" x2="-972.29" y2="823.61" gradientTransform="translate(-413021.94 487805.21) rotate(90) scale(501.59 -501.59)" gradientUnits="userSpaceOnUse"><stop offset="0" stop-color="#a76c23"/><stop offset="1" stop-color="#d79b44"/></linearGradient></defs><g class="cls-9"><g id="Layer_2"><g id="Icon_Locked"><path id="Rim" class="cls-12" d="m60.9,121.8C27.32,121.8,0,94.48,0,60.9S27.32,0,60.9,0s60.9,27.32,60.9,60.9-27.32,60.9-60.9,60.9Zm0-116.68C30.16,5.12,5.15,30.15,5.15,60.9s25.01,55.78,55.75,55.78,55.75-25.02,55.75-55.78S91.64,5.12,60.9,5.12Z"/><path id="Bottom_Light" class="cls-6" d="m60.9.02C27.33.02.02,27.33.02,60.9s27.31,60.88,60.88,60.88,60.88-27.31,60.88-60.88S94.47.02,60.9.02Z"/><path id="Inner_Shadow" class="cls-4" d="m60.9,121.8C27.32,121.8,0,94.48,0,60.9S27.32,0,60.9,0s60.9,27.32,60.9,60.9-27.32,60.9-60.9,60.9Zm0-116.68C30.16,5.12,5.15,30.15,5.15,60.9s25.01,55.78,55.75,55.78,55.75-25.02,55.75-55.78S91.64,5.12,60.9,5.12Z"/><path id="Bottom_Drop_Shadow" class="cls-8" d="m60.9,5.45C29.92,5.45,4.72,30.65,4.72,61.63s25.2,56.18,56.18,56.18,56.18-25.2,56.18-56.18S91.88,5.45,60.9,5.45Z"/><path id="Top_Drop_Shadow" class="cls-2" d="m60.9,121.8C27.32,121.8,0,94.48,0,60.9S27.32,0,60.9,0s60.9,27.32,60.9,60.9-27.32,60.9-60.9,60.9Zm0-120.5C27.32,1.3,0,28.26,0,61.39s27.32,60.09,60.9,60.09,60.9-26.96,60.9-60.09S94.48,1.3,60.9,1.3Z"/><path id="Background" class="cls-10" d="m60.9,5.12C30.15,5.12,5.12,30.14,5.12,60.9s25.02,55.78,55.78,55.78,55.78-25.02,55.78-55.78S91.66,5.12,60.9,5.12Z"/><path id="Lighten_Hole" class="cls-7" d="m60.9,9.76c-9.16,0-16.61,7.45-16.61,16.61s7.45,16.61,16.61,16.61,16.61-7.45,16.61-16.61-7.45-16.61-16.61-16.61Z"/><path id="Key_Double_Shadow" class="cls-11" d="m31.59,13.26s0,.04,0,.06c-.07.01-.07,0,0-.06Zm42.12,35.8l-.77,13.78,9.1,9.92-9.1,9.92,6.02,6.55-6.02,6.55.77,13.67h-25.61v-60.39c-10.18-5.21-17.12-16.47-17.12-29.41,0-2.17.3-4.17.61-6.33,1.1-.21,18.97-7.69,18.97-7.69-.15.81,20.86.81,20.71,0,0,0,17.26,7.43,18.99,7.79.44,2.13.59,4.1.59,6.23,0,12.94-7.1,24.2-17.12,29.41Zm16.51-35.8c.01.05.02.1.03.15.19.04.2,0-.03-.15Z"/><path id="Key_Drop_Shadow" class="cls-3" d="m31.02,97.33c-9.9-8.61-16.16-21.3-16.16-35.5,0-16.52,8.64-31.77,22.87-40.29-.25,1.65-.51,3.18-.51,4.83,0,9.79,5.72,18.3,14.1,22.24v44.61l10.55,10.55,10.55-10.55-.64-9.28,4.96-4.96-4.96-4.96,7.5-7.5-7.5-7.5.64-10.42c8.26-3.94,14.1-12.46,14.1-22.24,0-1.65-.13-3.18-.51-4.83,5.16,3.12,9.59,7.14,13.14,11.8-8.58-11.79-22.53-19.46-38.28-19.46-26.09,0-47.24,21.05-47.24,47.02,0,14.69,6.77,27.81,17.38,36.43Zm27.42-7.66h-3.56v-35.21h3.56v35.21Zm-5.08-73.97c2.8-.51,5.72-.76,8.51-.76,2.92-.13,5.72.25,8.51.76.13.64.25,1.27.25,1.91,0,4.83-3.94,8.77-8.77,8.77s-8.77-3.94-8.77-8.77c0-.64.13-1.27.25-1.91Z"/><path id="Key" class="cls-5" d="m60.9,5.12C30.16,5.12,5.15,30.15,5.15,60.9s25.01,55.78,55.75,55.78,55.75-25.02,55.75-55.78S91.64,5.12,60.9,5.12Zm-8.51,9.59c2.8-.51,5.72-.76,8.51-.76,2.92-.13,5.72.25,8.51.76.13.64.25,1.27.25,1.91,0,4.83-3.94,8.77-8.77,8.77s-8.77-3.94-8.77-8.77c0-.64.13-1.27.25-1.91Zm5.08,38.76v35.21h-3.56v-35.21h3.56Zm3.43,54.4c-25.92,0-47.02-20.97-47.02-47.03,0-16.52,8.64-31.77,22.87-40.29-.25,1.65-.51,3.18-.51,4.83,0,9.79,5.72,18.3,14.1,22.24v44.61l10.55,10.55,10.55-10.55-.64-9.28,4.96-4.96-4.96-4.96,7.5-7.5-7.5-7.5.64-10.42c8.26-3.94,14.1-12.46,14.1-22.24,0-1.65-.13-3.18-.51-4.83,14.1,8.52,22.75,23.77,22.87,40.29,0,25.93-20.97,47.03-47.02,47.03Z"/><path id="Lock_Color" class="cls-1" d="m71.92,117.68c-4.95,0-8.97-4.01-8.97-8.97v-27.43c0-4.42,3.35-8.16,7.63-8.83v-5.49c0-11.24,9.1-20.34,20.34-20.34s20.34,9.1,20.34,20.34v5.49c4.28.67,7.63,4.42,7.63,8.83v27.43c0,4.95-4.01,8.97-8.97,8.97h-38Zm26.9-45.23v-6.69c0-4.28-3.48-7.89-7.89-7.89s-7.76,3.48-7.76,7.89v6.69h15.66Z"/></g></g></g></svg>