<svg id="svg2" xmlns:cc="http://creativecommons.org/ns#" xmlns:dc="http://purl.org/dc/elements/1.1/" xmlns:osb="http://www.openswatchbook.org/uri/2009/osb" xmlns:rdf="http://www.w3.org/1999/02/22-rdf-syntax-ns#" xmlns:svg="http://www.w3.org/2000/svg" xmlns="http://www.w3.org/2000/svg" xmlns:xlink="http://www.w3.org/1999/xlink" viewBox="0 0 100 100" style="enable-background:new 0 0 100 100"><path d="M50 2.5C23.8 2.5 2.5 23.8 2.5 50S23.8 97.5 50 97.5c6.5.0 12.7-1.3 18.4-3.7h-8.8c-.3.0-.5.0-.7-.1.0.0-.1.0-.1.0-.2.0-.5-.1-.7-.2.0.0.0.0.0.0-2.6.5-5.3.7-8 .7C25.6 94.3 5.7 74.4 5.7 50S25.6 5.7 50 5.7 94.3 25.6 94.3 50c0 4.8-.8 9.4-2.2 13.8.4.4.7.8.9 1.3.0.0.0.0.0.0.1.1.2.3.2.5.0.0.0.1.0.1.1.1.1.3.2.4.0.1.0.1.0.2.0.1.1.2.1.4.0.1.0.2.0.3.0.1.0.2.0.3.0.2.0.4.0.6v.9c2.4-5.7 3.8-12 3.8-18.6C97.5 23.8 76.2 2.5 50 2.5z"/><path d="M44.5 44.2h2.8v27.7H44.5z"/><path d="M59.6 61.4V57.8L57.8 59.6z"/><path d="M73.8 49.1C70 49.1 67 52.2 67 56v6h13.7v-6C80.7 52.2 77.6 49.1 73.8 49.1z"/><path d="M58.3 39.6l-.5 8.2 3.1 3.1c2.3-4.9 7.2-8.3 12.9-8.3 5.9.0 11 3.8 13.2 9 0-.5.0-1.1.0-1.6-.1-13-6.9-25-18-31.7.3 1.3.4 2.5.4 3.8C69.4 29.8 64.8 36.5 58.3 39.6z"/><path d="M50 83l-8.3-8.3V39.6c-6.6-3.1-11.1-9.8-11.1-17.5.0-1.3.2-2.5.4-3.8C19.8 25 13 37 13 50c0 20.5 16.6 37 37 37 1.3.0 2.6-.1 3.9-.2v-7.7L50 83z"/><path d="M50 13.1c-2.2.0-4.5.2-6.7.6-.1.5-.2 1-.2 1.5.0 3.8 3.1 6.9 6.9 6.9s6.9-3.1 6.9-6.9c0-.5-.1-1-.2-1.5C54.5 13.3 52.3 13 50 13.1z"/><path d="M73.8 42.7c7.8.0 14.2 6.4 14.2 14.2V62c3.1.0 5.7 2.6 5.7 5.7v20.5c0 3.1-2.6 5.7-5.7 5.7H59.6c-3.1.0-5.7-2.6-5.7-5.7V67.6c0-3.1 2.6-5.7 5.7-5.7v-5.1C59.6 49.1 66 42.7 73.8 42.7M67 62h13.7v-6c0-3.8-3.1-6.9-6.9-6.9C70 49.1 67 52.2 67 56v6M73.8 40.7c-8.9.0-16.2 7.3-16.2 16.2v3.3c-3.3.9-5.7 3.9-5.7 7.4v20.5c0 4.2 3.4 7.7 7.7 7.7H88c4.2.0 7.7-3.4 7.7-7.7V67.6c0-3.5-2.4-6.5-5.7-7.4v-3.3C90 48 82.7 40.7 73.8 40.7v0zM69 60v-4c0-2.7 2.2-4.9 4.9-4.9 2.7.0 4.9 2.2 4.9 4.9v4H69v0z"/></svg>