<?xml version="1.0" encoding="UTF-8"?><svg id="b" xmlns="http://www.w3.org/2000/svg" viewBox="0 0 128 128"><g id="c"><rect width="128" height="128" style="fill:none; stroke-width:0px;"/><path d="m64,28.4885c4.8287,0,8.7679-3.9401,8.7679-8.7698,0-.6355-.1271-1.2709-.2542-1.9065-2.7955-.5084-5.5911-.8896-8.5138-.7625-2.7955,0-5.7182.2542-8.5137.7625-.1271.6356-.2542,1.271-.2542,1.9065,0,4.8297,3.9392,8.7698,8.7679,8.7698Z" style="fill:#0f0f0d; stroke-width:0px;"/><path d="m86.6088,58.0631c-1.8394,1.1351-2.9459,3.1661-2.9459,5.3275v8.3641h16.38v-7c0-6.0711-6.6846-10.8567-13.4341-6.6917Z" style="fill:#0f0f0d; stroke-width:0px;"/><path d="m53.4531,50.7306c-8.3867-3.9401-14.1049-12.4556-14.1049-22.2421,0-1.6523.2542-3.1775.5083-4.8298-14.2319,8.5156-22.8728,23.7673-22.8728,40.29,0,24.1918,18.1885,43.989,41.5388,46.6983v-10.2347l-5.0693-5.0704v-44.6113Z" style="fill:#0f0f0d; stroke-width:0px;"/><path d="m123.8043,75.4549c.7097-3.7126,1.0956-7.5386,1.0956-11.4548,0-33.5805-27.3193-60.9-60.8999-60.9S3.0999,30.4196,3.0999,64.0001s27.3196,60.9,60.9001,60.9c5.0994,0,10.0512-.6386,14.7881-1.8249l-9.0723.0002c-.3044,0-.6034-.0223-.9017-.0463.2983.024.5974.0457.9018.0457h44.1338c6.1719,0,11.1934-5.0205,11.1934-11.1924v-30.8877c0-1.9575-.4447-3.8377-1.2388-5.5397Zm-66.7931-18.8778v35.2061h1.5113v-10.7879c0-.3262.0132-.65.0375-.9714-.024.3212-.037.6448-.037.9707v30.8877c0,3.0512,1.2302,5.8181,3.2169,7.8391-.001-.001-.002-.0018-.003-.0028-29.6951-1.1935-53.4883-25.723-53.4883-55.7184,0-30.755,25.0099-55.7759,55.7514-55.7759s55.7512,25.0209,55.7512,55.7759c0,2.0822-.1242,4.1353-.3475,6.1589-.7296-.5236-1.5109-.9811-2.3406-1.3529v-2.791c0-8.027-3.7652-15.1869-9.6173-19.8212-3.8016-9.2543-10.4838-17.2112-19.3022-22.5352.3812,1.6523.5083,3.1774.5083,4.8297,0,4.8487-1.4382,9.3832-3.8906,13.2061.0031-.0009.0061-.0013.0092-.0022-1.7772.4825-3.5391,1.1374-5.2742,1.9848-7.8931,3.8555-12.9932,12.1621-12.9932,21.1621v3.9668c-2.4653,1.1048-4.5251,2.9335-5.937,5.1815.0011-.0017.002-.0035.0031-.0052v-17.4053h-3.5579Zm64.0317,55.3047c0,3.9725-3.2204,7.1929-7.193,7.1929h-44.134c-3.9726,0-7.193-3.2203-7.193-7.1929v-30.887c0-4.62,3.5-8.54,7.98-9.24v-6.9156c0-7.4088,4.0921-14.3167,10.7493-17.5682,16.0264-7.8276,31.8107,3.6011,31.8107,18.7438v5.74c4.48.7,7.98,4.62,7.98,9.24v30.887Z" style="fill:#0f0f0d; stroke-width:0px;"/></g></svg>