<?xml version="1.0" encoding="UTF-8"?><svg id="b" xmlns="http://www.w3.org/2000/svg" viewBox="0 0 128 128"><g id="c"><rect width="128" height="128" style="fill:none; stroke-width:0px;"/><path d="m64.0001,3.1C30.4344,3.1,3.1268,30.4196,3.1268,64s27.3076,60.9,60.8733,60.9c5.0972,0,10.0468-.6386,14.7816-1.8249l-9.0659.0002c-5.8972,0-10.7324-4.5876-11.1521-10.3796-24.5766-2.7011-43.7623-23.4863-43.7623-48.9033,0-17.2897,9.0419-33.2493,23.9344-42.16-.2659,1.7289-.5318,3.3249-.5318,5.0539,0,10.2407,5.9835,19.1516,14.7595,23.2744v46.6819l5.5588,5.56v-10.4196h-1.5113v-35.2061h3.558v17.4053c1.4119-2.2455,3.4703-4.0722,5.9338-5.1766v-3.9668c0-9,5.1006-17.3066,12.9932-21.1621,1.7899-.8741,3.6082-1.5444,5.4425-2.0302,3.0391-4.2258,4.8575-9.3926,4.8575-14.9603,0-1.729-.133-3.325-.5319-5.054,10.6012,6.4003,18.2292,16.4456,21.7485,27.9997,3.7678,4.4161,6.0499,10.1364,6.0499,16.3827v2.791c2.9691,1.3311,5.3574,3.7062,6.723,6.6068.7042-3.6993,1.0876-7.5112,1.0876-11.4125,0-33.5804-27.3074-60.9-60.873-60.9Zm0,25.3885c-4.8287,0-8.7679-3.94-8.7679-8.7698,0-.6355.1271-1.2709.2542-1.9064,2.7956-.5084,5.7182-.7626,8.5138-.7626,2.9226-.1271,5.7182.2542,8.5137.7626.1271.6355.2542,1.2709.2542,1.9064,0,4.8298-3.9393,8.7698-8.7679,8.7698Z" style="fill:#fcfcfc; stroke-width:0px;"/><path d="m113.0629,71.7548v-5.74c0-15.1427-15.7844-26.5714-31.8107-18.7438-6.6572,3.2515-10.7493,10.1594-10.7493,17.5682v6.9156c-4.48.7-7.98,4.62-7.98,9.24v30.887c0,3.9726,3.2204,7.193,7.193,7.193h44.134c3.9726,0,7.193-3.2205,7.193-7.193v-30.887c0-4.62-3.5-8.54-7.98-9.24Zm-13.02,0h-16.38v-8.3641c0-2.1614,1.1065-4.1924,2.9459-5.3275,6.7495-4.165,13.4341.6205,13.4341,6.6917v7Z" style="fill:#fcfcfc; stroke-width:0px;"/></g></svg>