<svg id="svg2" xmlns:cc="http://creativecommons.org/ns#" xmlns:dc="http://purl.org/dc/elements/1.1/" xmlns:osb="http://www.openswatchbook.org/uri/2009/osb" xmlns:rdf="http://www.w3.org/1999/02/22-rdf-syntax-ns#" xmlns:svg="http://www.w3.org/2000/svg" xmlns="http://www.w3.org/2000/svg" xmlns:xlink="http://www.w3.org/1999/xlink" viewBox="0 0 100 100" style="enable-background:new 0 0 100 100"><style>.st0{fill:none}.st1{fill:#fff}</style><path class="st0" d="M44.5 44.2h2.8v27.7H44.5z"/><path class="st0" d="M50 13.1c-2.2.0-4.5.2-6.7.6-.1.5-.2 1-.2 1.5.0 3.8 3.1 6.9 6.9 6.9s6.9-3.1 6.9-6.9c0-.5-.1-1-.2-1.5C54.5 13.3 52.3 13 50 13.1z"/><path class="st1" d="M91.6 64.4c-1-1.3-2.5-2.1-4.2-2.1v-4.9c0-1.3-.2-2.6-.6-3.9-1.6 17.2-15 30.9-32 33.1v.6c0 3 2.5 5.4 5.4 5.4h.4C75.1 89.1 86.8 78.3 91.6 64.4z"/><path class="st1" d="M50 1.5C23.3 1.5 1.5 23.3 1.5 50S23.3 98.5 50 98.5c4.9.0 9.6-.7 14.1-2.1H59c-.4.0-.7.0-1-.1-2.6.4-5.2.7-8 .7C24.1 97 3 75.9 3 50S24.1 3 50 3s47 21.1 47 47c0 4.9-.7 9.6-2.1 14 .4.7.7 1.4.9 2.1 1.8-5.1 2.8-10.5 2.8-16.1C98.5 23.3 76.7 1.5 50 1.5z"/><path class="st1" d="M92.7 72.9v-3.4C88 79.8 79.8 88 69.6 92.7H73C81.3 88.2 88.2 81.3 92.7 72.9z"/><path class="st1" d="M50 6C25.7 6 6 25.7 6 50s19.7 44 44 44c1.2.0 2.3-.1 3.5-.1-1.2-1.3-1.9-3-1.9-4.9v-2c-.5.0-1.1.0-1.6.0-20.4.0-37-16.5-37-37 0-13 6.8-25 18-31.7-.2 1.3-.4 2.5-.4 3.8.0 7.7 4.5 14.4 11.1 17.5v35.1L50 83l1.6-1.6V67.6c0-3.5 2.6-6.5 5.9-7.2v-4c0-2.6.6-5 1.7-7.2l-1.4-1.4.5-8.2c6.5-3.1 11.1-9.8 11.1-17.5.0-1.3-.1-2.5-.4-3.8C79.2 24.5 85.8 35.1 86.8 47c2 2.7 3.2 6 3.2 9.5v4c.9.2 1.7.5 2.5 1C93.5 57.9 94 54 94 50 94 25.7 74.3 6 50 6zM47.3 71.9h-2.8V44.2h2.8V71.9zM50 22.1c-3.8.0-6.9-3.1-6.9-6.9.0-.5.1-1 .2-1.5 2.2-.4 4.5-.6 6.7-.6 2.3-.1 4.5.2 6.7.6.1.5.2 1 .2 1.5C56.9 19 53.8 22.1 50 22.1z"/><path class="st1" d="M63.7 53.7l-2.2-2.2c-.8 1.7-1.3 3.6-1.3 5.7l3.5-3.5z"/><path class="st1" d="M60.2 62v.2c-3 0-5.4 2.5-5.4 5.4v10.6l3.5-3.5-.5-7.3 3.9-3.9L60.2 62z"/><path class="st1" d="M73.8 43.9c7.4.0 13.6 6.1 13.6 13.6v4.9c3 0 5.4 2.5 5.4 5.4v19.6c0 3-2.5 5.4-5.4 5.4H60.2c-3 0-5.4-2.5-5.4-5.4V67.6c0-3 2.5-5.4 5.4-5.4v-4.9C60.2 50 66.4 43.9 73.8 43.9M67.6 62h12.5v-5.5c0-3.5-2.8-6.3-6.3-6.3s-6.2 2.8-6.2 6.3V62"/></svg>