<svg baseProfile="basic" id="svg2" xmlns:cc="http://creativecommons.org/ns#" xmlns:dc="http://purl.org/dc/elements/1.1/" xmlns:osb="http://www.openswatchbook.org/uri/2009/osb" xmlns:rdf="http://www.w3.org/1999/02/22-rdf-syntax-ns#" xmlns:svg="http://www.w3.org/2000/svg" xmlns="http://www.w3.org/2000/svg" xmlns:xlink="http://www.w3.org/1999/xlink" viewBox="0 0 100 100"><path style="fill:#fff" d="M50 4.2C24.8 4.2 4.2 24.8 4.2 50S24.8 95.8 50 95.8 95.8 75.2 95.8 50 75.2 4.2 50 4.2zM43.3 13.7c2.2-.4 4.5-.6 6.7-.6 2.3-.1 4.5.2 6.7.6.1.5.2 1 .2 1.5.0 3.8-3.1 6.9-6.9 6.9s-6.9-3.1-6.9-6.9C43.1 14.7 43.2 14.2 43.3 13.7zM47.3 44.2v27.7h-2.8V44.2H47.3zM50 87c-20.4.0-37-16.5-37-37 0-13 6.8-25 18-31.7-.2 1.3-.4 2.5-.4 3.8.0 7.7 4.5 14.4 11.1 17.5v35.1L50 83l8.3-8.3-.5-7.3 3.9-3.9-3.9-3.9 5.9-5.9-5.9-5.9.5-8.2c6.5-3.1 11.1-9.8 11.1-17.5.0-1.3-.1-2.5-.4-3.8C80.1 25 86.9 37 87 50 87 70.4 70.5 87 50 87z"/></svg>