<svg baseProfile="basic" id="svg2" xmlns:cc="http://creativecommons.org/ns#" xmlns:dc="http://purl.org/dc/elements/1.1/" xmlns:osb="http://www.openswatchbook.org/uri/2009/osb" xmlns:rdf="http://www.w3.org/1999/02/22-rdf-syntax-ns#" xmlns:svg="http://www.w3.org/2000/svg" xmlns="http://www.w3.org/2000/svg" xmlns:xlink="http://www.w3.org/1999/xlink" viewBox="0 0 100 100"><path style="fill:#fff" d="M87.1 62.4v-4.8c0-7.3-6-13.3-13.3-13.3s-13.3 6-13.3 13.2v4.8c-2.9.0-5.3 2.4-5.3 5.3v19.3c0 2.9 2.4 5.3 5.3 5.3h26.6c2.9.0 5.3-2.4 5.3-5.3V67.7C92.4 64.8 90 62.4 87.1 62.4zM80.3 62.4H67.4V57c0-3.4 2.8-6.2 6.4-6.2 3.6.0 6.5 2.8 6.5 6.2V62.4zM50 4.2C24.8 4.2 4.2 24.8 4.2 50S24.8 95.8 50 95.8c2.3.0 4.6-.2 6.8-.5-2.9-1.1-4.9-3.9-4.9-7.2V87c-.6.0-1.3.0-1.9.0-20.4.0-37-16.5-37-37 0-13 6.8-25 18-31.7-.2 1.3-.4 2.5-.4 3.8.0 7.7 4.5 14.4 11.1 17.5v35.1L50 83l1.9-1.9V67.6c0-3.5 2.4-6.5 5.7-7.4v-3.3c0-2.7.7-5.2 1.8-7.5l-1.6-1.6.5-8.2c6.5-3.1 11.1-9.8 11.1-17.5.0-1.3-.1-2.5-.4-3.8 10.4 6.3 17 17.1 17.9 29.1 1.9 2.7 3.1 5.9 3.1 9.5v3.3c1.6.4 2.9 1.4 3.9 2.6 1.2-4.1 1.8-8.3 1.8-12.8C95.8 24.8 75.2 4.2 50 4.2zM47.3 71.9h-2.8V44.2h2.8V71.9zM50 22.1c-3.8.0-6.9-3.1-6.9-6.9.0-.5.1-1 .2-1.5 2.2-.4 4.5-.6 6.7-.6 2.3-.1 4.5.2 6.7.6.1.5.2 1 .2 1.5C56.9 19 53.8 22.1 50 22.1z"/></svg>