<svg id="svg2" xmlns:cc="http://creativecommons.org/ns#" xmlns:dc="http://purl.org/dc/elements/1.1/" xmlns:osb="http://www.openswatchbook.org/uri/2009/osb" xmlns:rdf="http://www.w3.org/1999/02/22-rdf-syntax-ns#" xmlns:svg="http://www.w3.org/2000/svg" xmlns="http://www.w3.org/2000/svg" xmlns:xlink="http://www.w3.org/1999/xlink" viewBox="0 0 100 100" style="enable-background:new 0 0 100 100"><style>.st0{fill-rule:evenodd;clip-rule:evenodd;fill:#fff;stroke:#515151;stroke-width:3.1319;stroke-linecap:round;stroke-linejoin:round;enable-background:new}.st1{fill:none}.st2{opacity:.94;fill:url(#path3336-3-2-7_1_);enable-background:new}</style><circle id="path5201" class="st0" cx="50" cy="50" r="45.9"/><circle id="path3336" class="st1" cx="50" cy="50" r="42.3"/><linearGradient id="path3336-3-2-7_1_" gradientUnits="userSpaceOnUse" x1="50" y1="87.1367" x2="50" y2="13.5328" gradientTransform="matrix(1 0 0 -1 0 99.8898)"><stop offset="0" style="stop-color:#226e23"/><stop offset="1" style="stop-color:#63ab3a"/></linearGradient><path id="path3336-3-2-7" class="st2" d="M56.7 13.7c.1.5.2 1 .2 1.5.0 3.8-3.1 6.9-6.9 6.9-3.8.0-6.9-3.1-6.9-6.9.0-.5.1-1 .2-1.5 2.2-.4 4.5-.6 6.7-.6C52.3 13 54.5 13.3 56.7 13.7zM30.6 22.1c0 7.7 4.5 14.4 11.1 17.5v35.1L50 83l8.3-8.3-.5-7.3 3.9-3.9-3.9-3.9 5.9-5.9-5.9-5.9.5-8.2c6.5-3.1 11.1-9.8 11.1-17.5.0-1.3-.1-2.5-.4-3.8C80.1 25 86.9 37 87 50c0 20.4-16.5 37-37 37-20.4.0-37-16.5-37-37 0-13 6.8-25 18-31.7C30.8 19.6 30.6 20.8 30.6 22.1zM44.5 44.2h2.8v27.7h-2.8V44.2v0 0z"/></svg>