<svg baseProfile="basic" id="svg2" xmlns:cc="http://creativecommons.org/ns#" xmlns:dc="http://purl.org/dc/elements/1.1/" xmlns:osb="http://www.openswatchbook.org/uri/2009/osb" xmlns:rdf="http://www.w3.org/1999/02/22-rdf-syntax-ns#" xmlns:svg="http://www.w3.org/2000/svg" xmlns="http://www.w3.org/2000/svg" xmlns:xlink="http://www.w3.org/1999/xlink" viewBox="0 0 100 100"><path d="M43.1 15.2c0-.5.1-1 .2-1.5 2.2-.4 4.5-.6 6.7-.6 2.3-.1 4.5.2 6.7.6.1.5.2 1 .2 1.5.0 3.8-3.1 6.9-6.9 6.9S43.1 19 43.1 15.2zM95 64.6c.4.9.7 1.9.7 3v20.5c0 4.3-3.5 7.7-7.7 7.7H62.6c-4 1.1-8.2 1.7-12.6 1.7C23.8 97.5 2.5 76.2 2.5 50S23.8 2.5 50 2.5s47.5 21.3 47.3 47.7C97.3 55.2 96.5 60.1 95 64.6zM50.1 94.2c1.5.0 3-.1 4.5-.2-1.7-1.4-2.7-3.5-2.7-5.9v-1.2C51.3 87 50.6 87 50 87c-20.4.0-37-16.5-37-37 0-13 6.8-25 18-31.7-.2 1.3-.4 2.5-.4 3.8.0 7.7 4.5 14.4 11.1 17.5v35.1L50 83l1.9-1.9V67.6c0-3.5 2.4-6.5 5.7-7.4v-3.3c0-2.7.7-5.2 1.8-7.5l-1.6-1.6.5-8.2c6.5-3.1 11.1-9.8 11.1-17.5.0-1.3-.1-2.5-.4-3.8 10.4 6.3 17 17.1 17.9 29.1 1.9 2.7 3.1 5.9 3.1 9.5v3.3c1 .3 1.9.8 2.7 1.4 1-3.7 1.6-7.6 1.6-11.6C94.3 25.6 74.4 5.7 50 5.7S5.7 25.6 5.7 50 25.6 94.3 50.1 94.2zM92.8 67.7c0-3-2.5-5.5-5.5-5.5v-4.9c0-7.5-6.1-13.6-13.6-13.6s-13.6 6.1-13.6 13.5v4.9c-3 0-5.5 2.5-5.5 5.5v19.7c0 3 2.5 5.5 5.5 5.5h27.2c3 0 5.5-2.5 5.5-5.5V67.7zM44.5 71.9h2.8V44.2h-2.8V71.9zM73.8 50C70 50 67 52.9 67 56.4v0V62h13.7v-5.6.0C80.7 52.9 77.6 50 73.8 50z"/></svg>