<?xml version="1.0" encoding="UTF-8"?><svg xmlns="http://www.w3.org/2000/svg" xmlns:xlink="http://www.w3.org/1999/xlink" viewBox="0 0 128 128"><defs><linearGradient id="d" x1="63.9998" y1="-3.314" x2="63.9998" y2="118.486" gradientUnits="userSpaceOnUse"><stop offset="0" stop-color="#414141"/><stop offset=".196" stop-color="#3e3e3e"/><stop offset="1" stop-color="#3a3a3a"/></linearGradient><radialGradient id="f" cx="572.9563" cy="-375.5301" fx="572.9563" fy="-375.5301" r="207.2339" gradientTransform="translate(-142.6166 185.5275) scale(.3539)" gradientUnits="userSpaceOnUse"><stop offset=".6733" stop-color="#fcfcfc" stop-opacity="0"/><stop offset="1" stop-color="#fcfcfc"/></radialGradient><radialGradient id="h" cx="581.3021" cy="-348.2325" fx="581.3021" fy="-348.2325" r="172.3893" gradientTransform="translate(-142.6166 185.5275) scale(.3539)" gradientUnits="userSpaceOnUse"><stop offset=".1088" stop-color="#0f0f0d" stop-opacity="0"/><stop offset=".8856" stop-color="#414141" stop-opacity="0"/><stop offset=".9339" stop-color="#1e1e1d" stop-opacity=".6841"/><stop offset=".9874" stop-color="#0f0f0d"/></radialGradient><radialGradient id="l" cx="587.0476" cy="-451.5973" fx="587.0476" fy="-451.5973" r="334.8364" gradientTransform="translate(-142.6166 117.9256) scale(.3539 .2026)" gradientUnits="userSpaceOnUse"><stop offset="0" stop-color="#464647"/><stop offset="1" stop-color="#969696"/></radialGradient><radialGradient id="n" cx="584.5424" cy="-453.363" fx="584.5424" fy="-453.363" r="65.3925" gradientTransform="translate(-142.6166 185.5275) scale(.3539)" gradientUnits="userSpaceOnUse"><stop offset="0" stop-color="#9e9e9e"/><stop offset="1" stop-color="gray"/></radialGradient><radialGradient id="p" cx="615.2084" cy="-390.2547" fx="615.2084" fy="-390.2547" r="96.5851" gradientTransform="translate(-142.5504 256.5751) scale(.3356 .5572)" gradientUnits="userSpaceOnUse"><stop offset="0" stop-color="#000"/><stop offset=".7842" stop-color="#4f4f4f" stop-opacity="0"/></radialGradient><radialGradient id="s" cx="583.1496" cy="-473.0178" fx="583.1496" fy="-473.0178" r="223.5101" gradientTransform="translate(-142.6166 185.5275) scale(.3539)" gradientUnits="userSpaceOnUse"><stop offset="0" stop-color="#f5f5f5"/><stop offset=".5286" stop-color="#f2f2f2"/></radialGradient><radialGradient id="w" cx="80.5687" cy="46.7363" fx="80.5687" fy="46.7363" r="35.2158" gradientUnits="userSpaceOnUse"><stop offset="0" stop-color="#bdbdbd"/><stop offset="1" stop-color="#827f7c"/></radialGradient><radialGradient id="x" cx="82.5929" cy="78.7539" fx="82.5929" fy="78.7539" r="59.9262" gradientUnits="userSpaceOnUse"><stop offset="0" stop-color="#e3aa66"/><stop offset="1" stop-color="#85662d"/></radialGradient></defs><g style="isolation:isolate;"><g id="b"><g id="c"><rect width="128" height="128" style="fill:none; stroke-width:0px;"/><path id="e" d="m63.9999,124.9c-33.5805,0-60.9001-27.3198-60.9001-60.9S30.4194,3.1,63.9999,3.1s60.8999,27.3195,60.8999,60.9-27.3193,60.9-60.8999,60.9Zm0-116.6759c-30.7415,0-55.7515,25.021-55.7515,55.7759s25.01,55.7759,55.7515,55.7759,55.7512-25.0212,55.7512-55.7759S94.7414,8.2241,63.9999,8.2241Z" style="fill:url(#d); stroke-width:0px;"/><path id="g" d="m63.9999,3.1238C30.4325,3.1238,3.1236,30.4327,3.1236,64s27.3089,60.8762,60.8763,60.8762,60.8761-27.3091,60.8761-60.8762S97.5674,3.1238,63.9999,3.1238Z" style="fill:url(#f); mix-blend-mode:lighten; opacity:.32; stroke-width:0px;"/><path id="i" d="m63.9999,124.9c-33.5805,0-60.9001-27.3198-60.9001-60.9S30.4194,3.1,63.9999,3.1s60.8999,27.3195,60.8999,60.9-27.3193,60.9-60.8999,60.9Zm0-116.6759c-30.7415,0-55.7515,25.021-55.7515,55.7759s25.01,55.7759,55.7515,55.7759,55.7512-25.0212,55.7512-55.7759S94.7414,8.2241,63.9999,8.2241Z" style="fill:url(#h); opacity:.44; stroke-width:0px;"/><path id="j" d="m63.9999,8.5504c-30.9783,0-56.1809,25.2025-56.1809,56.1808s25.2025,56.1808,56.1809,56.1808,56.1807-25.2028,56.1807-56.1808S94.9783,8.5504,63.9999,8.5504Z" style="fill:rgba(15,15,13,.35); stroke-width:0px;"/><path id="k" d="m63.9999,124.9c-33.5805,0-60.9001-27.3198-60.9001-60.9S30.4194,3.1,63.9999,3.1s60.8999,27.3195,60.8999,60.9-27.3193,60.9-60.8999,60.9Zm0-120.4966C30.4195,4.4034,3.0998,31.3596,3.0998,64.4932s27.3197,60.0898,60.9001,60.0898,60.8999-26.9565,60.8999-60.0898S97.5804,4.4034,64,4.4034Z" style="fill:#0f0f0d; opacity:.35; stroke-width:0px;"/><path id="m" d="m63.9999,8.2241c-30.7551,0-55.776,25.0209-55.776,55.7759s25.0209,55.7759,55.776,55.7759,55.7758-25.0211,55.7758-55.7759S94.755,8.2241,63.9999,8.2241Z" style="fill:url(#l); stroke-width:0px;"/><path id="o" d="m63.9998,12.8613c-9.1608,0-16.6136,7.4528-16.6136,16.6135s7.4528,16.6135,16.6136,16.6135,16.6135-7.4528,16.6135-16.6135-7.4527-16.6135-16.6135-16.6135Z" style="fill:url(#n); mix-blend-mode:lighten; opacity:.7; stroke-width:0px;"/><path id="q" d="m34.6871,16.3645c-.0027.0191-.0054.0378-.0081.0569-.0725.0136-.0736-.0037.0081-.0569Zm42.1177,35.8001l-.7714,13.7822,9.1023,9.9165-9.1023,9.9165,6.0168,6.5549-6.0168,6.5549.7714,13.6696h-25.61v-60.3946c-10.1823-5.2104-17.1248-16.4714-17.1248-29.4132,0-2.1659.3032-4.1671.609-6.33,1.1046-.2082,18.9673-7.6947,18.9673-7.6947-.1483.8092,20.8551.8092,20.7068,0,0,0,17.2577,7.4257,18.9891,7.7899.438,2.1264.5873,4.101.5873,6.2348,0,12.9418-7.0968,24.2029-17.1248,29.4133Zm16.5077-35.8001c.0108.0511.0194.1011.0299.1521.1896.0399.196-.0035-.0299-.1521Z" style="fill:url(#p); mix-blend-mode:multiply; opacity:.3; stroke-width:0px;"/><path id="r" d="m34.1161,100.4319c-9.8977-8.6081-16.164-21.2969-16.164-35.4968,0-16.5227,8.6409-31.7744,22.8728-40.29-.2541,1.6523-.5083,3.1774-.5083,4.8297,0,9.7865,5.7182,18.302,14.1049,22.2421v44.6113l10.5469,10.5491,10.5469-10.5491-.6354-9.2781,4.9558-4.9568-4.9558-4.9568,7.4972-7.4988-7.4972-7.4988.6354-10.422c8.2596-3.94,14.1049-12.4556,14.1049-22.2421,0-1.6523-.1271-3.1774-.5083-4.8297,5.1643,3.1178,9.5922,7.1416,13.1419,11.7972-8.5841-11.7889-22.5293-19.4587-38.2766-19.4587-26.0911,0-47.2421,21.05-47.2421,47.0165,0,14.693,6.7736,27.8101,17.3809,36.4318Zm27.4214-7.6624h-3.558v-35.2061h3.558v35.2061Zm-5.0828-73.9708c2.7956-.5084,5.7182-.7626,8.5138-.7626,2.9226-.1271,5.7182.2542,8.5138.7626.1271.6355.2542,1.271.2542,1.9064,0,4.8297-3.9392,8.7698-8.7679,8.7698s-8.7679-3.94-8.7679-8.7698c0-.6355.1271-1.2709.2542-1.9064Z" style="fill:#0f0f0d; mix-blend-mode:multiply; opacity:.2; stroke-width:0px;"/><path id="t" d="m63.9999,8.2241c-30.7415,0-55.7514,25.0209-55.7514,55.7759s25.01,55.7759,55.7514,55.7759,55.7512-25.0212,55.7512-55.7759S94.7414,8.2241,63.9999,8.2241Zm-8.5138,9.5882c2.7956-.5084,5.7182-.7626,8.5138-.7626,2.9226-.1271,5.7182.2542,8.5138.7626.1271.6355.2542,1.271.2542,1.9064,0,4.8297-3.9392,8.7698-8.7679,8.7698s-8.7679-3.94-8.7679-8.7698c0-.6355.1271-1.2709.2542-1.9064Zm5.0828,38.7648v35.2061h-3.558v-35.2061h3.558Zm3.4309,54.3978c-25.9225,0-47.0163-20.9711-47.0163-47.0261,0-16.5227,8.6409-31.7744,22.8728-40.29-.2541,1.6523-.5083,3.1774-.5083,4.8297,0,9.7865,5.7182,18.302,14.1049,22.2421v44.6113l10.5469,10.5491,10.5469-10.5491-.6354-9.2781,4.9558-4.9568-4.9558-4.9568,7.4972-7.4988-7.4972-7.4988.6354-10.422c8.2596-3.94,14.1049-12.4556,14.1049-22.2421,0-1.6523-.1271-3.1774-.5083-4.8297,14.1049,8.5156,22.7457,23.7673,22.8728,40.29,0,25.9279-20.9668,47.0261-47.0163,47.0261Z" style="fill:url(#s); stroke-width:0px;"/><path id="u" d="m69.9061,122.3386c-.4683.0032-1.0452-.0536-1.5706-.1398-4.3797-.6648-7.8347-4.7746-7.7638-9.1942,0,0,0-31.3613,0-31.3613,0-5.0272,3.3802-9.4758,8.103-10.9824v-5.4208c0-8.3682,4.7317-16.0865,12.0533-19.6625,5.8928-2.9203,12.9109-3.6848,19.1598-1.5354.906.3137,1.8128.6769,2.6752,1.0897,8.1532,3.9075,13.4032,12.2697,13.386,21.3016,0,0,0,4.2295,0,4.2295,3.0154.9505,5.6736,3.2724,7.0103,6.1491.3646.7783.6561,1.646.8379,2.4794.0595.2821.1031.5543.1408.8284.0849.5225.1082.9946.114,1.5235,0,0,0,31.3614,0,31.3614,0,5.1467-4.1873,9.334-9.3345,9.334,0,0-44.8113,0-44.8113,0Zm28.762-52.1076v-5.0768c.0457-3.4121-2.9043-6.3738-6.337-6.342l-.0932-.0025c-1.6206.0468-3.2635.6278-4.5572,1.5944l-.3421.3208c-.1467.1458-.2261.2528-.3084.358l-.121.1453c-.0785.1058-.2.316-.2895.4685-.3282.6128-.5087,1.3123-.5166,2.0198l-.005.1244v6.3901h12.5699Zm-6.3935-11.4217h-.002.002Z" style="fill:#383838; opacity:.95; stroke-width:0px;"/><g id="v"><path d="m81.2522,47.2711c-6.6572,3.2515-10.7493,10.1594-10.7493,17.5682v6.9156h13.16v-8.3641c0-2.1614,1.1065-4.1924,2.9459-5.3275,6.7495-4.165,13.4341.6205,13.4341,6.6917v7h13.02v-5.74c0-15.1427-15.7844-26.5714-31.8107-18.7438Z" style="fill:url(#w); stroke-width:0px;"/><path d="m113.0629,71.7548h-42.56c-4.48.7-7.98,4.62-7.98,9.24v30.887c0,3.9726,3.2204,7.193,7.193,7.193h44.134c3.9726,0,7.193-3.2205,7.193-7.193v-30.887c0-4.62-3.5-8.54-7.98-9.24Z" style="fill:url(#x); stroke-width:0px;"/><path d="m118.8371,75.0168c.1086,6.6545.3748,27.2161-.111,34.3618-.2695,3.9634-3.2258,6.985-7.193,7.1929-10.3801.544-38.6413.2104-47.2669.093,1.5507,1.3157,3.0434,2.4103,5.4497,2.4103h44.134c3.9726,0,7.193-3.2205,7.193-7.193v-30.887c0-1.9577-.6602-3.9142-2.2058-5.978Z" style="fill:#0f0f0d; mix-blend-mode:multiply; opacity:.4; stroke-width:0px;"/><g style="opacity:.4;"><polygon points="70.4654 69.411 70.4654 71.7548 83.6629 71.7548 83.6629 68.3181 70.4654 69.411" style="fill:#383838; stroke-width:0px;"/><path d="m100.0429,66.9578v4.7971h13.02v-5.74c0-.0464-.0042-.0917-.0045-.138l-13.0155,1.0809Z" style="fill:#383838; stroke-width:0px;"/></g><path d="m81.2522,47.2711c-6.6572,3.2515-10.7493,10.1594-10.7493,17.5682v1.9236c4.7255-.6412,9.161-1.8238,13.1647-3.4471.0255-2.1331,1.1232-4.1308,2.9412-5.2526,2.8146-1.7369,5.6107-1.9022,7.9227-1.082,3.3847-2.7872,5.9994-6.0204,7.6243-9.5502-5.8235-3.2552-13.3354-3.8564-20.9036-.16Z" style="fill:#fcfcfc; mix-blend-mode:screen; opacity:.4; stroke-width:0px;"/></g></g></g></g></svg>