<?xml version="1.0" encoding="UTF-8"?><svg id="b" xmlns="http://www.w3.org/2000/svg" viewBox="0 0 128 128"><g id="c"><rect width="128" height="128" style="fill:none; stroke-width:0px;"/><path d="m64.0001,3.1C30.4344,3.1,3.1267,30.4196,3.1267,64s27.3077,60.9,60.8733,60.9,60.873-27.3199,60.873-60.9S97.5657,3.1,64.0001,3.1Zm-8.5138,14.7123c2.7956-.5084,5.7182-.7626,8.5138-.7626,2.9226-.1271,5.7182.2542,8.5137.7626.1271.6355.2542,1.2709.2542,1.9064,0,4.8298-3.9393,8.7698-8.7679,8.7698s-8.7679-3.94-8.7679-8.7698c0-.6355.1271-1.2709.2542-1.9064Zm5.0829,38.7648v35.2061h-3.558v-35.2061h3.558Zm3.4309,56.4242c-27.1257,0-49.1986-21.9445-49.1986-49.2088,0-17.2897,9.0419-33.2493,23.9344-42.16-.2659,1.7289-.5318,3.3249-.5318,5.0539,0,10.2407,5.9835,19.1515,14.7595,23.2744v46.6819l11.0365,11.0387,11.0364-11.0387-.6648-9.7088,5.1858-5.1869-5.1858-5.1869,7.8452-7.8468-7.8452-7.8468.6648-10.9057c8.643-4.1229,14.7596-13.0337,14.7596-23.2744,0-1.729-.133-3.325-.5319-5.0539,14.7596,8.9108,23.8015,24.8704,23.9344,42.1601,0,27.1313-21.9399,49.2088-49.1985,49.2088Z" style="fill:#fcfcfc; stroke-width:0px;"/></g></svg>