<?xml version="1.0" encoding="UTF-8"?><svg xmlns="http://www.w3.org/2000/svg" xmlns:xlink="http://www.w3.org/1999/xlink" viewBox="0 0 87 87"><defs><linearGradient id="e" x1="43.5" y1="-4.5815" x2="43.5" y2="82.4185" gradientUnits="userSpaceOnUse"><stop offset="0" stop-color="#414141"/><stop offset=".196" stop-color="#3e3e3e"/><stop offset="1" stop-color="#3a3a3a"/></linearGradient><radialGradient id="g" cx="285.3906" cy="113.0821" fx="285.3906" fy="113.0821" r="148.0242" gradientTransform="translate(-60.2432 -4.0121) scale(.3539)" gradientUnits="userSpaceOnUse"><stop offset=".6733" stop-color="#fcfcfc" stop-opacity="0"/><stop offset="1" stop-color="#fcfcfc"/></radialGradient><radialGradient id="i" cx="291.3519" cy="132.5804" fx="291.3519" fy="132.5804" r="123.1352" gradientTransform="translate(-60.2432 -4.0121) scale(.3539)" gradientUnits="userSpaceOnUse"><stop offset=".1088" stop-color="#0f0f0d" stop-opacity="0"/><stop offset=".8856" stop-color="#414141" stop-opacity="0"/><stop offset=".9339" stop-color="#1e1e1d" stop-opacity=".6841"/><stop offset=".9874" stop-color="#0f0f0d"/></radialGradient><radialGradient id="n" cx="295.4558" cy="58.7484" fx="295.4558" fy="58.7484" r="239.1689" gradientTransform="translate(-60.2432 4.7822) scale(.3539 .2026)" gradientUnits="userSpaceOnUse"><stop offset="0" stop-color="#2e6b26"/><stop offset="1" stop-color="#6ab536"/></radialGradient><radialGradient id="p" cx="293.6664" cy="57.4871" fx="293.6664" fy="57.4871" r="46.7089" gradientTransform="translate(-60.2432 -4.0121) scale(.3539)" gradientUnits="userSpaceOnUse"><stop offset="0" stop-color="#6ab536"/><stop offset="1" stop-color="#2e6b26"/></radialGradient><radialGradient id="r" cx="301.7842" cy="84.645" fx="301.7842" fy="84.645" r="68.9894" gradientTransform="translate(-57.8398 -21.4365) scale(.3356 .5572)" gradientUnits="userSpaceOnUse"><stop offset="0" stop-color="#000"/><stop offset=".7842" stop-color="#4f4f4f" stop-opacity="0"/></radialGradient><radialGradient id="u" cx="292.6715" cy="43.448" fx="292.6715" fy="43.448" r="159.6501" gradientTransform="translate(-60.2432 -4.0121) scale(.3539)" gradientUnits="userSpaceOnUse"><stop offset="0" stop-color="#f5f5f5"/><stop offset=".5036" stop-color="#f2f2f2"/></radialGradient></defs><g style="isolation:isolate;"><g id="b"><g id="c"><g id="d"><path id="f" d="m43.5001,87C19.514,87,0,67.4859,0,43.5S19.514,0,43.5001,0s43.4999,19.5139,43.4999,43.5-19.5138,43.5-43.4999,43.5Zm0-83.3399C21.5419,3.6601,3.6776,21.5322,3.6776,43.5s17.8643,39.8399,39.8225,39.8399,39.8223-17.8723,39.8223-39.8399S65.4583,3.6601,43.5001,3.6601Z" style="fill:url(#e);"/><path id="h" d="m43.5001.017C19.5233.017.017,19.5233.017,43.5s19.5064,43.483,43.4831,43.483,43.4829-19.5065,43.4829-43.483S67.4768.017,43.5001.017Z" style="fill:url(#g); mix-blend-mode:lighten; opacity:.32;"/><path id="j" d="m43.5001,87C19.514,87,0,67.4859,0,43.5S19.514,0,43.5001,0s43.4999,19.5139,43.4999,43.5-19.5138,43.5-43.4999,43.5Zm0-83.3399C21.5419,3.6601,3.6776,21.5322,3.6776,43.5s17.8643,39.8399,39.8225,39.8399,39.8223-17.8723,39.8223-39.8399S65.4583,3.6601,43.5001,3.6601Z" style="fill:url(#i); opacity:.44;"/><path id="k" d="m43.5001,3.8931C21.3727,3.8931,3.3709,21.8949,3.3709,44.0222s18.0018,40.1291,40.1292,40.1291,40.129-18.002,40.129-40.1291S65.6275,3.8931,43.5001,3.8931Z" style="fill:rgba(15,15,13,.35);"/><path id="l" d="m43.5001,87C19.514,87,0,67.4859,0,43.5S19.514,0,43.5001,0s43.4999,19.5139,43.4999,43.5-19.5138,43.5-43.4999,43.5Zm0-86.069C19.5141.931,0,20.1854,0,43.8523s19.5141,42.9213,43.5001,42.9213,43.4999-19.2546,43.4999-42.9213S67.4862.931,43.5001.931Z" style="fill:#0f0f0d; opacity:.35;"/></g><g id="m"><path id="o" d="m43.5001,3.6601C21.5322,3.6601,3.6601,21.5321,3.6601,43.5s17.8721,39.8399,39.84,39.8399,39.8399-17.8722,39.8399-39.8399S65.468,3.6601,43.5001,3.6601Z" style="fill:url(#n);"/><path id="q" d="m43.5,6.9724c-6.5434,0-11.8668,5.3234-11.8668,11.8668s5.3234,11.8668,11.8668,11.8668,11.8668-5.3235,11.8668-11.8668-5.3234-11.8668-11.8668-11.8668Z" style="fill:url(#p); mix-blend-mode:lighten; opacity:.7;"/><path id="s" d="m22.5624,9.4746c-.0019.0137-.0038.027-.0058.0406-.0518.0097-.0526-.0026.0058-.0406Zm30.0841,25.5715l-.551,9.8444,6.5017,7.0832-6.5017,7.0832,4.2977,4.6821-4.2977,4.6821.551,9.764h-18.2929v-43.139c-7.2731-3.7217-12.232-11.7653-12.232-21.0094,0-1.5471.2166-2.9765.435-4.5215.789-.1487,13.5481-5.4962,13.5481-5.4962-.1059.578,14.8965.578,14.7906,0,0,0,12.3269,5.3041,13.5637,5.5642.3128,1.5189.4195,2.9293.4195,4.4534,0,9.2442-5.0691,17.2878-12.232,21.0095Zm11.7912-25.5715c.0077.0365.0138.0722.0213.1086.1354.0285.14-.0025-.0213-.1086Z" style="fill:url(#r); mix-blend-mode:multiply; opacity:.3;"/><path id="t" d="m22.1545,69.5227c-7.0698-6.1486-11.5457-15.2121-11.5457-25.3548,0-11.8019,6.172-22.696,16.3377-28.7786-.1815,1.1802-.3631,2.2696-.3631,3.4498,0,6.9903,4.0844,13.0729,10.0749,15.8872v31.8652l7.5335,7.5351,7.5335-7.5351-.4538-6.6272,3.5398-3.5406-3.5398-3.5406,5.3551-5.3563-5.3551-5.3563.4538-7.4443c5.8997-2.8143,10.0749-8.8968,10.0749-15.8872,0-1.1802-.0908-2.2696-.3631-3.4498,3.6888,2.227,6.8516,5.1011,9.3871,8.4266-6.1315-8.4206-16.0924-13.8991-27.3404-13.8991-18.6365,0-33.7443,15.0357-33.7443,33.5832,0,10.495,4.8383,19.8644,12.4149,26.0227Zm19.5867-5.4731h-2.5414v-25.1472h2.5414v25.1472Zm-3.6306-52.8363c1.9968-.3631,4.0844-.5447,6.0813-.5447,2.0876-.0908,4.0844.1815,6.0813.5447.0908.4539.1815.9078.1815,1.3617,0,3.4498-2.8137,6.2641-6.2628,6.2641s-6.2628-2.8143-6.2628-6.2641c0-.4539.0908-.9078.1815-1.3617Z" style="fill:#0f0f0d; mix-blend-mode:multiply; opacity:.2;"/><path id="v" d="m43.5001,3.6601C21.5419,3.6601,3.6776,21.5322,3.6776,43.5s17.8643,39.8399,39.8225,39.8399,39.8223-17.8723,39.8223-39.8399S65.4583,3.6601,43.5001,3.6601Zm-6.0813,6.8487c1.9968-.3631,4.0844-.5447,6.0813-.5447,2.0876-.0908,4.0844.1815,6.0813.5447.0908.4539.1815.9078.1815,1.3617,0,3.4498-2.8137,6.2641-6.2628,6.2641s-6.2628-2.8143-6.2628-6.2641c0-.4539.0908-.9078.1815-1.3617Zm3.6306,27.6891v25.1472h-2.5414v-25.1472h2.5414Zm2.4507,38.8556c-18.5161,0-33.5831-14.9794-33.5831-33.5901,0-11.8019,6.172-22.696,16.3377-28.7786-.1815,1.1802-.3631,2.2696-.3631,3.4498,0,6.9903,4.0844,13.0729,10.0749,15.8872v31.8652l7.5335,7.5351,7.5335-7.5351-.4538-6.6272,3.5398-3.5406-3.5398-3.5406,5.3551-5.3563-5.3551-5.3563.4538-7.4443c5.8997-2.8143,10.0749-8.8968,10.0749-15.8872,0-1.1802-.0908-2.2696-.3631-3.4498,10.0749,6.0826,16.247,16.9766,16.3377,28.7786,0,18.5199-14.9763,33.5901-33.5831,33.5901Z" style="fill:url(#u);"/></g></g></g></g></svg>