<?xml version="1.0" encoding="UTF-8"?><svg id="b" xmlns="http://www.w3.org/2000/svg" viewBox="0 0 87 87"><g id="c"><g id="d"><path id="e" d="m43.5001,87C19.514,87,0,67.4859,0,43.5S19.514,0,43.5001,0s43.4999,19.5139,43.4999,43.5-19.5138,43.5-43.4999,43.5Zm0-83.3399C21.5419,3.6601,3.6776,21.5322,3.6776,43.5s17.8643,39.8399,39.8225,39.8399,39.8223-17.8723,39.8223-39.8399S65.4583,3.6601,43.5001,3.6601Z" style="fill:#0f0f0d;"/></g><g id="f"><path id="g" d="m43.5001,3.6601C21.5322,3.6601,3.6601,21.5321,3.6601,43.5s17.8721,39.8399,39.84,39.8399,39.8399-17.8722,39.8399-39.8399S65.468,3.6601,43.5001,3.6601Z" style="fill:#0f0f0d;"/><path id="h" d="m43.5001,3.6601C21.5419,3.6601,3.6776,21.5322,3.6776,43.5s17.8643,39.8399,39.8225,39.8399,39.8223-17.8723,39.8223-39.8399S65.4583,3.6601,43.5001,3.6601Zm-6.0813,6.8487c1.9968-.3631,4.0844-.5447,6.0813-.5447,2.0876-.0908,4.0844.1815,6.0813.5447.0908.4539.1815.9078.1815,1.3617,0,3.4498-2.8137,6.2641-6.2628,6.2641s-6.2628-2.8143-6.2628-6.2641c0-.4539.0908-.9078.1815-1.3617Zm3.6306,27.6891v25.1472h-2.5414v-25.1472h2.5414Zm2.4507,38.8556c-18.5161,0-33.5831-14.9794-33.5831-33.5901,0-11.8019,6.172-22.696,16.3377-28.7786-.1815,1.1802-.3631,2.2696-.3631,3.4498,0,6.9903,4.0844,13.0729,10.0749,15.8872v31.8652l7.5335,7.5351,7.5335-7.5351-.4538-6.6272,3.5398-3.5406-3.5398-3.5406,5.3551-5.3563-5.3551-5.3563.4538-7.4443c5.8997-2.8143,10.0749-8.8968,10.0749-15.8872,0-1.1802-.0908-2.2696-.3631-3.4498,10.0749,6.0826,16.247,16.9766,16.3377,28.7786,0,18.5199-14.9763,33.5901-33.5831,33.5901Z" style="fill:#fcfcfc;"/></g></g></svg>