<?xml version="1.0" encoding="UTF-8"?><svg id="b" xmlns="http://www.w3.org/2000/svg" viewBox="0 0 87 87"><g id="c"><g id="d"><rect x="38.508" y="38.1979" width="2.5414" height="25.1472" style="fill:#0f0f0d;"/><path d="m43.5001,18.1346c3.4491,0,6.2628-2.8143,6.2628-6.2641,0-.4539-.0908-.9078-.1815-1.3617-1.9968-.3631-3.9937-.6355-6.0813-.5447-1.9968,0-4.0844.1815-6.0813.5447-.0908.4539-.1815.9078-.1815,1.3617,0,3.4498,2.8137,6.2641,6.2628,6.2641Z" style="fill:#0f0f0d;"/><path d="m60.7455,14.6848c.2723,1.1802.3631,2.2696.3631,3.4498,0,6.9904-4.1752,13.0729-10.0749,15.8872l-.4538,7.4443,5.3551,5.3563-5.3551,5.3563,3.5398,3.5406-3.5398,3.5406.4538,6.6272-7.5335,7.5351-7.5335-7.5351v-31.8652c-5.9905-2.8143-10.0749-8.8968-10.0749-15.8872,0-1.1802.1815-2.2696.3631-3.4498-10.1657,6.0825-16.3377,16.9766-16.3377,28.7786,0,18.6107,15.067,33.5901,33.5831,33.5901,18.6068,0,33.5831-15.0702,33.5831-33.5901-.0908-11.8019-6.2628-22.696-16.3377-28.7786Z" style="fill:#0f0f0d;"/><path d="m43.5001,0C19.514,0,0,19.5139,0,43.5s19.514,43.5,43.5001,43.5,43.4999-19.5141,43.4999-43.5S67.4862,0,43.5001,0Zm0,83.3399c-21.9582,0-39.8225-17.8723-39.8225-39.8399S21.5419,3.6601,43.5001,3.6601s39.8223,17.8721,39.8223,39.8399-17.8641,39.8399-39.8223,39.8399Z" style="fill:#0f0f0d;"/></g></g></svg>