<?xml version="1.0" encoding="UTF-8"?><svg xmlns="http://www.w3.org/2000/svg" xmlns:xlink="http://www.w3.org/1999/xlink" viewBox="0 0 128 128"><defs><filter id="d"><feGaussianBlur in="SourceGraphic" stdDeviation="3"/></filter><linearGradient id="g" x1="63.9998" y1="12.5728" x2="63.9998" y2="115.4272" gradientUnits="userSpaceOnUse"><stop offset="0" stop-color="#fff"/><stop offset="1" stop-color="#dbdbdb"/></linearGradient><linearGradient id="i" x1="63.9997" y1="20.4513" x2="63.9997" y2="107.5488" gradientUnits="userSpaceOnUse"><stop offset="0" stop-color="#000"/><stop offset="1" stop-color="#000" stop-opacity=".2"/></linearGradient></defs><g style="isolation:isolate;"><g id="b"><g id="c"><rect width="128" height="128" style="fill:none; stroke-width:0px;"/><g id="e" style="filter:url(#d);"><rect x="12.5727" y="16.4869" width="102.8543" height="100.3513" rx="22.5532" ry="22.5532" style="opacity:.3; stroke-width:0px;"/></g><g id="f"><rect x="12.5727" y="12.5728" width="102.8543" height="102.8543" rx="22.8327" ry="22.8327" style="fill:url(#g); stroke-width:0px;"/><rect x="12.5727" y="12.5728" width="102.8543" height="102.8543" rx="22.8327" ry="22.8327" style="fill:none; mix-blend-mode:overlay; stroke:#b9b9b9; stroke-miterlimit:10; stroke-width:.1058px;"/></g><g id="h"><g style="opacity:.6;"><path d="m63.9998,20.8039c23.7037,0,42.9881,19.3777,42.9881,43.1962s-19.2844,43.1962-42.9881,43.1962-42.9883-19.3777-42.9883-43.1962S40.296,20.8039,63.9998,20.8039m0-.3525c-23.8983,0-43.3408,19.5358-43.3408,43.5487s19.4425,43.5487,43.3408,43.5487,43.3407-19.536,43.3407-43.5487-19.4424-43.5487-43.3407-43.5487h0Z" style="fill:url(#i); stroke-width:0px;"/></g></g><path id="j" d="m63.9998,107.5c-23.9861,0-43.5001-19.5141-43.5001-43.5S40.0137,20.5,63.9998,20.5s43.4999,19.5139,43.4999,43.5-19.5138,43.5-43.4999,43.5Zm0-83.3399c-21.9582,0-39.8225,17.8721-39.8225,39.8399s17.8643,39.8399,39.8225,39.8399,39.8223-17.8723,39.8223-39.8399-17.8641-39.8399-39.8223-39.8399Z" style="fill:#0f0f0d; stroke-width:0px;"/><path id="k" d="m63.9998,24.1601c-21.9679,0-39.84,17.8721-39.84,39.8399s17.8721,39.8399,39.84,39.8399,39.8399-17.8722,39.8399-39.8399-17.8719-39.8399-39.8399-39.8399Z" style="fill:#0f0f0d; stroke-width:0px;"/><path id="l" d="m63.9998,24.1601c-21.9582,0-39.8225,17.8721-39.8225,39.8399s17.8643,39.8399,39.8225,39.8399,39.8223-17.8723,39.8223-39.8399-17.8641-39.8399-39.8223-39.8399Zm-6.0813,6.8487c1.9968-.3631,4.0844-.5447,6.0813-.5447,2.0876-.0908,4.0844.1815,6.0813.5447.0908.4539.1815.9078.1815,1.3617,0,3.4498-2.8137,6.2641-6.2628,6.2641s-6.2628-2.8143-6.2628-6.2641c0-.4539.0908-.9078.1815-1.3617Zm3.6306,27.6891v25.1472h-2.5414v-25.1472h2.5414Zm2.4507,38.8556c-18.5161,0-33.5831-14.9794-33.5831-33.5901,0-11.8019,6.172-22.696,16.3377-28.7786-.1815,1.1802-.3631,2.2696-.3631,3.4498,0,6.9903,4.0844,13.0729,10.0749,15.8872v31.8652l7.5335,7.5351,7.5335-7.5351-.4538-6.6272,3.5398-3.5406-3.5398-3.5406,5.3551-5.3563-5.3551-5.3563.4538-7.4443c5.8997-2.8143,10.0749-8.8968,10.0749-15.8872,0-1.1802-.0908-2.2696-.3631-3.4498,10.0749,6.0826,16.247,16.9766,16.3377,28.7786,0,18.5199-14.9763,33.5901-33.5831,33.5901Z" style="fill:#fcfcfc; stroke-width:0px;"/></g></g></g></svg>