<?xml version="1.0" encoding="UTF-8"?>
<svg width="128" height="128" version="1.0" xmlns="http://www.w3.org/2000/svg" xmlns:xlink="http://www.w3.org/1999/xlink"><defs><linearGradient id="linearGradient3895-3" x1="82.16" x2="94.22" y1="90.38" y2="102.2" gradientTransform="matrix(1.409 0 0 1.411 -46.6 -46.23)" gradientUnits="userSpaceOnUse"><stop stop-color="#fcfcfc" offset="0"/><stop stop-color="#f8f8f8" offset=".5228"/><stop stop-color="#f0efef" offset=".7234"/><stop stop-color="#e3e1e1" offset=".8902"/><stop stop-color="#cecbcb" offset="1"/></linearGradient><clipPath id="clipPath6093-7"><path d="m17 8 0.7828 110h57.5c1.675 0 3.119 0.1806 4.9-1.6 8.798-8.798 19.76-19.85 27.02-27.18 2.441-2.463 2.801-4.471 2.801-6.724v-74.5z" fill="#fff"/></clipPath><filter id="filter4087" x="-.1647" y="-.2041" width="1.329" height="1.408"><feGaussianBlur stdDeviation="4.2234282"/></filter><filter id="filter3814" x="-.04209" y="-.0353" width="1.084" height="1.071"><feGaussianBlur stdDeviation="1.7948536"/></filter></defs><g transform="translate(5.682)"><path transform="matrix(.9887 0 0 .9576 -.8614 2.941)" d="m13.09 3.5a1.028 1.028 0 0 0-0.125 0.03125c-0.885 0.1873-1.472 0.9079-1.469 1.812v118.3a1.028 1.028 0 0 0 0 0.0313c0.01849 1.03 0.7829 1.794 1.812 1.812a1.028 1.028 0 0 0 0.03125 0h48.81c1.666 0 4.022 0.2368 7.094-1.844a1.028 1.028 0 0 0 0.2812-0.2188c0.0578-0.0515 0.1396-0.1286 0.25-0.2188 0.2207-0.1802 0.5168-0.4174 0.7812-0.625s0.4956-0.3965 0.6562-0.5312c0.04015-0.0337 0.07966-0.051 0.125-0.0937 0.02267-0.0214 0.04798-0.0408 0.09375-0.0937 0.02288-0.0265 0.04727-0.051 0.09375-0.125 0.0081-0.013 0.01807-0.0366 0.03125-0.0625 9.781-9.333 27.44-28.68 38.5-39.88 1.711-1.711 3.781-3.863 3.781-8.5v-67.97a1.028 1.028 0 0 0 0-0.03125c-0.01866-1.03-0.7829-1.794-1.812-1.813a1.028 1.028 0 0 0-0.03125 0h-98.56c-0.03179-0.00301-0.06191 0.00137-0.09375 0-0.08491-0.00365-0.1652-0.00803-0.25 0z" filter="url(#filter3814)"/><path d="m11.61 7.129v115.1h49.49c1.68 0 4.562-0.2359 7.658-3.212 8.898-8.556 31.54-31.23 38.82-38.41 2.448-2.415 3.01-4.385 3.01-6.594l-3e-3 -66.84z" fill="#fff" stroke-width=".9945"/><g transform="matrix(.853 0 0 .853 17.85 15.85)"><circle cx="50" cy="50" r="45.93" fill="#fff" fill-rule="evenodd" opacity=".871" stroke="#000" stroke-linecap="round" stroke-linejoin="round" stroke-opacity=".7843" stroke-width="5.528"/><circle cx="50" cy="50" r="42.32" fill="none"/><path d="m50 6.324a43.68 43.68 0 0 0-43.68 43.68 43.68 43.68 0 0 0 43.68 43.68 43.68 43.68 0 0 0 43.68-43.68 43.68 43.68 0 0 0-43.68-43.68zm0 6.711c2.264 0.0083 4.523 0.2249 6.748 0.6465 0.1072 0.4837 0.168 0.984 0.168 1.5 0 3.823-3.097 6.918-6.918 6.916-3.821 0.0022-6.916-3.091-6.916-6.914 0-0.5181 0.06204-1.02 0.1699-1.506 2.225-0.4202 4.484-0.6357 6.748-0.6426zm-18.99 5.299c-0.2405 1.219-0.3713 2.474-0.3711 3.764 0 7.72 4.528 14.37 11.06 17.48v35.09l8.299 8.299 8.301-8.301-0.4766-7.35 3.914-3.912-3.914-3.912 5.871-5.867-5.871-5.871 0.4766-8.178c6.538-3.111 11.07-9.759 11.07-17.48 0-1.287-0.1334-2.541-0.373-3.758 11.13 6.668 17.95 18.68 17.97 31.66-5.4e-4 20.41-16.55 36.96-36.96 36.96-20.41-5.52e-4 -36.96-16.55-36.96-36.96 0.01555-12.98 6.837-25 17.97-31.67zm13.46 25.9h2.768v27.67h-2.766l-2e-3 -27.66v-2e-3z" fill="#f9f9f9" fill-rule="evenodd"/><path d="m56.75 13.68c0.1072 0.4837 0.1684 0.9846 0.1684 1.501 0 3.823-3.097 6.918-6.918 6.916-3.821 0.0022-6.916-3.091-6.916-6.914 0-0.5181 0.0626-1.021 0.1705-1.507 2.225-0.4202 4.483-0.635 6.748-0.6419 2.264 0.0083 4.523 0.2246 6.748 0.6461zm-26.11 8.417c0 7.72 4.528 14.37 11.06 17.48v35.09l8.299 8.299 8.301-8.301-0.4757-7.35 3.913-3.913-3.913-3.913 5.87-5.868-5.87-5.87 0.4756-8.179c6.538-3.111 11.07-9.758 11.07-17.48 0-1.287-0.1329-2.542-0.3725-3.759 11.13 6.668 17.95 18.68 17.97 31.66-5.4e-4 20.41-16.55 36.96-36.96 36.96-20.41-5.5e-4 -36.96-16.55-36.96-36.96 0.0155-12.98 6.836-25 17.97-31.67-0.2405 1.219-0.3707 2.476-0.3704 3.765zm13.83 22.13h2.768v27.67h-2.766l-2e-3 -27.66v-2e-3z" fill="#559f2f"/></g><g><path transform="matrix(1.359 0 0 1.362 -42.38 -40.16)" d="m113.9 82.5c0 4.465-7.963 7.458-10.95 7.881-6.395 0.9063-15.3-0.8441-21.09-0.7631-0.081 5.781 3.398 20-0.06716 25.11-1.684 2.482-3.884 8.072-6.794 8.072-2.091 1.534 3.488 11.21 6.735 8.32 9.502-8.461 46-30.2 54.22-39.44 2.04-2.294-17.07-11.97-22.05-9.178z" clip-path="url(#clipPath6093-7)" filter="url(#filter4087)" opacity=".45"/><path d="m110.3 76.36c-3.48 2.947-3.566 2.769-7.024 5.117-7.115 4.832-21.76 3.809-29.81 3.922-0.1128 8.062 0.7202 21.53-4.106 28.65-2.439 3.493-3.765 8.085-7.819 8.085 3.228 0 6.671-1.795 10.56-5.696 12.45-12.48 20.53-20.65 32.62-33 2.673-2.952 4.503-3.874 5.579-7.081z" fill="url(#linearGradient3895-3)"/><path d="m110.6 74.08c-3.528 3.323-3.784 3.755-5.939 5.418-5.257 3.57-10.46 3.79-32.37 3.79 0 19.76-0.4404 27.92-4.259 32.75-2.273 2.875-4.713 5.226-8.422 6.069 5.061 0.3558 5.882-0.784 9.202-4.002 0.4723-0.5418 1.416-1.55 2.157-2.695 3.941-5.817 3.838-17.29 3.838-29.26 8.052-0.113 22.2 1.162 29.32-3.67 0.6482-0.4402 2.732-2.021 3.312-2.589 3.225-3.159 2.899-3.518 3.166-5.804zm-50.99 48.02c-0.2196 0.0485-0.4365 0.0579-0.6528 0.087 0.2186-0.0234 0.4324-0.0468 0.6528-0.087z" fill="#fff"/></g></g></svg>
