<?xml version="1.0" encoding="UTF-8" standalone="no"?>
<svg
   xmlns:dc="http://purl.org/dc/elements/1.1/"
   xmlns:cc="http://creativecommons.org/ns#"
   xmlns:rdf="http://www.w3.org/1999/02/22-rdf-syntax-ns#"
   xmlns:svg="http://www.w3.org/2000/svg"
   xmlns="http://www.w3.org/2000/svg"
   xmlns:xlink="http://www.w3.org/1999/xlink"
   version="1.0"
   id="svg2606"
   height="128"
   width="128">
  <defs
     id="defs2608">
    <linearGradient
       id="linearGradient6131">
      <stop
         style="stop-color:#fcfcfc;stop-opacity:1"
         offset="0"
         id="stop6133" />
      <stop
         id="stop6135"
         offset="0.52275378"
         style="stop-color:#f8f8f8;stop-opacity:1" />
      <stop
         style="stop-color:#f0efef;stop-opacity:1;"
         offset="0.77457333"
         id="stop6141" />
      <stop
         style="stop-color:#e3e1e1;stop-opacity:1;"
         offset="0.90122044"
         id="stop6139" />
      <stop
         style="stop-color:#cecbcb;stop-opacity:1"
         offset="1"
         id="stop6137" />
    </linearGradient>
    <linearGradient
       y2="102.34375"
       x2="95.460213"
       y1="93.621468"
       x1="86.73793"
       gradientTransform="matrix(1.0119858,0,0,1.0119858,-0.89554075,-0.9871566)"
       gradientUnits="userSpaceOnUse"
       id="linearGradient3893"
       xlink:href="#linearGradient6131" />
    <radialGradient
       gradientUnits="userSpaceOnUse"
       gradientTransform="matrix(1.3067347,0,0,1.3067347,-27.83617,-33.818441)"
       r="18.750002"
       fy="110.25299"
       fx="90.75"
       cy="110.25299"
       cx="90.75"
       id="radialGradient3919-5"
       xlink:href="#linearGradient3913-5" />
    <linearGradient
       id="linearGradient3913-5">
      <stop
         id="stop3915-4"
         offset="0"
         style="stop-color:#ffffff;stop-opacity:1;" />
      <stop
         id="stop3917-7"
         offset="1"
         style="stop-color:#ffffff;stop-opacity:0;" />
    </linearGradient>
    <clipPath
       id="clipPath3889-6"
       clipPathUnits="userSpaceOnUse">
      <path
         style="fill:url(#linearGradient3893);fill-opacity:1;stroke:none"
         d="m 112,82.502986 c 0,4.465301 -2.79749,6.409952 -5.27972,8.093625 -5.10854,3.46508 -14.939114,3.32536 -20.720284,3.40638 -0.081,5.781159 0.16586,15.504599 -3.29922,20.613139 -1.68367,2.48224 -5.29051,5.38687 -8.20078,5.38687 2.31803,0 4.74284,-1.33476 7.58402,-4.08481 9.14197,-8.84873 17.36714,-16.13535 25.673154,-25.297529 C 109.67612,88.503916 112,86.97878 112,82.502986 z"
         id="path3891-5" />
    </clipPath>
    <filter
       id="filter3909-6"
       color-interpolation-filters="sRGB">
      <feGaussianBlur
         id="feGaussianBlur3911-9"
         stdDeviation="0.43040059" />
    </filter>
    <linearGradient
       y2="102.18401"
       x2="94.220871"
       y1="90.381706"
       x1="82.15696"
       gradientTransform="matrix(1.4094273,0,0,1.4111689,-46.598939,-46.228314)"
       gradientUnits="userSpaceOnUse"
       id="linearGradient3895-3"
       xlink:href="#linearGradient3897-7" />
    <linearGradient
       id="linearGradient3897-7">
      <stop
         id="stop3899-4"
         offset="0"
         style="stop-color:#fcfcfc;stop-opacity:1" />
      <stop
         style="stop-color:#f8f8f8;stop-opacity:1"
         offset="0.52275378"
         id="stop3901-5" />
      <stop
         id="stop3903-2"
         offset="0.72337759"
         style="stop-color:#f0efef;stop-opacity:1;" />
      <stop
         id="stop3905-5"
         offset="0.89024991"
         style="stop-color:#e3e1e1;stop-opacity:1;" />
      <stop
         id="stop3907-4"
         offset="1"
         style="stop-color:#cecbcb;stop-opacity:1" />
    </linearGradient>
    <clipPath
       id="clipPath6093-7"
       clipPathUnits="userSpaceOnUse">
      <path
         style="fill:#ffffff;fill-opacity:1"
         d="m 17.000001,8 0.782827,110 57.5,0 c 1.675283,0 3.119418,0.18058 4.9,-1.6 C 88.980763,107.60206 99.94047,96.548195 107.19904,89.224043 109.6396,86.761431 110,84.752873 110,82.5 L 110,8 z"
         id="path6095-4" />
    </clipPath>
    <radialGradient
       gradientUnits="userSpaceOnUse"
       gradientTransform="matrix(1.689423,-0.08280186,0.06907651,1.3515102,-50.111719,-17.641619)"
       r="47.5"
       fy="47.274845"
       fx="63.793392"
       cy="64.004021"
       cx="64"
       id="radialGradient5988-0"
       xlink:href="#linearGradient5982-7" />
    <linearGradient
       id="linearGradient5982-7">
      <stop
         id="stop5984-8"
         offset="0"
         style="stop-color:#ffffff;stop-opacity:1;" />
      <stop
         id="stop5986-6"
         offset="1"
         style="stop-color:#ffffff;stop-opacity:0;" />
    </linearGradient>
    <filter
       height="2.0255013"
       y="-0.51275069"
       width="1.9574188"
       x="-0.47870937"
       id="filter6171-8"
       color-interpolation-filters="sRGB">
      <feGaussianBlur
         id="feGaussianBlur6173-8"
         stdDeviation="10.140743" />
    </filter>
    <linearGradient
       gradientTransform="matrix(1.003095,0,0,0.98228452,-1.7655502,0.69098836)"
       gradientUnits="userSpaceOnUse"
       y2="116.40091"
       x2="72"
       y1="0"
       x1="72"
       id="linearGradient4524-4"
       xlink:href="#linearGradient4518-3" />
    <linearGradient
       id="linearGradient4518-3">
      <stop
         id="stop4520-1"
         offset="0"
         style="stop-color:#eeecec;stop-opacity:1" />
      <stop
         style="stop-color:#f4f4f4;stop-opacity:1"
         offset="0.40000001"
         id="stop5969-4" />
      <stop
         id="stop4522-9"
         offset="1"
         style="stop-color:#f6f5f5;stop-opacity:1" />
    </linearGradient>
    <filter
       id="filter4123">
      <feGaussianBlur
         id="feGaussianBlur4125"
         stdDeviation="2.028" />
    </filter>
    <filter
       height="1.408259"
       y="-0.2041295"
       width="1.3293014"
       x="-0.16465071"
       id="filter4087">
      <feGaussianBlur
         id="feGaussianBlur4089"
         stdDeviation="4.2234282" />
    </filter>
    <filter
       id="filter3814">
      <feGaussianBlur
         id="feGaussianBlur3816"
         stdDeviation="1.8077645" />
    </filter>
    <linearGradient
       xlink:href="#linearGradient3255"
       id="linearGradient5199"
       x1="53.238865"
       y1="12.753036"
       x2="53.238865"
       y2="86.356995"
       gradientUnits="userSpaceOnUse" />
    <linearGradient
       id="linearGradient3255">
      <stop
         style="stop-color:#226e23;stop-opacity:1;"
         offset="0"
         id="stop3257" />
      <stop
         id="stop3267"
         offset="1"
         style="stop-color:#63ab3a;stop-opacity:1;" />
    </linearGradient>
  </defs>
  <metadata
     id="metadata2611">
    <rdf:RDF>
      <cc:Work
         rdf:about="">
        <dc:format>image/svg+xml</dc:format>
        <dc:type
           rdf:resource="http://purl.org/dc/dcmitype/StillImage" />
        <dc:title></dc:title>
      </cc:Work>
    </rdf:RDF>
  </metadata>
  <g
     id="layer1">
    <path
       transform="matrix(1.003095,0,0,0.98228452,-1.7655506,0.69098557)"
       id="path5990"
       d="m 13.333,5.3364 0,118.3304 49.8545,-0.0668 c 2.115554,-0.003 4.528919,-1.77169 7,-4.25 0.71234,-0.71442 1.440746,-1.39395 2.15625,-2.09375 0.415612,-0.40649 0.832187,-0.81443 1.25,-1.21875 7.773958,-7.40962 26.98341,-25.122599 34.21875,-33.099999 0.42065,-0.42064 0.81207,-0.8111 1.15625,-1.1875 1.46444,-1.49766 2.76158,-2.8378 2.99375,-5.8625 L 112,75.156251 111.9972,5.3364 z"
       style="opacity:0.45606695;fill:#000000;fill-opacity:1;filter:url(#filter4123)" />
    <path
       transform="matrix(1.003095,0,0,0.98228452,-1.7655506,0.69098557)"
       d="m 13.09375,3.5 a 1.0280226,1.0280226 0 0 0 -0.125,0.03125 C 12.083764,3.7185227 11.496893,4.4391709 11.5,5.34375 l 0,118.3125 a 1.0280226,1.0280226 0 0 0 0,0.0313 c 0.01849,1.02971 0.782949,1.79389 1.8125,1.8125 a 1.0280226,1.0280226 0 0 0 0.03125,0 l 48.8125,0 c 1.665878,0 4.022349,0.23675 7.09375,-1.84375 a 1.0280226,1.0280226 0 0 0 0.28125,-0.21875 c 0.0578,-0.0515 0.139644,-0.12864 0.25,-0.21875 0.220712,-0.18022 0.516774,-0.41745 0.78125,-0.625 0.264476,-0.20755 0.495635,-0.39648 0.65625,-0.53125 0.04015,-0.0337 0.07966,-0.051 0.125,-0.0937 0.02267,-0.0214 0.04798,-0.0408 0.09375,-0.0937 0.02288,-0.0265 0.04727,-0.051 0.09375,-0.125 0.0081,-0.013 0.01807,-0.0366 0.03125,-0.0625 9.780644,-9.33282 27.440979,-28.680919 38.5,-39.875 1.71105,-1.711053 3.78125,-3.862728 3.78125,-8.5 l 0,-67.96875 a 1.0280226,1.0280226 0 0 0 0,-0.03125 C 113.82509,4.2829723 113.06085,3.5186039 112.03125,3.5 A 1.0280226,1.0280226 0 0 0 112,3.5 l -98.5625,0 c -0.03179,-0.00301 -0.06191,0.00137 -0.09375,0 -0.08491,-0.00365 -0.165226,-0.00803 -0.25,0 z"
       id="path3314"
       style="fill:#000000;fill-opacity:1;filter:url(#filter3814)" />
    <path
       id="path34"
       d="m 11.608716,5.836076 0,116.330904 49.485099,0 c 1.680486,0 3.926459,-0.55989 7.021752,-3.56934 8.897609,-8.6509 32.175353,-31.250103 39.456483,-38.511869 2.44813,-2.441635 3.01026,-4.433083 3.01026,-6.66676 l -0.003,-67.582935 z"
       style="fill:#ffffff;fill-opacity:1" />
    <path
       id="path3967"
       d="m 17.07938,10.744349 c -0.340895,0 -0.501546,0.230461 -0.501546,0.491142 l 0,104.549779 c 0,0.80702 0.681425,1.474 1.504643,1.47343 l 44.496615,-0.0308 c 0.05324,-4e-5 0.812893,0.0229 1.504643,0.0308 1.783165,-0.0393 3.141667,-0.74038 4.369516,-1.56504 1.055122,-0.28588 25.815399,-23.810974 34.964739,-32.837827 1.36662,-1.348301 2.19223,-3.878226 2.19223,-4.808882 l 0,-66.81146 c 0,-0.317 -0.16372,-0.491143 -0.50156,-0.491143 z"
       style="fill:url(#linearGradient4524-4);fill-opacity:1" />
    <path
       style="opacity:0.84653476;fill:url(#radialGradient5988-0);fill-opacity:1"
       d="m 17.07938,10.744349 c -0.340895,0 -0.501546,0.230461 -0.501546,0.491142 l 0,104.549779 c 0,0.80703 0.68144,1.46853 1.504643,1.47343 l 46.36344,0.27591 c 0.05324,3.2e-4 3.284015,-0.008 3.975766,5e-5 6.561216,-4.42387 26.757215,-26.379267 35.730127,-35.221607 0.65937,-0.724227 0.45902,-0.363513 1.45841,-1.578984 l 0,-69.498578 c 0,-0.317 -0.16372,-0.491143 -0.50156,-0.491143 z"
       id="path5980" />
    <g
       id="g3346"
       transform="matrix(0.96214533,0,0,0.96214533,12.392737,5.3927324)">
      <circle
         cy="50"
         cx="50"
         id="path5201"
         style="opacity:0.87099998;fill:#ffffff;fill-opacity:1;fill-rule:evenodd;stroke:#000000;stroke-width:3.13186812;stroke-linecap:round;stroke-linejoin:round;stroke-miterlimit:4;stroke-dasharray:none;stroke-opacity:0.78431373"
         r="45.934067" />
      <circle
         r="42.32143"
         cy="50.000023"
         cx="50"
         id="path3336"
         style="opacity:1;fill:none;fill-opacity:1;fill-rule:evenodd;stroke:none;stroke-width:1.5;stroke-linecap:round;stroke-linejoin:round;stroke-miterlimit:4;stroke-dasharray:none;stroke-opacity:1" />
      <path
         id="path4264"
         d="M 50,6.3242189 A 43.676472,43.676472 0 0 0 6.3242189,50 43.676472,43.676472 0 0 0 50,93.675781 43.676472,43.676472 0 0 0 93.675781,50 43.676472,43.676472 0 0 0 50,6.3242189 Z m 0,6.7109371 c 2.26423,0.0083 4.523397,0.224904 6.748047,0.646485 0.10716,0.48368 0.167969,0.98402 0.167969,1.5 0,3.82265 -3.097269,6.918015 -6.917969,6.916015 -3.82069,0.0022 -6.916016,-3.091382 -6.916016,-6.914062 0,-0.5181 0.06204,-1.02034 0.169922,-1.50586 C 45.476743,13.257569 47.7359,13.042035 50,13.035156 Z m -18.994141,5.298828 c -0.24053,1.21916 -0.371333,2.474142 -0.371093,3.763672 0,7.71966 4.528393,14.367959 11.064453,17.480469 l 0,35.089844 8.298828,8.298828 8.300781,-8.300781 -0.476562,-7.34961 3.914062,-3.912109 -3.914062,-3.912109 5.871093,-5.867188 -5.871093,-5.871094 0.476562,-8.177734 c 6.53802,-3.11057 11.066406,-9.758856 11.066406,-17.478516 0,-1.28696 -0.133397,-2.540982 -0.373046,-3.757812 C 80.124647,25.007387 86.946634,37.023584 86.964844,50 86.964304,70.414588 70.41459,86.964292 50,86.964844 29.58541,86.964292 13.035701,70.414589 13.035156,50 13.050706,37.021755 19.872279,25.003208 31.005859,18.333984 Z m 13.458985,25.898438 2.767578,0 0,27.666016 -2.765625,0 -0.002,-27.664063 0,-0.002 z"
         style="opacity:1;fill:#f9f9f9;fill-opacity:1;fill-rule:evenodd;stroke:none;stroke-width:2.5;stroke-linecap:round;stroke-linejoin:round;stroke-miterlimit:4;stroke-dasharray:none;stroke-opacity:1" />
      <path
         id="path3336-3-2-7"
         d="m 56.747561,13.681815 c 0.107159,0.48368 0.16838,0.98465 0.16838,1.50063 0,3.822651 -3.097351,6.917921 -6.91805,6.915921 -3.82069,0.0022 -6.91594,-3.09115 -6.91594,-6.913831 0,-0.5181 0.0626,-1.02142 0.17048,-1.50694 C 45.477221,13.25743 47.7359,13.042554 50,13.035675 c 2.26423,0.0083 4.52291,0.224559 6.74756,0.64614 z m -26.11261,8.416551 c 0,7.71966 4.528179,14.36677 11.064239,17.47928 l 0,35.091179 8.2987,8.2987 8.30082,-8.3008 -0.47566,-7.3495 3.91258,-3.9126 -3.91258,-3.9126 5.86992,-5.867799 -5.86992,-5.8699 0.47565,-8.17878 c 6.53802,-3.11057 11.06635,-9.75752 11.06635,-17.47718 0,-1.28696 -0.13288,-2.54209 -0.37253,-3.75892 11.132459,6.667543 17.953549,18.684164 17.97176,31.66058 C 86.96374,70.414615 70.414591,86.963775 50,86.964325 29.58541,86.963775 13.03626,70.414615 13.03572,50.000026 c 0.0155,-12.978245 6.83607,-24.997676 17.96965,-31.6669 -0.24053,1.21916 -0.37066,2.47571 -0.37042,3.76524 z m 13.829769,22.13472 2.76764,0 0,27.665839 -2.76554,0 -0.002,-27.663749 0,-0.002 z"
         style="opacity:0.93999999;fill:url(#linearGradient5199);fill-opacity:1;fill-rule:nonzero;stroke:none;stroke-width:0.80000001;stroke-linecap:round;stroke-linejoin:round;stroke-miterlimit:4;stroke-dasharray:none;stroke-opacity:1" />
    </g>
    <path
       id="path2197"
       d=""
       style="fill:#000000" />
    <path
       transform="matrix(1.258302,0,0,1.2610357,-31.355772,-28.164007)"
       id="path6153"
       d="m 114.4,82.502986 c 0,4.465301 -9.3766,4.299815 -11.85883,5.983488 -5.108537,3.46508 -16.574334,-0.810699 -22.355504,-0.729679 -0.081,5.781159 0.365076,18.386735 0.365076,24.536755 0,2.97817 -3.440475,11.20945 -6.350745,11.20945 -2.091359,1.5337 3.488204,8.21101 6.734971,5.31989 9.501888,-8.46107 35.131682,-30.022701 43.350822,-39.262886 2.04044,-2.29392 -4.90514,-9.844666 -9.88579,-7.057018 z"
       style="opacity:0.6056338;fill:#000000;fill-opacity:1;stroke:none;filter:url(#filter6171-8)"
       clip-path="url(#clipPath6093-7)" />
    <path
       transform="matrix(1.3586765,0,0,1.3616521,-42.382653,-40.155635)"
       clip-path="url(#clipPath6093-7)"
       style="opacity:0.64319249;fill:#000000;fill-opacity:1;stroke:none;filter:url(#filter4087)"
       d="m 113.9,82.502986 c 0,4.465301 -7.96273,7.457662 -10.95287,7.881439 -6.394981,0.906328 -15.304541,-0.844131 -21.085711,-0.763111 -0.081,5.781159 3.397918,20.001056 -0.06716,25.109596 -1.68367,2.48224 -3.883991,8.07209 -6.794261,8.07209 -2.091359,1.5337 3.488204,11.21101 6.734971,8.31989 9.501888,-8.46107 45.998943,-30.20138 54.218083,-39.441569 2.04044,-2.29392 -17.0724,-11.965986 -22.05305,-9.178335 z"
       id="path6081" />
    <path
       id="path6011"
       d="m 110.63455,70.194961 c 0,6.22666 -3.89615,8.938389 -7.35324,11.28619 -7.11485,4.831902 -21.758838,3.808851 -29.810472,3.92183 -0.112812,8.061568 0.720236,21.530529 -4.105701,28.654139 -2.344905,3.46138 -6.904898,8.42993 -10.95813,8.42993 3.228399,0 6.605514,-1.86127 10.562523,-5.69609 12.732335,-12.33915 24.187814,-22.50002 35.75589,-35.27627 2.67259,-2.951702 5.90913,-5.078441 5.90913,-11.319729 z"
       style="fill:url(#linearGradient3895-3);fill-opacity:1;stroke:none" />
    <path
       id="path6122"
       d="m 110.66063,69.760596 c -0.44065,5.437134 -4.51314,7.338042 -6.73057,8.843942 -5.25734,3.570397 -12.241076,3.279514 -34.154353,3.279514 0,19.761338 0.513212,28.553598 -3.305002,33.382518 -2.272989,2.87466 -6.824021,6.07997 -10.532933,6.90254 5.082113,0 8.629228,-1.08751 11.949253,-4.30502 0.472301,-0.5418 1.415698,-1.55003 2.15657,-2.69493 3.94064,-5.81684 3.837814,-17.294735 3.837814,-29.263474 8.051633,-0.11295 22.202451,1.162156 29.317291,-3.669742 0.64822,-0.440215 2.63774,-2.020759 3.2183,-2.58944 3.22475,-3.158721 3.92397,-5.17219 4.24363,-9.885908 z M 55.937772,122.16911 c -0.219575,0.0485 -0.436533,0.0579 -0.652846,0.087 0.218648,-0.0234 0.432367,-0.0468 0.652846,-0.087 z"
       style="fill:#ffffff;fill-opacity:1;stroke:none" />
    <path
       transform="matrix(1.3927341,0,0,1.3944553,-45.351691,-44.851769)"
       clip-path="url(#clipPath3889-6)"
       id="path3873"
       d="M 108.97651,89.508691 79.934895,118.21077"
       style="fill:none;stroke:url(#radialGradient3919-5);stroke-width:1.82707405;stroke-linecap:butt;stroke-linejoin:miter;stroke-miterlimit:4;stroke-opacity:1;stroke-dasharray:none;filter:url(#filter3909-6)" />
  </g>
</svg>
