<?xml version="1.0" encoding="UTF-8"?>
<svg width="128" height="128" version="1.0" xmlns="http://www.w3.org/2000/svg" xmlns:xlink="http://www.w3.org/1999/xlink"><defs><linearGradient id="linearGradient2990"><stop stop-color="#ccc" offset="0"/><stop stop-color="#f1f1f1" offset="1"/></linearGradient><linearGradient id="linearGradient6674"><stop stop-color="#bf0000" offset="0"/><stop stop-color="#f11" stop-opacity="0" offset="1"/></linearGradient><linearGradient id="linearGradient6446"><stop stop-color="#fff" offset="0"/><stop stop-color="#fff" stop-opacity="0" offset="1"/></linearGradient><radialGradient id="radialGradient9692" cx="42.7" cy="103.6" r="42.56" gradientTransform="matrix(1.189 0 0 1.189 -114.8 -31.38)" gradientUnits="userSpaceOnUse"><stop stop-color="#ff5900" offset="0"/><stop stop-color="#8d0000" offset="1"/></radialGradient><linearGradient id="linearGradient6410" x1="39.74" x2="11.46" y1="113.5" y2="13.01" gradientUnits="userSpaceOnUse"><stop stop-color="#700" offset="0"/><stop stop-color="#c10000" offset="1"/></linearGradient><linearGradient id="linearGradient6452" x1="21.09" x2="15.19" y1="21.1" y2="27.01" gradientTransform="translate(-7.587 -7.381)" gradientUnits="userSpaceOnUse" spreadMethod="reflect" xlink:href="#linearGradient6446"/><filter id="filter6458"><feGaussianBlur stdDeviation="0.28444187"/></filter><linearGradient id="linearGradient6464" x1="21.09" x2="15.13" y1="21.1" y2="27.07" gradientTransform="translate(.4129 .6194)" gradientUnits="userSpaceOnUse" spreadMethod="reflect" xlink:href="#linearGradient6446"/><linearGradient id="linearGradient6470" x1="21.09" x2="13.96" y1="21.1" y2="28.24" gradientTransform="translate(.4129 .6194)" gradientUnits="userSpaceOnUse" spreadMethod="reflect" xlink:href="#linearGradient6446"/><linearGradient id="linearGradient6637" x1="55.33" x2="55.33" y1="112" y2="74.91" gradientUnits="userSpaceOnUse"><stop stop-color="#703700" offset="0"/><stop stop-color="#bf5e00" stop-opacity="0" offset="1"/></linearGradient><linearGradient id="linearGradient6649" x1="62.04" x2="62.04" y1="15.91" y2="50.73" gradientUnits="userSpaceOnUse"><stop stop-color="#ff6565" offset="0"/><stop stop-color="#ffdfbf" stop-opacity="0" offset="1"/></linearGradient><linearGradient id="linearGradient6680" x1="19.1" x2="80.05" y1="50.58" y2="66.9" gradientUnits="userSpaceOnUse" xlink:href="#linearGradient6674"/><linearGradient id="linearGradient2816" x1="59.23" x2="59.23" y1="-31.71" y2="98.17" gradientUnits="userSpaceOnUse" xlink:href="#linearGradient6446"/><linearGradient id="linearGradient3231" x1="59.23" x2="59.23" y1="7.897" y2="46.23" gradientTransform="translate(.2624 1)" gradientUnits="userSpaceOnUse" xlink:href="#linearGradient6446"/><linearGradient id="linearGradient3233" x1="115.8" x2="31.38" y1="71.08" y2="21.03" gradientTransform="translate(.2332 1.915)" gradientUnits="userSpaceOnUse" xlink:href="#linearGradient6446"/><linearGradient id="linearGradient3243" x1="-60.95" x2="-59.42" y1="105.8" y2="45.63" gradientUnits="userSpaceOnUse"><stop stop-color="#ffeb8b" offset="0"/><stop stop-color="#fff" stop-opacity="0" offset="1"/></linearGradient><filter id="filter3281"><feGaussianBlur stdDeviation="0.32872878"/></filter><linearGradient id="linearGradient3289" x1="60.4" x2="60.4" y1="64.08" y2="-20.96" gradientUnits="userSpaceOnUse" xlink:href="#linearGradient6674"/><filter id="filter3319"><feGaussianBlur stdDeviation="1.6179775"/></filter><filter id="filter3033"><feGaussianBlur stdDeviation="0.33295155"/></filter><filter id="filter3045"><feGaussianBlur stdDeviation="0.46608189"/></filter><clipPath id="clipPath3049"><path d="m-213.7 29.55c-1.285-1.285-3.356-1.285-4.64 0l-23.14 23.14-23.14-23.14c-1.285-1.285-3.356-1.285-4.64 0l-6.673 6.673c-1.285 1.285-1.285 3.356 0 4.64l23.14 23.14-23.14 23.14c-1.285 1.285-1.285 3.356 0 4.64l6.673 6.673c1.285 1.285 3.356 1.285 4.64 0l23.14-23.14 23.14 23.14c1.285 1.285 3.356 1.285 4.64 0l6.673-6.673c1.285-1.285 1.285-3.356 0-4.64l-23.14-23.14 23.14-23.14c1.285-1.285 1.285-3.356 0-4.64l-6.673-6.673z" fill="url(#radialGradient3053)"/></clipPath><radialGradient id="radialGradient3053" cx="-20" cy="64" r="35.41" fx="-9.132" fy="76.91" gradientTransform="translate(-221.4 -2.585e-6)" gradientUnits="userSpaceOnUse" xlink:href="#linearGradient2990"/><clipPath id="clipPath3055"><path d="m-121.3 29.55c-1.285-1.285-3.356-1.285-4.64 0l-23.14 23.14-23.14-23.14c-1.285-1.285-3.356-1.285-4.64 0l-6.673 6.673c-1.285 1.285-1.285 3.356 0 4.64l23.14 23.14-23.14 23.14c-1.285 1.285-1.285 3.356 0 4.64l6.673 6.673c1.285 1.285 3.356 1.285 4.64 0l23.14-23.14 23.14 23.14c1.285 1.285 3.356 1.285 4.64 0l6.673-6.673c1.285-1.285 1.285-3.356 0-4.64l-23.14-23.14 23.14-23.14c1.285-1.285 1.285-3.356 0-4.64l-6.673-6.673z" fill="url(#radialGradient3059)"/></clipPath><radialGradient id="radialGradient3059" cx="-20" cy="64" r="35.41" fx="-9.132" fy="76.91" gradientTransform="translate(-129.1 -2.585e-6)" gradientUnits="userSpaceOnUse" xlink:href="#linearGradient2990"/><radialGradient id="radialGradient3066" cx="-20" cy="64" r="35.41" fx="-9.132" fy="76.91" gradientTransform="translate(-40.75 -2.585e-6)" gradientUnits="userSpaceOnUse" xlink:href="#linearGradient2990"/><linearGradient id="linearGradient3068" x1="-236" x2="-236" y1="104" y2="176" gradientTransform="translate(0 -86.23)" gradientUnits="userSpaceOnUse"><stop offset="0"/><stop stop-opacity=".1564" offset=".5"/><stop stop-opacity=".6873" offset=".6226"/><stop stop-opacity=".3636" offset="1"/></linearGradient></defs><g><path d="m18.08 8h91.83c5.586 0 10.08 4.497 10.08 10.08v91.83c0 5.586-4.497 10.08-10.08 10.08h-91.83c-5.586 0-10.08-4.497-10.08-10.08v-91.83c0-5.586 4.497-10.08 10.08-10.08z" fill="url(#linearGradient3289)" filter="url(#filter3319)"/><path d="m18.08 8h91.83c5.586 0 10.08 4.497 10.08 10.08v91.83c0 5.586-4.497 10.08-10.08 10.08h-91.83c-5.586 0-10.08-4.497-10.08-10.08v-91.83c0-5.586 4.497-10.08 10.08-10.08z" fill="url(#linearGradient6410)"/><path d="m18.08 8h91.83c5.586 0 10.08 4.497 10.08 10.08v91.83c0 5.586-4.497 10.08-10.08 10.08h-91.83c-5.586 0-10.08-4.497-10.08-10.08v-91.83c0-5.586 4.497-10.08 10.08-10.08z" fill="url(#linearGradient6680)" opacity=".0829"/><path transform="scale(-1,1)" d="m-109.4 12.61h89.77c3.879 0 7.001 3.123 7.001 7.001v88.77c0 3.879-3.123 7.001-7.001 7.001h-89.77c-3.879 0-7.001-3.123-7.001-7.001v-88.77c0-3.879 3.123-7.001 7.001-7.001z" fill="url(#radialGradient9692)"/><path d="m17.91 8.299c-4.69 0-9.398 3.568-9.398 9.399l4.267-0.05891c0.4524-2.13 2.852-4.271 4.527-4.603l0.6036-4.736z" fill="url(#linearGradient6452)" filter="url(#filter6458)" opacity=".8876"/><path transform="matrix(-1 0 0 1 135.9 -8)" d="m25.4 16.47c-4.69 0-8.968 3.655-8.968 9.485l4.347-0.3154c0.4524-2.13 2.852-4.271 4.527-4.603l0.09416-4.567z" fill="url(#linearGradient6464)" filter="url(#filter6458)" opacity=".8689"/></g><path d="m8 105.9v4.031c0 5.586 4.507 10.09 10.09 10.09h91.81c5.586 0 10.09-4.507 10.09-10.09v-4.031c0 5.586-4.507 10.09-10.09 10.09h-91.81c-5.586 0-10.09-4.507-10.09-10.09z" fill="url(#linearGradient6637)" opacity=".0829"/><g><path transform="matrix(1 0 0 -1 -8 136.1)" d="m26.25 16.98c-4.69 0-9.477 3.655-9.477 9.485l4.008-0.8249c0.4524-2.13 2.852-4.271 4.527-4.603l0.9432-4.057z" fill="url(#linearGradient6470)" filter="url(#filter6458)" opacity=".3264"/><path transform="matrix(-1 0 0 -1 135.9 136.1)" d="m26.25 16.98c-4.69 0-9.477 3.655-9.477 9.485l4.008-0.8249c0.4524-2.13 2.852-4.271 4.527-4.603l0.9432-4.057z" fill="url(#linearGradient6470)" filter="url(#filter6458)" opacity=".1762"/><path d="m8 22.04v-4.031c0-5.586 4.507-10.09 10.09-10.09h91.81c5.586 0 10.09 4.507 10.09 10.09v4.031c0-5.586-4.507-10.09-10.09-10.09h-91.81c-5.586 0-10.09 4.507-10.09 10.09z" fill="url(#linearGradient6649)" opacity=".3886"/></g><g transform="translate(0,-1)"><path d="m19.44 13.28c-3.99 0-7.188 3.197-7.188 7.188v1c0-3.99 3.197-7.188 7.188-7.188h89.62c3.99 0 7.188 3.197 7.188 7.188v-1c0-3.99-3.197-7.188-7.188-7.188h-89.62z" fill="url(#linearGradient3231)"/><path d="m112.2 14.95c1.595 1.315 2.625 3.287 2.625 5.531v34.5c-0.1934 0.328-0.4367 0.6673-0.7188 1-27.25 10.49-73.31 13.49-101.9 6.625v0.5625c28.98 7.307 75.59 4.378 103.3-6.281 0.282-0.3327 0.5254-0.672 0.7188-1v-34.5c0-2.853-1.641-5.274-4.031-6.438z" fill="url(#linearGradient3233)"/></g><path transform="scale(-1,1)" d="m-109.4 13.61h89.77c3.879 0 7.001 3.123 7.001 7.001v87.77c0 3.879-3.123 7.001-7.001 7.001h-89.77c-3.879 0-7.001-3.123-7.001-7.001v-87.77c0-3.879 3.123-7.001 7.001-7.001z" fill="none" filter="url(#filter3281)" stroke="url(#linearGradient3243)" stroke-linecap="round" stroke-linejoin="round"/><path d="m19.19 12.28c-3.99 0-7.188 3.197-7.188 7.188v41.78c28.98 7.307 75.59 4.378 103.3-6.281 0.282-0.3327 0.5254-0.672 0.7188-1v-34.5c0-3.99-3.197-7.188-7.188-7.188h-89.62z" fill="url(#linearGradient2816)"/><g transform="matrix(1.13 0 0 1.13 132.6 -8.305)"><path d="m-32.98 29.55c-1.285-1.285-3.356-1.285-4.64 0l-23.14 23.14-23.14-23.14c-1.285-1.285-3.356-1.285-4.64 0l-6.673 6.673c-1.285 1.285-1.285 3.356 0 4.64l23.14 23.14-23.14 23.14c-1.285 1.285-1.285 3.356 0 4.64l6.673 6.673c1.285 1.285 3.356 1.285 4.64 0l23.14-23.14 23.14 23.14c1.285 1.285 3.356 1.285 4.64 0l6.673-6.673c1.285-1.285 1.285-3.356 0-4.64l-23.14-23.14 23.14-23.14c1.285-1.285 1.285-3.356 0-4.64l-6.673-6.673z" fill="url(#radialGradient3066)"/><path transform="translate(88.32)" d="m-183.1 39.25c-0.641 1.236-0.445 2.774 0.5938 3.812l21.62 21.66 1.5-1.5-23.12-23.16c-0.2498-0.2498-0.4411-0.5148-0.5938-0.8125zm68.06 0c-0.1522 0.2949-0.3148 0.5648-0.5625 0.8125l-23.16 23.16 1.5 1.5 21.66-21.66c1.041-1.041 1.207-2.576 0.5625-3.812zm-34.03 34.28-23.12 23.12c-1.285 1.285-3.372 1.285-4.656 0l-6.656-6.688c-0.2498-0.2498-0.4411-0.5148-0.5938-0.8125-0.641 1.236-0.445 2.774 0.5938 3.812l6.656 6.688c1.285 1.285 3.372 1.285 4.656 0l23.12-23.12 23.16 23.12c1.285 1.285 3.34 1.285 4.625 0l6.688-6.688c1.041-1.041 1.207-2.576 0.5625-3.812-0.1522 0.2949-0.3148 0.5648-0.5625 0.8125l-6.688 6.688c-1.285 1.285-3.34 1.285-4.625 0l-23.16-23.12z" clip-path="url(#clipPath3055)" fill="#fff" filter="url(#filter3033)"/><path transform="translate(180.7)" d="m-266.9 27.36c-0.8389 0-1.701 0.3264-2.344 0.9688l-6.656 6.688c-1.035 1.035-1.226 2.579-0.5938 3.812 0.1518-0.2926 0.3478-0.5665 0.5938-0.8125l6.656-6.688c1.285-1.285 3.372-1.285 4.656 0l23.12 23.16 23.12-23.16c1.285-1.285 3.372-1.285 4.656 0l6.656 6.688c0.2442 0.2442 0.4424 0.5223 0.5938 0.8125 0.6371-1.235 0.4433-2.775-0.5938-3.812l-6.656-6.688c-1.285-1.285-3.372-1.285-4.656 0l-23.12 23.16-23.12-23.16c-0.6424-0.6424-1.474-0.9688-2.312-0.9688zm13.22 36.54-21.62 21.62c-1.035 1.035-1.226 2.579-0.5938 3.812 0.1518-0.2926 0.3478-0.5665 0.5938-0.8125l23.12-23.12-1.5-1.5zm24.92-0.1-1.5 1.5 23.12 23.12c0.2442 0.2442 0.4424 0.5223 0.5938 0.8125 0.6371-1.235 0.4433-2.775-0.5938-3.812l-21.62-21.62z" clip-path="url(#clipPath3049)" fill="url(#linearGradient3068)" filter="url(#filter3045)"/></g></svg>
