<?xml version="1.0" encoding="UTF-8"?>
<svg width="128" height="128" version="1.0" xmlns="http://www.w3.org/2000/svg" xmlns:xlink="http://www.w3.org/1999/xlink"><defs><linearGradient id="linearGradient6184"><stop stop-color="#fff" offset="0"/><stop stop-color="#fff" stop-opacity="0" offset="1"/></linearGradient><linearGradient id="linearGradient25485"><stop offset="0"/><stop stop-opacity="0" offset="1"/></linearGradient><linearGradient id="linearGradient13184"><stop stop-opacity=".6667" offset="0"/><stop stop-opacity="0" offset="1"/></linearGradient><linearGradient id="linearGradient10539"><stop stop-color="#fff" offset="0"/><stop stop-color="#888a85" stop-opacity="0" offset="1"/></linearGradient><linearGradient id="linearGradient4174"><stop stop-color="#fff" offset="0"/><stop stop-color="#3e3e3e" stop-opacity="0" offset="1"/></linearGradient><radialGradient id="radialGradient9655" cx="154.2" cy="33.31" r="11.55" gradientTransform="matrix(1 0 0 .9319 3.581 -10.17)" gradientUnits="userSpaceOnUse" xlink:href="#linearGradient25485"/><radialGradient id="radialGradient9657" cx="173.4" cy="29.47" r="7.125" gradientTransform="matrix(5.093 .03711 -.03343 4.588 -711.6 -118.8)" gradientUnits="userSpaceOnUse" xlink:href="#linearGradient4174"/><radialGradient id="radialGradient9659" cx="150.2" cy="56.32" r="4.696" gradientTransform="matrix(7.9 -.1334 .103 6.099 -1031 -297.8)" gradientUnits="userSpaceOnUse"><stop stop-color="#fff" offset="0"/><stop stop-color="#3e3e3e" stop-opacity="0" offset="1"/></radialGradient><radialGradient id="radialGradient10545" cx="222.1" cy="1.235" r="16.39" gradientTransform="matrix(2.378 -.3075 1.04 6.868 -436 108.9)" gradientUnits="userSpaceOnUse" xlink:href="#linearGradient10539"/><radialGradient id="radialGradient12309" cx="94.14" cy="38.93" r="6.873" gradientTransform="matrix(.5812 .005817 -.07456 9.383 36.03 -309.7)" gradientUnits="userSpaceOnUse" xlink:href="#linearGradient6184"/><linearGradient id="linearGradient13190" x1="79.74" x2="95" y1="48.54" y2="48.54" gradientTransform="matrix(.7373 -6.658e-7 1.273e-7 1.016 23.72 1.032)" gradientUnits="userSpaceOnUse" xlink:href="#linearGradient13184"/><radialGradient id="radialGradient14940" cx="94.14" cy="38.93" r="6.873" gradientTransform="matrix(.566 .004976 -.07261 8.025 38.46 -251.4)" gradientUnits="userSpaceOnUse" xlink:href="#linearGradient6184"/><linearGradient id="linearGradient14942" x1="79.74" x2="95" y1="48.54" y2="48.54" gradientTransform="matrix(.718 5.475e-7 -1.861e-8 .8692 26.48 14.37)" gradientUnits="userSpaceOnUse" xlink:href="#linearGradient13184"/><radialGradient id="radialGradient14946" cx="94.14" cy="38.93" r="6.873" gradientTransform="matrix(.6028 .004959 -.07732 7.999 33.71 -255.1)" gradientUnits="userSpaceOnUse" xlink:href="#linearGradient6184"/><linearGradient id="linearGradient14948" x1="79.74" x2="95" y1="48.54" y2="48.54" gradientTransform="matrix(.7646 -9.213e-7 -8.915e-8 .8663 20.94 9.725)" gradientUnits="userSpaceOnUse" xlink:href="#linearGradient13184"/><radialGradient id="radialGradient15831" cx="77.37" cy="64.8" r="4.142" gradientTransform="matrix(.7188 .05195 .124 10.15 11.77 -600.3)" gradientUnits="userSpaceOnUse"><stop stop-color="#fff" offset="0"/><stop stop-color="#555753" stop-opacity="0" offset="1"/></radialGradient><radialGradient id="radialGradient19335" cx="64.04" cy="72.25" r="8.072" gradientTransform="matrix(.3541 -4.171 5.033 -1.52 -331.4 448.8)" gradientUnits="userSpaceOnUse"><stop stop-color="#fff" offset="0"/><stop stop-opacity="0" offset="1"/></radialGradient><radialGradient id="radialGradient22837" cx="78.34" cy="47.9" r="59.07" gradientTransform="matrix(1.028 -.1271 .1309 .9349 -10.48 16.04)" gradientUnits="userSpaceOnUse"><stop stop-color="#fff" offset="0"/><stop stop-color="#888a85" stop-opacity="0" offset="1"/></radialGradient><linearGradient id="linearGradient23728" x1="105.6" x2="120.1" y1="11.27" y2="11.27" gradientTransform="matrix(1.069 -.1322 .1339 .9562 -15.57 15.4)" gradientUnits="userSpaceOnUse"><stop offset="0"/><stop stop-opacity="0" offset="1"/></linearGradient><radialGradient id="radialGradient25491" cx="302.1" cy="-10.28" r="59.07" gradientTransform="matrix(.2857 -.09694 .3404 .8739 19.96 76.36)" gradientUnits="userSpaceOnUse" xlink:href="#linearGradient25485"/><linearGradient id="linearGradient26375" x1="114.7" x2="141.7" y1="51.13" y2="13.18" gradientTransform="matrix(1.028 -.1271 .1339 .9562 -10.63 14.78)" gradientUnits="userSpaceOnUse"><stop offset="0"/><stop stop-opacity="0" offset="1"/></linearGradient><radialGradient id="radialGradient27252" cx="302.1" cy="-10.28" r="59.07" gradientTransform="matrix(.2857 -.09694 .3404 .8739 20.21 76.33)" gradientUnits="userSpaceOnUse" xlink:href="#linearGradient25485"/><radialGradient id="radialGradient27256" cx="224.5" cy="-4.226" r="16.39" gradientTransform="matrix(2.378 -.3075 1.04 6.868 -437.1 108.1)" gradientUnits="userSpaceOnUse" xlink:href="#linearGradient10539"/><radialGradient id="radialGradient34276" cx="19.01" cy="99.12" r="4.603" gradientTransform="matrix(-1.033 .07897 -.1161 -1.358 44.3 247.8)" gradientUnits="userSpaceOnUse"><stop stop-color="#fff" offset="0"/><stop stop-color="#fff" stop-opacity="0" offset="1"/></radialGradient><radialGradient id="radialGradient34303" cx="174.1" cy="28.16" r="7.125" gradientTransform="matrix(4.944 -.2853 .2842 4.339 -752.3 -40.17)" gradientUnits="userSpaceOnUse" xlink:href="#linearGradient4174"/><radialGradient id="radialGradient8645" cx="18.99" cy="99.1" r="4.909" gradientTransform="matrix(1.028 -.1271 .1779 1.271 -14.99 -16.39)" gradientUnits="userSpaceOnUse" xlink:href="#linearGradient6184"/><radialGradient id="radialGradient8652" cx="22.6" cy="66.95" r="33.9" gradientTransform="matrix(1.028 -.1271 .1208 .8629 4.816 36.95)" gradientUnits="userSpaceOnUse" xlink:href="#linearGradient6184"/><filter id="filter3737"><feGaussianBlur stdDeviation="0.30086486"/></filter><radialGradient id="radialGradient3758" cx="27.96" cy="118.9" r="54.61" gradientTransform="matrix(.2185 -.06818 .7666 2.457 -46.68 -138.8)" gradientUnits="userSpaceOnUse" xlink:href="#linearGradient6184"/><filter id="filter3933"><feGaussianBlur stdDeviation="1.4820941"/></filter><radialGradient id="radialGradient3937" cx="154.2" cy="33.31" r="11.55" gradientTransform="matrix(.9703 -.06291 .0643 .8808 -50.71 19.65)" gradientUnits="userSpaceOnUse" xlink:href="#linearGradient25485"/><filter id="filter3985"><feGaussianBlur stdDeviation="0.18706947"/></filter><filter id="filter3989"><feGaussianBlur stdDeviation="0.086425096"/></filter><filter id="filter3995"><feGaussianBlur stdDeviation="0.17395735"/></filter><radialGradient id="radialGradient4005" cx="62.26" cy="77.17" r="33.9" fx="56.31" fy="65.78" gradientTransform="matrix(.465 1.004 -.2854 .1958 69.72 -13.49)" gradientUnits="userSpaceOnUse" xlink:href="#linearGradient6184"/></defs><path d="m99.79 3.875c-0.3876 0.00147-0.764 0.01071-1.156 0.03125-0.04111 0.002151-0.08396-0.00236-0.125 0-0.2287 0.01313-1.084 0.05492-1.156 0.0625-0.06299 0.006578-0.1528-0.004893-0.2188 0-0.07118 0.008091-0.1478 0.02253-0.2188 0.03125-0.641 0.07878-1.289 0.1843-1.906 0.3125-7.767 1.432-13.67 6.637-14.84 12.91-0.05158 0.2655-0.09061 0.5435-0.125 0.8125-0.02137 0.1768-0.0487 0.353-0.0625 0.5312-0.005102 0.03258-0.02643 0.09238-0.03125 0.125 0 0-3.381 20.71-7.375 26.28-0.09795 0.1367-0.2321 0.3316-0.4375 0.5625-1.44 1.508-4.713 4.672-8.781 8.594-15.89 15.09-47.18 43.77-54.91 52-0.09039 0.08483-1.062 1-1.062 1l0.4062-0.2812c-0.5298 0.5868-0.9292 1.042-1.094 1.312-0.7453 1.224-1.225 2.509-1.469 3.812-0.00384 0.01999 0.00373 0.0425 0 0.0625-0.05528 0.3052-0.095 0.6003-0.125 0.9062-0.00319 0.03016 0.00295 0.06359 0 0.09375-0.02759 0.3067-0.05941 0.6314-0.0625 0.9375-1.6e-4 0.01048 1.3e-4 0.02077 0 0.03125-0.00226 0.305 0.01003 0.6033 0.03125 0.9062 0.00136 0.02088-0.00147 0.04163 0 0.0625 0.02281 0.3029 0.04832 0.6067 0.09375 0.9062 0.00301 0.02047-0.00311 0.04205 0 0.0625 0.04694 0.2992 0.1188 0.5806 0.1875 0.875 0.05119 0.2263 0.1239 0.4334 0.1875 0.6562 0.02678 0.09189 0.03365 0.19 0.0625 0.2812 0.00696 0.02239 0.02417 0.04015 0.03125 0.0625 0.01717 0.05328 0.04463 0.1032 0.0625 0.1562 0.1739 0.5249 0.3542 1.065 0.5938 1.562 0.00986 0.02021 0.02128 0.04234 0.03125 0.0625 2.013 4.121 6.216 7.114 11.12 6.688 0.2621-0.01742 0.5464-0.05642 0.8125-0.09375 0.00987-0.00161 0.02138 0.00164 0.03125 0 0.07192-0.01029 0.1466-0.01947 0.2188-0.03125 1.128-0.1841 2.292-0.5803 3.469-1.156 0.728-0.3388 1.45-0.7455 2.188-1.25 7.777-5.322 54.75-63.99 61.09-68.09 0.1357-0.08776 0.3295-0.1898 0.5-0.2812 7.346-3.211 14.4-3.648 21.78-6.188 2.389-0.5464 4-0.9062 4-0.9062 0.00508 0.001141 0.02654-5.44e-4 0.03125 0 0.00436-5e-5 0.02725 6.35e-4 0.03125 0 0.00329-0.0018 0.02831-0.02887 0.03125-0.03125 0.00191-0.004082 0.02968-0.02661 0.03125-0.03125 0.00123-0.005193-8.9e-4 -0.0255 0-0.03125 5e-4 -0.005666 0.00142-0.02191 0-0.03125 0.00349-7.45e-4 0.125-0.03125 0.125-0.03125 0.1623 0.03646 0.1393-0.2075-0.03125-0.7188 4.289-2.226 9.821-8.274 11.91-17.03 0.101-0.4241-0.1944-3.349-0.3125-3.531 0.01464-0.06414 0.04809-0.1232 0.0625-0.1875l-13.31 6.281-8.219-5.469c-0.8873-1.739-1.712-3.319-2.219-4.406 4e-5 -4.128-0.00329-4.478 0.375-8.219 5.075-1.998 14.03-5.438 14.03-5.438-0.01046-0.01008-0.02075-0.02119-0.03125-0.03125 0.01262-0.004818 0.2812-0.09375 0.2812-0.09375-3.467-3.34-8.717-5.428-14.53-5.406zm-82.84 102.8c2.457-0.05824 4.838 1.56 6.156 3.906 0.1091 0.1988 0.2192 0.3852 0.3125 0.5938 0.00991 0.02157 0.02152 0.04083 0.03125 0.0625 0.09209 0.2104 0.1751 0.4372 0.25 0.6562 0.007609 0.02159 0.02382 0.04083 0.03125 0.0625 0.1211 0.3644 0.2122 0.7415 0.2812 1.125 0.03177 0.1666 0.04132 0.3304 0.0625 0.5 0.02294 0.1969 0.05445 0.3935 0.0625 0.5938 0.127 3.16-2.739 6.436-6 7.156-0.1646 0.02247-0.3344 0.02258-0.5 0.03125-3.652 0.1912-7.365-3.465-7.594-7.281-0.1574-2.629 1.265-5.261 3.781-6.625 0.6112-0.3004 1.306-0.5491 2.031-0.6875 0.06063-0.00853 0.1259 0.00678 0.1875 0 0.2952-0.04519 0.5952-0.0769 0.9062-0.09375z" fill-rule="evenodd" filter="url(#filter3933)" stroke="url(#radialGradient3937)" stroke-linecap="round" stroke-linejoin="round" stroke-width="1.578"/><g transform="matrix(.9703 -.06291 .069 .9452 -53.46 27.49)" fill-rule="evenodd"><path d="m181.7 9.099-14.13 5.699-8.155-6.393c-1.071 1.417-1.886 21.69 3.102 21.52 9.132-0.3163 15.81-9.326 19.19-20.83z" fill="#888a85" stroke="url(#radialGradient9655)" stroke-linecap="round" stroke-linejoin="round" stroke-width="1.644"/><path d="m181.2 9.76-13.41 5.406-0.8438 9.438 1.531 4.156c5.846-3.223 10.2-10.41 12.72-19z" fill="url(#radialGradient9657)" opacity=".5138"/><path d="m159.3 8.597c-0.00419 0.005537-0.02707 0.02514-0.03125 0.03125-0.00834 0.01336-0.02295 0.0469-0.03125 0.0625-1.039 2.097-1.735 21.61 3.156 21.44 1.081-0.03743 2.146-0.198 3.156-0.4688l0.6875-15.59-6.938-5.469z" fill="url(#radialGradient9659)" opacity=".5138"/></g><g fill-rule="evenodd"><path d="m96.41 2.093c-9.007 1.107-15.85 7.228-16.41 14.46-0.005102 0.03258-0.02046 0.1021-0.02528 0.1347 0 0-3.373 20.72-7.366 26.29-3.134 4.373-63.06 58.54-65.88 63.17-5.963 9.791 5.157 23.75 16.95 15.68 7.777-5.322 54.73-63.98 61.08-68.08 4.287-2.772 26.55-7.519 26.55-7.519 1.299 0.2917-9.279-18.99-12.12-25.09 4e-5 -4.142-0.00898-4.478 0.3732-8.255 5.027-1.982 14.28-5.515 14.28-5.515-3.698-3.563-9.424-5.708-15.7-5.379-0.04111 0.002151-0.09195 0.004604-0.133 0.006962-0.2287 0.01314-1.058 0.05162-1.131 0.0592-0.06299 0.006579-0.1668 0.007294-0.2328 0.01219-0.07118 0.008091-0.1619 0.003471-0.2328 0.01219zm-79.61 102.6c3.652-0.1912 7.186 3.355 7.355 7.563 0.1399 3.481-3.341 7.11-6.993 7.301-3.652 0.1912-7.375-3.48-7.603-7.296-0.2195-3.667 2.625-7.325 7.241-7.567z" fill="#888a85"/><path d="m96.92 1.993c-9.007 1.107-15.85 7.228-16.41 14.46-0.005101 0.03258-0.02046 0.1021-0.02528 0.1347 0 0-3.373 20.72-7.366 26.29-3.134 4.373-63.06 58.54-65.88 63.17-5.963 9.791 5.157 23.75 16.95 15.68 7.777-5.322 54.73-63.98 61.08-68.08 4.287-2.772 26.55-7.519 26.55-7.519 1.299 0.2917-9.279-18.99-12.12-25.09 4e-5 -4.142-0.00898-4.478 0.3732-8.255 5.027-1.982 14.28-5.515 14.28-5.515-3.698-3.563-9.424-5.708-15.7-5.379-0.04111 0.002151-0.09195 0.004603-0.133 0.006963-0.2287 0.01313-1.058 0.05162-1.131 0.0592-0.06299 0.006578-0.1668 0.007294-0.2328 0.01219-0.07118 0.008091-0.1619 0.003472-0.2328 0.01219zm-79.61 102.6c3.652-0.1912 7.186 3.355 7.355 7.563 0.1399 3.481-3.341 7.11-6.993 7.301-3.652 0.1912-7.375-3.48-7.603-7.296-0.2195-3.667 2.625-7.325 7.241-7.567z" fill="url(#radialGradient22837)"/><path d="m82.02 17.16 7.477 16.24 3.184-1.357 5.283 11.83-2.618 1.243 3.598 4.701c5.944-1.49 12.36-4.035 12.36-4.035 0.00467 5.49e-4 0.0281-0.001641 0.03242-0.001686 0.00397-6.32e-4 0.0288-4.66e-4 0.03243-0.001684 0.00258-0.002945 0.02834-0.0289 0.03058-0.03242 0.00155-0.004636-0.00307-0.02554-0.00186-0.03073 0.00177-0.01149 0.02829-0.04947 0.02873-0.06315-0.02552-1.779-9.537-19.21-12.21-24.95-3e-3 -4.142 0.00359-4.474 0.381-8.25 4.999-1.978 14.23-5.108 14.23-5.108-3.681-3.565-11.24-5.119-16.88-4.074-8.854 1.643-14.11 6.933-14.93 13.89z" fill="url(#radialGradient10545)"/><path d="m95.38 2.308c-8.487 1.434-14.84 7.382-15.38 14.33-0.005091 0.03257-0.01056 0.09088-0.01539 0.1235-1.1e-5 3e-6 -3.371 20.72-7.365 26.29-3.134 4.373-63.08 58.53-65.9 63.17-5.963 9.791 5.172 23.76 16.97 15.69 7.777-5.322 54.75-63.97 61.09-68.07 4.287-2.772 26.53-7.535 26.53-7.535 0.00508 0.001139 0.0316 0.02536 0.03631 0.02591 0.00436-4.8e-5 0.02813-0.003336 0.03213-0.003971 0.00329-0.0018 0.025-0.03148 0.02794-0.03385 0.00191-0.004079 0.02637-0.02921 0.02794-0.03385 0.00123-0.005195-0.00507-0.02413-0.00418-0.02988 0.00167-0.01889-0.01128-0.06589-0.01256-0.08964-0.1795-2.02-9.557-19.21-12.21-24.91 3e-5 -4.142-0.00206-4.478 0.3802-8.254 5.027-1.982 14.26-5.532 14.26-5.532-3.698-3.563-9.409-5.685-15.69-5.357-0.04111 0.00215-0.09165-0.01636-0.1327-0.014-0.2287 0.01314-1.06 0.07164-1.133 0.07922-0.063 0.006579-0.1631-0.006977-0.2291-0.002084-0.06229 0.007082-0.159 0.02273-0.2249 0.0278-0.3518 0.04323-0.7152 0.07274-1.06 0.131zm1.356 1.048c5.605-0.962 12.94 0.2184 16.57 3.728 0 0-9.163 3.542-14.16 5.52-0.3774 3.776-0.3832 4.113-0.3802 8.254 2.649 5.697 12.01 22.9 12.18 24.91 3.9e-4 0.007425 0.00409 0.02293 0.00418 0.02988-0.00515 0.01133-0.01827 0.05295-0.02375 0.06373 2.4e-4 0.002761 0.00378 0.02665 0.00418 0.02988-0.00704 0.007297-0.02665 0.03238-0.02794 0.03385-0.00716 1.9e-4 -0.03014 0.003654-0.03213 0.00397-0.00349 2.43e-4 -0.0292 0.003843-0.03212 0.003972 0 0-7.109 1.218-13.05 2.708l-1.782-2.586 3.497-2.295-6.395-12.39-4.412 1.531-7.129-15.6c0.8166-6.954 6.066-12.24 14.92-13.88 0.08807-0.01634 0.1639-0.04638 0.2528-0.06165zm-81.09 101.5c0.3697-0.06907 0.764-0.09231 1.161-0.1131 3.652-0.1912 7.194 3.333 7.364 7.54 0.1399 3.481-3.363 7.12-7.016 7.312-3.652 0.1912-7.363-3.483-7.591-7.3-0.2006-3.352 2.15-6.705 6.083-7.439z" fill="url(#radialGradient25491)"/><path d="m95.63 2.277c-8.487 1.434-14.84 7.382-15.38 14.33-0.00509 0.03257-0.01056 0.09088-0.01539 0.1235-1.1e-5 4e-6 -3.371 20.72-7.365 26.29-3.134 4.373-63.08 58.53-65.9 63.17-5.963 9.791 5.172 23.76 16.97 15.69 7.777-5.322 54.75-63.97 61.09-68.07 4.287-2.772 26.53-7.535 26.53-7.535 0.00508 0.001139 0.0316 0.02537 0.03631 0.02591 0.00436-4.8e-5 0.02813-0.003336 0.03213-0.003971 0.00329-0.001799 0.025-0.03148 0.02794-0.03385 0.00191-0.00408 0.02637-0.02921 0.02794-0.03385 0.00123-0.005195-0.00507-0.02413-0.00418-0.02988 0.00167-0.01889-0.01128-0.06589-0.01256-0.08964-0.1795-2.02-9.557-19.21-12.21-24.91 3e-5 -4.142-0.00206-4.478 0.3802-8.254 5.027-1.982 14.26-5.532 14.26-5.532-3.698-3.563-9.409-5.685-15.69-5.357-0.04112 0.002152-0.09165-0.01635-0.1327-0.014-0.2287 0.01313-1.06 0.07164-1.133 0.07922-0.063 0.00658-0.1631-0.006976-0.2291-0.002084-0.06229 0.007082-0.159 0.02273-0.2249 0.0278-0.3518 0.04323-0.7152 0.07274-1.06 0.131zm1.356 1.048c5.605-0.962 12.94 0.2184 16.57 3.728 0 0-9.163 3.542-14.16 5.52-0.3774 3.776-0.3832 4.113-0.3802 8.254 2.649 5.697 12.01 22.9 12.18 24.91 3.9e-4 0.007425 0.00409 0.02293 0.00418 0.02988-0.00515 0.01133-0.01827 0.05295-0.02375 0.06373 2.4e-4 0.002762 0.00378 0.02666 0.00418 0.02988-0.00704 0.007296-0.02665 0.03238-0.02794 0.03385-0.00716 1.91e-4 -0.03014 0.003655-0.03213 0.003971-0.00349 2.43e-4 -0.0292 0.003842-0.03212 0.003972 0 0-7.109 1.218-13.05 2.708l-1.878-3.277 3.778-2.095-5.867-12.22-4.973 1.131-7.28-14.88c0.8166-6.954 6.066-12.24 14.92-13.88 0.08807-0.01634 0.1639-0.04638 0.2528-0.06165zm-81.09 101.5c0.3697-0.06908 0.764-0.0923 1.161-0.1131 3.652-0.1912 7.194 3.333 7.364 7.54 0.1399 3.481-3.363 7.12-7.016 7.312-3.652 0.1912-7.363-3.483-7.591-7.3-0.2006-3.352 2.15-6.705 6.083-7.439z" fill="url(#radialGradient27252)"/></g><g transform="matrix(1.028 -.1271 .1339 .9562 -10.63 14.78)" fill-rule="evenodd"><rect transform="matrix(.9563 -.2924 .3097 .9508 0 0)" x="68.63" y="58" width="13.4" height="13.09" fill="#2e3436" stroke="url(#radialGradient19335)" stroke-linecap="round" stroke-linejoin="round" stroke-width="1.544"/><rect transform="matrix(.9677 -.2522 .3074 .9516 0 0)" x="71.56" y="55.69" width="7.725" height="11.04" fill="url(#radialGradient15831)"/><g stroke-linecap="round" stroke-linejoin="round"><rect transform="matrix(.986 -.1664 .08672 .9962 0 0)" x="82.51" y="49.74" width="11.25" height="1.233" ry="0" fill="url(#radialGradient12309)" stroke="url(#linearGradient13190)" stroke-width=".3843"/><rect transform="matrix(.9893 -.146 .09906 .9951 0 0)" x="83.73" y="56.04" width="10.96" height="1.054" ry="0" fill="url(#radialGradient14940)" stroke="url(#linearGradient14942)" stroke-width=".3508"/><rect transform="matrix(.9906 -.1366 .106 .9944 0 0)" x="81.91" y="51.25" width="11.67" height="1.051" ry="0" fill="url(#radialGradient14946)" stroke="url(#linearGradient14948)" stroke-width=".3614"/></g></g><g fill-rule="evenodd"><path d="m99.27 12.98 14.25-5.5 0.6445 1.69-14.93 5.916 0.03924-2.106z" fill="url(#linearGradient23728)" filter="url(#filter3737)"/><path d="m110.6 44.08c4.16-0.7889 10.66-9.472 12.74-19.22 0.09251-0.4338 0.4256 3.058 0.315 3.523-2.145 9.006-7.929 15.15-12.26 17.22-0.2564 0.1221 0.02982 1.726-0.7906-1.516z" fill="url(#linearGradient26375)"/><path d="m82.64 16.14 6.55 16.83 4.025-0.7573 5.498 11.57-3.265 2.027 2.381 3.209c5.944-1.49 12.36-4.035 12.36-4.035 0.00467 5.5e-4 0.02811-0.00164 0.03243-0.001685 0.00397-6.33e-4 0.0288-4.67e-4 0.03242-0.001685 0.00258-0.002944 0.02835-0.0289 0.03058-0.03242 0.00155-0.004636-0.00306-0.02554-0.00185-0.03073 0.00177-0.01149 0.02828-0.04947 0.02872-0.06314-0.02552-1.779-9.537-19.21-12.21-24.95-3e-3 -4.142 0.00359-4.474 0.381-8.25 4.999-1.978 13.18-5.392 13.18-5.392-3.681-3.565-10-3.451-15.64-2.406-8.854 1.643-12.57 5.335-13.38 12.29z" fill="url(#radialGradient27256)" filter="url(#filter3985)"/><path d="m7.394 105.1s61.61-57.8 65.6-62.51c3.831-4.524 7.179-25.08 7.179-25.08s2.099-1.422 1.698-0.1891c-0.5496 1.69-5.893 22.44-7.204 24.45-2.988 4.59-19.95 19.73-19.95 19.73l-41.43 39.36-5.888 4.236z" opacity=".3853"/><path d="m17.91 120.7s-4.759 0.07487-7.266-3.075c-2.507-3.15-2.716-7.961-2.716-7.961l0.5504-0.8244s0.4952 4.826 2.753 7.875c2.301 3.108 7.238 3.285 7.161 3.413l-0.4833 0.5718z" fill="url(#radialGradient34276)" opacity=".8945"/><path d="m109.1 30.3c-0.08337 0.2694 0.2624 8.337 0.3125 8.622 0.1201 4.43 1.171 4.698 1.286 5.492 0.8564-0.3258 0.2753 0.08044 1.046-0.3961-0.0737-0.3873-1.164-3.088-1.614-4.056 0.03858-2.203 0.04574-8.383 0.05482-8.969-0.4156-0.2781-0.5752-0.389-1.085-0.6923z"/><path d="m122.9 25.19-12.63 5.953-0.1674 8.973 1.773 3.832c5.45-3.415 9.174-10.48 11.03-18.76z" fill="url(#radialGradient34303)" opacity=".5138"/></g><path d="m-228.9-67.27v-2.795 2.795z" fill="#fff" fill-opacity=".7569"/><path d="m65.69-129.5v-2.795 2.795z" fill="#fff" fill-opacity=".7569"/><path d="m-52.48-94.13c-5.34 0-9.656 4.317-9.656 9.656v8.375h-48.25c-5.34 0-9.656 4.285-9.656 9.625v40.75c0 5.34 4.317 9.625 9.656 9.625h57.91 37.56 1.062c5.34 0 9.625-4.285 9.625-9.625v-58.75c0-5.34-4.285-9.656-9.625-9.656h-38.62z" fill="none" opacity=".06148"/><g fill="#fff"><g fill-opacity=".7569"><path d="m-91.32-199.1v-2.795 2.795z"/><path d="m-210.8-285.7v-2.795 2.795z"/><path d="m35.77-220v-2.795 2.795z"/><path d="m-56.85-146.1v-1.527 1.527z"/></g><rect x="-114.3" y="-202.7" width="1" height="0" opacity=".5779"/><rect x="-149.5" y="-230.2" width="1" height="0" opacity=".5779"/><path d="m-308.4-303.4v-2.795 2.795z" fill-opacity=".7569"/></g><g fill-rule="evenodd"><path d="m95.63 2.277c-8.487 1.434-14.84 7.382-15.38 14.33-0.00509 0.03257-0.01056 0.09088-0.01539 0.1235-1.1e-5 4e-6 -3.371 20.72-7.365 26.29-3.134 4.373-63.08 58.53-65.9 63.17-5.963 9.791 5.172 23.76 16.97 15.69 7.777-5.322 54.75-63.97 61.09-68.07 4.287-2.772 26.53-7.535 26.53-7.535 0.00508 0.001139 0.0316 0.02537 0.03631 0.02591 0.00436-4.8e-5 0.02813-0.003336 0.03213-0.003971 0.00329-0.001799 0.025-0.03148 0.02794-0.03385 0.00191-0.00408 0.02637-0.02921 0.02794-0.03385 0.00123-0.005195-0.00507-0.02413-0.00418-0.02988 0.00167-0.01889-0.01128-0.06589-0.01256-0.08964-0.1795-2.02-9.557-19.21-12.21-24.91 3e-5 -4.142-0.00206-4.478 0.3802-8.254 5.027-1.982 14.26-5.532 14.26-5.532-3.698-3.563-9.409-5.685-15.69-5.357-0.04112 0.002152-0.09165-0.01635-0.1327-0.014-0.2287 0.01313-1.06 0.07164-1.133 0.07922-0.063 0.00658-0.1631-0.006976-0.2291-0.002084-0.06229 0.007082-0.159 0.02273-0.2249 0.0278-0.3518 0.04323-0.7152 0.07274-1.06 0.131zm1.356 1.048c5.605-0.962 12.94 0.2184 16.57 3.728 0 0-9.163 3.542-14.16 5.52-0.3774 3.776-0.3832 4.113-0.3802 8.254 2.649 5.697 12.01 22.9 12.18 24.91 3.9e-4 0.007425 0.00409 0.02293 0.00418 0.02988-0.00515 0.01133-0.01827 0.05295-0.02375 0.06373 2.4e-4 0.002762 0.00378 0.02666 0.00418 0.02988-0.00704 0.007296-0.02665 0.03238-0.02794 0.03385-0.00716 1.91e-4 -0.03014 0.003655-0.03213 0.003971-0.00349 2.43e-4 -0.0292 0.003842-0.03212 0.003972 0 0-7.109 1.218-13.05 2.708l-1.878-3.277 3.778-2.095-5.867-12.22-4.973 1.131-7.28-14.88c0.8166-6.954 6.066-12.24 14.92-13.88 0.08807-0.01634 0.1639-0.04638 0.2528-0.06165zm-81.09 101.5c0.3697-0.06908 0.764-0.0923 1.161-0.1131 3.652-0.1912 7.194 3.333 7.364 7.54 0.1399 3.481-3.363 7.12-7.016 7.312-3.652 0.1912-7.363-3.483-7.591-7.3-0.2006-3.352 2.15-6.705 6.083-7.439z" fill="url(#radialGradient3758)"/><path d="m16.23 102c5.543-1.305 11.85 4.911 10.63 10.77 4.149-3.435 51.89-56.68 52.88-59.24 1.516-3.923-2.578-7.468-6.472-5.797-2.716 1.166-57.4 54.35-57.04 54.27z" fill="#888a85"/><path d="m16.23 102c5.543-1.305 11.85 4.911 10.63 10.77 4.149-3.435 51.89-56.68 52.88-59.24 1.516-3.923-2.578-7.468-6.472-5.797-2.716 1.166-57.4 54.35-57.04 54.27z" opacity=".8"/><path d="m16.23 102c5.543-1.305 11.85 4.911 10.63 10.77 4.149-3.435 51.89-56.68 52.88-59.24 1.516-3.923-2.578-7.468-6.472-5.797-2.716 1.166-57.4 54.35-57.04 54.27z" fill="url(#radialGradient4005)" opacity=".2772"/><path d="m16.23 102c5.543-1.305 11.85 4.911 10.63 10.77 4.149-3.435 51.89-56.68 52.88-59.24 1.516-3.923-2.578-7.468-6.472-5.797-2.716 1.166-57.4 54.35-57.04 54.27z" fill="url(#radialGradient8652)" opacity=".5"/><path d="m73.19 47.86c0.3042-0.1874 2.876-1.47 5.25 0.6196 2.027 1.784 1.754 3.63 1.189 5.291-0.2727 0.8024-22.19 25.65-26.12 30.18-1.935 2.224-8.555 9.46-14.63 16.14-6.129 6.744-11.88 12.59-11.88 12.59s51.93-57.89 52.24-59.47c0.4598-2.315-0.4884-3.052-1.27-3.792-0.7965-0.7537-2.198-1.596-4.106-1.209-2.631 0.5339-56.5 53.33-57.52 53.72 0 0 12.94-12.81 26.59-25.98 13.65-13.17 28.02-26.71 30.26-28.09z" fill="#2e3436" opacity=".4037"/><path d="m16.75 101.5s4.296-1.031 7.966 2.409c4.014 3.762 2.793 8.242 2.793 8.242l-0.6456 0.7709s0.353-1.714-0.06429-3.396c-0.4173-1.682-1.304-3.41-2.815-4.801-1.489-1.371-2.901-2.253-4.434-2.582-1.534-0.3283-3.277-0.09145-3.242-0.1574l0.4416-0.485z" fill="url(#radialGradient8645)"/><path d="m16.75 101.5s4.296-1.031 7.966 2.409c4.014 3.762 2.793 8.242 2.793 8.242l-0.6456 0.7709s0.353-1.714-0.06429-3.396c-0.4173-1.682-1.304-3.41-2.815-4.801-1.489-1.371-2.901-2.253-4.434-2.582-1.534-0.3283-3.277-0.09145-3.242-0.1574l0.4416-0.485z" fill="url(#radialGradient8645)"/></g><g fill="#fff" fill-rule="evenodd"><path d="m104.6 3.194c-11.99-0.9893-20.74 3.166-22.16 12.27 1.646-6.957 8.949-12.61 22.16-12.27z" filter="url(#filter3989)"/><path d="m104.6 3.194c-12.14-1.713-21.74 2.654-22.16 12.27 2.309-6.837 8.949-12.33 22.16-12.27z" filter="url(#filter3995)" opacity=".7772"/><path d="m99.81 3.156c-4.782-0.02921-8.939 0.9715-11.94 3-2.555 1.728-4.287 4.179-4.906 7.312 2.491-5.18 7.77-9.292 16.84-10.31z" filter="url(#filter3995)" opacity=".7772"/></g><path d="m75.43 47.31c-0.7059-0.02154-1.426 0.1242-2.156 0.4375-2.716 1.166-57.39 54.33-57.03 54.25 0.377-0.08876 0.7435-0.1346 1.125-0.1562 5.831-5.884 53.36-52 55.91-53.09 3.117-1.338 6.357 0.6658 6.75 3.531 0.2575-2.664-1.944-4.888-4.594-4.969zm-48.44 64.38c-0.01923 0.3671-0.04902 0.7275-0.125 1.094 0.02334-0.01932 0.09892-0.07129 0.125-0.09375 5.49e-4 -0.01049-5.05e-4 -0.02076 0-0.03125 0.01565-0.3251 0.02578-0.6459 0-0.9688z" fill-rule="evenodd" opacity=".5"/></svg>
