<?xml version="1.0" encoding="UTF-8"?>
<svg width="128" height="128" enable-background="new 0 0 121 120" overflow="visible" version="1.0" viewBox="0 0 121 120" xml:space="preserve" xmlns="http://www.w3.org/2000/svg" xmlns:xlink="http://www.w3.org/1999/xlink"><defs><linearGradient id="linearGradient5990"><stop stop-color="#fff" offset="0"/><stop stop-color="#fff" stop-opacity="0" offset="1"/></linearGradient><filter id="filter5956"><feGaussianBlur stdDeviation="0.55418773"/></filter><filter id="filter6074"><feGaussianBlur stdDeviation="1.9142018"/></filter><clipPath id="clipPath6080"><path d="m-135.8 93.33a30.69 30.69 0 1 1-61.38 0 30.69 30.69 0 1 1 61.38 0z" fill="url(#radialGradient6084)" filter="url(#filter6074)"/></clipPath><radialGradient id="radialGradient6084" cx="-166.5" cy="65.94" r="31.19" gradientTransform="matrix(1 0 0 .6578 0 22.56)" gradientUnits="userSpaceOnUse" xlink:href="#linearGradient5990"/><radialGradient id="radialGradient3960" cx="-166.5" cy="65.94" r="31.19" gradientTransform="matrix(.5376 0 0 .6578 -77.01 22.56)" gradientUnits="userSpaceOnUse"><stop stop-color="#00c4cc" offset="0"/><stop stop-color="#fff" stop-opacity="0" offset="1"/></radialGradient><radialGradient id="radialGradient3962" cx="-166.5" cy="84.28" r="31.19" gradientTransform="matrix(0 1 -1 0 -40 140)" gradientUnits="userSpaceOnUse"><stop stop-color="#0081ec" offset="0"/><stop stop-color="#003871" offset="1"/></radialGradient><radialGradient id="radialGradient3966" cx="-166.5" cy="116.6" r="31.19" gradientTransform="matrix(0 1 -1 0 -40 140)" gradientUnits="userSpaceOnUse"><stop stop-color="#0081ec" offset="0"/><stop stop-color="#004c98" offset="1"/></radialGradient><linearGradient id="linearGradient3977" x1="-176.8" x2="-176.1" y1="72.39" y2="95.83" gradientTransform="matrix(1.685 0 0 1.685 353.9 -111.2)" gradientUnits="userSpaceOnUse" xlink:href="#linearGradient5990"/><linearGradient id="linearGradient3980" x1="-158.8" x2="-181.7" y1="114.6" y2="92.12" gradientTransform="matrix(1.685 0 0 1.685 353.2 -117.4)" gradientUnits="userSpaceOnUse"><stop stop-color="#fff" offset="0"/><stop stop-color="#fff" stop-opacity="0" offset="1"/></linearGradient><linearGradient id="linearGradient3983" x1="-176.8" x2="-176.8" y1="5.964" y2="109.1" gradientTransform="matrix(1.685 0 0 1.685 353.9 -111.2)" gradientUnits="userSpaceOnUse"><stop stop-color="#fff" offset="0"/><stop stop-color="#fff" stop-opacity="0" offset="1"/></linearGradient><linearGradient id="linearGradient3987" x1="-150.5" x2="-150.5" y1="68.07" y2="117.8" gradientTransform="matrix(1.783 0 0 1.783 363.1 -110.6)" gradientUnits="userSpaceOnUse"><stop stop-color="#a4c0e4" offset="0"/><stop stop-color="#a4c0e4" stop-opacity="0" offset="1"/></linearGradient><filter id="filter4737"><feGaussianBlur stdDeviation="0.61380459"/></filter><linearGradient id="linearGradient4747" x1="-175.9" x2="-175" y1="125.1" y2="67.39" gradientUnits="userSpaceOnUse"><stop stop-color="#00316e" offset="0"/><stop stop-color="#00316e" stop-opacity="0" offset="1"/></linearGradient><radialGradient id="radialGradient3879" cx="58.61" cy="39.36" r="11.46" gradientTransform="matrix(3.931 0 0 1.124 -171.8 -4.555)" gradientUnits="userSpaceOnUse"><stop stop-color="#00316e" offset="0"/><stop stop-color="#00316e" stop-opacity="0" offset="1"/></radialGradient><filter id="filter3881"><feGaussianBlur stdDeviation="0.45848289"/></filter><radialGradient id="radialGradient3892" cx="61.03" cy="77.89" r="17.02" gradientTransform="matrix(2.87 0 0 2.34 -113.1 -101.5)" gradientUnits="userSpaceOnUse"><stop stop-color="#00316e" offset="0"/><stop stop-color="#00316e" stop-opacity="0" offset="1"/></radialGradient><filter id="filter3894"><feGaussianBlur stdDeviation="0.8696875"/></filter><filter id="filter3925"><feGaussianBlur stdDeviation="0.1153125"/></filter></defs>

<filter>
	<feGaussianBlur stdDeviation="3"/>
</filter>
<filter id="AI_Sfocatura_2">
	<feGaussianBlur stdDeviation="2"/>
</filter>
<filter id="AI_Sfocatura_1">
	<feGaussianBlur stdDeviation="1"/>
</filter><g>
<path transform="matrix(-1.733 0 0 1.733 -228.1 -101.8)" d="m-135.8 93.33a30.69 30.69 0 1 1-61.38 0 30.69 30.69 0 1 1 61.38 0z" fill="url(#linearGradient4747)" filter="url(#filter4737)"/><path transform="matrix(-1.733 0 0 1.733 -228.1 -101.8)" d="m-135.8 93.33a30.69 30.69 0 1 1-61.38 0 30.69 30.69 0 1 1 61.38 0z" fill="url(#radialGradient6084)" filter="url(#filter6074)"/><path transform="matrix(-1.721 0 0 -1.721 -226.1 220.6)" d="m-135.8 93.33a30.69 30.69 0 1 1-61.38 0 30.69 30.69 0 1 1 61.38 0z" clip-path="url(#clipPath6080)" fill="url(#radialGradient3960)" filter="url(#filter6074)"/><path transform="matrix(-1.721 0 0 1.721 -226.1 -100.6)" d="m-135.8 93.33a30.69 30.69 0 1 1-61.38 0 30.69 30.69 0 1 1 61.38 0z" fill="url(#radialGradient3962)"/><path transform="matrix(-1.721 0 0 1.721 -226.1 -100.6)" d="m-135.8 93.33a30.69 30.69 0 1 1-61.38 0 30.69 30.69 0 1 1 61.38 0z" clip-path="url(#clipPath6080)" fill="url(#radialGradient6084)" filter="url(#filter6074)"/><path transform="matrix(-1.597 0 0 1.597 -205.4 -89.24)" d="m-135.8 93.33a30.69 30.69 0 1 1-61.38 0 30.69 30.69 0 1 1 61.38 0z" fill="url(#radialGradient3966)"/><path d="m60.5 10.79c-27.05 0-48.98 21.93-48.98 48.98 0 2.518 0.1597 5.01 0.5267 7.426 0.00257 0.01697-0.002598 0.03569 0 0.05267 10.3 1.647 21.27 2.475 32.65 2.475 24.33 0 46.78-4.065 64.78-10.9-0.506-26.61-22.25-48.03-48.98-48.03z" fill="url(#linearGradient3987)" opacity=".8922"/></g><path transform="matrix(.8806 0 0 .8806 8.887 3.276)" d="m68.06 35.42a9.453 9.453 0 1 1-18.91 0 9.453 9.453 0 1 1 18.91 0z" fill="none" filter="url(#filter3881)" opacity=".3" stroke="url(#radialGradient3879)" stroke-linecap="round" stroke-linejoin="round" stroke-width="4.294"/><path transform="matrix(-1.685 0 0 1.685 -116.5 -106.8)" d="m-134.1 98.62c-0.00282 0.1667-0.03125 0.3327-0.03125 0.5 0 16.05 13.04 29.06 29.09 29.06 16.05 0 29.06-13.01 29.06-29.06 0-0.1671 0.002813-0.3336 0-0.5-0.2673 15.82-13.18 28.56-29.06 28.56-15.88 0-28.79-12.74-29.06-28.56z" fill="#007fea" filter="url(#filter5956)"/><path d="m60.47 10.83c-27.05 0-48.98 21.93-48.98 48.98 0 0.2481-0.003157 0.4898 0 0.7373 0.5055-26.61 22.25-48.03 48.98-48.03 26.16 0 47.55 20.52 48.93 46.35 0.01523-0.005776 0.03744 0.005777 0.05267 0-0.506-26.61-22.25-48.03-48.98-48.03z" fill="url(#linearGradient3983)"/><path d="m60.47 10.83c-27.05 0-48.98 21.93-48.98 48.98 0 0.2481-0.003157 0.4898 0 0.7373 0.5055-26.61 22.25-48.71 48.98-48.71 26.16 0 47.55 21.2 48.93 47.02 0.01523-0.005776 0.03744 0.005777 0.05267 0-0.506-26.61-22.25-48.03-48.98-48.03z" fill="url(#linearGradient3977)" opacity=".8"/><symbol id="Nuovo_simbolo" viewBox="-8 -14 16 28">
	
		<path d="m8 14h-2-12-2v-2-24-2h2 12 2v2 24 2zm-14-2h12v-24h-12v24z" fill="#fff"/>
	
	<linearGradient id="XMLID_203_" x1="-4" x2="4" gradientUnits="userSpaceOnUse">
		<stop stop-color="#2E3436" offset="0"/>
		<stop stop-color="#555753" offset=".4024"/>
		<stop stop-color="#2E3436" offset="1"/>
	</linearGradient>
	<path d="m-4 10v-20h8v20h-8z" fill="url(#XMLID_203_)"/>
	<radialGradient id="XMLID_204_" cx="0" cy="-6.75" r="2.761" gradientUnits="userSpaceOnUse">
		<stop stop-color="#EEEEEC" offset=".4024"/>
		<stop stop-color="#555753" offset="1"/>
	</radialGradient>
	<path d="m-3-4.25v-5h6v5h-6z" fill="url(#XMLID_204_)"/>
	
		<radialGradient id="XMLID_205_" cx="-8119" cy="0" r="4" gradientTransform="matrix(.5 0 0 1 4060 0)" gradientUnits="userSpaceOnUse">
		<stop stop-color="#BABDB6" offset=".1065"/>
		<stop stop-color="#555753" offset="1"/>
	</radialGradient>
	<path d="m-2 4v-8h4v8h-4z" fill="url(#XMLID_205_)"/>
	<radialGradient id="XMLID_206_" cx="0" cy="6.75" r="2.761" fx="-.0415" fy="6.421" gradientUnits="userSpaceOnUse">
		<stop stop-color="#D3D7CF" offset=".1065"/>
		<stop stop-color="#555753" offset="1"/>
	</radialGradient>
	<path d="m-3 9.25v-5h6v5h-6z" fill="url(#XMLID_206_)"/>
</symbol>
<symbol viewBox="-20 -20 40 40">
	
		<path d="m0 20c-11.04 0-20-8.955-20-20s8.955-20 20-20 20 8.955 20 20-8.955 20-20 20zm0-38c-9.925 0-18 8.075-18 18s8.075 18 18 18 18-8.075 18-18-8.075-18-18-18z" fill="#fff"/>
	
	<path d="m-16 0c0-8.822 7.178-16 16-16s16 7.178 16 16-7.178 16-16 16-16-7.178-16-16z"/>
	<linearGradient id="XMLID_207_" x1="-10.79" x2="10.79" gradientUnits="userSpaceOnUse">
		<stop stop-color="#BABDB6" offset=".1065"/>
		<stop stop-color="#D3D7CF" offset=".7396"/>
		<stop stop-color="#eee" offset="1"/>
	</linearGradient>
	<path d="m-10.79 0c0-5.949 4.84-10.79 10.79-10.79s10.79 4.84 10.79 10.79c0 5.948-4.84 10.79-10.79 10.79s-10.79-4.841-10.79-10.79z" fill="url(#XMLID_207_)"/>
	<linearGradient id="XMLID_208_" x1="-.0004883" x2="-.0004888" y1="-10.79" y2=".5" gradientUnits="userSpaceOnUse">
		<stop stop-color="#BABDB6" offset=".1065"/>
		<stop stop-color="#D3D7CF" offset=".7396"/>
		<stop stop-color="#eee" offset="1"/>
	</linearGradient>
	<path d="m0-9.789c-5.78 0-10.5 4.572-10.76 10.29-8e-3 -0.167-0.026-0.331-0.026-0.5 0-5.949 4.84-10.79 10.79-10.79s10.79 4.84 10.79 10.79c0 0.169-0.018 0.333-0.025 0.5-0.264-5.717-4.984-10.29-10.76-10.29z" fill="url(#XMLID_208_)"/>
	
		<defs><path id="XMLID_27_" d="m-16 0c0-8.822 7.178-16 16-16s16 7.178 16 16-7.178 16-16 16-16-7.178-16-16z"/></defs>
		<clipPath id="XMLID_209_">
			<use width="121" height="120" xlink:href="#XMLID_27_"/>
		</clipPath>
		<g clip-path="url(#XMLID_209_)" filter="url(#AI_Sfocatura_1)">
			<linearGradient id="XMLID_210_" x1="-15" x2="15" y1="6.5" y2="6.5" gradientUnits="userSpaceOnUse">
				<stop offset=".1065"/>
				<stop stop-color="#fff" offset=".7396"/>
				<stop offset="1"/>
			</linearGradient>
			<path d="m-14-1c0 7.72 6.28 14 14 14s14-6.28 14-14h1c0 8.271-6.729 15-15 15s-15-6.729-15-15h1z" fill="url(#XMLID_210_)"/>
		</g>
	
</symbol>
<symbol viewBox="-14 -8 28 16">
	
		<path d="m-14 8v-2-12-2h2 24 2v2 12 2h-2-24-2zm2-14v12h24v-12h-24z" fill="#fff"/>
	
	
		<linearGradient id="XMLID_211_" x1="8185" x2="8193" y1="8339" y2="8339" gradientTransform="matrix(0,1,-1,0,8339,-8189)" gradientUnits="userSpaceOnUse">
		<stop stop-color="#2E3436" offset="0"/>
		<stop stop-color="#555753" offset=".4024"/>
		<stop stop-color="#2E3436" offset="1"/>
	</linearGradient>
	<path d="m-10-4h20v8h-20v-8z" fill="url(#XMLID_211_)"/>
	
		<radialGradient id="XMLID_212_" cx="8189" cy="8332" r="2.761" gradientTransform="matrix(0,1,-1,0,8339,-8189)" gradientUnits="userSpaceOnUse">
		<stop stop-color="#EEEEEC" offset=".4024"/>
		<stop stop-color="#555753" offset="1"/>
	</radialGradient>
	<path d="m4.25-3h5v6h-5v-6z" fill="url(#XMLID_212_)"/>
	
		<radialGradient id="XMLID_213_" cx="8259" cy="8339" r="4" gradientTransform="matrix(0 .5 -1 0 8339 -4130)" gradientUnits="userSpaceOnUse">
		<stop stop-color="#BABDB6" offset=".1065"/>
		<stop stop-color="#555753" offset="1"/>
	</radialGradient>
	<path d="m-4-2h8v4h-8v-4z" fill="url(#XMLID_213_)"/>
	
		<radialGradient id="XMLID_214_" cx="8189" cy="8346" r="2.761" fy="8345" gradientTransform="matrix(0,1,-1,0,8339,-8189)" gradientUnits="userSpaceOnUse">
		<stop stop-color="#D3D7CF" offset=".1065"/>
		<stop stop-color="#555753" offset="1"/>
	</radialGradient>
	<path d="m-9.25-3h5v6h-5v-6z" fill="url(#XMLID_214_)"/>
</symbol>
<symbol viewBox="-35.726 -35.726 71.451 71.451">
	
		<path d="m0 35.73c-19.73 0-35.72-16-35.72-35.73s16-35.73 35.72-35.73c19.73 0 35.73 16 35.73 35.73 0 19.73-16 35.73-35.73 35.73zm0-67.45c-8.474 0-16.44 3.3-22.43 9.292-5.993 5.994-9.294 13.96-9.294 22.43s3.3 16.44 9.293 22.43c5.993 5.993 13.96 9.293 22.43 9.293s16.44-3.3 22.43-9.293c5.992-5.994 9.293-13.96 9.293-22.43s-3.3-16.44-9.293-22.43c-5.993-5.992-13.96-9.292-22.43-9.292z" fill="#fff"/>
	
	
		
		<use width="121" height="120" xlink:href="#XMLID_34_"/>
		<clipPath id="XMLID_215_">
			<use width="121" height="120" xlink:href="#XMLID_34_"/>
		</clipPath>
		<g clip-path="url(#XMLID_215_)">
			<g filter="url(#AI_Sfocatura_2)">
				<path d="m-27.49 7.811c7.221 3.533 12.74 10.02 14.97 17.88-7.222-3.532-12.74-10.02-14.97-17.88z" fill="#fff"/>
			</g>
			<g filter="url(#AI_Sfocatura_2)">
				<path d="m24.17 15.22c-4.043 6.395-10.55 11.08-18.17 12.72 4.043-6.395 10.55-11.08 18.17-12.72z" fill="#fff"/>
			</g>
		</g>
	
	<g opacity=".8">
		
		<clipPath id="XMLID_216_">
			<use width="121" height="120" xlink:href="#XMLID_36_"/>
		</clipPath>
		<g clip-path="url(#XMLID_216_)">
			<g filter="url(#AI_Sfocatura_2)">
				<linearGradient id="XMLID_217_" x1="38" x2="-32.17" y1="-16.75" y2="-16.75" gradientUnits="userSpaceOnUse">
					<stop offset=".1065"/>
					<stop stop-color="#eee" offset=".497"/>
					<stop stop-color="#fff" offset=".7396"/>
					<stop offset="1"/>
				</linearGradient>
				<path d="m27.49-7.811c-7.221-3.531-12.74-10.02-14.97-17.88 7.222 3.534 12.74 10.02 14.97 17.88z" fill="url(#XMLID_217_)"/>
			</g>
			<g filter="url(#AI_Sfocatura_2)">
				<linearGradient id="XMLID_218_" x1="38" x2="-32.17" y1="-21.58" y2="-21.58" gradientUnits="userSpaceOnUse">
					<stop offset=".1065"/>
					<stop stop-color="#eee" offset=".497"/>
					<stop stop-color="#fff" offset=".7396"/>
					<stop offset="1"/>
				</linearGradient>
				<path d="m-24.17-15.22c4.042-6.395 10.55-11.08 18.17-12.72-4.043 6.394-10.55 11.08-18.17 12.72z" fill="url(#XMLID_218_)"/>
			</g>
		</g>
	</g>
	<linearGradient id="XMLID_219_" x1="-15.78" x2="15.78" y1="-11.05" y2="11.05" gradientUnits="userSpaceOnUse">
		<stop stop-color="#BABDB6" offset=".1065"/>
		<stop stop-color="#eee" offset=".497"/>
		<stop stop-color="#D3D7CF" offset=".7396"/>
		<stop stop-color="#eee" offset="1"/>
	</linearGradient>
	<path d="m-19.27 0c0-10.63 8.646-19.27 19.27-19.27s19.27 8.644 19.27 19.27-8.646 19.27-19.27 19.27-19.27-8.646-19.27-19.27z" fill="url(#XMLID_219_)"/>
</symbol>























































































































































































































<path d="m78.82 14.34c16.25 7.746 29.61 24.95 29.97 44.06-18 6.837-43.45 10.6-67.77 10.6-9.474 0.2008-18.65-0.1274-29.03-1.783 0.002542 0.01697-0.002607 0.03569 0 0.05267 10.3 1.647 21.27 2.475 32.65 2.475 24.33 0 46.78-4.065 64.78-10.9-0.383-20.14-12.93-37.35-30.6-44.5z" fill="url(#linearGradient3980)" opacity=".6"/><path d="m68.06 86.47 7.562 6e-6v7.562h-30.25v-7.562l7.562-6e-6v-30.25h-7.562v-7.562h22.69v37.81z" fill="none" filter="url(#filter3894)" opacity=".5" stroke="url(#radialGradient3892)" stroke-width="3.781"/><g><path transform="matrix(.8806 0 0 .8806 8.887 3.276)" d="m68.06 35.42a9.453 9.453 0 1 1-18.91 0 9.453 9.453 0 1 1 18.91 0z" fill="#fff"/><path d="m68.06 86.47 7.562 6e-6v7.562h-30.25v-7.562l7.562-6e-6v-30.25h-7.562v-7.562h22.69v37.81z" fill="#eee"/><path transform="matrix(.9625 0 0 .9625 -.8268 -1.396)" d="m48 52v8l7.857-0.1432v14.12c5.452-0.2077 10.5-0.4639 15.71-1.044v-20.94h-23.57z" fill="#fff" filter="url(#filter3925)"/></g></svg>
