<?xml version="1.0" encoding="UTF-8" standalone="no"?>
<svg
   xmlns:dc="http://purl.org/dc/elements/1.1/"
   xmlns:cc="http://creativecommons.org/ns#"
   xmlns:rdf="http://www.w3.org/1999/02/22-rdf-syntax-ns#"
   xmlns:svg="http://www.w3.org/2000/svg"
   xmlns="http://www.w3.org/2000/svg"
   xmlns:xlink="http://www.w3.org/1999/xlink"
   version="1.0"
   id="svg2"
   height="128"
   width="128">
  <defs
     id="defs4">
    <linearGradient
       id="linearGradient3400">
      <stop
         id="stop3402"
         offset="0"
         style="stop-color:#ffff00;stop-opacity:1;" />
      <stop
         id="stop3404"
         offset="1"
         style="stop-color:#ffff00;stop-opacity:0;" />
    </linearGradient>
    <linearGradient
       id="linearGradient3377">
      <stop
         id="stop3379"
         offset="0"
         style="stop-color:#ffffff;stop-opacity:1;" />
      <stop
         id="stop3381"
         offset="1"
         style="stop-color:#ffffff;stop-opacity:0;" />
    </linearGradient>
    <linearGradient
       id="linearGradient3320">
      <stop
         id="stop3322"
         offset="0"
         style="stop-color:#ea3b18;stop-opacity:1;" />
      <stop
         id="stop3324"
         offset="1"
         style="stop-color:#ea3b18;stop-opacity:0;" />
    </linearGradient>
    <linearGradient
       id="linearGradient3282">
      <stop
         id="stop3284"
         offset="0"
         style="stop-color:#ac4311;stop-opacity:1;" />
      <stop
         id="stop3286"
         offset="1"
         style="stop-color:#ea5418;stop-opacity:1" />
    </linearGradient>
    <linearGradient
       id="linearGradient3252">
      <stop
         style="stop-color:#ffffff;stop-opacity:1"
         offset="0"
         id="stop3254" />
      <stop
         style="stop-color:#ffffff;stop-opacity:0"
         offset="1"
         id="stop3256" />
    </linearGradient>
    <linearGradient
       id="linearGradient4193">
      <stop
         id="stop4195"
         offset="0"
         style="stop-color:#ffc404;stop-opacity:1;" />
      <stop
         id="stop4197"
         offset="1"
         style="stop-color:#ffc404;stop-opacity:0;" />
    </linearGradient>
    <linearGradient
       id="linearGradient4068">
      <stop
         id="stop4070"
         offset="0"
         style="stop-color:#ffffff;stop-opacity:1;" />
      <stop
         id="stop4072"
         offset="1"
         style="stop-color:#ffffff;stop-opacity:0;" />
    </linearGradient>
    <linearGradient
       id="linearGradient4056">
      <stop
         id="stop4058"
         offset="0"
         style="stop-color:#ffd500;stop-opacity:1" />
      <stop
         id="stop4060"
         offset="1"
         style="stop-color:#ffff99;stop-opacity:0" />
    </linearGradient>
    <linearGradient
       id="linearGradient3971">
      <stop
         id="stop3973"
         offset="0"
         style="stop-color:#ffffff;stop-opacity:1;" />
      <stop
         id="stop3975"
         offset="1"
         style="stop-color:#ffffff;stop-opacity:0;" />
    </linearGradient>
    <linearGradient
       id="linearGradient3954">
      <stop
         id="stop3956"
         offset="0"
         style="stop-color:#ffffbf;stop-opacity:1" />
      <stop
         id="stop3958"
         offset="1"
         style="stop-color:#ffffbf;stop-opacity:0" />
    </linearGradient>
    <linearGradient
       id="linearGradient3932">
      <stop
         style="stop-color:#ffff00;stop-opacity:1"
         offset="0"
         id="stop3934" />
      <stop
         style="stop-color:#ff7e00;stop-opacity:1"
         offset="1"
         id="stop3936" />
    </linearGradient>
    <linearGradient
       id="linearGradient3851">
      <stop
         id="stop3853"
         offset="0"
         style="stop-color:#ffdd00;stop-opacity:1" />
      <stop
         id="stop3855"
         offset="1"
         style="stop-color:#e15800;stop-opacity:1" />
    </linearGradient>
    <radialGradient
       gradientUnits="userSpaceOnUse"
       gradientTransform="matrix(4.125192,-0.4335743,0.1499795,1.4269598,-211.59742,-0.8510997)"
       r="48.004357"
       fy="85.945168"
       fx="63.683678"
       cy="85.945168"
       cx="63.683678"
       id="radialGradient3849"
       xlink:href="#linearGradient3932" />
    <linearGradient
       gradientTransform="matrix(1.0003186,0,0,1.0920256,4.8948421e-3,-2.1497485)"
       gradientUnits="userSpaceOnUse"
       y2="108.00891"
       x2="74.685875"
       y1="37.71302"
       x1="74.685875"
       id="linearGradient3857"
       xlink:href="#linearGradient3851" />
    <filter
       id="filter3950">
      <feGaussianBlur
         id="feGaussianBlur3952"
         stdDeviation="0.45503695" />
    </filter>
    <linearGradient
       gradientUnits="userSpaceOnUse"
       y2="42.471062"
       x2="72.742889"
       y1="102.71508"
       x1="72.742889"
       id="linearGradient3960"
       xlink:href="#linearGradient3954" />
    <linearGradient
       gradientTransform="matrix(1.0152964,0,0,1.0920256,-1.3711972,-2.1497485)"
       gradientUnits="userSpaceOnUse"
       y2="82.910049"
       x2="67.189468"
       y1="15.087444"
       x1="65.980019"
       id="linearGradient3977"
       xlink:href="#linearGradient3971" />
    <radialGradient
       gradientUnits="userSpaceOnUse"
       gradientTransform="matrix(8.2879791,-4.7852502,0.5464445,0.9465058,-219.3366,117.99253)"
       r="5.9950326"
       fy="102"
       fx="22.004967"
       cy="102"
       cx="22.004967"
       id="radialGradient4062"
       xlink:href="#linearGradient4056" />
    <radialGradient
       r="5.9950326"
       fy="102"
       fx="22.004967"
       cy="102"
       cx="22.004967"
       gradientTransform="matrix(-8.2879791,-4.7852502,-0.5464445,0.9465058,347.61812,117.99253)"
       gradientUnits="userSpaceOnUse"
       id="radialGradient4066"
       xlink:href="#linearGradient4056" />
    <radialGradient
       gradientUnits="userSpaceOnUse"
       gradientTransform="matrix(-1,0,0,-12.343127,128,293.46933)"
       r="4.21875"
       fy="21.994045"
       fx="64"
       cy="21.994045"
       cx="64"
       id="radialGradient4076"
       xlink:href="#linearGradient4068" />
    <filter
       id="filter4102"
       height="1.143004"
       y="-0.071501976"
       width="1.2035852"
       x="-0.1017926">
      <feGaussianBlur
         id="feGaussianBlur4104"
         stdDeviation="0.35786462" />
    </filter>
    <linearGradient
       y2="77.707237"
       x2="72.923073"
       y1="22.873119"
       x1="56.87429"
       gradientTransform="matrix(1.0229652,0,0,1.0920256,-1.4644437,-1.8338916)"
       gradientUnits="userSpaceOnUse"
       id="linearGradient4179"
       xlink:href="#linearGradient3252" />
    <linearGradient
       gradientUnits="userSpaceOnUse"
       y2="149.0795"
       x2="82.169357"
       y1="20.939892"
       x1="64.653976"
       id="linearGradient4199"
       xlink:href="#linearGradient4193" />
    <filter
       id="filter3274">
      <feGaussianBlur
         id="feGaussianBlur3276"
         stdDeviation="1.4432763" />
    </filter>
    <radialGradient
       gradientUnits="userSpaceOnUse"
       gradientTransform="matrix(1.4073524,-4.9145829e-2,3.3701767e-2,0.9650923,-26.955636,5.4114576)"
       r="52.025275"
       fy="25.956657"
       fx="64.025276"
       cy="25.956657"
       cx="64.025276"
       id="radialGradient3326"
       xlink:href="#linearGradient3320" />
    <linearGradient
       gradientUnits="userSpaceOnUse"
       y2="46.195744"
       x2="61.264969"
       y1="82.805801"
       x1="85.398132"
       id="linearGradient3383"
       xlink:href="#linearGradient3377" />
    <linearGradient
       y2="105.4052"
       x2="67.096779"
       y1="35.311508"
       x1="67.096779"
       gradientUnits="userSpaceOnUse"
       id="linearGradient3391"
       xlink:href="#linearGradient3282" />
    <filter
       id="filter3396"
       height="1.0607916"
       y="-0.030395781"
       width="1.2281187"
       x="-0.11405937">
      <feGaussianBlur
         id="feGaussianBlur3398"
         stdDeviation="0.8554453" />
    </filter>
    <radialGradient
       gradientUnits="userSpaceOnUse"
       gradientTransform="matrix(4.5093795,0,0,4.2142344,-223.72294,-220.10349)"
       r="9"
       fy="68.477737"
       fx="63.75"
       cy="68.477737"
       cx="63.75"
       id="radialGradient3406"
       xlink:href="#linearGradient3400" />
    <radialGradient
       r="9"
       fy="74.355972"
       fx="63.75"
       cy="74.355972"
       cx="63.75"
       gradientTransform="matrix(4.5093795,0,0,1.3282315,-223.72294,-5.5119394)"
       gradientUnits="userSpaceOnUse"
       id="radialGradient3410"
       xlink:href="#linearGradient3400" />
  </defs>
  <metadata
     id="metadata7">
    <rdf:RDF>
      <cc:Work
         rdf:about="">
        <dc:format>image/svg+xml</dc:format>
        <dc:type
           rdf:resource="http://purl.org/dc/dcmitype/StillImage" />
        <dc:title></dc:title>
      </cc:Work>
    </rdf:RDF>
  </metadata>
  <g
     id="layer1">
    <path
       transform="matrix(1.0967227,0,0,1.1002593,-6.1902535,-2.2094077)"
       id="path4137"
       d="M 63.594525,15.80685 C 61.088483,15.954871 58.821624,17.466363 57.570338,19.823647 L 16.791222,96.142808 C 15.466493,98.629922 15.467558,101.69401 16.794017,104.18005 C 18.120475,106.66607 20.570634,108.19604 23.220884,108.1932 L 104.77911,108.1932 C 107.42937,108.19604 109.87952,106.66607 111.20598,104.18005 C 112.53244,101.69401 112.5335,98.629922 111.20877,96.142808 L 70.429661,19.823647 C 69.033862,17.19393 66.390069,15.640255 63.594525,15.80685 z "
       style="opacity:1;fill:#ffc404;fill-opacity:1;fill-rule:evenodd;stroke:url(#linearGradient4199);stroke-width:1.82068181;stroke-linecap:round;stroke-linejoin:round;stroke-miterlimit:4;stroke-dasharray:none;stroke-opacity:1;filter:url(#filter3274)" />
    <path
       id="path3833"
       d="M 63.58764,15.32266 C 60.8828,15.483628 58.436118,17.127313 57.085569,19.690763 L 13.071555,102.6847 C 11.641738,105.38934 11.642888,108.72141 13.074571,111.42487 C 14.506254,114.12833 17.150778,115.7921 20.011265,115.78901 L 108.0393,115.78901 C 110.89979,115.7921 113.5443,114.12833 114.97599,111.42487 C 116.40766,108.72141 116.40881,105.38934 114.979,102.6847 L 70.964989,19.690763 C 69.458464,16.831053 66.604947,15.141495 63.58764,15.32266 z "
       style="fill:url(#linearGradient3857);fill-opacity:1;fill-rule:evenodd;stroke:none;stroke-width:16;stroke-linecap:round;stroke-linejoin:round;stroke-miterlimit:4;stroke-dasharray:none;stroke-opacity:1" />
    <path
       style="fill:url(#radialGradient3326);fill-opacity:1.0;fill-rule:evenodd;stroke:none;stroke-width:16;stroke-linecap:round;stroke-linejoin:round;stroke-miterlimit:4;stroke-dasharray:none;stroke-opacity:1;opacity:0.36734694"
       d="M 63.58764,15.32266 C 60.8828,15.483628 58.436118,17.127313 57.085569,19.690763 L 13.071555,102.6847 C 11.641738,105.38934 11.642888,108.72141 13.074571,111.42487 C 14.506254,114.12833 17.150778,115.7921 20.011265,115.78901 L 108.0393,115.78901 C 110.89979,115.7921 113.5443,114.12833 114.97599,111.42487 C 116.40766,108.72141 116.40881,105.38934 114.979,102.6847 L 70.964989,19.690763 C 69.458464,16.831053 66.604947,15.141495 63.58764,15.32266 z "
       id="path3318" />
    <path
       transform="matrix(1.0919838,0,0,1.0920256,-7.2516225,-2.1497485)"
       id="path4051"
       d="M 63.59375,16 C 62.204553,16.082054 60.889465,16.602887 59.78125,17.4375 L 64,28 L 68.21875,17.4375 C 66.88987,16.43384 65.2712,15.900036 63.59375,16 z "
       style="opacity:0.92195123;fill:url(#radialGradient4076);fill-opacity:1;fill-rule:evenodd;stroke:none;stroke-width:16;stroke-linecap:round;stroke-linejoin:round;stroke-miterlimit:4;stroke-dasharray:none;stroke-opacity:1;filter:url(#filter4102)" />
    <path
       id="path4041"
       d="M 25.323922,102.6847 L 12.493113,104.83463 C 11.963856,107.03044 12.235578,109.40323 13.312101,111.42091 C 14.754514,114.12437 17.425695,115.7921 20.307621,115.78901 L 23.139955,115.78901 L 25.323922,102.6847 z "
       style="opacity:0.80102041;fill:url(#radialGradient4062);fill-opacity:1;fill-rule:evenodd;stroke:none;stroke-width:16;stroke-linecap:round;stroke-linejoin:round;stroke-miterlimit:4;stroke-dasharray:none;stroke-opacity:1" />
    <path
       style="opacity:0.71938776;fill:url(#radialGradient4066);fill-opacity:1;fill-rule:evenodd;stroke:none;stroke-width:16;stroke-linecap:round;stroke-linejoin:round;stroke-miterlimit:4;stroke-dasharray:none;stroke-opacity:1"
       d="M 102.9576,102.6847 L 115.78841,104.83463 C 116.31767,107.03044 116.04595,109.40323 114.96942,111.42091 C 113.52701,114.12437 110.85583,115.7921 107.9739,115.78901 L 105.14157,115.78901 L 102.9576,102.6847 z "
       id="path4064" />
    <path
       id="path3831"
       d="M 63.78127,20.006639 C 62.429404,20.087352 61.206563,20.911554 60.531566,22.196957 L 16.535558,105.42905 C 15.820943,106.78523 15.821517,108.45607 16.537067,109.81166 C 17.252613,111.16727 18.574334,112.00154 20.003992,112 L 107.996,112 C 109.42567,112.00154 110.7474,111.16727 111.46293,109.81166 C 112.17849,108.45607 112.17905,106.78523 111.46444,105.42905 L 67.468436,22.196957 C 66.715482,20.762999 65.289306,19.915795 63.78127,20.006639 L 63.78127,20.006639 z "
       style="fill:url(#radialGradient3849);fill-opacity:1;fill-rule:evenodd;stroke:none;stroke-width:8;stroke-linecap:round;stroke-linejoin:round;stroke-miterlimit:4;stroke-dasharray:none;stroke-opacity:1" />
    <path
       style="font-size:83.71386719px;font-style:normal;font-weight:normal;fill:none;fill-opacity:1;stroke:url(#radialGradient3406);stroke-width:4;stroke-linecap:butt;stroke-linejoin:miter;stroke-opacity:1;font-family:Liberation Sans;stroke-miterlimit:4;stroke-dasharray:none;filter:url(#filter3396);opacity:0.75"
       d="M 63.40625,36.71875 C 60.266222,36.913888 57.331988,39.264296 57.875,44 L 61.4375,79.71875 C 62.189089,79.591351 62.962322,79.5 63.75,79.5 C 64.69875,79.5 65.636426,79.597988 66.53125,79.78125 L 70.09375,44 C 70.784031,39.043508 66.964948,36.497594 63.40625,36.71875 z "
       id="path3394" />
    <path
       transform="matrix(0.9982143,0,0,1.0992242,-0.2503837,-2.6968261)"
       style="fill:none;fill-opacity:1;fill-rule:evenodd;stroke:url(#linearGradient3960);stroke-width:0.95465171;stroke-linecap:round;stroke-linejoin:round;stroke-miterlimit:4;stroke-dasharray:none;stroke-opacity:1;filter:url(#filter3950)"
       d="M 63.78125,20 C 62.429261,20.073701 61.206309,20.826287 60.53125,22 L 16.53125,98 C 15.816569,99.238357 15.817144,100.764 16.532758,102.00181 C 17.248371,103.23963 18.570212,104.00141 20,104 L 108,104 C 109.42979,104.00141 110.75163,103.23963 111.46724,102.00181 C 112.18286,100.764 112.18343,99.238357 111.46875,98 L 67.46875,22 C 66.715728,20.69064 65.289423,19.917051 63.78125,20 L 63.78125,20 z "
       id="path3948" />
    <path
       id="path3962"
       d="M 63.385681,19.690763 C 62.013012,19.771246 60.771353,20.593089 60.085969,21.874814 L 34.100723,70.162819 L 34.132451,70.162819 L 60.085969,23.137469 C 60.771353,21.888035 62.013012,21.100125 63.385681,21.021668 C 64.916924,20.933369 66.365047,21.743636 67.129587,23.137469 L 92.35336,68.797787 C 92.363486,68.795622 92.374963,68.799955 92.385087,68.797787 L 67.129587,21.874814 C 66.365047,20.444959 64.916924,19.60018 63.385681,19.690763 z "
       style="fill:url(#linearGradient3977);fill-opacity:1;fill-rule:evenodd;stroke:none;stroke-width:8;stroke-linecap:round;stroke-linejoin:round;stroke-miterlimit:4;stroke-dasharray:none;stroke-opacity:1" />
    <path
       id="path3408"
       d="M 63.75,86.25 C 59.886,86.25 56.75,89.386 56.75,93.25 C 56.75,97.114 59.886,100.25 63.75,100.25 C 67.614,100.25 70.75,97.114 70.75,93.25 C 70.75,89.386 67.614,86.25 63.75,86.25 z "
       style="font-size:83.71386719px;font-style:normal;font-weight:normal;fill:none;fill-opacity:1;stroke:url(#radialGradient3410);stroke-width:4;stroke-linecap:butt;stroke-linejoin:miter;stroke-opacity:1;font-family:Liberation Sans;stroke-miterlimit:4;stroke-dasharray:none;filter:url(#filter3396);opacity:0.75" />
    <path
       id="text3278"
       d="M 63.40625 36.71875 C 60.266222 36.913888 57.331988 39.264296 57.875 44 L 61.4375 79.71875 C 62.189089 79.591351 62.962322 79.5 63.75 79.5 C 64.69875 79.5 65.636426 79.597988 66.53125 79.78125 L 70.09375 44 C 70.784031 39.043508 66.964948 36.497594 63.40625 36.71875 z M 63.75 86.25 C 59.886 86.25 56.75 89.386 56.75 93.25 C 56.75 97.114 59.886 100.25 63.75 100.25 C 67.614 100.25 70.75 97.114 70.75 93.25 C 70.75 89.386 67.614 86.25 63.75 86.25 z "
       style="font-size:83.71386719px;font-style:normal;font-weight:normal;fill:url(#linearGradient3391);fill-opacity:1;stroke:none;stroke-width:1px;stroke-linecap:butt;stroke-linejoin:miter;stroke-opacity:1;font-family:Liberation Sans" />
    <path
       id="path3895"
       d="M 63.781556,20.00662 C 62.398518,20.087103 61.147481,20.908946 60.456919,22.190671 L 34.275402,70.478676 C 42.305309,71.743881 50.929542,72.423846 59.913469,72.423846 C 71.74643,72.423846 82.957077,71.247715 93,69.113644 L 67.55374,22.190671 C 66.783425,20.760816 65.324364,19.916037 63.781556,20.00662 z "
       style="opacity:0.86734697;fill:url(#linearGradient4179);fill-opacity:1;fill-rule:evenodd;stroke:none;stroke-width:8;stroke-linecap:round;stroke-linejoin:round;stroke-miterlimit:4;stroke-dasharray:none;stroke-opacity:1" />
    <path
       id="path3368"
       d="M 64.34375 20.03125 C 65.551601 20.210711 66.627874 20.975908 67.25 22.125 L 92.125 67.75 C 82.312377 69.824859 71.342862 70.968751 59.78125 70.96875 C 51.106743 70.96875 42.798082 70.296099 35.03125 69.09375 L 34.28125 70.46875 C 42.311157 71.733955 50.922323 72.4375 59.90625 72.4375 C 71.739213 72.437503 82.957077 71.259071 93 69.125 L 67.5625 22.1875 C 66.888473 20.936376 65.667116 20.151811 64.34375 20.03125 z "
       style="opacity:1;fill:url(#linearGradient3383);fill-opacity:1.0;fill-rule:evenodd;stroke:none;stroke-width:8;stroke-linecap:round;stroke-linejoin:round;stroke-miterlimit:4;stroke-dasharray:none;stroke-opacity:1" />
  </g>
</svg>
