<?xml version="1.0" encoding="UTF-8" standalone="no"?>
<svg
   xmlns:ns="http://ns.adobe.com/SaveForWeb/1.0/"
   xmlns:dc="http://purl.org/dc/elements/1.1/"
   xmlns:cc="http://creativecommons.org/ns#"
   xmlns:rdf="http://www.w3.org/1999/02/22-rdf-syntax-ns#"
   xmlns:svg="http://www.w3.org/2000/svg"
   xmlns="http://www.w3.org/2000/svg"
   xmlns:xlink="http://www.w3.org/1999/xlink"
   xml:space="preserve"
   enable-background="new 0 0 128 128"
   overflow="visible"
   viewBox="0 0 128 128"
   height="128"
   width="128"
   id="Layer_1"
   version="1.1"><defs
   id="defs105"><filter
     id="filter5943"><feGaussianBlur
       id="feGaussianBlur5945"
       stdDeviation="1.04" /></filter><linearGradient
     id="linearGradient6740"><stop
       id="stop6742"
       offset="0"
       style="stop-color:#004d00;stop-opacity:0;" /><stop
       style="stop-color:#004d00;stop-opacity:1;"
       offset="0.5"
       id="stop6748" /><stop
       id="stop6744"
       offset="1"
       style="stop-color:#004d00;stop-opacity:0;" /></linearGradient><linearGradient
     y2="65.932846"
     x2="102"
     y1="118"
     x1="102"
     gradientTransform="translate(20.000035,-56.000003)"
     gradientUnits="userSpaceOnUse"
     id="linearGradient6930"
     xlink:href="#linearGradient6740" /><linearGradient
     id="linearGradient3711"
     gradientUnits="userSpaceOnUse"
     x1="-84.002403"
     y1="-383.9971"
     x2="-23.516129"
     y2="-383.9975"
     gradientTransform="matrix(0,1,-1,0,-39.9985,140.0029)"><stop
       offset="0"
       style="stop-color:white;stop-opacity:1;"
       id="stop3713" /><stop
       offset="1"
       style="stop-color:white;stop-opacity:0;"
       id="stop3715" /></linearGradient><linearGradient
     y2="-131.93112"
     x2="-45.096584"
     y1="-131.93112"
     x1="-80.00296"
     gradientTransform="matrix(0,0.7388168,-0.7388168,0,-1.5226652,63.255682)"
     gradientUnits="userSpaceOnUse"
     id="linearGradient8927"
     xlink:href="#linearGradient3711" /><filter
     id="filter7317"><feGaussianBlur
       id="feGaussianBlur7319"
       stdDeviation="2.8805897" /></filter><clipPath
     id="clipPath5163"
     clipPathUnits="userSpaceOnUse"><circle
       id="circle5165"
       ry="8.0010004"
       cy="92"
       cx="343.99899"
       rx="8.0010004"
       r="36"
       style="fill:url(#linearGradient5167);fill-opacity:1" /></clipPath><linearGradient
     id="linearGradient4296"><stop
       style="stop-color:#00ff00;stop-opacity:1"
       offset="0"
       id="stop4298" /><stop
       style="stop-color:#006500;stop-opacity:1"
       offset="1"
       id="stop4300" /></linearGradient><linearGradient
     y2="87.759453"
     x2="336.98077"
     y1="120.81158"
     x1="328.12448"
     gradientUnits="userSpaceOnUse"
     id="linearGradient4272"
     xlink:href="#linearGradient4296" /><linearGradient
     id="linearGradient4770"
     gradientUnits="userSpaceOnUse"
     x1="-84.002403"
     y1="-383.9971"
     x2="-12.0029"
     y2="-383.9971"
     gradientTransform="matrix(0,1,-1,0,-39.9985,140.0029)"><stop
       offset="0"
       style="stop-color:#e5ff00;stop-opacity:1"
       id="stop4772" /><stop
       offset="1"
       style="stop-color:#bff500;stop-opacity:0;"
       id="stop4774" /></linearGradient><radialGradient
     r="36"
     fy="92"
     fx="343.99899"
     cy="92"
     cx="343.99899"
     gradientUnits="userSpaceOnUse"
     id="radialGradient8920"
     xlink:href="#linearGradient4770" /><linearGradient
     id="linearGradient5958"
     gradientUnits="userSpaceOnUse"
     x1="-84.002403"
     y1="-383.9971"
     x2="-12.0029"
     y2="-383.9971"
     gradientTransform="matrix(0,1,-1,0,-39.9985,140.0029)"><stop
       offset="0"
       style="stop-color:#008c00;stop-opacity:1"
       id="stop5960" /><stop
       offset="1"
       style="stop-color:#00bf00;stop-opacity:1"
       id="stop5962" /></linearGradient><linearGradient
     y2="-373.1243"
     x2="-56.357521"
     y1="-381.09921"
     x1="-86.120354"
     gradientTransform="matrix(0,1,-1,0,-39.9985,140.0029)"
     gradientUnits="userSpaceOnUse"
     id="linearGradient8916"
     xlink:href="#linearGradient5958" /><filter
     id="filter4292"><feGaussianBlur
       id="feGaussianBlur4294"
       stdDeviation="2.1604423" /></filter><linearGradient
     y2="94.5366"
     x2="86.5356"
     y1="102.3447"
     x1="94.3438"
     gradientUnits="userSpaceOnUse"
     id="linearGradient2291"
     xlink:href="#XMLID_9_" /><linearGradient
     y2="94.5865"
     x2="86.5865"
     y1="103"
     x1="95"
     gradientUnits="userSpaceOnUse"
     id="linearGradient2293"
     xlink:href="#XMLID_10_" /><linearGradient
     y2="95.293"
     x2="87.293"
     y1="103"
     x1="95"
     gradientUnits="userSpaceOnUse"
     id="linearGradient2295"
     xlink:href="#XMLID_11_" /><linearGradient
     y2="96.0002"
     x2="88.0002"
     y1="104"
     x1="96"
     gradientUnits="userSpaceOnUse"
     id="linearGradient2297"
     xlink:href="#XMLID_12_" /><radialGradient
     r="139.55859"
     cy="112.3047"
     cx="102"
     gradientTransform="matrix(0.9787234,0,0,0.9818182,1.3617045,1.1636364)"
     gradientUnits="userSpaceOnUse"
     id="radialGradient2272"
     xlink:href="#XMLID_8_" /><radialGradient
     r="139.5585"
     cy="112.3047"
     cx="102"
     gradientTransform="translate(2.4e-6,0)"
     gradientUnits="userSpaceOnUse"
     id="radialGradient2275"
     xlink:href="#XMLID_7_" /><filter
     id="filter3241"><feGaussianBlur
       id="feGaussianBlur3243"
       stdDeviation="1.0394514" /></filter></defs>
<metadata
   id="metadata3">
	<ns:sfw>
		<ns:slices>
			<ns:slice
   sliceID="1316743234"
   width="128"
   height="128"
   x="0"
   y="0" />
		</ns:slices>
		<ns:sliceSourceBounds
   bottomLeftOrigin="true"
   width="128"
   height="128"
   x="0"
   y="0" />
		<ns:optimizationSettings>
			<ns:targetSettings
   fileFormat="PNG24Format"
   targetSettingsID="0">
				<ns:PNG24Format
   interlaced="false"
   noMatteColor="false"
   matteColor="#FFFFFF"
   filtered="false"
   transparency="true">
					</ns:PNG24Format>
			</ns:targetSettings>
			<ns:targetSettings
   fileFormat="PNG24Format"
   targetSettingsID="1696735251">
				<ns:PNG24Format
   interlaced="false"
   noMatteColor="false"
   matteColor="#FFFFFF"
   filtered="false"
   transparency="true">
					</ns:PNG24Format>
			</ns:targetSettings>
		</ns:optimizationSettings>
	</ns:sfw>
<rdf:RDF><cc:Work
     rdf:about=""><dc:format>image/svg+xml</dc:format><dc:type
       rdf:resource="http://purl.org/dc/dcmitype/StillImage" /><dc:title></dc:title></cc:Work></rdf:RDF></metadata>

<radialGradient
   gradientUnits="userSpaceOnUse"
   r="139.5585"
   cy="112.3047"
   cx="102"
   id="XMLID_7_">
	<stop
   id="stop16"
   style="stop-color:#00537D"
   offset="0" />
	<stop
   id="stop18"
   style="stop-color:#186389"
   offset="0.0151" />
	<stop
   id="stop20"
   style="stop-color:#558CA8"
   offset="0.0558" />
	<stop
   id="stop22"
   style="stop-color:#89AFC3"
   offset="0.0964" />
	<stop
   id="stop24"
   style="stop-color:#B3CCD8"
   offset="0.1357" />
	<stop
   id="stop26"
   style="stop-color:#D4E2E9"
   offset="0.1737" />
	<stop
   id="stop28"
   style="stop-color:#ECF2F5"
   offset="0.2099" />
	<stop
   id="stop30"
   style="stop-color:#FAFCFD"
   offset="0.2435" />
	<stop
   id="stop32"
   style="stop-color:#FFFFFF"
   offset="0.2722" />
</radialGradient>

<radialGradient
   gradientUnits="userSpaceOnUse"
   r="139.55859"
   cy="112.3047"
   cx="102"
   id="XMLID_8_">
	<stop
   id="stop37"
   style="stop-color:#535557"
   offset="0" />
	
	<stop
   id="stop41"
   style="stop-color:#898A8C"
   offset="0.11366145" />
	
	
	<stop
   id="stop47"
   style="stop-color:#ECECEC"
   offset="0.20296688" />
	<stop
   id="stop49"
   style="stop-color:#FAFAFA"
   offset="0.2363" />
	<stop
   id="stop51"
   style="stop-color:#FFFFFF"
   offset="0.2722" />
	<stop
   id="stop53"
   style="stop-color:#FAFAFA"
   offset="0.5313" />
	<stop
   id="stop55"
   style="stop-color:#EBECEC"
   offset="0.8449" />
	<stop
   id="stop57"
   style="stop-color:#E1E2E3"
   offset="1" />
</radialGradient>

<linearGradient
   y2="94.5366"
   x2="86.5356"
   y1="102.3447"
   x1="94.3438"
   gradientUnits="userSpaceOnUse"
   id="XMLID_9_">
	<stop
   id="stop62"
   style="stop-color:#FFFFFF"
   offset="0" />
	<stop
   id="stop64"
   style="stop-color:#555753"
   offset="1" />
</linearGradient>

<linearGradient
   y2="94.5865"
   x2="86.5865"
   y1="103"
   x1="95"
   gradientUnits="userSpaceOnUse"
   id="XMLID_10_">
	<stop
   id="stop69"
   style="stop-color:#FFFFFF"
   offset="0" />
	<stop
   id="stop71"
   style="stop-color:#555753"
   offset="1" />
</linearGradient>

<linearGradient
   y2="95.293"
   x2="87.293"
   y1="103"
   x1="95"
   gradientUnits="userSpaceOnUse"
   id="XMLID_11_">
	<stop
   id="stop76"
   style="stop-color:#FFFFFF"
   offset="0" />
	<stop
   id="stop78"
   style="stop-color:#393B38"
   offset="1" />
</linearGradient>

<linearGradient
   y2="96.0002"
   x2="88.0002"
   y1="104"
   x1="96"
   gradientUnits="userSpaceOnUse"
   id="XMLID_12_">
	<stop
   id="stop83"
   style="stop-color:#888A85"
   offset="0" />
	<stop
   id="stop85"
   style="stop-color:#8C8E89"
   offset="0.0072" />
	<stop
   id="stop87"
   style="stop-color:#ABACA9"
   offset="0.0673" />
	<stop
   id="stop89"
   style="stop-color:#C5C6C4"
   offset="0.1347" />
	<stop
   id="stop91"
   style="stop-color:#DBDBDA"
   offset="0.2115" />
	<stop
   id="stop93"
   style="stop-color:#EBEBEB"
   offset="0.3012" />
	<stop
   id="stop95"
   style="stop-color:#F7F7F6"
   offset="0.4122" />
	<stop
   id="stop97"
   style="stop-color:#FDFDFD"
   offset="0.5679" />
	<stop
   id="stop99"
   style="stop-color:#FFFFFF"
   offset="1" />
</linearGradient>
<path
   transform="matrix(1.0416667,0,0,1.0357143,-9.9583333,-3.3215342)"
   style="opacity:0.5;fill:#000000;fill-opacity:1;filter:url(#filter3241)"
   d="M 23,9 L 23.040816,121 L 84.172,121 C 84.702,121 85.211,120.789 85.586,120.414 L 118.414,87.586 C 118.789,87.211 119,86.702 119,86.172 L 119,9 L 23,9 z "
   id="path6594" /><path
   id="path34"
   d="M 16.000002,8 L 16.000002,120 L 77.172002,120 C 77.702002,120 78.211002,119.789 78.586002,119.414 L 111.414,86.586 C 111.789,86.211 112,85.702 112,85.172 L 112,8 L 16.000002,8 z "
   style="fill:url(#radialGradient2275)" /><path
   id="path59"
   d="M 18.978725,10 C 18.439449,10 18.000002,10.440836 18.000002,10.981818 L 18.000002,117.01818 C 18.000002,117.56015 18.439449,118 18.978725,118 L 76.891747,118 C 77.149151,118 77.401662,117.89593 77.583704,117.71233 L 109.71323,85.4812 C 109.89626,85.2976 110,85.045273 110,84.787055 L 110,10.981818 C 110,10.440836 109.56153,10 109.02128,10 L 18.978725,10 z "
   style="fill:url(#radialGradient2272);fill-opacity:1" /><g
   transform="translate(2.4e-6,0)"
   id="g1973"><path
     d="M 111.414,86.586 C 111.664,86.336 93.035,93 88,93 C 86.346,93 85,94.346 85,96 C 85,101.035 78.336,119.664 78.586,119.414 L 111.414,86.586 z "
     id="path66"
     style="opacity:0.1;fill:url(#linearGradient2291)" /><path
     d="M 111.414,86.586 C 111.789,86.211 97.444,94 88,94 C 86.897,94 86,94.897 86,96 C 86,105.444 78.211,119.789 78.586,119.414 L 111.414,86.586 z "
     id="path73"
     style="opacity:0.1;fill:url(#linearGradient2293)" /><path
     d="M 111.414,86.586 C 111.653,86.347 97.807,95 88,95 C 87.447,95 87,95.447 87,96 C 87,105.807 78.347,119.653 78.586,119.414 L 111.414,86.586 z "
     id="path80"
     style="opacity:0.1;fill:url(#linearGradient2295)" /><path
     d="M 78.586,119.414 C 78.586,119.414 90.5,109.5 96,104 C 101.5,98.5 111.414,86.586 111.414,86.586 C 111.414,86.586 98.25,96 88,96 C 88,106.25 78.586,119.414 78.586,119.414 z "
     id="path101"
     style="fill:url(#linearGradient2297)" /></g>

<g
   transform="translate(9.545815e-6,1.710865e-5)"
   id="g3640"><circle
     transform="matrix(-0.858425,0.2300143,-0.2300143,-0.858425,412.45864,35.85043)"
     id="circle4274"
     ry="8.0010004"
     cy="92"
     cx="343.99899"
     rx="8.0010004"
     r="36"
     style="opacity:0.5;fill:#000000;fill-opacity:1;filter:url(#filter4292)" /><circle
     style="fill:url(#linearGradient8916);fill-opacity:1"
     r="36"
     rx="8.0010004"
     cx="343.99899"
     cy="92"
     ry="8.0010004"
     id="circle3581_2_"
     transform="matrix(-0.858425,0.2300143,-0.2300143,-0.858425,412.45864,31.85043)" /><circle
     transform="matrix(-0.6438188,0.1725107,-0.1725107,-0.6438188,333.34401,31.887831)"
     id="circle4383"
     ry="8.0010004"
     cy="92"
     cx="343.99899"
     rx="8.0010004"
     r="36"
     style="fill:url(#radialGradient8920);fill-opacity:1" /><circle
     clip-path="url(#clipPath5163)"
     transform="matrix(-0.858425,-0.2300143,-0.2300143,0.858425,412.45864,32.149572)"
     id="circle4776"
     ry="8.0010004"
     cy="92"
     cx="343.99899"
     rx="8.0010004"
     r="36"
     style="opacity:0.8;fill:none;fill-opacity:1;stroke:url(#linearGradient4272);stroke-width:6.75138187;stroke-miterlimit:4;stroke-dasharray:none;stroke-opacity:1;filter:url(#filter7317)" /><path
     style="opacity:0.8;fill:url(#linearGradient8927);fill-opacity:1"
     d="M 96.000027,4.1481901 C 84.654311,4.1481901 75.173932,12.159796 72.888913,22.826405 C 77.443574,27.0723 86.085806,29.937514 96.000027,29.937514 C 105.91426,29.937514 114.55648,27.0723 119.11114,22.826405 C 116.82613,12.159796 107.34574,4.1481901 96.000027,4.1481901 z"
     id="circle16776" /><g
     id="g6850"
     transform="translate(-26.000031,-3.999996)"><path
       style="fill:none;fill-opacity:1;fill-rule:evenodd;stroke:url(#linearGradient6930);stroke-width:4;stroke-linecap:round;stroke-linejoin:round;stroke-miterlimit:4;stroke-opacity:1;filter:url(#filter5943)"
       d="M 118.00003,15.999997 L 118.00003,31.999997 L 102.00003,31.999997 L 102.00003,39.999997 L 118.00003,39.999997 L 118.00003,55.999997 L 126.00003,55.999997 L 126.00003,39.999997 L 142.00003,39.999997 L 142.00003,31.999997 L 126.00003,31.999997 L 126.00003,15.999997 L 118.00003,15.999997 z"
       id="path4123" /><path
       id="rect3232"
       d="M 118.00003,15.999997 L 118.00003,31.999997 L 102.00003,31.999997 L 102.00003,39.999997 L 118.00003,39.999997 L 118.00003,55.999997 L 126.00003,55.999997 L 126.00003,39.999997 L 142.00003,39.999997 L 142.00003,31.999997 L 126.00003,31.999997 L 126.00003,15.999997 L 118.00003,15.999997 z"
       style="fill:#ffffff;fill-opacity:1;fill-rule:evenodd;stroke:none;stroke-width:4;stroke-linecap:round;stroke-linejoin:round;stroke-miterlimit:4;stroke-opacity:1" /></g></g></svg>