<?xml version="1.0" encoding="UTF-8" standalone="no"?>
<svg
   xmlns:dc="http://purl.org/dc/elements/1.1/"
   xmlns:cc="http://creativecommons.org/ns#"
   xmlns:rdf="http://www.w3.org/1999/02/22-rdf-syntax-ns#"
   xmlns:svg="http://www.w3.org/2000/svg"
   xmlns="http://www.w3.org/2000/svg"
   xmlns:xlink="http://www.w3.org/1999/xlink"
   version="1.0"
   id="svg2"
   height="128"
   width="128">
  <defs
     id="defs4">
    <linearGradient
       id="linearGradient3227">
      <stop
         id="stop3229"
         offset="0"
         style="stop-color:#000000;stop-opacity:1;" />
      <stop
         id="stop3231"
         offset="1"
         style="stop-color:#000000;stop-opacity:0;" />
    </linearGradient>
    <linearGradient
       id="linearGradient3207">
      <stop
         style="stop-color:#ffffff;stop-opacity:0.48"
         offset="0"
         id="stop3209" />
      <stop
         style="stop-color:#ffffff;stop-opacity:0;"
         offset="1"
         id="stop3211" />
    </linearGradient>
    <linearGradient
       id="linearGradient3195">
      <stop
         id="stop3197"
         offset="0"
         style="stop-color:#d3d3d3;stop-opacity:1;" />
      <stop
         id="stop3199"
         offset="1"
         style="stop-color:#d3d3d3;stop-opacity:0;" />
    </linearGradient>
    <linearGradient
       id="linearGradient3159">
      <stop
         id="stop3161"
         offset="0"
         style="stop-color:#ffffff;stop-opacity:1;" />
      <stop
         id="stop3163"
         offset="1"
         style="stop-color:#ffffff;stop-opacity:0;" />
    </linearGradient>
    <linearGradient
       id="linearGradient2974">
      <stop
         id="stop2976"
         offset="0"
         style="stop-color:#ffffff;stop-opacity:1;" />
      <stop
         id="stop2978"
         offset="1"
         style="stop-color:#ffffff;stop-opacity:0;" />
    </linearGradient>
    <linearGradient
       id="linearGradient26907"
       gradientUnits="userSpaceOnUse"
       x1="-84.002403"
       y1="-383.9971"
       x2="-12.0029"
       y2="-383.9971"
       gradientTransform="matrix(0,1,-1,0,-39.9985,140.0029)">
      <stop
         offset="0"
         style="stop-color:#888a85;stop-opacity:1;"
         id="stop26909" />
      <stop
         offset="1"
         style="stop-color:#000000;stop-opacity:1;"
         id="stop26911" />
    </linearGradient>
    <linearGradient
       gradientUnits="userSpaceOnUse"
       y2="64"
       x2="72"
       y1="-16"
       x1="72"
       id="linearGradient2963"
       xlink:href="#linearGradient26907" />
    <radialGradient
       r="56"
       fy="114.95621"
       fx="79.339813"
       cy="114.95621"
       cx="79.339813"
       gradientTransform="matrix(1,-3.8781302e-8,2.0820407e-8,0.5714285,0.6601855,38.310745)"
       gradientUnits="userSpaceOnUse"
       id="radialGradient2965"
       xlink:href="#linearGradient26907" />
    <linearGradient
       gradientTransform="translate(-125,0)"
       gradientUnits="userSpaceOnUse"
       y2="88"
       x2="205"
       y1="-32"
       x1="181"
       id="linearGradient2980"
       xlink:href="#linearGradient2974" />
    <filter
       id="filter3550">
      <feGaussianBlur
         stdDeviation="1.23375"
         id="feGaussianBlur3552" />
    </filter>
    <linearGradient
       id="linearGradient3554">
      <stop
         style="stop-color:#ffffff;stop-opacity:1;"
         offset="0"
         id="stop3556" />
      <stop
         style="stop-color:#dfdfdf;stop-opacity:1"
         offset="1"
         id="stop3558" />
    </linearGradient>
    <linearGradient
       gradientTransform="translate(13.42819,2.3017641)"
       y2="103.40701"
       x2="68.9375"
       y1="38.90625"
       x1="68.9375"
       gradientUnits="userSpaceOnUse"
       id="linearGradient3124"
       xlink:href="#linearGradient3554" />
    <radialGradient
       r="29.84375"
       fy="66.175667"
       fx="62.78125"
       cy="66.175667"
       cx="62.78125"
       gradientTransform="matrix(1.3513697,0,0,1.3513697,-8.6312401,-20.634014)"
       gradientUnits="userSpaceOnUse"
       id="radialGradient3133"
       xlink:href="#linearGradient3207" />
    <linearGradient
       gradientUnits="userSpaceOnUse"
       y2="44"
       x2="72"
       y1="68"
       x1="80"
       id="linearGradient3165"
       xlink:href="#linearGradient3159" />
    <linearGradient
       y2="88"
       x2="205"
       y1="-8"
       x1="185.04645"
       gradientTransform="translate(-125.04645,0)"
       gradientUnits="userSpaceOnUse"
       id="linearGradient3189"
       xlink:href="#linearGradient2974" />
    <linearGradient
       y2="31"
       x2="142.0327"
       y1="95"
       x1="270.03271"
       gradientTransform="translate(-125.06218,0)"
       gradientUnits="userSpaceOnUse"
       id="linearGradient3191"
       xlink:href="#linearGradient2974" />
    <linearGradient
       gradientUnits="userSpaceOnUse"
       y2="60"
       x2="72"
       y1="108"
       x1="72"
       id="linearGradient3201"
       xlink:href="#linearGradient3195" />
    <filter
       id="filter3221">
      <feGaussianBlur
         id="feGaussianBlur3223"
         stdDeviation="0.2125" />
    </filter>
    <linearGradient
       gradientTransform="translate(0,0.8)"
       gradientUnits="userSpaceOnUse"
       y2="-8"
       x2="88"
       y1="112"
       x1="88"
       id="linearGradient3233"
       xlink:href="#linearGradient3227" />
    <filter
       id="filter3243">
      <feGaussianBlur
         id="feGaussianBlur3245"
         stdDeviation="1.3800491" />
    </filter>
    <filter
       height="1.7275585"
       y="-0.36377926"
       width="1.8915753"
       x="-0.44578766"
       id="filter3383">
      <feGaussianBlur
         id="feGaussianBlur3385"
         stdDeviation="1.0041831" />
    </filter>
    <filter
       height="1.8118028"
       y="-0.4059014"
       width="1.9291719"
       x="-0.46458594"
       id="filter3387">
      <feGaussianBlur
         id="feGaussianBlur3389"
         stdDeviation="1.0041831" />
    </filter>
    <filter
       height="1.5508662"
       y="-0.27543309"
       width="1.6885827"
       x="-0.34429136"
       id="filter3391">
      <feGaussianBlur
         id="feGaussianBlur3393"
         stdDeviation="1.0041831" />
    </filter>
    <filter
       height="1.535564"
       y="-0.26778201"
       width="1.6765023"
       x="-0.33825116"
       id="filter3395">
      <feGaussianBlur
         id="feGaussianBlur3397"
         stdDeviation="1.0041831" />
    </filter>
    <clipPath
       id="clipPath3405"
       clipPathUnits="userSpaceOnUse">
      <path
         style="fill:url(#linearGradient3409);fill-opacity:1;fill-rule:nonzero;stroke:none;stroke-width:8;stroke-linecap:round;stroke-linejoin:round;stroke-miterlimit:4;stroke-dasharray:none;stroke-dashoffset:4;stroke-opacity:1"
         d="M 185.5,28 C 184.50724,27.998369 183.54934,28.365936 182.8125,29.03125 L 142.8125,65.03125 C 141.97272,65.789734 141.49347,66.868398 141.49347,68 C 141.49347,69.131602 141.97272,70.210266 142.8125,70.96875 L 182.8125,106.96875 C 183.54934,107.63406 184.50724,108.00163 185.5,108 L 241.5,108 C 243.70905,107.99978 245.49978,106.20905 245.5,104 L 245.5,32 C 245.49978,29.790952 243.70905,28.000221 241.5,28 L 185.5,28 z"
         id="path3407" />
    </clipPath>
    <linearGradient
       y2="64"
       x2="72"
       y1="-16"
       x1="72"
       gradientTransform="translate(129.5,0)"
       gradientUnits="userSpaceOnUse"
       id="linearGradient3409"
       xlink:href="#linearGradient26907" />
    <radialGradient
       r="3.5625"
       fy="31.163853"
       fx="185.8528"
       cy="31.163853"
       cx="185.8528"
       gradientTransform="matrix(0.9135171,-0.4068004,1,2.2456148,-16.006057,35.372984)"
       gradientUnits="userSpaceOnUse"
       id="radialGradient3411"
       xlink:href="#linearGradient3159" />
    <radialGradient
       r="3.5"
       fy="31.512632"
       fx="241.76289"
       cy="31.512632"
       cx="241.76289"
       gradientTransform="matrix(0.8076259,0.5896951,-1.6428571,2.25,99.016782,-182.84482)"
       gradientUnits="userSpaceOnUse"
       id="radialGradient3413"
       xlink:href="#linearGradient3159" />
    <radialGradient
       r="2.59375"
       fy="105.53125"
       fx="243.40625"
       cy="105.53125"
       cx="243.40625"
       gradientTransform="matrix(0.7165883,-0.6974964,1.9764912,2.0305916,-139.5974,61.015368)"
       gradientUnits="userSpaceOnUse"
       id="radialGradient3415"
       xlink:href="#linearGradient3195" />
    <radialGradient
       r="2.703125"
       fy="105.38967"
       fx="184.82086"
       cy="105.38967"
       cx="184.82086"
       gradientTransform="matrix(0.7757118,0.6310874,-3.3294798,4.0924865,391.47818,-441.38143)"
       gradientUnits="userSpaceOnUse"
       id="radialGradient3417"
       xlink:href="#linearGradient3195" />
  </defs>
  <metadata
     id="metadata7">
    <rdf:RDF>
      <cc:Work
         rdf:about="">
        <dc:format>image/svg+xml</dc:format>
        <dc:type
           rdf:resource="http://purl.org/dc/dcmitype/StillImage" />
        <dc:title></dc:title>
      </cc:Work>
    </rdf:RDF>
  </metadata>
  <g
     id="layer1">
    <path
       style="fill:url(#linearGradient3233);fill-opacity:1;fill-rule:nonzero;stroke:none;stroke-width:8;stroke-linecap:round;stroke-linejoin:round;stroke-miterlimit:4;stroke-dasharray:none;stroke-dashoffset:4;stroke-opacity:1;filter:url(#filter3243)"
       d="M 56,28.8 C 55.00724,28.798369 54.049339,29.165936 53.3125,29.83125 L 13.3125,65.83125 C 12.472723,66.589734 11.993466,67.668398 11.993466,68.8 C 11.993466,69.931602 12.472723,71.010266 13.3125,71.76875 L 53.3125,107.76875 C 54.049339,108.43406 55.00724,108.80163 56,108.8 L 112,108.8 C 114.20905,108.79978 115.99978,107.00905 116,104.8 L 116,32.8 C 115.99978,30.590952 114.20905,28.800221 112,28.8 L 56,28.8 z"
       id="path3225" />
    <path
       id="path2941"
       d="M 56,28 C 55.00724,27.998369 54.049339,28.365936 53.3125,29.03125 L 13.3125,65.03125 C 12.472723,65.789734 11.993466,66.868398 11.993466,68 C 11.993466,69.131602 12.472723,70.210266 13.3125,70.96875 L 53.3125,106.96875 C 54.049339,107.63406 55.00724,108.00163 56,108 L 112,108 C 114.20905,107.99978 115.99978,106.20905 116,104 L 116,32 C 115.99978,29.790952 114.20905,28.000221 112,28 L 56,28 z"
       style="fill:url(#linearGradient2963);fill-opacity:1;fill-rule:nonzero;stroke:none;stroke-width:8;stroke-linecap:round;stroke-linejoin:round;stroke-miterlimit:4;stroke-dasharray:none;stroke-dashoffset:4;stroke-opacity:1" />
    <g
       style="stroke:none"
       transform="translate(-129.5,0)"
       clip-path="url(#clipPath3405)"
       id="g3399">
      <path
         style="fill:url(#radialGradient3411);fill-opacity:1;fill-rule:evenodd;stroke:none;stroke-width:1px;stroke-linecap:butt;stroke-linejoin:miter;stroke-opacity:1;filter:url(#filter3395)"
         d="M 185.5,28 C 184.50724,27.998369 183.54934,28.365936 182.8125,29.03125 L 181.875,29.875 L 188,36 L 188,28 L 185.5,28 z"
         id="path3251" />
      <path
         style="fill:url(#radialGradient3413);fill-opacity:1;fill-rule:evenodd;stroke:none;stroke-width:1px;stroke-linecap:butt;stroke-linejoin:miter;stroke-opacity:1;filter:url(#filter3391)"
         d="M 240,28 L 239.5,35.75 L 245.5,32 C 245.49978,29.790952 243.70905,28.000221 241.5,28 L 240,28 z"
         id="path3253" />
      <path
         style="fill:url(#radialGradient3415);fill-opacity:1;fill-rule:evenodd;stroke:none;stroke-width:1px;stroke-linecap:butt;stroke-linejoin:miter;stroke-opacity:1;filter:url(#filter3387)"
         d="M 241.3125,103.0625 L 241.375,108 L 241.5,108 C 243.70905,107.99978 245.49978,106.20905 245.5,104 L 245.5,103.09375 L 241.3125,103.0625 z"
         id="path3255" />
      <path
         style="fill:url(#radialGradient3417);fill-opacity:1;fill-rule:evenodd;stroke:none;stroke-width:1px;stroke-linecap:butt;stroke-linejoin:miter;stroke-opacity:1;filter:url(#filter3383)"
         d="M 186.15625,102.375 L 181.75,106 L 182.8125,106.96875 C 183.54934,107.63406 184.50724,108.00163 185.5,108 L 185.53125,108 L 186.15625,102.375 z"
         id="path3257" />
    </g>
    <path
       id="rect1969"
       d="M 56,32 L 16,68 L 56,104 L 112,104 L 112,32 L 56,32 z"
       style="fill:url(#radialGradient2965);fill-opacity:1;fill-rule:nonzero;stroke:none;stroke-width:2;stroke-linecap:round;stroke-linejoin:round;stroke-miterlimit:4;stroke-dasharray:none;stroke-dashoffset:4;stroke-opacity:1" />
    <path
       id="path2967"
       d="M 56,32 L 16,68 L 20.90625,72.40625 C 28.06745,72.9539 35.45384,73.25 43,73.25 C 68.68969,73.25 92.47254,69.930267 112,64.28125 L 112,32 L 56,32 z"
       style="fill:url(#linearGradient2980);fill-opacity:1;fill-rule:nonzero;stroke:none;stroke-width:2;stroke-linecap:round;stroke-linejoin:round;stroke-miterlimit:4;stroke-dasharray:none;stroke-dashoffset:4;stroke-opacity:1" />
    <path
       style="fill:none;fill-opacity:1;stroke:url(#radialGradient3133);stroke-width:5;stroke-linecap:round;stroke-linejoin:round;stroke-miterlimit:4;stroke-dasharray:none;stroke-opacity:1;filter:url(#filter3550)"
       d="M 59.17819,37.864264 L 47.36569,49.645514 L 64.42819,66.708014 L 47.36569,83.739264 L 59.17819,95.551764 L 76.20944,78.489264 L 93.27194,95.551764 L 105.05319,83.739264 L 88.02194,66.708014 L 105.05319,49.645514 L 93.27194,37.864264 L 76.20944,54.895514 L 59.17819,37.864264 z"
       id="path3528" />
    <path
       id="rect3376"
       d="M 59.17819,37.864264 L 47.36569,49.645514 L 64.42819,66.708014 L 47.36569,83.739264 L 59.17819,95.551764 L 76.20944,78.489264 L 93.27194,95.551764 L 105.05319,83.739264 L 88.02194,66.708014 L 105.05319,49.645514 L 93.27194,37.864264 L 76.20944,54.895514 L 59.17819,37.864264 z"
       style="fill:url(#linearGradient3124);fill-opacity:1;stroke:none;stroke-width:0.88499999;stroke-linecap:round;stroke-linejoin:round;stroke-miterlimit:4;stroke-dasharray:none;stroke-opacity:1" />
    <path
       id="path3152"
       d="M 59.1875 37.875 L 47.375 49.65625 L 64.4375 66.71875 L 58.28125 72.84375 C 69.592944 72.251707 80.43036 71.012655 90.53125 69.21875 L 88.03125 66.71875 L 105.0625 49.65625 L 93.28125 37.875 L 76.21875 54.90625 L 59.1875 37.875 z "
       style="fill:url(#linearGradient3165);fill-opacity:1;stroke:none;stroke-width:0.88499998999999985;stroke-linecap:round;stroke-linejoin:round;stroke-miterlimit:4;stroke-dasharray:none;stroke-opacity:1" />
    <path
       id="path3169"
       d="M 55.95248,32 L 15.95248,68 L 55.95248,33 L 111.95248,33 L 111.95248,32 L 55.95248,32 z"
       style="fill:url(#linearGradient3189);fill-opacity:1;fill-rule:nonzero;stroke:none;stroke-width:2;stroke-linecap:round;stroke-linejoin:round;stroke-miterlimit:4;stroke-dasharray:none;stroke-dashoffset:4;stroke-opacity:1" />
    <path
       id="path3177"
       d="M 111.03303,63.28125 C 91.505567,68.930267 67.722717,72.25 42.033027,72.25 C 34.486867,72.25 27.100477,71.9539 19.939277,71.40625 L 16.033027,67.90625 L 15.939277,68 L 20.845527,72.40625 C 28.006727,72.9539 35.393117,73.25 42.939277,73.25 C 68.628967,73.25 92.411817,69.930267 111.93928,64.28125 L 111.93928,32 L 111.03303,63.28125 z"
       style="fill:url(#linearGradient3191);fill-opacity:1;fill-rule:nonzero;stroke:none;stroke-width:2;stroke-linecap:round;stroke-linejoin:round;stroke-miterlimit:4;stroke-dasharray:none;stroke-dashoffset:4;stroke-opacity:1" />
    <path
       style="fill:none;fill-opacity:1;fill-rule:nonzero;stroke:url(#linearGradient3201);stroke-width:1;stroke-linecap:round;stroke-linejoin:round;stroke-miterlimit:4;stroke-dasharray:none;stroke-dashoffset:4;stroke-opacity:1;filter:url(#filter3221);opacity:0.604"
       d="M 56,32 L 16,68 L 56,104 L 112,104 L 112,32 L 56,32 z"
       id="path3193" />
  </g>
</svg>
