<?xml version="1.0" encoding="UTF-8" standalone="no"?>
<svg
   xmlns:dc="http://purl.org/dc/elements/1.1/"
   xmlns:cc="http://creativecommons.org/ns#"
   xmlns:rdf="http://www.w3.org/1999/02/22-rdf-syntax-ns#"
   xmlns:svg="http://www.w3.org/2000/svg"
   xmlns="http://www.w3.org/2000/svg"
   xmlns:xlink="http://www.w3.org/1999/xlink"
   version="1.0"
   id="svg1307"
   height="128"
   width="128">
  <defs
     id="defs1309">
    <linearGradient
       id="linearGradient3588">
      <stop
         id="stop3590"
         offset="0"
         style="stop-color:#171717;stop-opacity:1;" />
      <stop
         id="stop3592"
         offset="1"
         style="stop-color:#171717;stop-opacity:0;" />
    </linearGradient>
    <linearGradient
       id="linearGradient3578">
      <stop
         id="stop3580"
         offset="0"
         style="stop-color:#a2a2a2;stop-opacity:1;" />
      <stop
         id="stop3582"
         offset="1"
         style="stop-color:#e0e0e0;stop-opacity:1;" />
    </linearGradient>
    <linearGradient
       id="linearGradient3552">
      <stop
         id="stop3554"
         offset="0"
         style="stop-color:#f9f9f9;stop-opacity:1;" />
      <stop
         id="stop3556"
         offset="1"
         style="stop-color:#f9f9f9;stop-opacity:0;" />
    </linearGradient>
    <linearGradient
       id="linearGradient3513">
      <stop
         id="stop3515"
         offset="0"
         style="stop-color:#f9f9f9;stop-opacity:1;" />
      <stop
         id="stop3517"
         offset="1"
         style="stop-color:#d1d1d1;stop-opacity:1;" />
    </linearGradient>
    <linearGradient
       id="linearGradient3148">
      <stop
         id="stop3150"
         offset="0"
         style="stop-color:#000000;stop-opacity:1;" />
      <stop
         id="stop3152"
         offset="1"
         style="stop-color:#000000;stop-opacity:0;" />
    </linearGradient>
    <radialGradient
       gradientUnits="userSpaceOnUse"
       gradientTransform="matrix(1.222464,0,0,0.133333,-18.14476,131.7138)"
       r="80.225449"
       fy="156.53989"
       fx="81.921944"
       cy="151.97745"
       cx="81.562538"
       id="radialGradient3154"
       xlink:href="#linearGradient3148" />
    <linearGradient
       y2="96.644386"
       x2="95.164795"
       y1="49.883904"
       x1="98.85305"
       gradientTransform="matrix(1.435673,0,0,1.435673,-52.80851,-23.00559)"
       gradientUnits="userSpaceOnUse"
       id="linearGradient2424"
       xlink:href="#linearGradient3578" />
    <radialGradient
       r="8.5"
       fy="31.89937"
       fx="-56.712421"
       cy="33.918919"
       cx="-56.591835"
       gradientTransform="matrix(3.575392,2.760544e-6,-4.86208e-6,6.29725,322.2336,-134.8612)"
       gradientUnits="userSpaceOnUse"
       id="radialGradient2426"
       xlink:href="#linearGradient3552" />
    <radialGradient
       r="17.497653"
       fy="72.53923"
       fx="100.57152"
       cy="72.53923"
       cx="100.57152"
       gradientTransform="matrix(1.435673,0,0,1.792563,-52.80851,-49.67405)"
       gradientUnits="userSpaceOnUse"
       id="radialGradient2430"
       xlink:href="#linearGradient3588" />
    <radialGradient
       r="11.0625"
       fy="34.71875"
       fx="-68.375"
       cy="34.71875"
       cx="-68.375"
       gradientTransform="matrix(3.183957,0,0,4.324271,313.471,-67.08613)"
       gradientUnits="userSpaceOnUse"
       id="radialGradient2432"
       xlink:href="#linearGradient3513" />
    <radialGradient
       r="12.268356"
       fy="65.021912"
       fx="-190.90878"
       cy="65.021912"
       cx="-190.90878"
       gradientTransform="matrix(0.444461,0.444461,-1.29637,1.296386,192.5244,112.5809)"
       gradientUnits="userSpaceOnUse"
       id="radialGradient3324"
       xlink:href="#linearGradient3552" />
  </defs>
  <metadata
     id="metadata1312">
    <rdf:RDF>
      <cc:Work
         rdf:about="">
        <dc:format>image/svg+xml</dc:format>
        <dc:type
           rdf:resource="http://purl.org/dc/dcmitype/StillImage" />
        <dc:title></dc:title>
      </cc:Work>
    </rdf:RDF>
  </metadata>
  <g
     id="layer1">
    <path
       transform="matrix(-0.621085,0,0,0.560668,114.8089,37.21709)"
       d="M 179.63529 151.97745 A 98.072754 98.072754 0 1 1  -16.510216,151.97745 A 98.072754 98.072754 0 1 1  179.63529 151.97745 z"
       id="path3146"
       style="opacity:0.2213115;fill:url(#radialGradient3154);fill-opacity:1;fill-rule:nonzero;stroke:none;stroke-width:0.1;stroke-linecap:round;stroke-linejoin:round;stroke-miterlimit:4;stroke-dasharray:none;stroke-dashoffset:4;stroke-opacity:1" />
    <path
       style="fill:white;fill-opacity:0.75688076;fill-rule:nonzero;stroke:none;stroke-width:0.5;stroke-linecap:round;stroke-linejoin:round;stroke-miterlimit:4;stroke-dasharray:none;stroke-dashoffset:4;stroke-opacity:1"
       d="M -228.9185,-67.271774 L -228.9185,-70.066483 L -228.9185,-67.271774 z "
       id="path2276" />
    <path
       style="fill:white;fill-opacity:0.75688076;fill-rule:nonzero;stroke:none;stroke-width:0.5;stroke-linecap:round;stroke-linejoin:round;stroke-miterlimit:4;stroke-dasharray:none;stroke-dashoffset:4;stroke-opacity:1"
       d="M 65.6909,-129.46266 L 65.6909,-132.25737 L 65.6909,-129.46266 z "
       id="path2191" />
    <path
       id="path2860"
       d="M -52.477129,-94.134134 C -57.816729,-94.134134 -62.133379,-89.817481 -62.133379,-84.477884 L -62.133379,-76.102884 L -110.38338,-76.102884 C -115.72298,-76.102884 -120.03963,-71.817477 -120.03963,-66.477884 L -120.03963,-25.727876 C -120.03963,-20.388286 -115.72298,-16.102876 -110.38338,-16.102876 L -52.477129,-16.102876 L -14.91463,-16.102876 L -13.85213,-16.102876 C -8.51253,-16.102876 -4.22713,-20.388276 -4.22713,-25.727876 L -4.22713,-84.477884 C -4.22713,-89.817479 -8.51254,-94.134134 -13.85213,-94.134134 L -52.477129,-94.134134 z "
       style="opacity:0.06147539;fill:none;fill-opacity:1;fill-rule:nonzero;stroke:none;stroke-width:1;stroke-linecap:round;stroke-linejoin:round;stroke-miterlimit:4;stroke-dasharray:none;stroke-dashoffset:4;stroke-opacity:1" />
    <path
       style="fill:white;fill-opacity:0.75688076;fill-rule:nonzero;stroke:none;stroke-width:0.5;stroke-linecap:round;stroke-linejoin:round;stroke-miterlimit:4;stroke-dasharray:none;stroke-dashoffset:4;stroke-opacity:1"
       d="M -91.3174,-199.09776 L -91.3174,-201.89247 L -91.3174,-199.09776 z "
       id="path2985" />
    <path
       style="fill:white;fill-opacity:0.75688076;fill-rule:nonzero;stroke:none;stroke-width:0.5;stroke-linecap:round;stroke-linejoin:round;stroke-miterlimit:4;stroke-dasharray:none;stroke-dashoffset:4;stroke-opacity:1"
       d="M -210.8196,-285.72801 L -210.8196,-288.52272 L -210.8196,-285.72801 z "
       id="path3206" />
    <g
       transform="translate(-27.868,-141.1464)"
       style="display:inline"
       id="layer4" />
    <g
       transform="translate(-27.868,-141.1464)"
       style="display:inline"
       id="layer5" />
    <path
       style="fill:white;fill-opacity:0.75688076;fill-rule:nonzero;stroke:none;stroke-width:0.5;stroke-linecap:round;stroke-linejoin:round;stroke-miterlimit:4;stroke-dasharray:none;stroke-dashoffset:4;stroke-opacity:1"
       d="M 35.7718,-219.97274 L 35.7718,-222.76745 L 35.7718,-219.97274 z "
       id="path3946" />
    <path
       style="fill:white;fill-opacity:0.75688076;fill-rule:nonzero;stroke:none;stroke-width:0.5;stroke-linecap:round;stroke-linejoin:round;stroke-miterlimit:4;stroke-dasharray:none;stroke-dashoffset:4;stroke-opacity:1"
       d="M -56.852646,-146.07906 L -56.852646,-147.6058 L -56.852646,-146.07906 z "
       id="path1561" />
    <rect
       y="-202.67905"
       x="-114.33738"
       height="0"
       width="1"
       id="rect1327"
       style="opacity:0.57786889;fill:white;fill-opacity:1;fill-rule:nonzero;stroke:none;stroke-width:3.63199997;stroke-linecap:round;stroke-linejoin:round;stroke-miterlimit:4;stroke-dasharray:none;stroke-dashoffset:4;stroke-opacity:1" />
    <rect
       y="-230.20667"
       x="-149.4642"
       height="0"
       width="1"
       id="rect2482"
       style="opacity:0.57786889;fill:white;fill-opacity:1;fill-rule:nonzero;stroke:none;stroke-width:3.63199997;stroke-linecap:round;stroke-linejoin:round;stroke-miterlimit:4;stroke-dasharray:none;stroke-dashoffset:4;stroke-opacity:1" />
    <path
       style="fill:white;fill-opacity:0.75688076;fill-rule:nonzero;stroke:none;stroke-width:0.5;stroke-linecap:round;stroke-linejoin:round;stroke-miterlimit:4;stroke-dasharray:none;stroke-dashoffset:4;stroke-opacity:1"
       d="M -308.40162,-303.42273 L -308.40162,-306.21744 L -308.40162,-303.42273 z "
       id="path2494" />
    <g
       id="g4640"
       transform="matrix(-0.782995,0,0,0.650879,-2631.26,383.0949)"
       style="opacity:0.40163933" />
    <g
       style="opacity:0.40163933"
       transform="matrix(-0.782995,0,0,0.650879,-2631.26,383.0949)"
       id="g4646" />
    <g
       style="opacity:0.40163933"
       transform="matrix(1,0,0,0.650879,569.7028,390.4227)"
       id="g4730" />
    <g
       id="g4748"
       transform="matrix(1,0,0,0.650879,569.7028,390.4227)"
       style="opacity:0.40163933" />
    <g
       transform="matrix(1.829328,0,0,1.829328,-108.7592,-94.62028)"
       id="g2416">
      <path
         id="path3332"
         d="M 95.60444,53.400757 C 93.029991,53.400757 90.991837,55.438908 90.991837,58.013354 L 90.991837,81.583386 L 75.548932,81.583386 C 72.974484,81.583386 70.86537,83.621536 70.86537,86.195981 L 70.86537,111.51942 C 70.86537,114.09387 72.974496,116.13202 75.548932,116.13202 L 116.49461,116.13202 C 119.06904,116.13202 121.10719,114.09387 121.10719,111.51942 L 121.10719,88.2436 L 121.10719,58.013354 C 121.10719,55.438908 119.06904,53.400757 116.49461,53.400757 L 95.60444,53.400757 z "
         style="opacity:0.09426228;fill:none;fill-opacity:1;fill-rule:nonzero;stroke:black;stroke-width:3.27989292;stroke-linecap:square;stroke-linejoin:round;stroke-miterlimit:4;stroke-dasharray:none;stroke-dashoffset:4;stroke-opacity:1" />
      <path
         style="opacity:0.15573772;fill:none;fill-opacity:1;fill-rule:nonzero;stroke:black;stroke-width:2.1865952;stroke-linecap:square;stroke-linejoin:round;stroke-miterlimit:4;stroke-dasharray:none;stroke-dashoffset:4;stroke-opacity:1"
         d="M 95.60444,53.182097 C 93.029991,53.182097 90.991837,55.220248 90.991837,57.794694 L 90.991837,81.364726 L 75.548932,81.364726 C 72.974484,81.364726 70.86537,83.402876 70.86537,85.977321 L 70.86537,111.30078 C 70.86537,113.87523 72.974496,115.91338 75.548932,115.91338 L 116.49461,115.91338 C 119.06904,115.91338 121.10719,113.87523 121.10719,111.30078 L 121.10719,88.02494 L 121.10719,57.794694 C 121.10719,55.220248 119.06904,53.182097 116.49461,53.182097 L 95.60444,53.182097 z "
         id="path3330" />
      <path
         id="path3328"
         d="M 95.60444,53.127432 C 93.029991,53.127432 90.991837,55.165583 90.991837,57.740029 L 90.991837,81.310061 L 75.548932,81.310061 C 72.974484,81.310061 70.86537,83.348211 70.86537,85.922656 L 70.86537,111.24612 C 70.86537,113.82057 72.974496,115.85872 75.548932,115.85872 L 116.49461,115.85872 C 119.06904,115.85872 121.10719,113.82057 121.10719,111.24612 L 121.10719,87.970275 L 121.10719,57.740029 C 121.10719,55.165583 119.06904,53.127432 116.49461,53.127432 L 95.60444,53.127432 z "
         style="opacity:0.20901639;fill:none;fill-opacity:1;fill-rule:nonzero;stroke:black;stroke-width:1.0932976;stroke-linecap:square;stroke-linejoin:round;stroke-miterlimit:4;stroke-dasharray:none;stroke-dashoffset:4;stroke-opacity:1" />
      <path
         style="opacity:0.29098361;fill:none;fill-opacity:1;fill-rule:nonzero;stroke:black;stroke-width:0.5466488;stroke-linecap:square;stroke-linejoin:round;stroke-miterlimit:4;stroke-dasharray:none;stroke-dashoffset:4;stroke-opacity:1"
         d="M 95.60444,53.018102 C 93.029991,53.018102 90.991837,55.056253 90.991837,57.630699 L 90.991837,81.200731 L 75.548932,81.200731 C 72.974484,81.200731 70.86537,83.238881 70.86537,85.813326 L 70.86537,111.1368 C 70.86537,113.71125 72.974496,115.7494 75.548932,115.7494 L 116.49461,115.7494 C 119.06904,115.7494 121.10719,113.71125 121.10719,111.1368 L 121.10719,87.860945 L 121.10719,57.630699 C 121.10719,55.056253 119.06904,53.018102 116.49461,53.018102 L 95.60444,53.018102 z "
         id="path3326" />
      <path
         id="path3525"
         d="M 95.60444,52.908772 C 93.029991,52.908772 90.991837,54.946923 90.991837,57.521369 L 90.991837,81.091401 L 75.548932,81.091401 C 72.974484,81.091401 70.86537,83.129551 70.86537,85.703996 L 70.86537,111.02748 C 70.86537,113.60193 72.974496,115.64008 75.548932,115.64008 L 116.49461,115.64008 C 119.06904,115.64008 121.10719,113.60193 121.10719,111.02748 L 121.10719,87.751615 L 121.10719,57.521369 C 121.10719,54.946923 119.06904,52.908772 116.49461,52.908772 L 95.60444,52.908772 z "
         style="opacity:1;fill:url(#linearGradient2424);fill-opacity:1;fill-rule:nonzero;stroke:#2f2f2f;stroke-width:0.2081726;stroke-linecap:square;stroke-linejoin:round;stroke-miterlimit:4;stroke-dasharray:none;stroke-dashoffset:4;stroke-opacity:1" />
      <path
         style="opacity:1;fill:url(#radialGradient2426);fill-opacity:1;fill-rule:nonzero;stroke:none;stroke-width:0.745;stroke-linecap:square;stroke-linejoin:round;stroke-miterlimit:4;stroke-dasharray:none;stroke-dashoffset:4;stroke-opacity:1"
         d="M 120.65928,55.532284 C 103.85922,64.2518 86.297674,73.384954 86.297674,73.384954 L 119.31553,114.65726 C 120.3972,113.81813 121.10719,112.50586 121.10719,111.00993 L 121.10719,87.78227 L 121.10719,57.515915 C 121.10719,56.797214 120.94429,56.134719 120.65928,55.532284 z "
         id="path3529" />
      <path
         id="path3560"
         transform="matrix(0.546649,0,0,0.546649,59.45309,51.72406)"
         d="M 20.875 90.46875 L 20.875 108.5 C 20.874999 113.20951 24.728012 116.9375 29.4375 116.9375 L 41.9375 116.9375 L 41.9375 92.53125 C 41.9375 91.397541 41.03996 90.46875 39.90625 90.46875 L 20.875 90.46875 z "
         style="opacity:1;fill:url(#radialGradient3324);fill-opacity:1;fill-rule:nonzero;stroke:none;stroke-width:0.20680515;stroke-linecap:square;stroke-linejoin:round;stroke-miterlimit:4;stroke-dasharray:none;stroke-dashoffset:4;stroke-opacity:1" />
      <path
         style="opacity:0.50819672;fill:url(#radialGradient2430);fill-opacity:1;fill-rule:nonzero;stroke:none;stroke-width:0.145;stroke-linecap:square;stroke-linejoin:round;stroke-miterlimit:4;stroke-dasharray:none;stroke-dashoffset:4;stroke-opacity:1"
         d="M 95.60444,52.908772 C 93.029991,52.908772 90.991837,54.946923 90.991837,57.521369 L 90.991837,81.091401 L 75.548932,81.091401 C 72.974484,81.091401 70.86537,83.129551 70.86537,85.703996 C 71.093814,111.23269 104.35932,108.60489 121.10719,109.28671 L 121.10719,57.521369 C 121.10719,54.946923 119.06904,52.908772 116.49461,52.908772 L 95.60444,52.908772 z "
         id="path3586" />
      <path
         style="opacity:1;fill:url(#radialGradient2432);fill-opacity:1;fill-rule:nonzero;stroke:white;stroke-width:0.50166649;stroke-linecap:square;stroke-linejoin:round;stroke-miterlimit:4;stroke-dasharray:none;stroke-dashoffset:4;stroke-opacity:1"
         d="M 97.559913,55.482264 C 95.238516,55.482264 93.400696,57.320085 93.400696,59.641487 L 93.400696,83.459018 L 78.200754,83.459018 C 75.87935,83.459018 73.977541,85.296838 73.977541,87.618243 L 73.977541,107.17066 C 73.977541,109.49206 75.87936,111.32989 78.200754,111.32989 L 113.25551,111.32989 C 115.57691,111.32989 117.41471,109.49206 117.41471,107.17066 L 117.41471,59.641487 C 117.41471,57.320085 115.57689,55.482264 113.25551,55.482264 L 97.559913,55.482264 z "
         id="rect2615" />
      <path
         style="fill:none;fill-opacity:0.75;fill-rule:evenodd;stroke:black;stroke-width:1.59176552px;stroke-linecap:round;stroke-linejoin:round;stroke-opacity:1"
         d="M 108.68474,81.504901 L 108.68474,101.7286 L 96.638326,101.7286 L 101.92463,98.336426 L 96.676687,101.7286 L 101.92114,105.06131"
         id="path3521" />
    </g>
  </g>
</svg>
