<?xml version="1.0" encoding="UTF-8" standalone="no"?>
<svg
   xmlns:dc="http://purl.org/dc/elements/1.1/"
   xmlns:cc="http://creativecommons.org/ns#"
   xmlns:rdf="http://www.w3.org/1999/02/22-rdf-syntax-ns#"
   xmlns:svg="http://www.w3.org/2000/svg"
   xmlns="http://www.w3.org/2000/svg"
   xmlns:xlink="http://www.w3.org/1999/xlink"
   version="1.0"
   id="svg2"
   height="88"
   width="88">
  <defs
     id="defs4">
    <linearGradient
       id="linearGradient3291">
      <stop
         id="stop3293"
         offset="0"
         style="stop-color:#000000;stop-opacity:1;" />
      <stop
         id="stop3295"
         offset="1"
         style="stop-color:#7c7c7c;stop-opacity:1;" />
    </linearGradient>
    <linearGradient
       id="linearGradient3283">
      <stop
         id="stop3285"
         offset="0"
         style="stop-color:#ffffff;stop-opacity:1;" />
      <stop
         id="stop3287"
         offset="1"
         style="stop-color:#ffffff;stop-opacity:0;" />
    </linearGradient>
    <linearGradient
       id="linearGradient3186">
      <stop
         id="stop3188"
         offset="0"
         style="stop-color:#c8c8c8;stop-opacity:1" />
      <stop
         id="stop3190"
         offset="1"
         style="stop-color:#e4e4e4;stop-opacity:1" />
    </linearGradient>
    <linearGradient
       gradientTransform="matrix(1.3450524,0,0,1.3258599,-12.632831,-10.71217)"
       spreadMethod="pad"
       gradientUnits="userSpaceOnUse"
       y2="16.733448"
       x2="28"
       y1="66.467087"
       x1="28"
       id="linearGradient3192"
       xlink:href="#linearGradient3186" />
    <radialGradient
       spreadMethod="reflect"
       gradientUnits="userSpaceOnUse"
       gradientTransform="matrix(4.2144523,0,0,1.5150244,-147.16712,-16.340984)"
       r="18"
       fy="26.616402"
       fx="45.310146"
       cy="26.616402"
       cx="45.310146"
       id="radialGradient3289"
       xlink:href="#linearGradient3283" />
    <radialGradient
       spreadMethod="reflect"
       gradientUnits="userSpaceOnUse"
       gradientTransform="matrix(1.6061249,0,0,1.8181818,-27.881746,-36)"
       r="22"
       fy="44"
       fx="46"
       cy="44"
       cx="46"
       id="radialGradient3297"
       xlink:href="#linearGradient3291" />
  </defs>
  <metadata
     id="metadata7">
    <rdf:RDF>
      <cc:Work
         rdf:about="">
        <dc:format>image/svg+xml</dc:format>
        <dc:type
           rdf:resource="http://purl.org/dc/dcmitype/StillImage" />
        <dc:title></dc:title>
      </cc:Work>
    </rdf:RDF>
  </metadata>
  <g
     id="layer1">
    <path
       style="fill:none;fill-rule:evenodd;stroke:url(#radialGradient3297);stroke-width:12;stroke-linecap:round;stroke-linejoin:round;stroke-miterlimit:4;stroke-dasharray:none;stroke-opacity:1;opacity:0.6"
       d="M 62,40 L 62,63 C 62,83 30,83 30,63 L 30,22 C 30,6 54,6 54,22 L 54,49 C 46,61 46,61 38,49 L 38,41.5"
       id="path3279" />
    <path
       id="path2160"
       d="M 62,40 L 62,63 C 62,83 30,83 30,63 L 30,22 C 30,6 54,6 54,22 L 54,49 C 46,61 46,61 38,49 L 38,42"
       style="fill:none;fill-rule:evenodd;stroke:url(#linearGradient3192);stroke-width:4;stroke-linecap:round;stroke-linejoin:round;stroke-miterlimit:4;stroke-dasharray:none;stroke-opacity:1" />
    <path
       style="fill:none;fill-rule:evenodd;stroke:url(#radialGradient3289);stroke-width:4;stroke-linecap:round;stroke-linejoin:round;stroke-miterlimit:4;stroke-dasharray:none;stroke-opacity:1"
       d="M 62,40 L 62,63 C 62,83 30,83 30,63 L 30,22 C 30,6 54,6 54,22 L 54,49 C 46,61 46,61 38,49 L 38,42"
       id="path3281" />
  </g>
</svg>
