<?xml version="1.0" encoding="UTF-8"?>
<svg width="128" height="128" version="1.0" xmlns="http://www.w3.org/2000/svg" xmlns:xlink="http://www.w3.org/1999/xlink"><defs><filter id="filter5704"><feGaussianBlur stdDeviation="0.90323211"/></filter><linearGradient id="linearGradient4739" x1="398.4" x2="392.5" y1="-369.5" y2="-363.5" gradientTransform="matrix(1.181 0 0 -1.18 -363.3 -328.6)" gradientUnits="userSpaceOnUse"><stop stop-color="#888A85" offset="0"/><stop stop-color="#8C8E89" offset=".0072"/><stop stop-color="#ABACA9" offset=".0673"/><stop stop-color="#C5C6C4" offset=".1347"/><stop stop-color="#DBDBDA" offset=".2115"/><stop stop-color="#EBEBEB" offset=".3012"/><stop stop-color="#F7F7F6" offset=".4122"/><stop stop-color="#FDFDFD" offset=".5679"/><stop stop-color="#fff" offset="1"/></linearGradient><radialGradient id="radialGradient4743" cx="407.2" cy="-379.5" r="94.66" gradientTransform="matrix(1.341 0 0 -1.34 -433.3 -393.9)" gradientUnits="userSpaceOnUse"><stop stop-color="#535557" offset="0"/><stop stop-color="#898A8C" offset=".07095"/><stop stop-color="#ECECEC" offset=".203"/><stop stop-color="#FAFAFA" offset=".2363"/><stop stop-color="#fff" offset=".2722"/><stop stop-color="#FAFAFA" offset=".5313"/><stop stop-color="#EBECEC" offset=".8449"/><stop stop-color="#E1E2E3" offset="1"/></radialGradient><filter id="filter5749"><feGaussianBlur stdDeviation="1.493351"/></filter><filter id="filter10567" x="-.00997" y="-.1542" width="1.02" height="1.308" color-interpolation-filters="sRGB"><feGaussianBlur stdDeviation="0.23336165"/></filter><linearGradient id="linearGradient10547" x1="78.54" x2="120.4" y1="62.58" y2="62.58" gradientTransform="matrix(1.484 0 0 1.484 -175.6 -40.37)" gradientUnits="userSpaceOnUse"><stop stop-color="#ddd" offset=".0059"/><stop stop-color="#bbb" offset=".1065"/><stop stop-color="#B2B2B2" offset=".2799"/><stop stop-color="#9B9B9B" offset=".5571"/><stop stop-color="#888" offset=".7396"/><stop stop-color="#bbb" offset="1"/></linearGradient><linearGradient id="linearGradient10549" x1="78.54" x2="99.47" y1="62.58" y2="62.58" gradientUnits="userSpaceOnUse"><stop stop-color="#888" offset=".0059"/><stop stop-color="#bbb" offset=".1775"/><stop stop-color="#C4C4C4" offset=".4387"/><stop stop-color="#DBDBDB" offset=".8565"/><stop stop-color="#ddd" offset=".8876"/><stop stop-color="#bbb" offset="1"/></linearGradient><linearGradient id="linearGradient10551" x1="99.47" x2="120.4" y1="62.58" y2="62.58" gradientUnits="userSpaceOnUse"><stop stop-color="#888" offset=".0059"/><stop stop-color="#bbb" offset=".1775"/><stop stop-color="#C4C4C4" offset=".4387"/><stop stop-color="#DBDBDB" offset=".8565"/><stop stop-color="#ddd" offset=".8876"/><stop stop-color="#bbb" offset="1"/></linearGradient><linearGradient id="linearGradient10553" x1="117.2" x2="83.03" y1="64.21" y2="64.21" gradientTransform="matrix(1.484 0 0 1.456 -175.6 -38.51)" gradientUnits="userSpaceOnUse"><stop stop-color="#888" offset="0"/><stop stop-color="#868686" offset=".0079"/><stop stop-color="#626262" offset=".1453"/><stop stop-color="#555" offset=".2189"/><stop stop-color="#575757" offset=".2473"/><stop stop-color="#7B7B7B" offset=".7371"/><stop stop-color="#888" offset="1"/></linearGradient><radialGradient id="radialGradient10555" cx="98.67" cy="83.24" r="36.66" gradientTransform="matrix(1.484 0 0 1.456 -175.6 -38.51)" gradientUnits="userSpaceOnUse"><stop stop-color="#fff" offset=".2544"/><stop stop-color="#F2F2F2" offset=".2903"/><stop stop-color="#B9B9B9" offset=".4589"/><stop stop-color="#959595" offset=".584"/><stop stop-color="#888" offset=".6509"/><stop stop-color="#A9A9A9" offset=".8549"/><stop stop-color="#bbb" offset="1"/></radialGradient><filter id="filter20221" color-interpolation-filters="sRGB"><feGaussianBlur stdDeviation="0.69774324"/></filter><linearGradient id="linearGradient10557" x1="118.4" x2="80.39" y1="63.51" y2="63.51" gradientTransform="matrix(1.484 0 0 1.484 -175.6 -40.37)" gradientUnits="userSpaceOnUse"><stop stop-color="#fff" offset=".2899"/><stop stop-color="#ECECEC" offset=".459"/><stop stop-color="#C8C8C8" offset=".811"/><stop stop-color="#bbb" offset="1"/></linearGradient><filter id="filter20209" color-interpolation-filters="sRGB"><feGaussianBlur stdDeviation="0.53090557"/></filter><filter id="filter10605" x="-.0318" y="-.8407" width="1.064" height="2.681" color-interpolation-filters="sRGB"><feGaussianBlur stdDeviation="0.77877842"/></filter><radialGradient id="radialGradient6602" cx="92.18" cy="124.4" r="29.38" gradientTransform="matrix(1 0 0 .03783 -55.17 87.31)" gradientUnits="userSpaceOnUse"><stop offset="0"/><stop stop-color="#3b2300" stop-opacity=".8941" offset="1"/></radialGradient><linearGradient id="linearGradient5489" x1="35.5" x2="91.5" y1="-14.46" y2="-14.46" gradientTransform="matrix(1.429 0 0 1.455 -204.7 149.1)" gradientUnits="userSpaceOnUse"><stop stop-color="#826F47" offset="0"/><stop stop-color="#B8A276" offset=".1382"/><stop stop-color="#C1AA7E" offset=".1598"/><stop stop-color="#D4BD91" offset=".2324"/><stop stop-color="#E4CDA1" offset=".3136"/><stop stop-color="#F0DCB6" offset=".3882"/><stop stop-color="#FFEFD1" offset=".4675"/><stop stop-color="#E4CDA1" offset=".6568"/><stop stop-color="#CFB88C" offset=".7664"/><stop stop-color="#C1AA7E" offset=".8284"/><stop stop-color="#826F47" offset=".9527"/><stop stop-color="#65583D" offset="1"/></linearGradient><linearGradient id="linearGradient5491" x1="63.5" x2="63.5" y1="7.5" y2="-.667" gradientTransform="matrix(1.429 0 0 1.455 -204.7 149.1)" gradientUnits="userSpaceOnUse"><stop stop-color="#65583D" offset="0"/><stop stop-color="#65583d" stop-opacity="0" offset="1"/></linearGradient><linearGradient id="linearGradient5493" x1="35.5" x2="91.5" y1="-33.42" y2="-33.42" gradientTransform="matrix(1.429 0 0 1.455 -204.7 149.1)" gradientUnits="userSpaceOnUse"><stop stop-color="#C1AA7E" offset="0"/><stop stop-color="#D1C09F" offset=".0428"/><stop stop-color="#DFD3BC" offset=".0918"/><stop stop-color="#EBE3D5" offset=".1462"/><stop stop-color="#F4F0E8" offset=".2072"/><stop stop-color="#FAF8F5" offset=".2786"/><stop stop-color="#FEFEFD" offset=".3699"/><stop stop-color="#fff" offset=".5503"/><stop stop-color="#FDFCFB" offset=".6276"/><stop stop-color="#F7F4EE" offset=".7073"/><stop stop-color="#EDE7DA" offset=".7879"/><stop stop-color="#DFD4BD" offset=".8694"/><stop stop-color="#CEBB98" offset=".9506"/><stop stop-color="#C1AA7E" offset="1"/></linearGradient><linearGradient id="linearGradient5495" x1="63.5" x2="63.5" y1="-36.39" y2="-31.16" gradientTransform="matrix(1.429 0 0 1.455 -204.7 149.1)" gradientUnits="userSpaceOnUse"><stop stop-color="#C1AA7E" offset="0"/><stop stop-color="#E4CDA1" offset=".716"/></linearGradient><linearGradient id="linearGradient5497" x1="74" x2="74" y1="38.64" y2="-108.7" gradientTransform="matrix(1.404 0 0 -.09818 -203.2 92.37)" gradientUnits="userSpaceOnUse"><stop offset="0"/><stop stop-opacity="0" offset="1"/></linearGradient></defs><path transform="matrix(1.505 0 0 1.505 6.805 -5.109)" d="m8.665 6 1e-5 80 48.65 0.1862c0.3881 0 0.7549-0.1571 1.029-0.4276l19.4-19.88c0.2744-0.2716 0.4316-0.6355 0.4316-1.02l-0.1768-58.86h-69.34z" filter="url(#filter5749)" opacity=".45"/><path d="m23.85 8.284 1.5e-5 111.7h68c0.537 0 1.044-0.2194 1.424-0.5972l25.98-25.1c0.3796-0.3792 0.5972-0.8875 0.5972-1.424l0.2114-84.6-96.21-0.00168z" fill="#fff"/><path d="m28.02 12 1.3e-5 104h62.91c0.4896 0 0.9522-0.2 1.298-0.5444l23.08-22.6c0.346-0.3458 0.5444-0.8091 0.5444-1.298v-79.55h-87.83z" fill="url(#radialGradient4743)"/><path transform="matrix(1.317 0 0 1.326 222.5 14.63)" d="m-99.99 80.6s7.392-6.697 11.18-10.48c3.785-3.782 11.41-12.09 11.41-12.09s-11.14-0.6269-23.14-0.6269c0 12 0.5521 23.2 0.5521 23.2z" filter="url(#filter5704)" opacity=".3"/><path d="m92.54 120s10.33-8.044 14.8-12.51c4.467-4.463 12.29-13.55 12.29-13.55s-10.99 0.8407-25.15 0.8407c0 14.16-1.929 25.22-1.929 25.22z" fill="url(#linearGradient4739)"/><g fill="#fff"><rect x="178.9" y="109.7" width="1.47" height="0" opacity=".5779"/><g fill-opacity=".7569"><path d="m-54.77 2.088v-4.108 4.108z"/><path d="m98.35 0.3839v-3.242 3.242z"/><path d="m-1843-1245v-1.888 1.888z"/></g></g><path transform="matrix(1.184 0 0 1.184 -2.289 -16.3)" d="m9.796 90.91h54.42c1.204 0 2.174 0.4958 2.174 1.112s-0.9695 1.112-2.174 1.112c-23.72 0.9959-39.08 0.4268-54.42 0-1.204 0-2.174-0.4958-2.174-1.112s0.9695-1.112 2.174-1.112z" fill="url(#radialGradient6602)" filter="url(#filter10605)" opacity=".8886"/><g transform="matrix(.7594 0 0 .7775 62.72 -19.07)"><path d="m-28 26.22c-17.15 0-31.06 13.59-31.06 30.36v22.19h11.41v-22.36c0-10.43 8.812-18.91 19.64-18.91 10.83 0 19.64 8.483 19.64 18.91v22.36h11.41v-22.19c0.001477-16.77-13.9-30.36-31.06-30.36z" fill="url(#linearGradient10547)"/><g transform="matrix(1.484 0 0 1.484 -175.6 -40.37)"><path d="m78.54 65.33v14.95h1.195v-14.95c0-11.3 8.834-20.46 19.73-20.46-11.56 0-20.93 9.159-20.93 20.46z" fill="url(#linearGradient10549)"/><path d="m99.47 44.87c10.9 0 19.73 9.159 19.73 20.46v14.95h1.195v-14.95c0-11.3-9.369-20.46-20.93-20.46z" fill="url(#linearGradient10551)"/></g><path d="m-26.4 31.21c-15.69 0-26 9.028-26 24.8v22.76h3.98v-22.93c0-12.09 9.878-21.93 22.02-21.93 12.14 0 22.01 9.838 22.01 21.93v22.93h2.75v-22.76c-0.00149-15.77-9.074-24.8-24.76-24.8z" fill="url(#linearGradient10553)"/><path d="m-28.04 33.28c-14.7 0-24.36 8.637-24.36 23.72v21.77h3.729v-21.94c0-11.57 9.253-20.98 20.63-20.98 11.37 0 20.63 9.412 20.63 20.98v21.94h2.576v-21.77c0.00149-15.09-8.499-23.72-23.2-23.72z" fill="url(#radialGradient10555)" filter="url(#filter20221)"/><path d="m-28 28.1c-15.35 0-27.79 13.05-27.79 28.05v22.62h1.236v-20.15c0-15 11.2-27.16 26.55-27.16 16.65 0 26.55 10.53 26.55 27.16v20.15h1.235v-23.43c0-15.65-11.95-27.24-27.79-27.24z" fill="url(#linearGradient10557)" filter="url(#filter20209)"/></g><g transform="matrix(.8237 0 0 .8175 135.5 -38.58)"><rect x="-154" y="96.12" width="80" height="63.88" fill="url(#linearGradient5489)"/><rect x="-154" y="148.4" width="80" height="11.64" enable-background="new    " fill="url(#linearGradient5491)" opacity=".5"/><g fill-rule="evenodd"><path d="m-117.6 131.5h42.55l-20.96-0.2701-21.59 0.2701z" opacity=".03"/><path d="m-76.64 131.5v0.0168l-19.35 0.2185-21.59-0.2353h40.93z" fill="#fff" opacity=".03"/><path d="m-120.5 129.2h42.55l-20.96-0.2701-21.59 0.2701z" opacity=".03"/><path d="m-120.5 129.2h42.55l-20.96 0.2348-21.59-0.2348z" fill="#fff" opacity=".03"/><path d="m-93.92 131.2 17.27 0.2488v0.1445h-45.29l28.02-0.3933z" opacity=".03"/><path d="m-76.64 131.7v0.1244l-17.27 0.2151-28.02-0.3395h45.29z" fill="#fff" opacity=".03"/><path d="m-120.5 129.2h42.55l-20.96-0.2701-21.59 0.2701z" opacity=".03"/><path d="m-120.5 129.2h42.55l-20.96 0.2348-21.59-0.2348z" fill="#fff" opacity=".03"/><path d="m-93.92 131.2 17.27 0.2488v0.1445h-45.29l28.02-0.3933z" opacity=".03"/><path d="m-76.64 131.7v0.1244l-17.27 0.2151-28.02-0.3395h45.29z" fill="#fff" opacity=".03"/><path d="m-88.6 126.4 11.96 0.1546v0.1176h-33.55l21.59-0.2723z" opacity=".03"/><path d="m-76.64 126.7v0.1008l-11.96 0.1311-21.59-0.232h33.55z" fill="#fff" opacity=".03"/><path d="m-91.52 124.2 14.88 0.1916v0.0774h-36.46l21.59-0.269z" opacity=".03"/><path d="m-76.64 124.5v0.0672l-14.88 0.1681-21.59-0.2353h36.46z" fill="#fff" opacity=".03"/><path d="m-91.52 124.2 14.88 0.1916v0.0774h-36.46l21.59-0.269z" opacity=".03"/><path d="m-76.64 124.5v0.0672l-14.88 0.1681-21.59-0.2353h36.46z" fill="#fff" opacity=".03"/><path d="m-82.18 132.2h-54.34l26.77-0.2701 27.57 0.2701z" opacity=".03"/><path d="m-82.18 132.3h-54.34l26.77 0.2348 27.57-0.2348z" fill="#fff" opacity=".03"/><path d="m-81.34 134.7h-70.52l34.74-0.3935 35.78 0.3935z" opacity=".03"/><path d="m-81.34 134.7h-70.52l34.74 0.342 35.78-0.342z" fill="#fff" opacity=".03"/><path d="m-85.1 130h-54.34l26.77-0.2701 27.57 0.2701z" opacity=".03"/><path d="m-85.1 130h-54.34l26.77 0.2348 27.57-0.2348z" fill="#fff" opacity=".03"/><path d="m-120 132 35.78 0.3933h-65.57v-0.0572l29.79-0.3362z" opacity=".03"/><path d="m-84.26 132.4-35.78 0.3429-29.79-0.2925v-0.0504h65.57z" fill="#fff" opacity=".03"/><path d="m-85.1 130h-54.34l26.77-0.2701 27.57 0.2701z" opacity=".03"/><path d="m-85.1 130h-54.34l26.77 0.2348 27.57-0.2348z" fill="#fff" opacity=".03"/><path d="m-120 132 35.78 0.3933h-65.57v-0.0572l29.79-0.3362z" opacity=".03"/><path d="m-84.26 132.4-35.78 0.3429-29.79-0.2925v-0.0504h65.57z" fill="#fff" opacity=".03"/><path d="m-74.79 127.5h-54.34l26.77-0.2701 27.57 0.2701z" opacity=".03"/><path d="m-76.64 127.5v0.0168l-25.72 0.2185-26.77-0.2354h52.49z" fill="#fff" opacity=".03"/><path d="m-74 130h-69.48l34.23-0.3934 35.25 0.3934z" opacity=".03"/><path d="m-76.64 130v0.037l-32.09 0.3059-34.74-0.3429h66.83z" fill="#fff" opacity=".03"/><path d="m-77.71 125.2h-54.34l26.77-0.2701 27.57 0.2701z" opacity=".03"/><path d="m-77.71 125.2h-54.34l26.77 0.2348 27.57-0.2348z" fill="#fff" opacity=".03"/><path d="m-134.7 126.1 35.78 0.3933h-50.88v-0.2218l15.1-0.1715z" opacity=".03"/><path d="m-98.94 126.5-35.78 0.3429-15.1-0.1479v-0.195h50.88z" fill="#fff" opacity=".03"/><path d="m-75.87 127.7h-70.52l34.74-0.3934 35.78 0.3934z" opacity=".03"/><path d="m-75.87 127.7h-70.52l34.74 0.342 35.78-0.342z" fill="#fff" opacity=".03"/><path d="m-77.71 125.2h-54.34l26.77-0.2701 27.57 0.2701z" opacity=".03"/><path d="m-77.71 125.2h-54.34l26.77 0.2348 27.57-0.2348z" fill="#fff" opacity=".03"/><path d="m-134.7 126.1 35.78 0.3933h-50.88v-0.2218l15.1-0.1715z" opacity=".03"/><path d="m-98.94 126.5-35.78 0.3429-15.1-0.1479v-0.195h50.88z" fill="#fff" opacity=".03"/><path d="m-75.87 127.7h-70.52l34.74-0.3934 35.78 0.3934z" opacity=".03"/><path d="m-76.64 127.7v7e-3l-35.01 0.3362-34.74-0.3429h69.75z" fill="#fff" opacity=".03"/><path d="m-123.3 140.3h42.55l-20.96-0.2701-21.59 0.2701z" opacity=".03"/><path d="m-123.3 140.3h42.55l-20.96 0.2348-21.59-0.2348z" fill="#fff" opacity=".03"/><path d="m-96.77 142.4 20.13 0.2925v0.1008h-48.15l28.02-0.3933z" opacity=".03"/><path d="m-76.64 142.8v0.0874l-20.13 0.2521-28.02-0.3395h48.15z" fill="#fff" opacity=".03"/><path d="m-126.3 138h42.55l-20.96-0.2701-21.59 0.2701z" opacity=".03"/><path d="m-126.3 138h42.55l-20.96 0.2348-21.59-0.2348z" fill="#fff" opacity=".03"/><path d="m-99.69 140.1 23.04 0.3328v0.0605h-51.06l28.02-0.3933z" opacity=".03"/><path d="m-76.64 140.5v0.0538l-23.04 0.2891-28.02-0.3429h51.06z" fill="#fff" opacity=".03"/><path d="m-126.3 138h42.55l-20.96-0.2701-21.59 0.2701z" opacity=".03"/><path d="m-126.3 138h42.55l-20.96 0.2348-21.59-0.2348z" fill="#fff" opacity=".03"/><path d="m-99.69 140.1 23.04 0.3328v0.0605h-51.06l28.02-0.3933z" opacity=".03"/><path d="m-76.64 140.5v0.0538l-23.04 0.2891-28.02-0.3429h51.06z" fill="#fff" opacity=".03"/><path d="m-94.37 135.3 17.73 0.2286v0.0403h-39.32l21.59-0.2689z" opacity=".03"/><path d="m-76.64 135.6v0.037l-17.73 0.1983-21.59-0.2353h39.32z" fill="#fff" opacity=".03"/><path d="m-118.9 133.3h42.55l-20.96-0.2701-21.59 0.2701z" opacity=".03"/><path d="m-118.9 133.3h42.55l-20.96 0.2348-21.59-0.2348z" fill="#fff" opacity=".03"/><path d="m-92.3 135.4 15.66 0.2252v0.1681h-43.68l28.02-0.3933z" opacity=".03"/><path d="m-76.64 135.8v0.1445l-15.66 0.1984-28.02-0.3429h43.68z" fill="#fff" opacity=".03"/><path d="m-118.9 133.3h42.55l-20.96-0.2701-21.59 0.2701z" opacity=".03"/><path d="m-118.9 133.3h42.55l-20.96 0.2348-21.59-0.2348z" fill="#fff" opacity=".03"/><path d="m-92.3 135.4 15.66 0.2252v0.1681h-43.68l28.02-0.3933z" opacity=".03"/><path d="m-76.64 135.8v0.1445l-15.66 0.1984-28.02-0.3429h43.68z" fill="#fff" opacity=".03"/><path d="m-87.95 141.1h-54.34l26.77-0.2701 27.57 0.2701z" opacity=".03"/><path d="m-87.95 141.1h-54.34l26.77 0.2348 27.57-0.2348z" fill="#fff" opacity=".03"/><path d="m-122.9 143.2 35.78 0.3933h-62.71v-0.0874l26.93-0.3059z" opacity=".03"/><path d="m-87.11 143.6-35.78 0.3429-26.93-0.2656v-0.0773h62.71z" fill="#fff" opacity=".02"/><path d="m-90.87 138.8h-54.34l26.77-0.2701 27.57 0.2701z" opacity=".03"/><path d="m-90.87 138.8h-54.34l26.77 0.2348 27.57-0.2348z" fill="#fff" opacity=".03"/><path d="m-125.8 140.9 35.78 0.3933h-59.8v-0.121l24.02-0.2723z" opacity=".03"/><path d="m-90.03 141.3-35.78 0.3395-24.02-0.2353v-0.1042h59.8z" fill="#fff" opacity=".03"/><path d="m-90.87 138.8h-54.34l26.77-0.2701 27.57 0.2701z" opacity=".03"/><path d="m-90.87 138.8h-54.34l26.77 0.2348 27.57-0.2348z" fill="#fff" opacity=".03"/><path d="m-125.8 140.9 35.78 0.3933h-59.8v-0.121l24.02-0.2723z" opacity=".03"/><path d="m-90.03 141.3-35.78 0.3395-24.02-0.2353v-0.1042h59.8z" fill="#fff" opacity=".03"/><path d="m-80.57 136.4h-54.34l26.77-0.2701 27.57 0.2701z" opacity=".03"/><path d="m-80.57 136.4h-54.34l26.77 0.2348 27.57-0.2348z" fill="#fff" opacity=".03"/><path d="m-79.73 138.8h-70.52l34.74-0.3934 35.78 0.3934z" opacity=".03"/><path d="m-79.73 138.8h-70.52l34.74 0.342 35.78-0.342z" fill="#fff" opacity=".03"/><path d="m-83.48 134.1h-54.34l26.77-0.2702 27.57 0.2702z" opacity=".03"/><path d="m-83.48 134.1h-54.34l26.77 0.2348 27.57-0.2348z" fill="#fff" opacity=".03"/><path d="m-118.4 136.1 35.78 0.3933h-67.19v-0.037l31.4-0.3563z" opacity=".03"/><path d="m-82.64 136.5-35.78 0.3429-31.4-0.3092v-0.0336h67.19z" fill="#fff" opacity=".03"/><path d="m-83.48 134.1h-54.34l26.77-0.2702 27.57 0.2702z" opacity=".03"/><path d="m-83.48 134.1h-54.34l26.77 0.2348 27.57-0.2348z" fill="#fff" opacity=".03"/><path d="m-82.64 136.5h-66.64l32.83-0.3934 33.81 0.3934z" opacity=".03"/><path d="m-82.64 136.5h-66.64l32.83 0.342 33.81-0.342z" fill="#fff" opacity=".03"/><path d="m-119.5 145.9h42.55l-20.96-0.2701-21.59 0.2701z" opacity=".02"/><path d="m-119.5 145.9h42.55l-20.96 0.2348-21.59-0.2348z" fill="#fff" opacity=".02"/><path d="m-92.92 148 16.28 0.2353v0.158h-44.3l28.02-0.3933z" opacity=".02"/><path d="m-76.64 148.4v0.1378l-16.28 0.2051-28.02-0.3429h44.3z" fill="#fff" opacity=".02"/><path d="m-122.4 143.7h42.55l-20.96-0.2701-21.59 0.2701z" opacity=".02"/><path d="m-122.4 143.7h42.55l-20.96 0.2348-21.59-0.2348z" fill="#fff" opacity=".02"/><path d="m-95.84 145.7 19.2 0.279v0.1143h-47.21l28.02-0.3933z" opacity=".02"/><path d="m-76.64 146.1v0.1009l-19.2 0.2387-28.02-0.3395h47.21z" fill="#fff" opacity=".02"/><path d="m-122.4 143.7h42.55l-20.96-0.2701-21.59 0.2701z" opacity=".02"/><path d="m-122.4 143.7h42.55l-20.96 0.2348-21.59-0.2348z" fill="#fff" opacity=".02"/><path d="m-95.84 145.7 19.2 0.279v0.1143h-47.21l28.02-0.3933z" opacity=".02"/><path d="m-76.64 146.1v0.1009l-19.2 0.2387-28.02-0.3395h47.21z" fill="#fff" opacity=".02"/><path d="m-90.53 140.9 13.88 0.1815v0.0908h-35.47l21.59-0.2723z" opacity=".03"/><path d="m-76.64 141.2v0.0773l-13.88 0.1546-21.59-0.2319h35.47z" fill="#fff" opacity=".03"/><path d="m-93.44 138.7 16.8 0.2151v0.0538h-38.39l21.59-0.2689z" opacity=".03"/><path d="m-76.64 138.9v0.0471l-16.8 0.1882-21.59-0.2353h38.39z" fill="#fff" opacity=".03"/><path d="m-93.44 138.7 16.8 0.2151v0.0538h-38.39l21.59-0.2689z" opacity=".03"/><path d="m-76.64 138.9v0.0471l-16.8 0.1882-21.59-0.2353h38.39z" fill="#fff" opacity=".03"/><path d="m-84.1 146.7h-54.34l26.77-0.2701 27.57 0.2701z" opacity=".02"/><path d="m-84.1 146.7h-54.34l26.77 0.2348 27.57-0.2348z" fill="#fff" opacity=".02"/><path d="m-119 148.8 35.78 0.3933h-66.56v-0.0437l30.78-0.3496z" opacity=".02"/><path d="m-83.27 149.2-35.78 0.3429-30.78-0.3026v-0.0404h66.56z" fill="#fff" opacity=".02"/><path d="m-87.02 144.4h-54.34l26.77-0.2701 27.57 0.2701z" opacity=".02"/><path d="m-87.02 144.5h-54.34l26.77 0.2348 27.57-0.2348z" fill="#fff" opacity=".02"/><path d="m-122 146.5 35.78 0.3933h-63.64v-0.0773l27.86-0.316z" opacity=".02"/><path d="m-86.18 146.9-35.78 0.3429-27.86-0.2757v-0.0672h63.64z" fill="#fff" opacity=".02"/><path d="m-87.02 144.4h-54.34l26.77-0.2701 27.57 0.2701z" opacity=".02"/><path d="m-87.02 144.5h-54.34l26.77 0.2348 27.57-0.2348z" fill="#fff" opacity=".02"/><path d="m-122 146.5 35.78 0.3933h-63.64v-0.0773l27.86-0.316z" opacity=".02"/><path d="m-86.18 146.9-35.78 0.3429-27.86-0.2757v-0.0672h63.64z" fill="#fff" opacity=".02"/><path d="m-76.72 142h-54.34l26.77-0.2701 27.57 0.2701z" opacity=".03"/><path d="m-76.72 142h-54.34l26.77 0.2348 27.57-0.2348z" fill="#fff" opacity=".03"/><path d="m-133.7 142.9 35.78 0.3933h-51.88v-0.2118l16.09-0.1815z" opacity=".03"/><path d="m-97.95 143.3-35.78 0.3429-16.09-0.158v-0.1849h51.88z" fill="#fff" opacity=".03"/><path d="m-74.88 144.4h-70.52l34.74-0.3935 35.78 0.3935z" opacity=".02"/><path d="m-74.88 144.4h-70.52l34.74 0.342 35.78-0.342z" fill="#fff" opacity=".02"/><path d="m-79.63 139.7h-54.34l26.77-0.2701 27.57 0.2701z" opacity=".03"/><path d="m-79.63 139.7h-54.34l26.77 0.2348 27.57-0.2348z" fill="#fff" opacity=".03"/><path d="m-78.79 142.2h-70.52l34.74-0.3935 35.78 0.3935z" opacity=".03"/><path d="m-78.79 142.2h-70.52l34.74 0.342 35.78-0.342z" fill="#fff" opacity=".03"/><path d="m-79.63 139.7h-54.34l26.77-0.2701 27.57 0.2701z" opacity=".03"/><path d="m-79.63 139.7h-54.34l26.77 0.2348 27.57-0.2348z" fill="#fff" opacity=".03"/><path d="m-78.79 142.2h-70.52l34.74-0.3935 35.78 0.3935z" opacity=".03"/><path d="m-78.79 142.2h-70.52l34.74 0.342 35.78-0.342z" fill="#fff" opacity=".03"/><path d="m-125.3 154.8h42.55l-20.96-0.2702-21.59 0.2702z" opacity=".01"/><path d="m-125.3 154.8h42.55l-20.96 0.2348-21.59-0.2348z" fill="#fff" opacity=".01"/><path d="m-126.7 157.2h48.14l-20.12-0.3935-28.02 0.3935z" opacity=".01"/><path d="m-126.7 157.2 47.88 0.2197-19.86 0.1223-28.02-0.342z" fill="#fff" opacity=".01"/><path d="m-128.2 152.5h42.55l-20.96-0.2701-21.59 0.2701z" opacity=".01"/><path d="m-128.2 152.5h42.55l-20.96 0.2348-21.59-0.2348z" fill="#fff" opacity=".01"/><path d="m-129.6 155h55.22l-27.2-0.3935-28.02 0.3935z" opacity=".01"/><path d="m-129.6 155 52.53 0.0549-27.2 0.342-25.33-0.397z" fill="#fff" opacity=".01"/><path d="m-128.2 152.5h42.55l-20.96-0.2701-21.59 0.2701z" opacity=".01"/><path d="m-128.2 152.5h42.55l-20.96 0.2348-21.59-0.2348z" fill="#fff" opacity=".01"/><path d="m-129.6 155 52.5 0.1831-24.48-0.5766-28.02 0.3935z" opacity=".01"/><path d="m-76.64 155v0.0269l-24.97 0.316-28.02-0.3429h52.99z" fill="#fff" opacity=".01"/><path d="m-117.9 150h42.55l-20.96-0.2701-21.59 0.2701z" opacity=".02"/><path d="m-117.9 150h42.55l-20.96 0.2348-21.59-0.2348z" fill="#fff" opacity=".02"/><path d="m-120.8 147.8h42.55l-20.96-0.2701-21.59 0.2701z" opacity=".02"/><path d="m-120.8 147.8h42.55l-20.96 0.2348-21.59-0.2348z" fill="#fff" opacity=".02"/><path d="m-94.23 149.8 17.58 0.2555v0.1378h-45.6l28.02-0.3933z" opacity=".02"/><path d="m-76.64 150.2v0.121l-17.58 0.2218-28.02-0.3429h45.6z" fill="#fff" opacity=".02"/><path d="m-120.8 147.8h42.55l-20.96-0.2701-21.59 0.2701z" opacity=".02"/><path d="m-120.8 147.8h42.55l-20.96 0.2348-21.59-0.2348z" fill="#fff" opacity=".02"/><path d="m-94.23 149.8 17.58 0.2555v0.1378h-45.6l28.02-0.3933z" opacity=".02"/><path d="m-76.64 150.2v0.121l-17.58 0.2218-28.02-0.3429h45.6z" fill="#fff" opacity=".02"/><path d="m-89.88 155.6h-54.34l26.77-0.2701 27.57 0.2701z" opacity=".01"/><path d="m-89.88 155.6h-54.34l26.77 0.2348 27.57-0.2348z" fill="#fff" opacity=".01"/><path d="m-92.79 153.3h-54.34l26.77-0.2701 27.57 0.2701z" opacity=".01"/><path d="m-92.79 153.3h-54.34l26.77 0.2348 27.57-0.2348z" fill="#fff" opacity=".01"/><path d="m-92.79 153.3h-54.34l26.77-0.2701 27.57 0.2701z" opacity=".01"/><path d="m-92.79 153.3h-54.34l26.77 0.2348 27.57-0.2348z" fill="#fff" opacity=".01"/><path d="m-82.49 150.8h-54.34l26.77-0.2701 27.57 0.2701z" opacity=".02"/><path d="m-82.49 150.8h-54.34l26.77 0.2348 27.57-0.2348z" fill="#fff" opacity=".02"/><path d="m-81.65 153.3h-70.52l34.74-0.3934 35.78 0.3934z" opacity=".01"/><path d="m-81.65 153.3h-70.52l34.74 0.342 35.78-0.342z" fill="#fff" opacity=".01"/><path d="m-85.41 148.6h-54.34l26.77-0.2701 27.57 0.2701z" opacity=".02"/><path d="m-85.41 148.6h-54.34l26.77 0.2348 27.57-0.2348z" fill="#fff" opacity=".02"/><path d="m-120.3 150.6 35.78 0.3933h-65.26v-0.0605l29.48-0.3328z" opacity=".02"/><path d="m-84.57 151-35.78 0.3429-29.48-0.2925v-0.0505h65.26z" fill="#fff" opacity=".01"/><path d="m-85.41 148.6h-54.34l26.77-0.2701 27.57 0.2701z" opacity=".02"/><path d="m-85.41 148.6h-54.34l26.77 0.2348 27.57-0.2348z" fill="#fff" opacity=".02"/><path d="m-84.57 151h-65.22l32.13-0.3934 33.09 0.3934z" opacity=".02"/><path d="m-84.57 151h-65.22l32.13 0.342 33.09-0.342z" fill="#fff" opacity=".01"/><path d="m-79.14 118.9h-70.52l34.74-0.3934 35.78 0.3934z" opacity=".04098"/><path d="m-79.14 118.9h-70.52l34.74 0.342 35.78-0.342z" fill="#fff" opacity=".04098"/><path d="m-121.1 124.5h42.55l-20.96-0.2701-21.59 0.2701z" opacity=".03"/><path d="m-121.1 124.5h42.55l-20.96 0.2348-21.59-0.2348z" fill="#fff" opacity=".03"/><path d="m-94.57 126.6 17.93 0.2588v0.1345h-45.95l28.02-0.3933z" opacity=".03"/><path d="m-76.64 127v0.1177l-17.93 0.2252-28.02-0.3429h45.95z" fill="#fff" opacity=".03"/><path d="m-124.1 122.2h42.55l-20.96-0.2701-21.59 0.2701z" opacity=".03"/><path d="m-124.1 122.2h42.55l-20.96 0.2348-21.59-0.2348z" fill="#fff" opacity=".03"/><path d="m-97.49 124.3 20.85 0.3026v0.0941h-48.86l28.02-0.3967z" opacity=".03"/><path d="m-76.64 124.7v0.0807l-20.85 0.2622-28.02-0.3429h48.86z" fill="#fff" opacity=".03"/><path d="m-124.1 122.2h42.55l-20.96-0.2701-21.59 0.2701z" opacity=".03"/><path d="m-124.1 122.2h42.55l-20.96 0.2348-21.59-0.2348z" fill="#fff" opacity=".03"/><path d="m-97.49 124.3 20.85 0.3026v0.0941h-48.86l28.02-0.3967z" opacity=".03"/><path d="m-76.64 124.7v0.0807l-20.85 0.2622-28.02-0.3429h48.86z" fill="#fff" opacity=".03"/><path d="m-92.17 119.5 15.53 0.1983v0.0706h-37.12l21.59-0.2689z" opacity=".03"/><path d="m-76.64 119.8v0.0605l-15.53 0.1748-21.59-0.2353h37.12z" fill="#fff" opacity=".03"/><path d="m-90.1 119.5 13.46 0.195v0.1983h-41.48l28.02-0.3933z" opacity=".03"/><path d="m-76.64 119.9v0.1715l-13.46 0.1681-28.02-0.3396h41.48z" fill="#fff" opacity=".03"/><path d="m-90.1 119.5 13.46 0.195v0.1983h-41.48l28.02-0.3933z" opacity=".03"/><path d="m-76.64 119.9v0.1715l-13.46 0.1681-28.02-0.3396h41.48z" fill="#fff" opacity=".03"/><path d="m-85.75 125.3h-54.34l26.77-0.2701 27.57 0.2701z" opacity=".03"/><path d="m-85.75 125.3h-54.34l26.77 0.2348 27.57-0.2348z" fill="#fff" opacity=".03"/><path d="m-120.7 127.3 35.78 0.3933h-64.91v-0.0639l29.13-0.3294z" opacity=".03"/><path d="m-84.91 127.7-35.78 0.3429-29.13-0.2891v-0.0538h64.91z" fill="#fff" opacity=".03"/><path d="m-88.67 123h-54.34l26.77-0.2701 27.57 0.2701z" opacity=".04098"/><path d="m-88.67 123h-54.34l26.77 0.2348 27.57-0.2348z" fill="#fff" opacity=".04098"/><path d="m-123.6 125.1 35.78 0.3933h-62v-0.0975l26.21-0.2958z" opacity=".03"/><path d="m-87.83 125.5-35.78 0.3429-26.21-0.2588v-0.0841h62z" fill="#fff" opacity=".03"/><path d="m-88.67 123h-54.34l26.77-0.2701 27.57 0.2701z" opacity=".04098"/><path d="m-88.67 123h-54.34l26.77 0.2348 27.57-0.2348z" fill="#fff" opacity=".04098"/><path d="m-78.37 120.5h-54.34l26.77-0.2701 27.57 0.2701z" opacity=".03"/><path d="m-78.37 120.5h-54.34l26.77 0.2348 27.57-0.2348z" fill="#fff" opacity=".03"/><path d="m-76.53 123h-70.52l34.74-0.3935 35.78 0.3935z" opacity=".04098"/><path d="m-76.53 123h-70.52l34.74 0.342 35.78-0.342z" fill="#fff" opacity=".04098"/><path d="m-80.44 120.7h-70.52l34.74-0.3935 35.78 0.3935z" opacity=".04098"/><path d="m-80.44 120.7h-70.52l34.74 0.342 35.78-0.342z" fill="#fff" opacity=".04098"/><path d="m-80.44 120.7h-68.4l33.7-0.3935 34.71 0.3935z" opacity=".04098"/><path d="m-80.44 120.7h-68.4l33.7 0.342 34.71-0.342z" fill="#fff" opacity=".04098"/></g><g transform="matrix(-.05296 0 0 .07002 -229.8 107.2)" fill-rule="evenodd" opacity=".03"><path d="m-1975 351.2h492.5l-242.6-3.858-249.9 3.858z" opacity=".377"/><path transform="matrix(-1.277 0 0 1.536 -2802 -1593)" d="m-1018 1265v0.1562l175.4 2.031 195.7-2.188h-371z" fill="#fff" opacity=".377"/></g><g transform="matrix(-.05296 0 0 .07002 -228 104.9)" fill-rule="evenodd" opacity=".03"><path d="m-1975 351.2h492.5l-242.6-3.858-249.9 3.858z" opacity=".377"/><path d="m-1975 351.3h492.5l-242.6 3.354-249.9-3.354z" fill="#fff" opacity=".377"/></g><g transform="matrix(-.06874 0 0 .102 -258.3 96.11)" fill-rule="evenodd" opacity=".03"><path transform="matrix(-.984 0 0 1.055 -2573 -985.1)" d="m-861.9 1263-156.6 2.312v1.344h410.5l-253.9-3.656z" opacity=".377"/><path transform="matrix(-.984 0 0 1.055 -2573 -985.1)" d="m-1018 1267v1.156l156.6 2 253.9-3.156h-410.5z" fill="#fff" opacity=".377"/></g><g transform="matrix(-.05296 0 0 .07002 -228 104.9)" fill-rule="evenodd" opacity=".03"><path d="m-1975 351.2h492.5l-242.6-3.858-249.9 3.858z" opacity=".377"/><path d="m-1975 351.3h492.5l-242.6 3.354-249.9-3.354z" fill="#fff" opacity=".377"/></g><g transform="matrix(-.06874 0 0 .102 -258.3 96.11)" fill-rule="evenodd" opacity=".03"><path transform="matrix(-.984 0 0 1.055 -2573 -985.1)" d="m-861.9 1263-156.6 2.312v1.344h410.5l-253.9-3.656z" opacity=".377"/><path transform="matrix(-.984 0 0 1.055 -2573 -985.1)" d="m-1018 1267v1.156l156.6 2 253.9-3.156h-410.5z" fill="#fff" opacity=".377"/></g><g transform="matrix(-.05296 0 0 .07002 -234.3 102.4)" fill-rule="evenodd" opacity=".03"><path transform="matrix(-1.277 0 0 1.536 -2888 -1525)" d="m-910.1 1219-108.4 1.438v1.094h304.1l-195.7-2.531z" opacity=".377"/><path transform="matrix(-1.277 0 0 1.536 -2888 -1525)" d="m-1018 1221v0.9374l108.4 1.219 195.7-2.156h-304.1z" fill="#fff" opacity=".377"/></g><g transform="matrix(-.05296 0 0 .07002 -232.6 100.1)" fill-rule="evenodd" opacity=".04098"><path transform="matrix(-1.277 0 0 1.536 -2854 -1492)" d="m-883.7 1198-134.8 1.781v0.7188h330.5l-195.7-2.5z" opacity=".377"/><path transform="matrix(-1.277 0 0 1.536 -2854 -1492)" d="m-1018 1200v0.625l134.8 1.562 195.7-2.188h-330.5z" fill="#fff" opacity=".377"/></g><g transform="matrix(-.05296 0 0 .07002 -232.6 100.1)" fill-rule="evenodd" opacity=".04098"><path transform="matrix(-1.277 0 0 1.536 -2854 -1492)" d="m-883.7 1198-134.8 1.781v0.7188h330.5l-195.7-2.5z" opacity=".377"/><path transform="matrix(-1.277 0 0 1.536 -2854 -1492)" d="m-1018 1200v0.625l134.8 1.562 195.7-2.188h-330.5z" fill="#fff" opacity=".377"/></g><g transform="matrix(.06764 0 0 .07002 -12.3 107.9)" fill-rule="evenodd" opacity=".03"><path d="m-1975 351.2h492.5l-242.6-3.858-249.9 3.858z" opacity=".377"/><path d="m-1975 351.3h492.5l-242.6 3.354-249.9-3.354z" fill="#fff" opacity=".377"/></g><g transform="matrix(.08779 0 0 .102 26.37 99.17)" fill-rule="evenodd" opacity=".03"><path d="m-1975 351.2h492.5l-242.6-3.858-249.9 3.858z" opacity=".377"/><path d="m-1975 351.3h492.5l-242.6 3.354-249.9-3.354z" fill="#fff" opacity=".377"/></g><g transform="matrix(.06764 0 0 .07002 -10.52 105.7)" fill-rule="evenodd" opacity=".03"><path d="m-1975 351.2h492.5l-242.6-3.858-249.9 3.858z" opacity=".377"/><path d="m-1975 351.3h492.5l-242.6 3.354-249.9-3.354z" fill="#fff" opacity=".377"/></g><g transform="matrix(.08779 0 0 .102 28.16 96.9)" fill-rule="evenodd" opacity=".03"><path transform="matrix(.7705 0 0 1.055 -1237 -992.8)" d="m-634.2 1271-324.3 3.656h594.3v-0.5313l-270-3.125z" opacity=".377"/><path transform="matrix(.7705 0 0 1.055 -1237 -992.8)" d="m-958.6 1274 324.3 3.188 270-2.719v-0.4687h-594.3z" fill="#fff" opacity=".377"/></g><g transform="matrix(.06764 0 0 .07002 -10.52 105.7)" fill-rule="evenodd" opacity=".03"><path d="m-1975 351.2h492.5l-242.6-3.858-249.9 3.858z" opacity=".377"/><path d="m-1975 351.3h492.5l-242.6 3.354-249.9-3.354z" fill="#fff" opacity=".377"/></g><g transform="matrix(.08779 0 0 .102 28.16 96.9)" fill-rule="evenodd" opacity=".03"><path transform="matrix(.7705 0 0 1.055 -1237 -992.8)" d="m-634.2 1271-324.3 3.656h594.3v-0.5313l-270-3.125z" opacity=".377"/><path transform="matrix(.7705 0 0 1.055 -1237 -992.8)" d="m-958.6 1274 324.3 3.188 270-2.719v-0.4687h-594.3z" fill="#fff" opacity=".377"/></g><g transform="matrix(.06764 0 0 .07002 -17.83 103.2)" fill-rule="evenodd" opacity=".03"><path d="m-1975 351.2h492.5l-242.6-3.858-249.9 3.858z" opacity=".377"/><path transform="matrix(1 0 0 1.536 -939.9 -1536)" d="m-1019 1229v0.1563l233.2 2.031 242.6-2.188h-475.8z" fill="#fff" opacity=".377"/></g><g transform="matrix(.08779 0 0 .102 20.84 94.44)" fill-rule="evenodd" opacity=".03"><path d="m-1975 351.2h492.5l-242.6-3.858-249.9 3.858z" opacity=".377"/><path transform="matrix(.7705 0 0 1.055 -1165 -968.6)" d="m-1018 1251v0.3438l290.9 2.844 314.9-3.188h-605.8z" fill="#fff" opacity=".377"/></g><g transform="matrix(.06764 0 0 .07002 -16.05 100.9)" fill-rule="evenodd" opacity=".03"><path d="m-1975 351.2h492.5l-242.6-3.858-249.9 3.858z" opacity=".377"/><path d="m-1975 351.3h492.5l-242.6 3.354-249.9-3.354z" fill="#fff" opacity=".377"/></g><g transform="matrix(.08779 0 0 .102 37.16 90.99)" fill-rule="evenodd" opacity=".03"><path transform="matrix(.7705 0 0 1.055 -1339 -934.9)" d="m-501.1 1216-324.3 3.656h461.2v-2.062l-136.9-1.594z" opacity=".377"/><path transform="matrix(.7705 0 0 1.055 -1339 -934.9)" d="m-825.4 1219 324.3 3.188 136.9-1.375v-1.813h-461.2z" fill="#fff" opacity=".377"/></g><g transform="matrix(.08779 0 0 .102 22.63 92.16)" fill-rule="evenodd" opacity=".03"><path d="m-1975 351.2h492.5l-242.6-3.858-249.9 3.858z" opacity=".377"/><path d="m-1975 351.3h492.5l-242.6 3.354-249.9-3.354z" fill="#fff" opacity=".377"/></g><g transform="matrix(.06764 0 0 .07002 -16.05 100.9)" fill-rule="evenodd" opacity=".03"><path d="m-1975 351.2h492.5l-242.6-3.858-249.9 3.858z" opacity=".377"/><path d="m-1975 351.3h492.5l-242.6 3.354-249.9-3.354z" fill="#fff" opacity=".377"/></g><g transform="matrix(.08779 0 0 .102 37.16 90.99)" fill-rule="evenodd" opacity=".03"><path transform="matrix(.7705 0 0 1.055 -1339 -934.9)" d="m-501.1 1216-324.3 3.656h461.2v-2.062l-136.9-1.594z" opacity=".377"/><path transform="matrix(.7705 0 0 1.055 -1339 -934.9)" d="m-825.4 1219 324.3 3.188 136.9-1.375v-1.813h-461.2z" fill="#fff" opacity=".377"/></g><g transform="matrix(.08779 0 0 .102 22.63 92.16)" fill-rule="evenodd" opacity=".03"><path d="m-1975 351.2h492.5l-242.6-3.858-249.9 3.858z" opacity=".377"/><path transform="matrix(.7705 0 0 1.055 -1185 -946.3)" d="m-1019 1230v0.062l317.3 3.125 314.9-3.188h-632.2z" fill="#fff" opacity=".377"/></g><g transform="matrix(-.05296 0 0 .07002 -225.3 116)" fill-rule="evenodd" opacity=".03"><path d="m-1975 351.2h492.5l-242.6-3.858-249.9 3.858z" opacity=".377"/><path d="m-1975 351.3h492.5l-242.6 3.354-249.9-3.354z" fill="#fff" opacity=".377"/></g><g transform="matrix(-.06874 0 0 .102 -256.6 107.2)" fill-rule="evenodd" opacity=".03"><path transform="matrix(-.984 0 0 1.055 -2548 -1094)" d="m-836 1367-182.5 2.719v0.9374h436.4l-253.9-3.656z" opacity=".377"/><path transform="matrix(-.984 0 0 1.055 -2548 -1094)" d="m-1018 1370v0.8125l182.5 2.344 253.9-3.156h-436.4z" fill="#fff" opacity=".377"/></g><g transform="matrix(-.05296 0 0 .07002 -223.5 113.7)" fill-rule="evenodd" opacity=".03"><path d="m-1975 351.2h492.5l-242.6-3.858-249.9 3.858z" opacity=".377"/><path d="m-1975 351.3h492.5l-242.6 3.354-249.9-3.354z" fill="#fff" opacity=".377"/></g><g transform="matrix(-.06874 0 0 .102 -254.8 105)" fill-rule="evenodd" opacity=".03"><path transform="matrix(-.984 0 0 1.055 -2522 -1072)" d="m-809.6 1345-208.9 3.094v0.5625h462.8l-254-3.656z" opacity=".377"/><path transform="matrix(-.984 0 0 1.055 -2522 -1072)" d="m-1018 1349v0.5l208.9 2.687 254-3.187h-462.8z" fill="#fff" opacity=".377"/></g><g transform="matrix(-.05296 0 0 .07002 -223.5 113.7)" fill-rule="evenodd" opacity=".03"><path d="m-1975 351.2h492.5l-242.6-3.858-249.9 3.858z" opacity=".377"/><path d="m-1975 351.3h492.5l-242.6 3.354-249.9-3.354z" fill="#fff" opacity=".377"/></g><g transform="matrix(-.06874 0 0 .102 -254.8 105)" fill-rule="evenodd" opacity=".03"><path transform="matrix(-.984 0 0 1.055 -2522 -1072)" d="m-809.6 1345-208.9 3.094v0.5625h462.8l-254-3.656z" opacity=".377"/><path transform="matrix(-.984 0 0 1.055 -2522 -1072)" d="m-1018 1349v0.5l208.9 2.687 254-3.187h-462.8z" fill="#fff" opacity=".377"/></g><g transform="matrix(-.05296 0 0 .07002 -230.8 111.3)" fill-rule="evenodd" opacity=".03"><path transform="matrix(-1.277 0 0 1.536 -2821 -1651)" d="m-857.8 1301-160.7 2.125v0.375h356.4l-195.7-2.5z" opacity=".377"/><path transform="matrix(-1.277 0 0 1.536 -2821 -1651)" d="m-1018 1303v0.3437l160.7 1.844 195.7-2.188h-356.4z" fill="#fff" opacity=".377"/></g><g transform="matrix(-.05296 0 0 .07002 -229 109)" fill-rule="evenodd" opacity=".03"><path d="m-1975 351.2h492.5l-242.6-3.858-249.9 3.858z" opacity=".377"/><path d="m-1975 351.3h492.5l-242.6 3.354-249.9-3.354z" fill="#fff" opacity=".377"/></g><g transform="matrix(-.06874 0 0 .102 -259.3 100.2)" fill-rule="evenodd" opacity=".03"><path transform="matrix(-.984 0 0 1.055 -2588 -1025)" d="m-876.6 1301-141.9 2.094v1.563h395.9l-253.9-3.656z" opacity=".377"/><path transform="matrix(-.984 0 0 1.055 -2588 -1025)" d="m-1018 1305v1.344l141.9 1.844 253.9-3.188h-395.9z" fill="#fff" opacity=".377"/></g><g transform="matrix(-.05296 0 0 .07002 -229 109)" fill-rule="evenodd" opacity=".03"><path d="m-1975 351.2h492.5l-242.6-3.858-249.9 3.858z" opacity=".377"/><path d="m-1975 351.3h492.5l-242.6 3.354-249.9-3.354z" fill="#fff" opacity=".377"/></g><g transform="matrix(-.06874 0 0 .102 -259.3 100.2)" fill-rule="evenodd" opacity=".03"><path transform="matrix(-.984 0 0 1.055 -2588 -1025)" d="m-876.6 1301-141.9 2.094v1.563h395.9l-253.9-3.656z" opacity=".377"/><path transform="matrix(-.984 0 0 1.055 -2588 -1025)" d="m-1018 1305v1.344l141.9 1.844 253.9-3.188h-395.9z" fill="#fff" opacity=".377"/></g><g transform="matrix(.06764 0 0 .07002 -8.764 116.8)" fill-rule="evenodd" opacity=".03"><path d="m-1975 351.2h492.5l-242.6-3.858-249.9 3.858z" opacity=".377"/><path d="m-1975 351.3h492.5l-242.6 3.354-249.9-3.354z" fill="#fff" opacity=".377"/></g><g transform="matrix(.08779 0 0 .102 29.91 108)" fill-rule="evenodd" opacity=".02"><path transform="matrix(.7705 0 0 1.055 -1257 -1102)" d="m-608.3 1374-324.3 3.656h568.4v-0.8126l-244.1-2.844z" opacity=".377"/><path transform="matrix(.7705 0 0 1.055 -1257 -1102)" d="m-932.7 1378 324.3 3.188 244.1-2.469v-0.7187h-568.4z" fill="#fff" opacity=".377"/></g><g transform="matrix(.06764 0 0 .07002 -6.976 114.5)" fill-rule="evenodd" opacity=".03"><path d="m-1975 351.2h492.5l-242.6-3.858-249.9 3.858z" opacity=".377"/><path d="m-1975 351.3h492.5l-242.6 3.354-249.9-3.354z" fill="#fff" opacity=".377"/></g><g transform="matrix(.08779 0 0 .102 31.7 105.7)" fill-rule="evenodd" opacity=".03"><path transform="matrix(.7705 0 0 1.055 -1277 -1080)" d="m-581.9 1353-324.3 3.656h542v-1.125l-217.7-2.531z" opacity=".377"/><path transform="matrix(.7705 0 0 1.055 -1277 -1080)" d="m-906.2 1357 324.3 3.156 217.7-2.188v-0.9687h-542z" fill="#fff" opacity=".377"/></g><g transform="matrix(.06764 0 0 .07002 -6.976 114.5)" fill-rule="evenodd" opacity=".03"><path d="m-1975 351.2h492.5l-242.6-3.858-249.9 3.858z" opacity=".377"/><path d="m-1975 351.3h492.5l-242.6 3.354-249.9-3.354z" fill="#fff" opacity=".377"/></g><g transform="matrix(.08779 0 0 .102 31.7 105.7)" fill-rule="evenodd" opacity=".03"><path transform="matrix(.7705 0 0 1.055 -1277 -1080)" d="m-581.9 1353-324.3 3.656h542v-1.125l-217.7-2.531z" opacity=".377"/><path transform="matrix(.7705 0 0 1.055 -1277 -1080)" d="m-906.2 1357 324.3 3.156 217.7-2.188v-0.9687h-542z" fill="#fff" opacity=".377"/></g><g transform="matrix(.06764 0 0 .07002 -13.29 112.1)" fill-rule="evenodd" opacity=".03"><path d="m-1975 351.2h492.5l-242.6-3.858-249.9 3.858z" opacity=".377"/><path d="m-1975 351.3h492.5l-242.6 3.354-249.9-3.354z" fill="#fff" opacity=".377"/></g><g transform="matrix(.08779 0 0 .102 24.38 103.3)" fill-rule="evenodd" opacity=".03"><path d="m-1975 351.2h492.5l-242.6-3.858-249.9 3.858z" opacity=".377"/><path d="m-1975 351.3h492.5l-242.6 3.354-249.9-3.354z" fill="#fff" opacity=".377"/></g><g transform="matrix(.06764 0 0 .07002 -11.5 109.8)" fill-rule="evenodd" opacity=".03"><path d="m-1975 351.2h492.5l-242.6-3.858-249.9 3.858z" opacity=".377"/><path d="m-1975 351.3h492.5l-242.6 3.354-249.9-3.354z" fill="#fff" opacity=".377"/></g><g transform="matrix(.08779 0 0 .102 27.17 101)" fill-rule="evenodd" opacity=".03"><path transform="matrix(.7705 0 0 1.055 -1225 -1033)" d="m-648.8 1309-324.3 3.656h609v-0.3437l-284.6-3.312z" opacity=".377"/><path transform="matrix(.7705 0 0 1.055 -1225 -1033)" d="m-973.2 1312 324.3 3.188 284.6-2.875v-0.3125h-609z" fill="#fff" opacity=".377"/></g><g transform="matrix(.06764 0 0 .07002 -11.5 109.8)" fill-rule="evenodd" opacity=".03"><path d="m-1975 351.2h492.5l-242.6-3.858-249.9 3.858z" opacity=".377"/><path d="m-1975 351.3h492.5l-242.6 3.354-249.9-3.354z" fill="#fff" opacity=".377"/></g><g transform="matrix(.08295 0 0 .102 17.61 101)" fill-rule="evenodd" opacity=".03"><path d="m-1975 351.2h492.5l-242.6-3.858-249.9 3.858z" opacity=".377"/><path d="m-1975 351.3h492.5l-242.6 3.354-249.9-3.354z" fill="#fff" opacity=".377"/></g><g transform="matrix(-.05296 0 0 .07002 -228.6 121.6)" fill-rule="evenodd" opacity=".02"><path d="m-1975 351.2h492.5l-242.6-3.858-249.9 3.858z" opacity=".377"/><path d="m-1975 351.3h492.5l-242.6 3.354-249.9-3.354z" fill="#fff" opacity=".377"/></g><g transform="matrix(-.06874 0 0 .102 -258.9 112.9)" fill-rule="evenodd" opacity=".02"><path transform="matrix(-.984 0 0 1.055 -2582 -1149)" d="m-870.9 1419-147.6 2.188v1.469h401.5l-254-3.656z" opacity=".377"/><path transform="matrix(-.984 0 0 1.055 -2582 -1149)" d="m-1018 1423v1.281l147.6 1.906 254-3.188h-401.5z" fill="#fff" opacity=".377"/></g><g transform="matrix(-.05296 0 0 .07002 -226.8 119.4)" fill-rule="evenodd" opacity=".02"><path d="m-1975 351.2h492.5l-242.6-3.858-249.9 3.858z" opacity=".377"/><path d="m-1975 351.3h492.5l-242.6 3.354-249.9-3.354z" fill="#fff" opacity=".377"/></g><g transform="matrix(-.06874 0 0 .102 -257.1 110.6)" fill-rule="evenodd" opacity=".02"><path transform="matrix(-.984 0 0 1.055 -2556 -1127)" d="m-844.5 1398-174 2.594v1.063h427.9l-253.9-3.656z" opacity=".377"/><path transform="matrix(-.984 0 0 1.055 -2556 -1127)" d="m-1018 1402v0.9375l174 2.219 253.9-3.156h-427.9z" fill="#fff" opacity=".377"/></g><g transform="matrix(-.05296 0 0 .07002 -226.8 119.4)" fill-rule="evenodd" opacity=".02"><path d="m-1975 351.2h492.5l-242.6-3.858-249.9 3.858z" opacity=".377"/><path d="m-1975 351.3h492.5l-242.6 3.354-249.9-3.354z" fill="#fff" opacity=".377"/></g><g transform="matrix(-.06874 0 0 .102 -257.1 110.6)" fill-rule="evenodd" opacity=".02"><path transform="matrix(-.984 0 0 1.055 -2556 -1127)" d="m-844.5 1398-174 2.594v1.063h427.9l-253.9-3.656z" opacity=".377"/><path transform="matrix(-.984 0 0 1.055 -2556 -1127)" d="m-1018 1402v0.9375l174 2.219 253.9-3.156h-427.9z" fill="#fff" opacity=".377"/></g><g transform="matrix(-.05296 0 0 .07002 -233.2 116.9)" fill-rule="evenodd" opacity=".03"><path transform="matrix(-1.277 0 0 1.536 -2865 -1732)" d="m-892.7 1353-125.8 1.688v0.8438h321.5l-195.7-2.531z" opacity=".377"/><path transform="matrix(-1.277 0 0 1.536 -2865 -1732)" d="m-1018 1356v0.7188l125.8 1.438 195.7-2.156h-321.5z" fill="#fff" opacity=".377"/></g><g transform="matrix(-.05296 0 0 .07002 -231.4 114.6)" fill-rule="evenodd" opacity=".03"><path transform="matrix(-1.277 0 0 1.536 -2832 -1699)" d="m-866.2 1332-152.3 2v0.5h347.9l-195.7-2.5z" opacity=".377"/><path transform="matrix(-1.277 0 0 1.536 -2832 -1699)" d="m-1018 1335v0.4375l152.3 1.75 195.7-2.188h-347.9z" fill="#fff" opacity=".377"/></g><g transform="matrix(-.05296 0 0 .07002 -231.4 114.6)" fill-rule="evenodd" opacity=".03"><path transform="matrix(-1.277 0 0 1.536 -2832 -1699)" d="m-866.2 1332-152.3 2v0.5h347.9l-195.7-2.5z" opacity=".377"/><path transform="matrix(-1.277 0 0 1.536 -2832 -1699)" d="m-1018 1335v0.4375l152.3 1.75 195.7-2.188h-347.9z" fill="#fff" opacity=".377"/></g><g transform="matrix(.06764 0 0 .07002 -11.12 122.4)" fill-rule="evenodd" opacity=".02"><path d="m-1975 351.2h492.5l-242.6-3.858-249.9 3.858z" opacity=".377"/><path d="m-1975 351.3h492.5l-242.6 3.354-249.9-3.354z" fill="#fff" opacity=".377"/></g><g transform="matrix(.08779 0 0 .102 27.55 113.7)" fill-rule="evenodd" opacity=".02"><path transform="matrix(.7705 0 0 1.055 -1230 -1157)" d="m-643.2 1426-324.3 3.656h603.3v-0.4063l-279-3.25z" opacity=".377"/><path transform="matrix(.7705 0 0 1.055 -1230 -1157)" d="m-967.5 1430 324.3 3.188 279-2.813v-0.375h-603.3z" fill="#fff" opacity=".377"/></g><g transform="matrix(.06764 0 0 .07002 -9.336 120.1)" fill-rule="evenodd" opacity=".02"><path d="m-1975 351.2h492.5l-242.6-3.858-249.9 3.858z" opacity=".377"/><path d="m-1975 351.3h492.5l-242.6 3.354-249.9-3.354z" fill="#fff" opacity=".377"/></g><g transform="matrix(.08779 0 0 .102 29.34 111.4)" fill-rule="evenodd" opacity=".02"><path transform="matrix(.7705 0 0 1.055 -1250 -1135)" d="m-616.8 1405-324.3 3.656h576.9v-0.7187l-252.6-2.938z" opacity=".377"/><path transform="matrix(.7705 0 0 1.055 -1250 -1135)" d="m-941.1 1409 324.3 3.188 252.6-2.562v-0.625h-576.9z" fill="#fff" opacity=".377"/></g><g transform="matrix(.06764 0 0 .07002 -9.336 120.1)" fill-rule="evenodd" opacity=".02"><path d="m-1975 351.2h492.5l-242.6-3.858-249.9 3.858z" opacity=".377"/><path d="m-1975 351.3h492.5l-242.6 3.354-249.9-3.354z" fill="#fff" opacity=".377"/></g><g transform="matrix(.08779 0 0 .102 29.34 111.4)" fill-rule="evenodd" opacity=".02"><path transform="matrix(.7705 0 0 1.055 -1250 -1135)" d="m-616.8 1405-324.3 3.656h576.9v-0.7187l-252.6-2.938z" opacity=".377"/><path transform="matrix(.7705 0 0 1.055 -1250 -1135)" d="m-941.1 1409 324.3 3.188 252.6-2.562v-0.625h-576.9z" fill="#fff" opacity=".377"/></g><g transform="matrix(.06764 0 0 .07002 -16.65 117.7)" fill-rule="evenodd" opacity=".03"><path d="m-1975 351.2h492.5l-242.6-3.858-249.9 3.858z" opacity=".377"/><path d="m-1975 351.3h492.5l-242.6 3.354-249.9-3.354z" fill="#fff" opacity=".377"/></g><g transform="matrix(.08779 0 0 .102 36.55 107.7)" fill-rule="evenodd" opacity=".03"><path transform="matrix(.7705 0 0 1.055 -1332 -1099)" d="m-510.1 1371-324.3 3.656h470.2v-1.969l-145.9-1.688z" opacity=".377"/><path transform="matrix(.7705 0 0 1.055 -1332 -1099)" d="m-834.4 1375 324.3 3.188 145.9-1.469v-1.719h-470.2z" fill="#fff" opacity=".377"/></g><g transform="matrix(.08779 0 0 .102 22.02 108.9)" fill-rule="evenodd" opacity=".02"><path d="m-1975 351.2h492.5l-242.6-3.858-249.9 3.858z" opacity=".377"/><path d="m-1975 351.3h492.5l-242.6 3.354-249.9-3.354z" fill="#fff" opacity=".377"/></g><g transform="matrix(.06764 0 0 .07002 -14.87 115.4)" fill-rule="evenodd" opacity=".03"><path d="m-1975 351.2h492.5l-242.6-3.858-249.9 3.858z" opacity=".377"/><path d="m-1975 351.3h492.5l-242.6 3.354-249.9-3.354z" fill="#fff" opacity=".377"/></g><g transform="matrix(.08779 0 0 .102 23.81 106.6)" fill-rule="evenodd" opacity=".03"><path d="m-1975 351.2h492.5l-242.6-3.858-249.9 3.858z" opacity=".377"/><path d="m-1975 351.3h492.5l-242.6 3.354-249.9-3.354z" fill="#fff" opacity=".377"/></g><g transform="matrix(.06764 0 0 .07002 -14.87 115.4)" fill-rule="evenodd" opacity=".03"><path d="m-1975 351.2h492.5l-242.6-3.858-249.9 3.858z" opacity=".377"/><path d="m-1975 351.3h492.5l-242.6 3.354-249.9-3.354z" fill="#fff" opacity=".377"/></g><g transform="matrix(.08779 0 0 .102 23.81 106.6)" fill-rule="evenodd" opacity=".03"><path d="m-1975 351.2h492.5l-242.6-3.858-249.9 3.858z" opacity=".377"/><path d="m-1975 351.3h492.5l-242.6 3.354-249.9-3.354z" fill="#fff" opacity=".377"/></g><g transform="matrix(-.05296 0 0 .07002 -224.1 130.5)" fill-rule="evenodd" opacity=".01"><path d="m-1975 351.2h492.5l-242.6-3.858-249.9 3.858z" opacity=".377"/><path d="m-1975 351.3h492.5l-242.6 3.354-249.9-3.354z" fill="#fff" opacity=".377"/></g><g transform="matrix(-.06874 0 0 .102 -255.4 121.7)" fill-rule="evenodd" opacity=".01"><path d="m-1975 351.2h429.4l-179.5-3.858-249.9 3.858z" opacity=".377"/><path d="m-1975 351.3 427 2.154-177.1 1.199-249.9-3.354z" fill="#fff" opacity=".377"/></g><g transform="matrix(-.05296 0 0 .07002 -222.3 128.2)" fill-rule="evenodd" opacity=".01"><path d="m-1975 351.2h492.5l-242.6-3.858-249.9 3.858z" opacity=".377"/><path d="m-1975 351.3h492.5l-242.6 3.354-249.9-3.354z" fill="#fff" opacity=".377"/></g><g transform="matrix(-.06874 0 0 .102 -253.6 119.4)" fill-rule="evenodd" opacity=".01"><path d="m-1975 351.2h492.5l-242.6-3.858-249.9 3.858z" opacity=".377"/><path d="m-1975 351.3 468.6 0.5386-242.6 3.354-225.9-3.892z" fill="#fff" opacity=".377"/></g><g transform="matrix(-.05296 0 0 .07002 -222.3 128.2)" fill-rule="evenodd" opacity=".01"><path d="m-1975 351.2h492.5l-242.6-3.858-249.9 3.858z" opacity=".377"/><path d="m-1975 351.3h492.5l-242.6 3.354-249.9-3.354z" fill="#fff" opacity=".377"/></g><g transform="matrix(-.06874 0 0 .102 -253.6 119.4)" fill-rule="evenodd" opacity=".01"><path d="m-1975 351.2 468.2 1.795-218.3-5.653-249.9 3.858z" opacity=".377"/><path transform="matrix(-.984 0 0 1.055 -2505 -1214)" d="m-1018 1484v0.25l226.3 2.938 253.9-3.188h-480.3z" fill="#fff" opacity=".377"/></g><g transform="matrix(-.05296 0 0 .07002 -229.6 125.7)" fill-rule="evenodd" opacity=".02"><path d="m-1975 351.2h492.5l-242.6-3.858-249.9 3.858z" opacity=".377"/><path d="m-1975 351.3h492.5l-242.6 3.354-249.9-3.354z" fill="#fff" opacity=".377"/></g><g transform="matrix(-.05296 0 0 .07002 -227.8 123.5)" fill-rule="evenodd" opacity=".02"><path d="m-1975 351.2h492.5l-242.6-3.858-249.9 3.858z" opacity=".377"/><path d="m-1975 351.3h492.5l-242.6 3.354-249.9-3.354z" fill="#fff" opacity=".377"/></g><g transform="matrix(-.06874 0 0 .102 -258.1 114.7)" fill-rule="evenodd" opacity=".02"><path transform="matrix(-.984 0 0 1.055 -2571 -1167)" d="m-859.1 1436-159.4 2.375v1.281h413.3l-253.9-3.656z" opacity=".377"/><path transform="matrix(-.984 0 0 1.055 -2571 -1167)" d="m-1018 1440v1.125l159.4 2.062 253.9-3.187h-413.3z" fill="#fff" opacity=".377"/></g><g transform="matrix(-.05296 0 0 .07002 -227.8 123.5)" fill-rule="evenodd" opacity=".02"><path d="m-1975 351.2h492.5l-242.6-3.858-249.9 3.858z" opacity=".377"/><path d="m-1975 351.3h492.5l-242.6 3.354-249.9-3.354z" fill="#fff" opacity=".377"/></g><g transform="matrix(-.06874 0 0 .102 -258.1 114.7)" fill-rule="evenodd" opacity=".02"><path transform="matrix(-.984 0 0 1.055 -2571 -1167)" d="m-859.1 1436-159.4 2.375v1.281h413.3l-253.9-3.656z" opacity=".377"/><path transform="matrix(-.984 0 0 1.055 -2571 -1167)" d="m-1018 1440v1.125l159.4 2.062 253.9-3.187h-413.3z" fill="#fff" opacity=".377"/></g><g transform="matrix(.06764 0 0 .07002 -7.584 131.3)" fill-rule="evenodd" opacity=".01"><path d="m-1975 351.2h492.5l-242.6-3.858-249.9 3.858z" opacity=".377"/><path d="m-1975 351.3h492.5l-242.6 3.354-249.9-3.354z" fill="#fff" opacity=".377"/></g><g transform="matrix(.08779 0 0 .102 31.09 122.5)" fill-rule="evenodd" opacity=".01"><path d="m-1975 351.2h492.5l-242.6-3.858-249.9 3.858z" opacity=".377"/><path d="m-1975 351.3h492.5l-242.6 3.354-249.9-3.354z" fill="#fff" opacity=".377"/></g><g transform="matrix(.06764 0 0 .07002 -5.796 129)" fill-rule="evenodd" opacity=".01"><path d="m-1975 351.2h492.5l-242.6-3.858-249.9 3.858z" opacity=".377"/><path d="m-1975 351.3h492.5l-242.6 3.354-249.9-3.354z" fill="#fff" opacity=".377"/></g><g transform="matrix(.08779 0 0 .102 32.88 120.2)" fill-rule="evenodd" opacity=".01"><path d="m-1975 351.2h492.5l-242.6-3.858-249.9 3.858z" opacity=".377"/><path d="m-1975 351.3h492.5l-242.6 3.354-249.9-3.354z" fill="#fff" opacity=".377"/></g><g transform="matrix(.06764 0 0 .07002 -5.796 129)" fill-rule="evenodd" opacity=".01"><path d="m-1975 351.2h492.5l-242.6-3.858-249.9 3.858z" opacity=".377"/><path d="m-1975 351.3h492.5l-242.6 3.354-249.9-3.354z" fill="#fff" opacity=".377"/></g><g transform="matrix(.08779 0 0 .102 32.88 120.2)" fill-rule="evenodd" opacity=".01"><path d="m-1975 351.2h492.5l-242.6-3.858-249.9 3.858z" opacity=".377"/><path d="m-1975 351.3h492.5l-242.6 3.354-249.9-3.354z" fill="#fff" opacity=".377"/></g><g transform="matrix(.06764 0 0 .07002 -12.11 126.5)" fill-rule="evenodd" opacity=".02"><path d="m-1975 351.2h492.5l-242.6-3.858-249.9 3.858z" opacity=".377"/><path d="m-1975 351.3h492.5l-242.6 3.354-249.9-3.354z" fill="#fff" opacity=".377"/></g><g transform="matrix(.08779 0 0 .102 26.56 117.8)" fill-rule="evenodd" opacity=".01"><path d="m-1975 351.2h492.5l-242.6-3.858-249.9 3.858z" opacity=".377"/><path d="m-1975 351.3h492.5l-242.6 3.354-249.9-3.354z" fill="#fff" opacity=".377"/></g><g transform="matrix(.06764 0 0 .07002 -10.33 124.3)" fill-rule="evenodd" opacity=".02"><path d="m-1975 351.2h492.5l-242.6-3.858-249.9 3.858z" opacity=".377"/><path d="m-1975 351.3h492.5l-242.6 3.354-249.9-3.354z" fill="#fff" opacity=".377"/></g><g transform="matrix(.08779 0 0 .102 28.35 115.5)" fill-rule="evenodd" opacity=".01"><path transform="matrix(.7705 0 0 1.055 -1239 -1175)" d="m-631.4 1443-324.3 3.656h591.5v-0.5626l-267.2-3.094z" opacity=".377"/><path transform="matrix(.7705 0 0 1.055 -1239 -1175)" d="m-955.8 1447 324.3 3.188 267.2-2.719v-0.4687h-591.5z" fill="#fff" opacity=".377"/></g><g transform="matrix(.06764 0 0 .07002 -10.33 124.3)" fill-rule="evenodd" opacity=".02"><path d="m-1975 351.2h492.5l-242.6-3.858-249.9 3.858z" opacity=".377"/><path d="m-1975 351.3h492.5l-242.6 3.354-249.9-3.354z" fill="#fff" opacity=".377"/></g><g transform="matrix(.08119 0 0 .102 15.32 115.5)" fill-rule="evenodd" opacity=".01"><path d="m-1975 351.2h492.5l-242.6-3.858-249.9 3.858z" opacity=".377"/><path d="m-1975 351.3h492.5l-242.6 3.354-249.9-3.354z" fill="#fff" opacity=".377"/></g><g transform="matrix(-.06874 0 0 .102 -261.4 82.57)" fill-rule="evenodd" opacity=".04098"><path transform="matrix(-.984 0 0 1.055 -2619 -852.3)" d="m-908.3 1137-110.2 1.625v2.031h364.2l-254-3.656z" opacity=".377"/><path transform="matrix(-.984 0 0 1.055 -2619 -852.3)" d="m-1018 1141v1.75l110.2 1.406 254-3.156h-364.2z" fill="#fff" opacity=".377"/></g><g transform="matrix(.08779 0 0 .102 24.02 83.36)" fill-rule="evenodd" opacity=".04098"><path d="m-1975 351.2h492.5l-242.6-3.858-249.9 3.858z" opacity=".377"/><path d="m-1975 351.3h492.5l-242.6 3.354-249.9-3.354z" fill="#fff" opacity=".377"/></g><g transform="matrix(-.05296 0 0 .07002 -227.6 100.2)" fill-rule="evenodd" opacity=".04098"><path d="m-1975 351.2h492.5l-242.6-3.858-249.9 3.858z" opacity=".377"/><path d="m-1975 351.3h492.5l-242.6 3.354-249.9-3.354z" fill="#fff" opacity=".377"/></g><g transform="matrix(-.06874 0 0 .102 -257.9 91.42)" fill-rule="evenodd" opacity=".03"><path transform="matrix(-.984 0 0 1.055 -2568 -939)" d="m-856 1220-162.5 2.406v1.25h416.5l-253.9-3.656z" opacity=".377"/><path transform="matrix(-.984 0 0 1.055 -2568 -939)" d="m-1018 1223v1.094l162.5 2.094 253.9-3.187h-416.5z" fill="#fff" opacity=".377"/></g><g transform="matrix(-.05296 0 0 .07002 -224.8 97.91)" fill-rule="evenodd" opacity=".04098"><path d="m-1975 351.2h492.5l-242.6-3.858-249.9 3.858z" opacity=".377"/><path d="m-1975 351.3h492.5l-242.6 3.354-249.9-3.354z" fill="#fff" opacity=".377"/></g><g transform="matrix(-.06874 0 0 .102 -256.1 89.14)" fill-rule="evenodd" opacity=".04098"><path transform="matrix(-.984 0 0 1.055 -2542 -916.7)" d="m-829.5 1198-189 2.812v0.875h442.9l-253.9-3.688z" opacity=".377"/><path transform="matrix(-.984 0 0 1.055 -2542 -916.7)" d="m-1018 1202v0.75l189 2.438 253.9-3.188h-442.9z" fill="#fff" opacity=".377"/></g><g transform="matrix(-.05296 0 0 .07002 -224.8 97.91)" fill-rule="evenodd" opacity=".04098"><path d="m-1975 351.2h492.5l-242.6-3.858-249.9 3.858z" opacity=".377"/><path d="m-1975 351.3h492.5l-242.6 3.354-249.9-3.354z" fill="#fff" opacity=".377"/></g><g transform="matrix(-.06874 0 0 .102 -256.1 89.14)" fill-rule="evenodd" opacity=".04098"><path transform="matrix(-.984 0 0 1.055 -2542 -916.7)" d="m-829.5 1198-189 2.812v0.875h442.9l-253.9-3.688z" opacity=".377"/><path transform="matrix(-.984 0 0 1.055 -2542 -916.7)" d="m-1018 1202v0.75l189 2.438 253.9-3.188h-442.9z" fill="#fff" opacity=".377"/></g><g transform="matrix(-.05296 0 0 .07002 -232.2 95.45)" fill-rule="evenodd" opacity=".04098"><path transform="matrix(-1.277 0 0 1.536 -2846 -1425)" d="m-877.7 1154-140.8 1.844v0.6563h336.5l-195.7-2.5z" opacity=".377"/><path transform="matrix(-1.277 0 0 1.536 -2846 -1425)" d="m-1018 1156v0.5626l140.8 1.625 195.7-2.188h-336.5z" fill="#fff" opacity=".377"/></g><g transform="matrix(-.06874 0 0 .102 -260.6 84.4)" fill-rule="evenodd" opacity=".04098"><path transform="matrix(-.984 0 0 1.055 -2607 -870.3)" d="m-896.5 1154-122 1.813v1.844h375.9l-253.9-3.656z" opacity=".377"/><path transform="matrix(-.984 0 0 1.055 -2607 -870.3)" d="m-1018 1158v1.594l122 1.562 253.9-3.156h-375.9z" fill="#fff" opacity=".377"/></g><g transform="matrix(-.06874 0 0 .102 -260.6 84.4)" fill-rule="evenodd" opacity=".04098"><path transform="matrix(-.984 0 0 1.055 -2607 -870.3)" d="m-896.5 1154-122 1.813v1.844h375.9l-253.9-3.656z" opacity=".377"/><path transform="matrix(-.984 0 0 1.055 -2607 -870.3)" d="m-1018 1158v1.594l122 1.562 253.9-3.156h-375.9z" fill="#fff" opacity=".377"/></g><g transform="matrix(.06764 0 0 .07002 -10.11 101)" fill-rule="evenodd" opacity=".03"><path d="m-1975 351.2h492.5l-242.6-3.858-249.9 3.858z" opacity=".377"/><path d="m-1975 351.3h492.5l-242.6 3.354-249.9-3.354z" fill="#fff" opacity=".377"/></g><g transform="matrix(.08779 0 0 .102 28.56 92.21)" fill-rule="evenodd" opacity=".03"><path transform="matrix(.7705 0 0 1.055 -1241 -946.8)" d="m-628.2 1227-324.3 3.656h588.4v-0.5938l-264-3.062z" opacity=".377"/><path transform="matrix(.7705 0 0 1.055 -1241 -946.8)" d="m-952.6 1231 324.3 3.188 264-2.688v-0.5h-588.4z" fill="#fff" opacity=".377"/></g><g transform="matrix(.06764 0 0 .07002 -8.324 98.7)" fill-rule="evenodd" opacity=".04098"><path d="m-1975 351.2h492.5l-242.6-3.858-249.9 3.858z" opacity=".377"/><path d="m-1975 351.3h492.5l-242.6 3.354-249.9-3.354z" fill="#fff" opacity=".377"/></g><g transform="matrix(.08779 0 0 .102 30.35 89.93)" fill-rule="evenodd" opacity=".03"><path transform="matrix(.7705 0 0 1.055 -1262 -924.5)" d="m-601.8 1206-324.3 3.656h561.9v-0.9063l-237.6-2.75z" opacity=".377"/><path transform="matrix(.7705 0 0 1.055 -1262 -924.5)" d="m-926.2 1210 324.3 3.188 237.6-2.406v-0.7813h-561.9z" fill="#fff" opacity=".377"/></g><g transform="matrix(.06764 0 0 .07002 -8.324 98.7)" fill-rule="evenodd" opacity=".04098"><path d="m-1975 351.2h492.5l-242.6-3.858-249.9 3.858z" opacity=".377"/><path d="m-1975 351.3h492.5l-242.6 3.354-249.9-3.354z" fill="#fff" opacity=".377"/></g><g transform="matrix(.06764 0 0 .07002 -15.64 96.24)" fill-rule="evenodd" opacity=".04098"><path d="m-1975 351.2h492.5l-242.6-3.858-249.9 3.858z" opacity=".377"/><path d="m-1975 351.3h492.5l-242.6 3.354-249.9-3.354z" fill="#fff" opacity=".377"/></g><g transform="matrix(.08779 0 0 .102 23.03 87.47)" fill-rule="evenodd" opacity=".04098"><path d="m-1975 351.2h492.5l-242.6-3.858-249.9 3.858z" opacity=".377"/><path d="m-1975 351.3h492.5l-242.6 3.354-249.9-3.354z" fill="#fff" opacity=".377"/></g><g transform="matrix(.06764 0 0 .07002 -12.85 93.96)" fill-rule="evenodd" opacity=".04098"><path d="m-1975 351.2h492.5l-242.6-3.858-249.9 3.858z" opacity=".377"/><path d="m-1975 351.3h492.5l-242.6 3.354-249.9-3.354z" fill="#fff" opacity=".377"/></g><g transform="matrix(.08779 0 0 .102 24.82 85.19)" fill-rule="evenodd" opacity=".04098"><path d="m-1975 351.2h492.5l-242.6-3.858-249.9 3.858z" opacity=".377"/><path d="m-1975 351.3h492.5l-242.6 3.354-249.9-3.354z" fill="#fff" opacity=".377"/></g><g transform="matrix(.06764 0 0 .07002 -12.85 93.96)" fill-rule="evenodd" opacity=".04098"><path d="m-1975 351.2h492.5l-242.6-3.858-249.9 3.858z" opacity=".377"/><path d="m-1975 351.3h492.5l-242.6 3.354-249.9-3.354z" fill="#fff" opacity=".377"/></g><g transform="matrix(.08515 0 0 .102 19.61 85.19)" fill-rule="evenodd" opacity=".04098"><path d="m-1975 351.2h492.5l-242.6-3.858-249.9 3.858z" opacity=".377"/><path d="m-1975 351.3h492.5l-242.6 3.354-249.9-3.354z" fill="#fff" opacity=".377"/></g><g fill-rule="evenodd"><path d="m-117.6 111.4h42.55l-20.96-0.3372-21.59 0.3372z" opacity=".04098"/><path d="m-76.64 111.4v0.021l-19.35 0.2727-21.59-0.2937h40.93z" fill="#fff" opacity=".04098"/><path d="m-120.5 108.5h42.55l-20.96-0.3371-21.59 0.3371z" opacity=".04098"/><path d="m-120.5 108.5h42.55l-20.96 0.293-21.59-0.293z" fill="#fff" opacity=".04098"/><path d="m-93.92 111.1 17.27 0.3105v0.1804h-45.29l28.02-0.4908z" opacity=".04098"/><path d="m-76.64 111.6v0.1552l-17.27 0.2685-28.02-0.4237h45.29z" fill="#fff" opacity=".04098"/><path d="m-120.5 108.5h42.55l-20.96-0.3371-21.59 0.3371z" opacity=".04098"/><path d="m-120.5 108.5h42.55l-20.96 0.293-21.59-0.293z" fill="#fff" opacity=".04098"/><path d="m-93.92 111.1 17.27 0.3105v0.1804h-45.29l28.02-0.4908z" opacity=".04098"/><path d="m-76.64 111.6v0.1552l-17.27 0.2685-28.02-0.4237h45.29z" fill="#fff" opacity=".04098"/><path d="m-88.6 105.7 11.96 0.1546v0.1177h-33.55l21.59-0.2723z" opacity=".06"/><path d="m-76.64 106v0.1008l-11.96 0.1311-21.59-0.232h33.55z" fill="#fff" opacity=".06"/><path d="m-100.2 103.5 22.34 0.1916v0.0773h-54.74l32.41-0.2689z" opacity=".06"/><path d="m-77.9 103.7v0.0672l-22.34 0.1681-32.41-0.2353h54.74z" fill="#fff" opacity=".06"/><path d="m-100.2 103.5 22.34 0.1916v0.0773h-54.74l32.41-0.2689z" opacity=".06"/><path d="m-77.9 103.7v0.0672l-22.34 0.1681-32.41-0.2353h54.74z" fill="#fff" opacity=".06"/><path d="m-82.18 112.4h-54.34l26.77-0.3371 27.57 0.3371z" opacity=".04098"/><path d="m-82.18 112.4h-54.34l26.77 0.2931 27.57-0.2931z" fill="#fff" opacity=".04098"/><path d="m-81.34 115.4h-70.52l34.74-0.491 35.78 0.491z" opacity=".04098"/><path d="m-81.34 115.4h-70.52l34.74 0.4268 35.78-0.4268z" fill="#fff" opacity=".04098"/><path d="m-85.1 109.5h-54.34l26.77-0.3371 27.57 0.3371z" opacity=".04098"/><path d="m-85.1 109.5h-54.34l26.77 0.293 27.57-0.293z" fill="#fff" opacity=".04098"/><path d="m-120 112.1 35.78 0.4908h-65.57v-0.0713l29.79-0.4196z" opacity=".04098"/><path d="m-84.26 112.6-35.78 0.4279-29.79-0.365v-0.0629h65.57z" fill="#fff" opacity=".04098"/><path d="m-85.1 109.5h-54.34l26.77-0.3371 27.57 0.3371z" opacity=".04098"/><path d="m-85.1 109.5h-54.34l26.77 0.293 27.57-0.293z" fill="#fff" opacity=".04098"/><path d="m-120 112.1 35.78 0.4908h-65.57v-0.0713l29.79-0.4196z" opacity=".04098"/><path d="m-84.26 112.6-35.78 0.4279-29.79-0.365v-0.0629h65.57z" fill="#fff" opacity=".04098"/><path d="m-74.79 106.8h-54.34l26.77-0.2701 27.57 0.2701z" opacity=".06"/><path d="m-76.64 106.8v0.0168l-25.72 0.2185-26.77-0.2353h52.49z" fill="#fff" opacity=".06"/><path d="m-74.58 109.5h-68.9l33.94-0.491 34.96 0.491z" opacity=".04098"/><path d="m-76.64 109.5v0.0462l-32.09 0.3818-34.74-0.428h66.83z" fill="#fff" opacity=".04098"/><path d="m-77.71 104.5h-54.34l26.77-0.2702 27.57 0.2702z" opacity=".06"/><path d="m-77.71 104.5h-54.34l26.77 0.2348 27.57-0.2348z" fill="#fff" opacity=".06"/><path d="m-134.7 105.4 35.78 0.3933h-50.88v-0.2219l15.1-0.1714z" opacity=".04098"/><path d="m-98.94 105.8-35.78 0.3429-15.1-0.1479v-0.195h50.88z" fill="#fff" opacity=".04098"/><path d="m-75.87 107h-70.52l34.74-0.3935 35.78 0.3935z" opacity=".06"/><path d="m-75.87 107h-70.52l34.74 0.3421 35.78-0.3421z" fill="#fff" opacity=".04098"/><path d="m-77.71 104.5h-54.34l26.77-0.2702 27.57 0.2702z" opacity=".06"/><path d="m-77.71 104.5h-54.34l26.77 0.2348 27.57-0.2348z" fill="#fff" opacity=".06"/><path d="m-134.7 105.4 35.78 0.3933h-50.88v-0.2219l15.1-0.1714z" opacity=".04098"/><path d="m-98.94 105.8-35.78 0.3429-15.1-0.1479v-0.195h50.88z" fill="#fff" opacity=".04098"/><path d="m-75.87 107h-70.52l34.74-0.3935 35.78 0.3935z" opacity=".06"/><path d="m-76.64 107v7e-3l-35.01 0.3362-34.74-0.3429h69.75z" fill="#fff" opacity=".04098"/><path d="m-123.3 119.6h42.55l-20.96-0.2701-21.59 0.2701z" opacity=".03"/><path d="m-123.3 119.6h42.55l-20.96 0.2348-21.59-0.2348z" fill="#fff" opacity=".03"/><path d="m-99.69 119.4 23.04 0.3328v0.0605h-51.06l28.02-0.3933z" opacity=".03"/><path d="m-76.64 119.8v0.0538l-23.04 0.2891-28.02-0.3429h51.06z" fill="#fff" opacity=".03"/><path d="m-99.69 119.4 23.04 0.3328v0.0605h-51.06l28.02-0.3933z" opacity=".03"/><path d="m-76.64 119.8v0.0538l-23.04 0.2891-28.02-0.3429h51.06z" fill="#fff" opacity=".03"/><path d="m-94.37 116.2 17.73 0.2853v0.0503h-39.32l21.59-0.3356z" opacity=".03"/><path d="m-76.64 116.5v0.0461l-17.73 0.2475-21.59-0.2937h39.32z" fill="#fff" opacity=".03"/><path d="m-118.9 113.7h42.55l-20.96-0.3371-21.59 0.3371z" opacity=".03"/><path d="m-118.9 113.7h42.55l-20.96 0.293-21.59-0.293z" fill="#fff" opacity=".03"/><path d="m-92.3 116.2 15.66 0.2811v0.2098h-43.68l28.02-0.4909z" opacity=".03"/><path d="m-76.64 116.7v0.1804l-15.66 0.2475-28.02-0.4279h43.68z" fill="#fff" opacity=".03"/><path d="m-118.9 113.7h42.55l-20.96-0.3371-21.59 0.3371z" opacity=".03"/><path d="m-118.9 113.7h42.55l-20.96 0.293-21.59-0.293z" fill="#fff" opacity=".03"/><path d="m-92.3 116.2 15.66 0.2811v0.2098h-43.68l28.02-0.4909z" opacity=".03"/><path d="m-76.64 116.7v0.1804l-15.66 0.2475-28.02-0.4279h43.68z" fill="#fff" opacity=".03"/><path d="m-87.95 120.4h-54.34l26.77-0.2701 27.57 0.2701z" opacity=".04098"/><path d="m-80.57 117.5h-54.34l26.77-0.3371 27.57 0.3371z" opacity=".03"/><path d="m-80.57 117.5h-54.34l26.77 0.293 27.57-0.293z" fill="#fff" opacity=".03"/><path d="m-83.48 114.7h-54.34l26.77-0.3371 27.57 0.3371z" opacity=".04098"/><path d="m-83.48 114.7h-54.34l26.77 0.293 27.57-0.293z" fill="#fff" opacity=".04098"/><path d="m-118.4 117.2 35.78 0.4908h-67.19v-0.0461l31.4-0.4447z" opacity=".04098"/><path d="m-83.48 114.7h-54.34l26.77-0.3371 27.57 0.3371z" opacity=".04098"/><path d="m-83.48 114.7h-54.34l26.77 0.293 27.57-0.293z" fill="#fff" opacity=".04098"/></g><g fill-rule="evenodd"><path d="m-82.64 117.7h-66.64l32.83-0.491 33.81 0.491z" opacity=".04098"/><path d="m-90.53 120.2 13.88 0.1815v0.0908h-35.47l21.59-0.2723z" opacity=".03"/><path d="m-79.63 119h-54.34l26.77-0.2701 27.57 0.2701z" opacity=".03"/></g><g fill-rule="evenodd"><path d="m-79.63 119h-54.34l26.77 0.2348 27.57-0.2348z" fill="#fff" opacity=".03"/><path d="m-79.63 119h-54.34l26.77-0.2701 27.57 0.2701z" opacity=".03"/><path d="m-79.63 119h-54.34l26.77 0.2348 27.57-0.2348z" fill="#fff" opacity=".03"/><path d="m-144.7 103.8h63.88l-31.47-0.2701-32.41 0.2701z" opacity=".06"/><path d="m-144.7 103.8h63.88l-31.47 0.2348-32.41-0.2348z" fill="#fff" opacity=".06"/><path d="m-94.57 105.8 17.93 0.2588v0.1344h-45.95l28.02-0.3933z" opacity=".06"/><path d="m-76.64 106.2v0.1176l-17.93 0.2252-28.02-0.3429h45.95z" fill="#fff" opacity=".06"/><path d="m-120.7 106.6 35.78 0.3933h-64.91v-0.0639l29.13-0.3294z" opacity=".04098"/><path d="m-84.91 107-35.78 0.3429-29.13-0.2891v-0.0538h64.91z" fill="#fff" opacity=".04098"/></g><g transform="matrix(-.05296 0 0 .08738 -229.8 81.05)" fill-rule="evenodd" opacity=".04098"><path d="m-1975 351.2h492.5l-242.6-3.858-249.9 3.858z" opacity=".377"/><path transform="matrix(-1.277 0 0 1.536 -2802 -1593)" d="m-1018 1265v0.1562l175.4 2.031 195.7-2.188h-371z" fill="#fff" opacity=".377"/></g><g transform="matrix(-.05296 0 0 .08738 -228 78.22)" fill-rule="evenodd" opacity=".04098"><path d="m-1975 351.2h492.5l-242.6-3.858-249.9 3.858z" opacity=".377"/><path d="m-1975 351.3h492.5l-242.6 3.354-249.9-3.354z" fill="#fff" opacity=".377"/></g><g transform="matrix(-.06874 0 0 .1273 -258.3 67.27)" fill-rule="evenodd" opacity=".04098"><path transform="matrix(-.984 0 0 1.055 -2573 -985.1)" d="m-861.9 1263-156.6 2.312v1.344h410.5l-253.9-3.656z" opacity=".377"/><path transform="matrix(-.984 0 0 1.055 -2573 -985.1)" d="m-1018 1267v1.156l156.6 2 253.9-3.156h-410.5z" fill="#fff" opacity=".377"/></g><g transform="matrix(-.05296 0 0 .08738 -228 78.22)" fill-rule="evenodd" opacity=".04098"><path d="m-1975 351.2h492.5l-242.6-3.858-249.9 3.858z" opacity=".377"/><path d="m-1975 351.3h492.5l-242.6 3.354-249.9-3.354z" fill="#fff" opacity=".377"/></g><g transform="matrix(-.06874 0 0 .1273 -258.3 67.27)" fill-rule="evenodd" opacity=".04098"><path transform="matrix(-.984 0 0 1.055 -2573 -985.1)" d="m-861.9 1263-156.6 2.312v1.344h410.5l-253.9-3.656z" opacity=".377"/><path transform="matrix(-.984 0 0 1.055 -2573 -985.1)" d="m-1018 1267v1.156l156.6 2 253.9-3.156h-410.5z" fill="#fff" opacity=".377"/></g><g transform="matrix(-.05296 0 0 .07002 -234.3 81.71)" fill-rule="evenodd" opacity=".04098"><path transform="matrix(-1.277 0 0 1.536 -2888 -1525)" d="m-910.1 1219-108.4 1.438v1.094h304.1l-195.7-2.531z" opacity=".377"/><path transform="matrix(-1.277 0 0 1.536 -2888 -1525)" d="m-1018 1221v0.9374l108.4 1.219 195.7-2.156h-304.1z" fill="#fff" opacity=".377"/></g><g transform="matrix(-.05296 0 0 .07002 -232.6 79.44)" fill-rule="evenodd" opacity=".04098"><path transform="matrix(-1.277 0 0 1.536 -2854 -1492)" d="m-883.7 1198-134.8 1.781v0.7188h330.5l-195.7-2.5z" opacity=".377"/><path transform="matrix(-1.277 0 0 1.536 -2854 -1492)" d="m-1018 1200v0.625l134.8 1.562 195.7-2.188h-330.5z" fill="#fff" opacity=".377"/></g><g transform="matrix(-.05296 0 0 .07002 -232.6 79.44)" fill-rule="evenodd" opacity=".04098"><path transform="matrix(-1.277 0 0 1.536 -2854 -1492)" d="m-883.7 1198-134.8 1.781v0.7188h330.5l-195.7-2.5z" opacity=".377"/><path transform="matrix(-1.277 0 0 1.536 -2854 -1492)" d="m-1018 1200v0.625l134.8 1.562 195.7-2.188h-330.5z" fill="#fff" opacity=".377"/></g><g transform="matrix(.06764 0 0 .08738 -12.3 82.04)" fill-rule="evenodd" opacity=".04098"><path d="m-1975 351.2h492.5l-242.6-3.858-249.9 3.858z" opacity=".377"/><path d="m-1975 351.3h492.5l-242.6 3.354-249.9-3.354z" fill="#fff" opacity=".377"/></g><g transform="matrix(.08779 0 0 .1273 26.37 71.09)" fill-rule="evenodd" opacity=".04098"><path d="m-1975 351.2h492.5l-242.6-3.858-249.9 3.858z" opacity=".377"/><path d="m-1975 351.3h492.5l-242.6 3.354-249.9-3.354z" fill="#fff" opacity=".377"/></g><g transform="matrix(.06764 0 0 .08738 -10.52 79.2)" fill-rule="evenodd" opacity=".04098"><path d="m-1975 351.2h492.5l-242.6-3.858-249.9 3.858z" opacity=".377"/><path d="m-1975 351.3h492.5l-242.6 3.354-249.9-3.354z" fill="#fff" opacity=".377"/></g><g transform="matrix(.08779 0 0 .1273 28.16 68.25)" fill-rule="evenodd" opacity=".04098"><path transform="matrix(.7705 0 0 1.055 -1237 -992.8)" d="m-634.2 1271-324.3 3.656h594.3v-0.5313l-270-3.125z" opacity=".377"/><path transform="matrix(.7705 0 0 1.055 -1237 -992.8)" d="m-958.6 1274 324.3 3.188 270-2.719v-0.4687h-594.3z" fill="#fff" opacity=".377"/></g><g transform="matrix(.06764 0 0 .08738 -10.52 79.2)" fill-rule="evenodd" opacity=".04098"><path d="m-1975 351.2h492.5l-242.6-3.858-249.9 3.858z" opacity=".377"/><path d="m-1975 351.3h492.5l-242.6 3.354-249.9-3.354z" fill="#fff" opacity=".377"/></g><g transform="matrix(.08779 0 0 .1273 28.16 68.25)" fill-rule="evenodd" opacity=".04098"><path transform="matrix(.7705 0 0 1.055 -1237 -992.8)" d="m-634.2 1271-324.3 3.656h594.3v-0.5313l-270-3.125z" opacity=".377"/><path transform="matrix(.7705 0 0 1.055 -1237 -992.8)" d="m-958.6 1274 324.3 3.188 270-2.719v-0.4687h-594.3z" fill="#fff" opacity=".377"/></g><g transform="matrix(.06764 0 0 .07002 -17.83 82.5)" fill-rule="evenodd" opacity=".04098"><path d="m-1975 351.2h492.5l-242.6-3.858-249.9 3.858z" opacity=".377"/><path transform="matrix(1 0 0 1.536 -939.9 -1536)" d="m-1019 1229v0.1563l233.2 2.031 242.6-2.188h-475.8z" fill="#fff" opacity=".377"/></g><g transform="matrix(.08779 0 0 .1273 20.84 65.18)" fill-rule="evenodd" opacity=".04098"><path d="m-1975 351.2h492.5l-242.6-3.858-249.9 3.858z" opacity=".377"/><path transform="matrix(.7705 0 0 1.055 -1165 -968.6)" d="m-1018 1251v0.3438l290.9 2.844 314.9-3.188h-605.8z" fill="#fff" opacity=".377"/></g><g transform="matrix(.06764 0 0 .07002 -16.05 80.22)" fill-rule="evenodd" opacity=".04098"><path d="m-1975 351.2h492.5l-242.6-3.858-249.9 3.858z" opacity=".377"/><path d="m-1975 351.3h492.5l-242.6 3.354-249.9-3.354z" fill="#fff" opacity=".377"/></g><g transform="matrix(.08779 0 0 .102 37.16 70.29)" fill-rule="evenodd" opacity=".06"><path transform="matrix(.7705 0 0 1.055 -1339 -934.9)" d="m-501.1 1216-324.3 3.656h461.2v-2.062l-136.9-1.594z" opacity=".377"/><path transform="matrix(.7705 0 0 1.055 -1339 -934.9)" d="m-825.4 1219 324.3 3.188 136.9-1.375v-1.813h-461.2z" fill="#fff" opacity=".377"/></g><g transform="matrix(.08779 0 0 .102 22.63 71.45)" fill-rule="evenodd" opacity=".04098"><path d="m-1975 351.2h492.5l-242.6-3.858-249.9 3.858z" opacity=".377"/><path d="m-1975 351.3h492.5l-242.6 3.354-249.9-3.354z" fill="#fff" opacity=".377"/></g><g transform="matrix(.06764 0 0 .07002 -16.05 80.22)" fill-rule="evenodd" opacity=".04098"><path d="m-1975 351.2h492.5l-242.6-3.858-249.9 3.858z" opacity=".377"/><path d="m-1975 351.3h492.5l-242.6 3.354-249.9-3.354z" fill="#fff" opacity=".377"/></g><g transform="matrix(.08779 0 0 .102 37.16 70.29)" fill-rule="evenodd" opacity=".06"><path transform="matrix(.7705 0 0 1.055 -1339 -934.9)" d="m-501.1 1216-324.3 3.656h461.2v-2.062l-136.9-1.594z" opacity=".377"/><path transform="matrix(.7705 0 0 1.055 -1339 -934.9)" d="m-825.4 1219 324.3 3.188 136.9-1.375v-1.813h-461.2z" fill="#fff" opacity=".377"/></g><g transform="matrix(.08779 0 0 .102 22.63 71.45)" fill-rule="evenodd" opacity=".04098"><path d="m-1975 351.2h492.5l-242.6-3.858-249.9 3.858z" opacity=".377"/><path transform="matrix(.7705 0 0 1.055 -1185 -946.3)" d="m-1019 1230v0.062l317.3 3.125 314.9-3.188h-632.2z" fill="#fff" opacity=".377"/></g><g transform="matrix(-.05296 0 0 .07002 -225.3 95.3)" fill-rule="evenodd" opacity=".04098"><path d="m-1975 351.2h492.5l-242.6-3.858-249.9 3.858z" opacity=".377"/><path d="m-1975 351.3h492.5l-242.6 3.354-249.9-3.354z" fill="#fff" opacity=".377"/></g><g transform="matrix(-.06874 0 0 .102 -254.8 84.25)" fill-rule="evenodd" opacity=".04098"><path transform="matrix(-.984 0 0 1.055 -2522 -1072)" d="m-809.6 1345-208.9 3.094v0.5625h462.8l-254-3.656z" opacity=".377"/><path transform="matrix(-.984 0 0 1.055 -2522 -1072)" d="m-1018 1349v0.5l208.9 2.687 254-3.187h-462.8z" fill="#fff" opacity=".377"/></g><g transform="matrix(-.06874 0 0 .102 -254.8 84.25)" fill-rule="evenodd" opacity=".04098"><path transform="matrix(-.984 0 0 1.055 -2522 -1072)" d="m-809.6 1345-208.9 3.094v0.5625h462.8l-254-3.656z" opacity=".377"/><path transform="matrix(-.984 0 0 1.055 -2522 -1072)" d="m-1018 1349v0.5l208.9 2.687 254-3.187h-462.8z" fill="#fff" opacity=".377"/></g><g transform="matrix(-.05296 0 0 .08738 -230.8 86.18)" fill-rule="evenodd" opacity=".04098"><path transform="matrix(-1.277 0 0 1.536 -2821 -1651)" d="m-857.8 1301-160.7 2.125v0.375h356.4l-195.7-2.5z" opacity=".377"/><path transform="matrix(-1.277 0 0 1.536 -2821 -1651)" d="m-1018 1303v0.3437l160.7 1.844 195.7-2.188h-356.4z" fill="#fff" opacity=".377"/></g><g transform="matrix(-.05296 0 0 .08738 -229 83.34)" fill-rule="evenodd" opacity=".04098"><path d="m-1975 351.2h492.5l-242.6-3.858-249.9 3.858z" opacity=".377"/><path d="m-1975 351.3h492.5l-242.6 3.354-249.9-3.354z" fill="#fff" opacity=".377"/></g><g transform="matrix(-.06874 0 0 .1273 -259.3 72.4)" fill-rule="evenodd" opacity=".04098"><path transform="matrix(-.984 0 0 1.055 -2588 -1025)" d="m-876.6 1301-141.9 2.094v1.563h395.9l-253.9-3.656z" opacity=".377"/><path transform="matrix(-.984 0 0 1.055 -2588 -1025)" d="m-1018 1305v1.344l141.9 1.844 253.9-3.188h-395.9z" fill="#fff" opacity=".377"/></g><g transform="matrix(-.05296 0 0 .08738 -229 83.34)" fill-rule="evenodd" opacity=".04098"><path d="m-1975 351.2h492.5l-242.6-3.858-249.9 3.858z" opacity=".377"/><path d="m-1975 351.3h492.5l-242.6 3.354-249.9-3.354z" fill="#fff" opacity=".377"/></g><g transform="matrix(-.06874 0 0 .1273 -259.3 72.4)" fill-rule="evenodd" opacity=".04098"><path transform="matrix(-.984 0 0 1.055 -2588 -1025)" d="m-876.6 1301-141.9 2.094v1.563h395.9l-253.9-3.656z" opacity=".377"/><path transform="matrix(-.984 0 0 1.055 -2588 -1025)" d="m-1018 1305v1.344l141.9 1.844 253.9-3.188h-395.9z" fill="#fff" opacity=".377"/></g><g transform="matrix(.06764 0 0 .08738 -13.29 87.16)" fill-rule="evenodd" opacity=".04098"><path d="m-1975 351.2h492.5l-242.6-3.858-249.9 3.858z" opacity=".377"/><path d="m-1975 351.3h492.5l-242.6 3.354-249.9-3.354z" fill="#fff" opacity=".377"/></g><g transform="matrix(.08779 0 0 .102 24.38 82.57)" fill-rule="evenodd" opacity=".04098"><path d="m-1975 351.2h492.5l-242.6-3.858-249.9 3.858z" opacity=".377"/><path d="m-1975 351.3h492.5l-242.6 3.354-249.9-3.354z" fill="#fff" opacity=".377"/></g><g transform="matrix(.06764 0 0 .08738 -11.5 84.32)" fill-rule="evenodd" opacity=".04098"><path d="m-1975 351.2h492.5l-242.6-3.858-249.9 3.858z" opacity=".377"/><path d="m-1975 351.3h492.5l-242.6 3.354-249.9-3.354z" fill="#fff" opacity=".377"/></g><g transform="matrix(.08779 0 0 .1273 27.17 73.38)" fill-rule="evenodd" opacity=".04098"><path transform="matrix(.7705 0 0 1.055 -1225 -1033)" d="m-648.8 1309-324.3 3.656h609v-0.3437l-284.6-3.312z" opacity=".377"/><path transform="matrix(.7705 0 0 1.055 -1225 -1033)" d="m-973.2 1312 324.3 3.188 284.6-2.875v-0.3125h-609z" fill="#fff" opacity=".377"/></g><g transform="matrix(.06764 0 0 .08738 -11.5 84.32)" fill-rule="evenodd" opacity=".04098"><path d="m-1975 351.2h492.5l-242.6-3.858-249.9 3.858z" opacity=".377"/><path d="m-1975 351.3h492.5l-242.6 3.354-249.9-3.354z" fill="#fff" opacity=".377"/></g><g transform="matrix(.08295 0 0 .1273 17.61 73.38)" fill-rule="evenodd" opacity=".04098"><path d="m-1975 351.2h492.5l-242.6-3.858-249.9 3.858z" opacity=".377"/><path d="m-1975 351.3h492.5l-242.6 3.354-249.9-3.354z" fill="#fff" opacity=".377"/></g><g transform="matrix(-.05296 0 0 .07002 -231.4 93.91)" fill-rule="evenodd" opacity=".04098"><path transform="matrix(-1.277 0 0 1.536 -2832 -1699)" d="m-866.2 1332-152.3 2v0.5h347.9l-195.7-2.5z" opacity=".377"/><path transform="matrix(-1.277 0 0 1.536 -2832 -1699)" d="m-1018 1335v0.4375l152.3 1.75 195.7-2.188h-347.9z" fill="#fff" opacity=".377"/></g><g transform="matrix(-.05296 0 0 .07002 -231.4 93.91)" fill-rule="evenodd" opacity=".04098"><path transform="matrix(-1.277 0 0 1.536 -2832 -1699)" d="m-866.2 1332-152.3 2v0.5h347.9l-195.7-2.5z" opacity=".377"/><path transform="matrix(-1.277 0 0 1.536 -2832 -1699)" d="m-1018 1335v0.4375l152.3 1.75 195.7-2.188h-347.9z" fill="#fff" opacity=".377"/></g><g transform="matrix(.06764 0 0 .07002 -14.87 94.7)" fill-rule="evenodd" opacity=".04098"><path d="m-1975 351.2h492.5l-242.6-3.858-249.9 3.858z" opacity=".377"/><path d="m-1975 351.3h492.5l-242.6 3.354-249.9-3.354z" fill="#fff" opacity=".377"/></g><g transform="matrix(.06764 0 0 .07002 -14.87 94.7)" fill-rule="evenodd" opacity=".04098"><path d="m-1975 351.2h492.5l-242.6-3.858-249.9 3.858z" opacity=".377"/><path d="m-1975 351.3h492.5l-242.6 3.354-249.9-3.354z" fill="#fff" opacity=".377"/></g><g transform="matrix(-.05296 0 0 .07002 -227.6 79.48)" fill-rule="evenodd" opacity=".04098"><path d="m-1975 351.2h492.5l-242.6-3.858-249.9 3.858z" opacity=".377"/><path d="m-1975 351.3h492.5l-242.6 3.354-249.9-3.354z" fill="#fff" opacity=".377"/></g><g transform="matrix(-.06874 0 0 .102 -257.9 70.71)" fill-rule="evenodd" opacity=".04098"><path transform="matrix(-.984 0 0 1.055 -2568 -939)" d="m-856 1220-162.5 2.406v1.25h416.5l-253.9-3.656z" opacity=".377"/><path transform="matrix(-.984 0 0 1.055 -2568 -939)" d="m-1018 1223v1.094l162.5 2.094 253.9-3.187h-416.5z" fill="#fff" opacity=".377"/></g><g transform="matrix(-.06874 0 0 .102 -256.1 68.43)" fill-rule="evenodd" opacity=".04098"><path transform="matrix(-.984 0 0 1.055 -2542 -916.7)" d="m-829.5 1198-189 2.812v0.875h442.9l-253.9-3.688z" opacity=".377"/><path transform="matrix(-.984 0 0 1.055 -2542 -916.7)" d="m-1018 1202v0.75l189 2.438 253.9-3.188h-442.9z" fill="#fff" opacity=".377"/></g><g transform="matrix(-.06874 0 0 .102 -256.1 68.43)" fill-rule="evenodd" opacity=".04098"><path transform="matrix(-.984 0 0 1.055 -2542 -916.7)" d="m-829.5 1198-189 2.812v0.875h442.9l-253.9-3.688z" opacity=".377"/><path transform="matrix(-.984 0 0 1.055 -2542 -916.7)" d="m-1018 1202v0.75l189 2.438 253.9-3.188h-442.9z" fill="#fff" opacity=".377"/></g><g transform="matrix(.06764 0 0 .07002 -10.11 80.27)" fill-rule="evenodd" opacity=".06"><path d="m-1975 351.2h492.5l-242.6-3.858-249.9 3.858z" opacity=".377"/><path d="m-1975 351.3h492.5l-242.6 3.354-249.9-3.354z" fill="#fff" opacity=".377"/></g><g transform="matrix(.08779 0 0 .102 28.56 71.5)" fill-rule="evenodd" opacity=".04098"><path transform="matrix(.7705 0 0 1.055 -1241 -946.8)" d="m-628.2 1227-324.3 3.656h588.4v-0.5938l-264-3.062z" opacity=".377"/><path transform="matrix(.7705 0 0 1.055 -1241 -946.8)" d="m-952.6 1231 324.3 3.188 264-2.688v-0.5h-588.4z" fill="#fff" opacity=".377"/></g><g transform="matrix(.08779 0 0 .102 30.35 69.22)" fill-rule="evenodd" opacity=".06"><path transform="matrix(.7705 0 0 1.055 -1262 -924.5)" d="m-601.8 1206-324.3 3.656h561.9v-0.9063l-237.6-2.75z" opacity=".377"/><path transform="matrix(.7705 0 0 1.055 -1262 -924.5)" d="m-926.2 1210 324.3 3.188 237.6-2.406v-0.7813h-561.9z" fill="#fff" opacity=".377"/></g><g fill-rule="evenodd"><path d="m-149.6 153.5h42.55l-20.96-0.2702-21.59 0.2702z" opacity=".01"/><path d="m-149.6 153.5h42.55l-20.96 0.2348-21.59-0.2348z" fill="#fff" opacity=".01"/><path d="m-151.1 156h48.14l-20.12-0.3935-28.02 0.3935z" opacity=".01"/><path d="m-151.1 156 47.88 0.2197-19.86 0.1223-28.02-0.342z" fill="#fff" opacity=".01"/><path d="m-154 153.7h55.22l-27.2-0.3935-28.02 0.3935z" opacity=".01"/><path d="m-154 153.7 52.53 0.055-27.2 0.342-25.33-0.397z" fill="#fff" opacity=".01"/><path d="m-152.3 153.7 50.84 0.1831-23.71-0.5766-27.13 0.3935z" opacity=".01"/><path d="m-101 153.7v0.0269l-24.12 0.316-27.06-0.3429h51.19z" fill="#fff" opacity=".01"/></g><path id="path284_2_" d="m-154 96.12s18.29 8.727 40 8.727c21.7 0 40-8.727 40-8.727h-80z" fill="url(#linearGradient5493)"/><path d="m-154 96.12s18.29 7.273 40 7.273c21.7 0 40-7.273 40-7.273h-80z" fill="url(#linearGradient5495)"/><path id="path137_2_" d="m-114 99.63c-15.51 0-28.09-0.8324-28.09-1.962v-1.669h11.23v1.669c0 0.7022 7.057 1.177 16.85 1.177 9.797 0 16.85-0.4749 16.85-1.177v-1.669h11.23v1.669c0.0014 1.129-12.57 1.962-28.09 1.962z" fill="url(#linearGradient5497)" filter="url(#filter10567)"/></g></svg>
