<?xml version="1.0" encoding="UTF-8" standalone="no"?>
<svg
   xmlns:dc="http://purl.org/dc/elements/1.1/"
   xmlns:cc="http://creativecommons.org/ns#"
   xmlns:rdf="http://www.w3.org/1999/02/22-rdf-syntax-ns#"
   xmlns:svg="http://www.w3.org/2000/svg"
   xmlns="http://www.w3.org/2000/svg"
   xmlns:xlink="http://www.w3.org/1999/xlink"
   version="1.0"
   id="svg5676"
   height="128"
   width="128">
  <defs
     id="defs5678">
    <filter
       id="filter4503">
      <feGaussianBlur
         id="feGaussianBlur4505"
         stdDeviation="0.43775175" />
    </filter>
    <clipPath
       id="clipPath4092"
       clipPathUnits="userSpaceOnUse">
      <path
         id="path4094"
         d="M 59.849,42.398 C 57.593,46.987 10.717,106.259 8.774,111.066 C 4.67,121.218 16.431,133.433 25.989,124.269 C 32.291,118.227 66.959,56.111 72.129,51.415 C 75.623,48.241 95.004,41.083 95.004,41.083 L 80.924,18.23 C 80.924,18.23 62.724,36.552 59.849,42.398 z"
         style="fill:#9c0f56" />
    </clipPath>
    <linearGradient
       y2="44.057598"
       x2="98.418404"
       y1="119.0576"
       x1="11.9185"
       gradientUnits="userSpaceOnUse"
       id="XMLID_3_">
      <stop
         id="stop49"
         style="stop-color:#C9C9C9"
         offset="0" />
      <stop
         id="stop51"
         style="stop-color:#B2B2B2"
         offset="0.0229" />
      <stop
         id="stop53"
         style="stop-color:#9F9F9F"
         offset="0.05" />
      <stop
         id="stop55"
         style="stop-color:#929292"
         offset="0.0819" />
      <stop
         id="stop57"
         style="stop-color:#8A8A8A"
         offset="0.1225" />
      <stop
         id="stop59"
         style="stop-color:#888888"
         offset="0.2012" />
      <stop
         id="stop63"
         style="stop-color:#686868;stop-opacity:1;"
         offset="1" />
    </linearGradient>
    <linearGradient
       gradientTransform="translate(229.83849,405.96228)"
       y2="80.671898"
       x2="32.347698"
       y1="80.0439"
       x1="31.4995"
       gradientUnits="userSpaceOnUse"
       id="XMLID_11_">
      <stop
         id="stop183"
         style="stop-color:#000000"
         offset="0" />
      <stop
         id="stop185"
         style="stop-color:#000000;stop-opacity:0;"
         offset="1" />
    </linearGradient>
    <linearGradient
       gradientTransform="translate(229.83849,405.96228)"
       y2="109.8655"
       x2="12.7283"
       y1="120.7646"
       x1="23.9844"
       gradientUnits="userSpaceOnUse"
       id="XMLID_10_">
      <stop
         id="stop176"
         style="stop-color:#EEEEEE"
         offset="0" />
      <stop
         id="stop178"
         style="stop-color:#535353;stop-opacity:1;"
         offset="1" />
    </linearGradient>
    <linearGradient
       gradientTransform="translate(229.83849,405.96228)"
       y2="114.6055"
       x2="18.776899"
       y1="129.5986"
       x1="18.776899"
       gradientUnits="userSpaceOnUse"
       id="XMLID_9_">
      <stop
         id="stop169"
         style="stop-color:#000000"
         offset="0" />
      <stop
         id="stop171"
         style="stop-color:#000000;stop-opacity:0;"
         offset="1" />
    </linearGradient>
    <radialGradient
       gradientTransform="translate(229.83849,405.96228)"
       gradientUnits="userSpaceOnUse"
       r="19.6182"
       cy="15.9429"
       cx="64.988297"
       id="XMLID_8_">
      <stop
         id="stop162"
         style="stop-color:#FFFFFF"
         offset="0" />
      <stop
         id="stop164"
         style="stop-color:#888A85"
         offset="1" />
    </radialGradient>
    <linearGradient
       gradientTransform="translate(229.83849,405.96228)"
       y2="80.899803"
       x2="48.5495"
       y1="75.171898"
       x1="40.711899"
       gradientUnits="userSpaceOnUse"
       id="XMLID_7_">
      <stop
         id="stop155"
         style="stop-color:#555753"
         offset="0.213" />
      <stop
         id="stop157"
         style="stop-color:#000000"
         offset="1" />
    </linearGradient>
    <linearGradient
       gradientTransform="translate(229.83849,405.96228)"
       y2="80.697304"
       x2="67.723602"
       y1="80.697304"
       x1="16.7803"
       gradientUnits="userSpaceOnUse"
       id="path30758_1_">
      <stop
         id="stop149"
         style="stop-color:#888888"
         offset="0" />
      <stop
         id="stop151"
         style="stop-color:#DDDDDD"
         offset="0.8935" />
    </linearGradient>
    <linearGradient
       gradientTransform="translate(229.83849,405.96228)"
       y2="25.928699"
       x2="93.023399"
       y1="39.3867"
       x1="93.023399"
       gradientUnits="userSpaceOnUse"
       id="path34280_1_">
      <stop
         id="stop141"
         style="stop-color:#555555"
         offset="0" />
      <stop
         id="stop143"
         style="stop-color:#888888"
         offset="0.3965" />
      <stop
         id="stop145"
         style="stop-color:#555555"
         offset="1" />
    </linearGradient>
    <linearGradient
       gradientTransform="matrix(0.9428,-0.2511,-0.2421,-0.9089,6.0921912,215.38258)"
       y2="-288.60791"
       x2="261.97269"
       y1="-288.60791"
       x1="247.60249"
       gradientUnits="userSpaceOnUse"
       id="rect22846_1_">
      <stop
         id="stop135"
         style="stop-color:#888888"
         offset="0" />
      <stop
         id="stop137"
         style="stop-color:#555555"
         offset="1" />
    </linearGradient>
    <radialGradient
       gradientUnits="userSpaceOnUse"
       gradientTransform="matrix(0.523,-0.2146,-2.627,-7.0521,27.4228,356.0237)"
       r="6.8733001"
       cy="36.065399"
       cx="274.56641"
       id="rect14944_1_">
      <stop
         id="stop127"
         style="stop-color:#888A85"
         offset="0" />
      <stop
         id="stop129"
         style="stop-color:#FFFFFF"
         offset="0.6213" />
      <stop
         id="stop131"
         style="stop-color:#555753"
         offset="1" />
    </radialGradient>
    <radialGradient
       gradientUnits="userSpaceOnUse"
       gradientTransform="matrix(0.4892,-0.2059,-2.5913,-7.0931,29.692,361.6149)"
       r="6.8736"
       cy="36.069801"
       cx="290.8428"
       id="rect14938_1_">
      <stop
         id="stop119"
         style="stop-color:#888A85"
         offset="0" />
      <stop
         id="stop121"
         style="stop-color:#FFFFFF"
         offset="0.6213" />
      <stop
         id="stop123"
         style="stop-color:#555753"
         offset="1" />
    </radialGradient>
    <radialGradient
       gradientUnits="userSpaceOnUse"
       gradientTransform="matrix(0.498,-0.2212,-2.9368,-8.3284,56.2613,466.2682)"
       r="6.8727999"
       cy="43.388699"
       cx="292.49219"
       id="rect10553_1_">
      <stop
         id="stop111"
         style="stop-color:#888A85"
         offset="0" />
      <stop
         id="stop113"
         style="stop-color:#FFFFFF"
         offset="0.6213" />
      <stop
         id="stop115"
         style="stop-color:#555753"
         offset="1" />
    </radialGradient>
    <radialGradient
       gradientUnits="userSpaceOnUse"
       gradientTransform="matrix(0.6131,-0.2916,-5.2659,-7.9645,125.0096,227.992)"
       r="4.1451998"
       cy="20.4307"
       cx="92.734398"
       id="rect14950_1_">
      <stop
         id="stop103"
         style="stop-color:#FFFFFF"
         offset="0" />
      <stop
         id="stop105"
         style="stop-color:#BABDB6"
         offset="0.5266" />
      <stop
         id="stop107"
         style="stop-color:#888A85"
         offset="1" />
    </radialGradient>
    <radialGradient
       gradientUnits="userSpaceOnUse"
       r="14.3205"
       cy="44.608398"
       cx="78.776398"
       id="rect10551_3_">
      <stop
         id="stop95"
         style="stop-color:#2E3436"
         offset="0" />
      <stop
         id="stop97"
         style="stop-color:#000000;stop-opacity:1;"
         offset="0.72189999" />
      <stop
         id="stop99"
         style="stop-color:#2E3436"
         offset="1" />
    </radialGradient>
    <linearGradient
       y2="30.555201"
       x2="73.449203"
       y1="44.765598"
       x1="77.216797"
       gradientUnits="userSpaceOnUse"
       id="rect10551_1_">
      <stop
         id="stop89"
         style="stop-color:#DDDDDD"
         offset="0.7219" />
      <stop
         id="stop91"
         style="stop-color:#EEEEEC"
         offset="1" />
    </linearGradient>
    <radialGradient
       fy="13.140214"
       fx="77.004028"
       gradientTransform="translate(229.83849,405.96228)"
       gradientUnits="userSpaceOnUse"
       r="64.405701"
       cy="13.140214"
       cx="77.004028"
       id="XMLID_6_">
      <stop
         id="stop82"
         style="stop-color:#FFFFFF"
         offset="0" />
      <stop
         offset="0.5"
         style="stop-color:#c3c4c2;stop-opacity:1;"
         id="stop13256" />
      <stop
         id="stop84"
         style="stop-color:#000000;stop-opacity:1;"
         offset="1" />
    </radialGradient>
    <linearGradient
       gradientTransform="translate(-80,0)"
       y2="108.3428"
       x2="24.9356"
       y1="125.7861"
       x1="15.7207"
       gradientUnits="userSpaceOnUse"
       id="XMLID_5_">
      <stop
         id="stop75"
         style="stop-color:#000000"
         offset="0" />
      <stop
         id="stop77"
         style="stop-color:#FFFFFF"
         offset="0.8935" />
    </linearGradient>
    <linearGradient
       gradientTransform="translate(-80,0)"
       y2="64.646004"
       x2="52.981899"
       y1="55.75"
       x1="40.527802"
       gradientUnits="userSpaceOnUse"
       id="XMLID_4_">
      <stop
         id="stop68"
         style="stop-color:#ffffff;stop-opacity:0;"
         offset="0" />
      <stop
         id="stop70"
         style="stop-color:#FFFFFF"
         offset="0.8935" />
    </linearGradient>
    <linearGradient
       gradientTransform="translate(229.83849,405.96228)"
       y2="-17.989599"
       x2="107.7549"
       y1="124.6768"
       x1="14.9214"
       gradientUnits="userSpaceOnUse"
       id="path2388_1_">
      <stop
         id="stop32"
         style="stop-color:#DDDDDD"
         offset="0" />
      <stop
         id="stop34"
         style="stop-color:#888888"
         offset="0.6864" />
      <stop
         id="stop36"
         style="stop-color:#DDDDDD"
         offset="0.8935" />
    </linearGradient>
    <radialGradient
       gradientUnits="userSpaceOnUse"
       gradientTransform="matrix(6.7917,-1.4855,-1.2014,-5.506,-845.12621,725.19548)"
       r="4.6967001"
       cy="4.7476001"
       cx="172.123"
       id="path5936_1_">
      <stop
         id="stop26"
         style="stop-color:#FFFFFF"
         offset="0" />
      <stop
         id="stop28"
         style="stop-color:#3E3E3E"
         offset="1" />
    </radialGradient>
    <linearGradient
       gradientTransform="translate(229.83849,405.96228)"
       y2="31.2349"
       x2="104.5325"
       y1="26.589399"
       x1="92.627899"
       gradientUnits="userSpaceOnUse"
       id="XMLID_1_">
      <stop
         id="stop19"
         style="stop-color:#FFFFFF"
         offset="0" />
      <stop
         id="stop21"
         style="stop-color:#888888"
         offset="0.6391" />
    </linearGradient>
    <linearGradient
       gradientTransform="matrix(0.9065,-0.2414,-0.2421,-0.9089,10.723991,214.40698)"
       y2="-287.6532"
       x2="286.16019"
       y1="-326.0903"
       x1="258.88379"
       gradientUnits="userSpaceOnUse"
       id="rect25493_1_">
      <stop
         id="stop5"
         style="stop-color:#555555"
         offset="0" />
      <stop
         id="stop7"
         style="stop-color:#888888"
         offset="0.6864" />
    </linearGradient>
    <linearGradient
       y2="108.3428"
       x2="24.9356"
       y1="125.7861"
       x1="15.7207"
       gradientTransform="translate(-80,0)"
       gradientUnits="userSpaceOnUse"
       id="linearGradient10549"
       xlink:href="#XMLID_5_" />
    <mask
       id="mask10545"
       maskUnits="userSpaceOnUse">
      <path
         d="M -0.051,18.554 L -0.847,9.66 C -0.847,9.66 8.141,4.482 10.38,3.193 C 3.985,-0.79 -3.654,1.07 -3.741,1.093 C -10.903,2.996 -15.908,8.865 -15.908,15.222 C -15.908,15.461 -15.901,15.701 -15.887,15.94 C -15.887,15.941 -15.887,15.941 -15.887,15.942 C -15.887,16.299 -16.25,36.73 -19.253,42.838 C -20.334,45.036 -30.401,58.18 -42.058,73.4 C -54.195,89.247 -69.3,108.968 -70.298,111.44 C -70.839,112.778 -71.079,114.126 -71.079,115.435 C -71.079,119.221 -69.06,122.663 -66.483,124.621 C -66.083,123.92 -65.655,123.178 -65.197,122.392 C -67.02,121.101 -68.463,119.074 -68.895,116.783 C -69.291,114.687 -68.831,112.48 -67.631,110.726 C -66.46,109.013 -64.659,107.855 -62.561,107.463 C -60.935,107.16 -59.182,107.593 -57.621,108.682 C -57.428,108.817 -57.245,108.966 -57.063,109.118 C -46.315,92.233 -27.938,65.35 3.195,23.824 C 1.323,20.784 -0.051,18.554 -0.051,18.554 z"
         id="path10547"
         style="fill:url(#linearGradient10549)" />
    </mask>
    <linearGradient
       y2="-287.6532"
       x2="286.16019"
       y1="-326.0903"
       x1="258.88379"
       gradientTransform="matrix(0.9065,-0.2414,-0.2421,-0.9089,10.723991,214.40698)"
       gradientUnits="userSpaceOnUse"
       id="linearGradient11382"
       xlink:href="#rect25493_1_" />
    <linearGradient
       y2="31.2349"
       x2="104.5325"
       y1="26.589399"
       x1="92.627899"
       gradientTransform="translate(229.83849,405.96228)"
       gradientUnits="userSpaceOnUse"
       id="linearGradient11384"
       xlink:href="#XMLID_1_" />
    <radialGradient
       r="4.6967001"
       cy="4.7476001"
       cx="172.123"
       gradientTransform="matrix(6.7917,-1.4855,-1.2014,-5.506,-845.12621,725.19548)"
       gradientUnits="userSpaceOnUse"
       id="radialGradient11386"
       xlink:href="#path5936_1_" />
    <linearGradient
       y2="-17.989599"
       x2="107.7549"
       y1="124.6768"
       x1="14.9214"
       gradientTransform="translate(229.83849,405.96228)"
       gradientUnits="userSpaceOnUse"
       id="linearGradient11388"
       xlink:href="#path2388_1_" />
    <linearGradient
       y2="4.8821697"
       x2="92.612343"
       y1="14.124305"
       x1="77.040016"
       gradientTransform="translate(229.83849,405.96228)"
       gradientUnits="userSpaceOnUse"
       id="linearGradient11390"
       xlink:href="#XMLID_4_" />
    <linearGradient
       y2="64.646004"
       x2="52.981899"
       y1="55.75"
       x1="40.527802"
       gradientTransform="translate(-80,0)"
       gradientUnits="userSpaceOnUse"
       id="linearGradient11392"
       xlink:href="#XMLID_4_" />
    <radialGradient
       r="64.405701"
       fy="13.140214"
       fx="77.004028"
       cy="13.140214"
       cx="77.004028"
       gradientTransform="matrix(0.4337031,0.4442839,-0.7150071,0.6987259,282.84098,375.70944)"
       gradientUnits="userSpaceOnUse"
       id="radialGradient11394"
       xlink:href="#XMLID_6_" />
    <linearGradient
       y2="30.555201"
       x2="73.449203"
       y1="44.765598"
       x1="77.216797"
       gradientUnits="userSpaceOnUse"
       id="linearGradient11396"
       xlink:href="#rect10551_1_" />
    <radialGradient
       r="14.3205"
       cy="44.608398"
       cx="78.776398"
       gradientUnits="userSpaceOnUse"
       id="radialGradient11398"
       xlink:href="#rect10551_3_" />
    <radialGradient
       r="4.1451998"
       cy="20.4307"
       cx="92.734398"
       gradientTransform="matrix(0.6131,-0.2916,-5.2659,-7.9645,125.0096,227.992)"
       gradientUnits="userSpaceOnUse"
       id="radialGradient11400"
       xlink:href="#rect14950_1_" />
    <radialGradient
       r="6.8727999"
       cy="43.388699"
       cx="292.49219"
       gradientTransform="matrix(0.498,-0.2212,-2.9368,-8.3284,56.2613,466.2682)"
       gradientUnits="userSpaceOnUse"
       id="radialGradient11402"
       xlink:href="#rect10553_1_" />
    <radialGradient
       r="6.8736"
       cy="36.069801"
       cx="290.8428"
       gradientTransform="matrix(0.4892,-0.2059,-2.5913,-7.0931,29.692,361.6149)"
       gradientUnits="userSpaceOnUse"
       id="radialGradient11404"
       xlink:href="#rect14938_1_" />
    <radialGradient
       r="6.8733001"
       cy="36.065399"
       cx="274.56641"
       gradientTransform="matrix(0.523,-0.2146,-2.627,-7.0521,27.4228,356.0237)"
       gradientUnits="userSpaceOnUse"
       id="radialGradient11406"
       xlink:href="#rect14944_1_" />
    <linearGradient
       y2="-288.60791"
       x2="261.97269"
       y1="-288.60791"
       x1="247.60249"
       gradientTransform="matrix(0.9428,-0.2511,-0.2421,-0.9089,6.0921912,215.38258)"
       gradientUnits="userSpaceOnUse"
       id="linearGradient11408"
       xlink:href="#rect22846_1_" />
    <linearGradient
       y2="25.928699"
       x2="93.023399"
       y1="39.3867"
       x1="93.023399"
       gradientTransform="translate(229.83849,405.96228)"
       gradientUnits="userSpaceOnUse"
       id="linearGradient11410"
       xlink:href="#path34280_1_" />
    <linearGradient
       y2="80.697304"
       x2="67.723602"
       y1="80.697304"
       x1="16.7803"
       gradientTransform="translate(229.83849,405.96228)"
       gradientUnits="userSpaceOnUse"
       id="linearGradient11412"
       xlink:href="#path30758_1_" />
    <linearGradient
       y2="80.899803"
       x2="48.5495"
       y1="75.171898"
       x1="40.711899"
       gradientTransform="translate(229.83849,405.96228)"
       gradientUnits="userSpaceOnUse"
       id="linearGradient11414"
       xlink:href="#XMLID_7_" />
    <radialGradient
       r="19.6182"
       cy="15.9429"
       cx="64.988297"
       gradientTransform="translate(229.83849,405.96228)"
       gradientUnits="userSpaceOnUse"
       id="radialGradient11416"
       xlink:href="#XMLID_8_" />
    <linearGradient
       y2="114.6055"
       x2="18.776899"
       y1="129.5986"
       x1="18.776899"
       gradientTransform="translate(229.83849,405.96228)"
       gradientUnits="userSpaceOnUse"
       id="linearGradient11418"
       xlink:href="#XMLID_9_" />
    <linearGradient
       y2="107.20945"
       x2="18.875885"
       y1="123.23078"
       x1="17.509325"
       gradientTransform="translate(229.83849,405.96228)"
       gradientUnits="userSpaceOnUse"
       id="linearGradient11420"
       xlink:href="#XMLID_10_" />
    <linearGradient
       y2="80.671898"
       x2="32.347698"
       y1="80.0439"
       x1="31.4995"
       gradientTransform="translate(229.83849,405.96228)"
       gradientUnits="userSpaceOnUse"
       id="linearGradient11422"
       xlink:href="#XMLID_11_" />
    <linearGradient
       y2="44.057598"
       x2="98.418404"
       y1="119.0576"
       x1="11.9185"
       gradientUnits="userSpaceOnUse"
       id="linearGradient11424"
       xlink:href="#XMLID_3_" />
    <filter
       id="filter12490">
      <feGaussianBlur
         id="feGaussianBlur12492"
         stdDeviation="2.3509538" />
    </filter>
    <linearGradient
       xlink:href="#XMLID_27_"
       id="linearGradient2902"
       gradientUnits="userSpaceOnUse"
       gradientTransform="translate(145.71379,-238.21429)"
       x1="60.0015"
       y1="86"
       x2="60.0015"
       y2="34.0005" />
    <linearGradient
       xlink:href="#XMLID_26_"
       id="linearGradient2900"
       gradientUnits="userSpaceOnUse"
       gradientTransform="translate(145.71379,-238.21429)"
       x1="60.0015"
       y1="92"
       x2="60.0015"
       y2="28.0005" />
    <linearGradient
       xlink:href="#XMLID_25_"
       id="linearGradient2898"
       gradientUnits="userSpaceOnUse"
       gradientTransform="translate(145.71379,-238.21429)"
       x1="60.0015"
       y1="94"
       x2="60.0015"
       y2="26.0005" />
    <linearGradient
       xlink:href="#XMLID_24_"
       id="linearGradient2896"
       gradientUnits="userSpaceOnUse"
       gradientTransform="translate(145.71379,-238.21429)"
       x1="60.0005"
       y1="12.8452"
       x2="60.0005"
       y2="120.2141" />
    <radialGradient
       xlink:href="#XMLID_23_"
       id="radialGradient2894"
       gradientUnits="userSpaceOnUse"
       gradientTransform="translate(145.71379,-238.21429)"
       cx="59.5107"
       cy="124"
       r="125.1714" />
    <filter
       id="filter2826">
      <feGaussianBlur
         stdDeviation="2.40001"
         id="feGaussianBlur2828" />
    </filter>
    <radialGradient
       id="XMLID_23_"
       cx="59.5107"
       cy="124"
       r="125.1714"
       gradientUnits="userSpaceOnUse"
       gradientTransform="translate(145.71379,-238.21429)">
      <stop
         offset="0.1775"
         style="stop-color:#F0F0F0"
         id="stop9" />
      <stop
         offset="0.5325"
         style="stop-color:#A5A5BB"
         id="stop11" />
    </radialGradient>
    <linearGradient
       id="XMLID_24_"
       gradientUnits="userSpaceOnUse"
       x1="60.0005"
       y1="12.8452"
       x2="60.0005"
       y2="120.2141"
       gradientTransform="translate(145.71379,-238.21429)">
      <stop
         offset="0"
         style="stop-color:#FFFFFF"
         id="stop16" />
      <stop
         offset="1"
         style="stop-color:#ffffff;stop-opacity:0;"
         id="stop18" />
    </linearGradient>
    <linearGradient
       id="XMLID_25_"
       gradientUnits="userSpaceOnUse"
       x1="60.0015"
       y1="94"
       x2="60.0015"
       y2="26.0005"
       gradientTransform="translate(145.71379,-238.21429)">
      <stop
         offset="0.2959"
         style="stop-color:#FFFFFF"
         id="stop23" />
      <stop
         offset="1"
         style="stop-color:#4A4A55"
         id="stop25" />
    </linearGradient>
    <linearGradient
       id="XMLID_26_"
       gradientUnits="userSpaceOnUse"
       x1="60.0015"
       y1="92"
       x2="60.0015"
       y2="28.0005"
       gradientTransform="translate(145.71379,-238.21429)">
      <stop
         offset="0.1953"
         style="stop-color:#E9E9F0"
         id="stop30" />
      <stop
         offset="0.2597"
         style="stop-color:#DADAE2"
         id="stop32-0" />
      <stop
         offset="0.461"
         style="stop-color:#B1B1BB"
         id="stop34-6" />
      <stop
         offset="0.6437"
         style="stop-color:#93939F"
         id="stop36-1" />
      <stop
         offset="0.7999"
         style="stop-color:#81818E"
         id="stop38" />
      <stop
         offset="0.9112"
         style="stop-color:#7A7A88"
         id="stop40" />
      <stop
         offset="1"
         style="stop-color:#696975"
         id="stop42" />
    </linearGradient>
    <linearGradient
       id="XMLID_27_"
       gradientUnits="userSpaceOnUse"
       x1="60.0015"
       y1="86"
       x2="60.0015"
       y2="34.0005"
       gradientTransform="translate(145.71379,-238.21429)">
      <stop
         offset="0"
         style="stop-color:#BBBBBB"
         id="stop47" />
      <stop
         offset="1"
         style="stop-color:#555555"
         id="stop49-2" />
    </linearGradient>
  </defs>
  <metadata
     id="metadata5681">
    <rdf:RDF>
      <cc:Work
         rdf:about="">
        <dc:format>image/svg+xml</dc:format>
        <dc:type
           rdf:resource="http://purl.org/dc/dcmitype/StillImage" />
        <dc:title></dc:title>
      </cc:Work>
    </rdf:RDF>
  </metadata>
  <g
     id="layer1">
    <path
       id="path11963"
       d="M 97.46875,6 C 97.18152,6.0094408 97.00831,6.0304757 97,6.03125 C 88.50154,6.7547259 81.81102,12.649899 80.96875,19.9375 C 80.96299,19.970198 76.86754,40.857308 72.875,46.3125 C 69.74177,50.594872 11.13376,102.7197 8.28125,107.28125 C 6.43475,110.23375 6.09196,113.64754 6.8125,116.75 C 6.81481,116.75995 6.81016,116.77131 6.8125,116.78125 C 7.27817,118.76618 8.16525,120.60725 9.40625,122.125 C 9.47154,122.20534 9.55786,122.26531 9.625,122.34375 C 9.73846,122.47566 9.85017,122.62373 9.96875,122.75 C 10.13123,122.9234 10.29696,123.08786 10.46875,123.25 C 10.78531,123.54834 11.12253,123.83716 11.46875,124.09375 C 11.51009,124.12442 11.55201,124.15746 11.59375,124.1875 C 11.75577,124.30387 11.92581,124.39345 12.09375,124.5 C 12.34901,124.66192 12.60676,124.83089 12.875,124.96875 C 12.90463,124.98396 12.93897,124.98509 12.96875,125 C 13.16389,125.09785 13.36099,125.19684 13.5625,125.28125 C 13.66656,125.32459 13.76932,125.36661 13.875,125.40625 C 13.96058,125.43847 14.03838,125.47026 14.125,125.5 C 14.26755,125.5489 14.41722,125.58297 14.5625,125.625 C 15.11282,125.78408 15.69527,125.91534 16.28125,125.96875 C 16.62585,125.99943 16.98844,126.00883 17.34375,126 C 17.49276,125.99631 17.6305,125.97967 17.78125,125.96875 C 18.30718,125.93117 18.83023,125.84877 19.375,125.71875 C 19.49773,125.68971 19.62642,125.65895 19.75,125.625 C 19.94658,125.5707 20.14518,125.50448 20.34375,125.4375 C 20.68974,125.32116 21.02361,125.18743 21.375,125.03125 C 21.51637,124.96837 21.67036,124.91327 21.8125,124.84375 C 22.01661,124.74364 22.23195,124.64533 22.4375,124.53125 C 22.50876,124.4917 22.58484,124.44751 22.65625,124.40625 C 22.93651,124.24411 23.21755,124.06393 23.5,123.875 C 23.72992,123.72139 24.01123,123.49888 24.3125,123.25 C 24.51715,123.08053 24.76474,122.86659 25,122.65625 C 25.31217,122.37641 25.73134,121.97195 26.09375,121.625 C 26.40496,121.32709 26.7476,121.00087 27.09375,120.65625 C 27.10095,120.64393 27.11785,120.63734 27.125,120.625 C 40.39609,107.39872 78.3196,61.213642 83.8125,57.75 C 87.95646,55.136652 109.0625,51.3125 109.0625,51.3125 C 113.21925,49.41573 118.90506,43.445638 121.3125,34.4375 C 121.72869,32.077134 121.4811,29.596922 121.375,30.03125 L 108.59375,35.78125 L 100.21875,29.0625 L 98.78125,25.40625 L 99.28125,19.21875 L 113.34375,13.96875 L 113.125,12.15625 C 107.67312,6.0868239 99.47934,5.9339145 97.46875,6 z M 17.8125,106.1875 C 21.2472,106.15572 24.40096,109.89596 24.375,114.15625 C 24.3535,117.67982 20.93573,121.18715 17.5,121.21875 C 14.06408,121.25138 10.73518,117.39784 10.6875,113.53125 C 10.68465,113.29896 10.66822,113.04283 10.6875,112.8125 C 10.70682,112.58223 10.74047,112.35167 10.78125,112.125 C 10.90349,111.44483 11.13404,110.80542 11.4375,110.1875 C 11.53867,109.98155 11.63003,109.78948 11.75,109.59375 C 12.94961,107.63625 15.09816,106.21329 17.8125,106.1875 z"
       style="fill:#000000;fill-opacity:1;filter:url(#filter12490);opacity:0.8" />
    <g
       transform="matrix(1.0223499,0.1802679,-0.1801715,1.0218034,-142.50883,-466.04399)"
       id="g11357">
      <path
         id="rect25493"
         d="M 322.52649,444.25728 C 326.15949,443.01428 332.35849,434.45128 332.98149,424.78428 C 333.00949,424.35428 333.65649,426.67828 333.65649,428.98828 C 332.87949,437.94128 328.47049,444.55028 324.84449,447.04628 L 322.52649,444.25728 z"
         style="fill:url(#linearGradient11382)" />
      <path
         id="path3285"
         d="M 332.98149,424.78428 L 321.82849,432.38828 L 312.74849,427.41628 C 312.08149,428.88428 315.95449,447.98028 320.22749,446.96228 C 328.04849,445.09828 332.16349,435.78528 332.98149,424.78428 z"
         style="fill:#888a85" />
      <path
         enable-background="new    "
         d="M 322.07549,432.68428 L 323.06949,441.37828 L 324.97749,444.59028 C 326.91449,443.03428 328.49449,440.87628 329.72849,438.28428 C 331.33649,434.63428 332.30349,430.21428 332.65649,425.47228 L 322.07549,432.68428 z"
         id="path23"
         style="fill:url(#linearGradient11384)" />
      <path
         id="path5936"
         enable-background="new    "
         d="M 313.59749,428.19228 C 313.59449,428.19728 313.57749,428.21928 313.57649,428.22628 C 313.57149,428.23928 313.56449,428.27228 313.56049,428.28828 C 313.04649,430.36728 316.00549,448.15728 320.19449,447.15928 C 321.12049,446.93828 322.00949,446.60928 322.83249,446.18928 L 320.58049,431.94628 L 313.59749,428.19228 z"
         style="opacity:0.51380005;fill:url(#radialGradient11386)" />
      <path
         id="path2388"
         d="M 305.84149,406.08928 C 297.90049,408.19828 292.53349,414.90528 292.95349,421.96328 C 292.95349,421.99528 292.56249,442.51428 289.68749,448.36028 C 287.43149,452.94928 240.55549,512.22128 238.61249,517.02828 C 234.50849,527.18028 246.26949,539.39528 255.82749,530.23128 C 262.12949,524.18928 296.79749,462.07328 301.96749,457.37728 C 305.46149,454.20328 324.84249,447.04528 324.84249,447.04528 L 310.76249,424.19228 L 310.04449,416.17028 L 322.15949,409.19128 C 315.08849,403.65028 305.90349,406.07228 305.84149,406.08928 z M 247.46049,514.40928 C 250.71349,513.80428 254.33749,516.82428 255.02549,520.87228 C 255.59449,524.22028 252.93349,528.13028 249.67949,528.73528 C 246.42549,529.34128 242.61749,526.22128 241.92549,522.55928 C 241.26149,519.04028 243.34849,515.17628 247.46049,514.40928 z"
         style="fill:url(#linearGradient11388)" />
      <path
         d="M -0.051,18.554 L -0.847,9.66 C -0.847,9.66 8.141,4.482 10.38,3.193 C 3.985,-0.79 -3.654,1.07 -3.741,1.093 C -10.903,2.996 -15.908,8.865 -15.908,15.222 C -15.908,15.461 -15.901,15.701 -15.887,15.94 C -15.887,15.941 -15.887,15.941 -15.887,15.942 C -15.887,16.299 -16.25,36.73 -19.253,42.838 C -20.334,45.036 -30.401,58.18 -42.058,73.4 C -54.195,89.247 -69.3,108.968 -70.298,111.44 C -70.839,112.778 -71.079,114.126 -71.079,115.435 C -71.079,119.221 -69.06,122.663 -66.483,124.621 C -66.083,123.92 -65.655,123.178 -65.197,122.392 C -67.02,121.101 -68.463,119.074 -68.895,116.783 C -69.291,114.687 -68.831,112.48 -67.631,110.726 C -66.46,109.013 -64.659,107.855 -62.561,107.463 C -60.935,107.16 -59.182,107.593 -57.621,108.682 C -57.428,108.817 -57.245,108.966 -57.063,109.118 C -46.315,92.233 -27.938,65.35 3.195,23.824 C 1.323,20.784 -0.051,18.554 -0.051,18.554 z"
         id="path72"
         style="fill:url(#linearGradient11392)"
         mask="url(#mask10545)"
         transform="translate(309.83849,405.96228)" />
      <path
         d="M 310.76249,424.19228 L 310.04449,416.17028 L 322.15949,409.19128 C 320.21949,407.64028 317.84449,406.51628 315.23549,405.92928 C 312.04649,405.90828 308.79349,406.38428 306.47749,407.16528 C 298.74149,409.77428 294.69849,415.49528 294.85149,422.31128 L 303.63249,437.15128 L 306.31749,435.47228 L 312.56749,446.29728 L 310.37649,447.80128 L 313.73849,451.42828 L 324.84249,447.04628 L 310.76249,424.19228 z"
         id="path86"
         style="fill:url(#radialGradient11394)" />
      <polygon
         id="rect10551_2_"
         points="65.82,36.446 76.487,27.791 85.179,40.128 72.511,46.783 65.82,36.446 "
         style="fill:url(#linearGradient11396)"
         transform="translate(229.83849,405.96228)" />
      <polygon
         id="rect10551"
         points="65.82,36.446 76.487,29.791 83.179,40.128 72.511,46.783 65.82,36.446 "
         style="fill:url(#radialGradient11398)"
         transform="translate(229.83849,405.96228)" />
      <polygon
         id="rect14950"
         points="68.311,35.653 74.616,32.078 80.237,40.809 73.932,44.384 68.311,35.653 "
         style="fill:url(#radialGradient11400)"
         transform="translate(229.83849,405.96228)" />
      <polygon
         id="rect10553"
         points="67.891,36.615 77.497,32.233 77.891,33.323 68.284,37.705 67.891,36.615 "
         style="fill:url(#radialGradient11402)"
         transform="translate(229.83849,405.96228)" />
      <polygon
         id="rect14938"
         points="72.212,42.972 81.653,38.899 82.001,39.827 72.56,43.9 72.212,42.972 "
         style="fill:url(#radialGradient11404)"
         transform="translate(229.83849,405.96228)" />
      <polygon
         id="rect14944"
         points="69.661,39.991 79.757,35.751 80.11,36.673 70.015,40.914 69.661,39.991 "
         style="fill:url(#radialGradient11406)"
         transform="translate(229.83849,405.96228)" />
      <path
         id="path34280"
         d="M 320.80249,431.89128 C 320.76149,432.16128 322.10049,439.91928 322.18149,440.18928 C 322.85449,444.45728 323.83149,444.59528 324.03549,445.34928 C 324.76349,444.93528 324.29249,445.39528 324.92349,444.84628 C 324.80849,444.48028 323.48549,441.99528 322.95849,441.11128 C 322.71249,438.97728 321.93149,433.00328 321.86449,432.43528 C 321.45549,432.21328 321.29849,432.12528 320.80249,431.89128 z"
         style="fill:url(#linearGradient11410)" />
      <path
         id="path30758"
         d="M 246.62049,511.92528 C 251.42949,510.02428 257.88249,515.30428 257.53849,521.11028 C 260.82449,517.31028 296.88449,460.33528 297.44649,457.74428 C 298.30649,453.77728 294.17949,450.82228 290.89849,452.88728 C 288.60949,454.32628 246.30749,512.04828 246.62049,511.92528 z"
         style="fill:url(#linearGradient11412)" />
      <path
         d="M 292.02849,454.56028 C 289.53249,456.91828 266.85449,487.60628 250.66249,509.77928 C 252.02149,510.08228 253.37949,510.67028 254.63749,511.58128 C 256.37949,512.84228 257.66849,514.51428 258.50849,516.33428 C 267.27449,503.42428 294.06749,460.80328 295.50149,457.24628 C 295.53749,457.05828 295.56249,456.87128 295.56249,456.69028 C 295.56249,455.85828 295.18949,455.11828 294.50449,454.63828 C 293.74349,454.10528 292.82549,454.08928 292.02849,454.56028 z"
         id="path159"
         style="fill:url(#linearGradient11414);stroke:#000000" />
      <path
         d="M 294.94349,422.46628 C 294.86849,425.66728 294.31649,443.48028 291.48249,449.24328 C 291.40649,449.39728 291.28449,449.60828 291.13649,449.84928 C 291.56049,449.26728 291.86549,448.81828 292.01449,448.54228 C 294.75749,443.48028 297.55549,430.48328 297.76449,427.23428 L 294.94349,422.46628 z"
         id="path166"
         style="fill:url(#radialGradient11416)" />
      <path
         d="M 258.69149,526.59428 C 259.24949,525.08628 259.45349,523.49328 259.17549,521.97428 C 258.59949,518.81928 256.61749,515.87328 253.87449,514.09028 C 251.69549,512.67428 249.24349,512.11128 246.97049,512.50528 C 244.03849,513.01528 241.52249,514.52228 239.88549,516.74928 C 238.45149,518.70028 237.78049,521.08528 237.96049,523.44028 C 239.33149,531.34628 248.26549,537.48228 255.82849,530.23128 C 256.49049,529.59728 257.46949,528.33628 258.69149,526.59428 z M 249.67949,528.73528 C 246.42549,529.34128 242.61749,526.22128 241.92549,522.55928 C 241.26049,519.03928 243.34749,515.17528 247.46049,514.40928 C 250.71349,513.80428 254.33749,516.82428 255.02549,520.87228 C 255.59449,524.22028 252.93349,528.13028 249.67949,528.73528 z"
         id="path173"
         style="opacity:0.5;fill:url(#linearGradient11418)" />
      <path
         d="M 256.01149,520.70428 C 255.59949,518.27928 254.18149,516.01528 252.21849,514.64428 C 250.65849,513.55528 248.90449,513.12328 247.27849,513.42528 C 245.18049,513.81728 243.38049,514.97528 242.20849,516.68828 C 241.00949,518.44128 240.54849,520.64928 240.94449,522.74528 C 241.75449,527.03328 246.08849,530.42228 249.86349,529.71928 C 253.62049,529.02028 256.66649,524.55528 256.01149,520.70428 z M 249.67949,528.73528 C 246.42549,529.34128 242.61749,526.22128 241.92549,522.55928 C 241.26049,519.03928 243.34749,515.17528 247.46049,514.40928 C 250.71349,513.80428 254.33749,516.82428 255.02549,520.87228 C 255.59449,524.22028 252.93349,528.13028 249.67949,528.73528 z"
         id="path180"
         style="fill:url(#linearGradient11420)" />
      <path
         d="M 285.39049,455.48028 C 285.64549,454.95828 285.88049,454.31028 286.09549,453.56728 C 274.64749,469.16528 240.27149,512.92628 238.61349,517.02828 C 238.29049,517.82728 238.07649,518.63728 237.94149,519.45128 C 242.96749,511.10428 283.36449,459.62828 285.39049,455.48028 z"
         id="path187"
         style="opacity:0.4;fill:url(#linearGradient11422)" />
      <path
         d="M 72.13,49.416 C 66.96,54.112 32.292,116.228 25.99,122.27 C 18.09,129.844 8.695,122.813 7.986,114.414 C 7.207,123.618 17.468,132.44 25.99,124.27 C 32.292,118.228 66.96,56.112 72.13,51.416 C 75.624,48.242 95.005,41.084 95.005,41.084 L 94.004,39.459 C 90.005,40.965 75.147,46.674 72.13,49.416 z"
         id="path65"
         style="fill:url(#linearGradient11424);filter:url(#filter4503)"
         clip-path="url(#clipPath4092)"
         transform="translate(229.83849,405.96228)" />
      <path
         id="rect22846"
         d="M 310.04449,416.17028 L 322.15949,409.19128 L 322.67749,410.88528 L 310.13349,418.26728 L 310.04449,416.17028 z"
         style="fill:url(#linearGradient11408)" />
      <path
         d="M 310.21449,416.07228 L 322.15949,409.19128 C 321.63949,408.78428 321.10749,408.43228 320.56949,408.10728 L 310.04449,414.17028 L 310.21449,416.07228 z"
         id="path46"
         style="fill:url(#linearGradient11390);fill-opacity:1" />
    </g>
    <g
       transform="matrix(0.51338217,0,0,0.51338217,63.14352,62.630159)"
       id="layer1-5">
      <g
         id="g2876"
         transform="matrix(0.9999917,0,0,1,-141.71258,242.21429)">
        <path
           style="filter:url(#filter2826)"
           id="path6"
           d="m 265.71479,-171.21229 0,-12.002 -12.439,-0.415 c -0.552,-4.127 -1.622,-8.089 -3.153,-11.816 l 10.555,-6.572 -6,-10.394 -10.981,5.861 c -2.503,-3.236 -5.408,-6.142 -8.645,-8.645 l 5.861,-10.981 -10.393,-5.999 -6.572,10.555 c -3.728,-1.532 -7.689,-2.603 -11.817,-3.155 l -0.416,-12.439 -12,0 -0.415,12.439 c -4.128,0.552 -8.09,1.623 -11.817,3.154 l -6.572,-10.554 -10.393,6 5.861,10.981 c -3.236,2.503 -6.142,5.409 -8.646,8.646 l -10.981,-5.861 -6,10.392 10.556,6.573 c -1.532,3.727 -2.603,7.689 -3.154,11.817 l -12.439,0.413 -0.001,12 12.44,0.415 c 0.552,4.128 1.623,8.09 3.154,11.817 l -10.555,6.573 5.999,10.393 10.983,-5.862 c 2.503,3.236 5.409,6.143 8.646,8.646 l -5.862,10.982 10.392,6 6.573,-10.557 c 3.727,1.531 7.689,2.603 11.817,3.154 l 0.414,12.439 12,0 0.415,-12.439 c 4.128,-0.552 8.09,-1.622 11.816,-3.154 l 6.572,10.556 10.393,-6 -5.861,-10.983 c 3.235,-2.503 6.142,-5.409 8.645,-8.645 l 10.981,5.861 6.001,-10.393 -10.556,-6.572 c 1.531,-3.727 2.603,-7.688 3.154,-11.816 l 12.44,-0.413 z m -60,23.998 c -16.542,0 -30,-13.458 -30,-30 0,-16.542 13.458,-30 30,-30 16.542,0 30,13.458 30,30 0,16.542 -13.458,30 -30,30 z" />
        <path
           style="fill:url(#radialGradient2894)"
           id="path13"
           d="m 265.71479,-172.21229 0,-12.002 -12.439,-0.415 c -0.552,-4.127 -1.622,-8.089 -3.153,-11.816 l 10.555,-6.572 -6,-10.394 -10.981,5.861 c -2.503,-3.236 -5.408,-6.142 -8.645,-8.645 l 5.861,-10.981 -10.393,-5.999 -6.572,10.555 c -3.728,-1.532 -7.689,-2.603 -11.817,-3.155 l -0.416,-12.439 -12,0 -0.415,12.439 c -4.128,0.552 -8.09,1.623 -11.817,3.154 l -6.572,-10.554 -10.393,6 5.861,10.981 c -3.236,2.503 -6.142,5.409 -8.646,8.646 l -10.981,-5.861 -6,10.392 10.556,6.573 c -1.532,3.727 -2.603,7.689 -3.154,11.817 l -12.439,0.413 -0.001,12 12.44,0.415 c 0.552,4.128 1.623,8.09 3.154,11.817 l -10.555,6.573 5.999,10.393 10.983,-5.862 c 2.503,3.236 5.409,6.143 8.646,8.646 l -5.862,10.982 10.392,6 6.573,-10.557 c 3.727,1.531 7.689,2.603 11.817,3.154 l 0.414,12.439 12,0 0.415,-12.439 c 4.128,-0.552 8.09,-1.622 11.816,-3.154 l 6.572,10.556 10.393,-6 -5.861,-10.983 c 3.235,-2.503 6.142,-5.409 8.645,-8.645 l 10.981,5.861 6.001,-10.393 -10.556,-6.572 c 1.531,-3.727 2.603,-7.688 3.154,-11.816 l 12.44,-0.413 z m -60,23.998 c -16.542,0 -30,-13.458 -30,-30 0,-16.542 13.458,-30 30,-30 16.542,0 30,13.458 30,30 0,16.542 -13.458,30 -30,30 z" />
        <path
           style="fill:url(#linearGradient2896)"
           id="path20"
           d="m 200.68179,-237.21429 c -0.055,1.645 -0.382,11.473 -0.382,11.473 -0.016,0.488 -0.383,0.893 -0.867,0.958 -3.989,0.533 -7.881,1.572 -11.569,3.088 -0.452,0.186 -0.972,0.018 -1.229,-0.396 0,0 -5.191,-8.338 -6.061,-9.734 -1.292,0.746 -7.425,4.287 -8.717,5.033 0.775,1.452 5.406,10.128 5.406,10.128 0.08,0.149 0.118,0.311 0.118,0.47 0,0.301 -0.136,0.597 -0.388,0.792 -3.167,2.45 -6.016,5.299 -8.466,8.466 -0.298,0.386 -0.832,0.5 -1.262,0.271 0,0 -8.677,-4.631 -10.128,-5.406 -0.746,1.292 -4.287,7.425 -5.033,8.717 1.396,0.87 9.734,6.061 9.734,6.061 0.301,0.188 0.472,0.513 0.472,0.85 0,0.127 -0.024,0.256 -0.075,0.38 -1.517,3.689 -2.556,7.582 -3.088,11.569 -0.064,0.484 -0.47,0.851 -0.958,0.867 0,0 -9.828,0.328 -11.473,0.382 0,0.994 0,2.289 0,3.171 8.88,1.789 18.332,3.162 28.128,4.095 -0.06,-1.024 -0.129,-2.235 -0.129,-2.235 0,-17.093 13.907,-31 31,-31 17.094,0 31,13.907 31,31 0,0 -0.07,1.223 -0.129,2.251 9.789,-0.925 19.24,-2.292 28.129,-4.074 0,-0.887 0,-2.208 0,-3.209 -1.645,-0.055 -11.473,-0.382 -11.473,-0.382 -0.488,-0.016 -0.894,-0.383 -0.958,-0.867 -0.533,-3.988 -1.572,-7.88 -3.087,-11.568 -0.051,-0.124 -0.075,-0.252 -0.075,-0.379 0,-0.337 0.171,-0.662 0.472,-0.85 0,0 8.337,-5.191 9.733,-6.061 -0.746,-1.292 -4.287,-7.426 -5.033,-8.718 -1.451,0.774 -10.128,5.406 -10.128,5.406 -0.43,0.229 -0.963,0.115 -1.262,-0.271 -2.45,-3.168 -5.299,-6.017 -8.465,-8.466 -0.253,-0.195 -0.389,-0.49 -0.389,-0.792 0,-0.16 0.038,-0.321 0.118,-0.47 0,0 4.631,-8.676 5.405,-10.128 -1.292,-0.746 -7.425,-4.288 -8.717,-5.034 -0.87,1.396 -6.062,9.734 -6.062,9.734 -0.258,0.414 -0.777,0.582 -1.229,0.396 -3.689,-1.516 -7.582,-2.555 -11.57,-3.088 -0.483,-0.065 -0.851,-0.47 -0.866,-0.958 0,0 -0.328,-9.828 -0.383,-11.473 -1.49,0.001 -8.572,0.001 -10.064,0.001 z" />
        <path
           style="fill:url(#linearGradient2898)"
           id="path27"
           d="m 205.71479,-212.21429 c -18.777,0 -34,15.223 -34,34 0,18.778 15.223,34 34,34 18.778,0 34,-15.222 34,-34 0,-18.777 -15.222,-34 -34,-34 z m 0,59 c -13.785,0 -25,-11.215 -25,-25 0,-13.785 11.215,-25 25,-25 13.785,0 25,11.215 25,25 0,13.785 -11.215,25 -25,25 z" />
        <path
           style="fill:url(#linearGradient2900)"
           id="path44"
           d="m 205.71479,-210.21429 c -17.645,0 -32,14.355 -32,32 0,17.645 14.355,32 32,32 17.645,0 32,-14.355 32,-32 0,-17.645 -14.355,-32 -32,-32 z m 0,57 c -13.785,0 -25,-11.215 -25,-25 0,-13.785 11.215,-25 25,-25 13.785,0 25,11.215 25,25 0,13.785 -11.215,25 -25,25 z" />
        <path
           style="fill:url(#linearGradient2902)"
           id="path51"
           d="m 205.71479,-204.21429 c -14.336,0 -26,11.664 -26,26 0,14.337 11.664,26 26,26 14.337,0 26,-11.663 26,-26 0,-14.336 -11.663,-26 -26,-26 z m 0,50 c -13.233,0 -24,-10.767 -24,-24 0,-13.233 10.767,-24 24,-24 13.233,0 24,10.767 24,24 0,13.233 -10.767,24 -24,24 z" />
        <path
           style="fill:#ffffff"
           id="path53"
           d="m 161.00579,-159.79329 -10.253,6.384 0.425,0.735 10.131,-6.308 c -0.11,-0.266 -0.199,-0.543 -0.303,-0.811 z" />
        <path
           style="fill:#ffffff"
           id="path55"
           d="m 180.91079,-232.17529 6.572,10.555 c 3.727,-1.532 7.689,-2.603 11.817,-3.154 l 0.415,-12.44 12,0 0.415,12.439 c 4.128,0.552 8.09,1.623 11.817,3.155 l 6.572,-10.555 9.984,5.766 0.408,-0.765 -10.391,-6.001 -6.572,10.555 c -3.728,-1.532 -7.689,-2.603 -11.817,-3.155 l -0.416,-12.439 -12,0 -0.415,12.439 c -4.128,0.552 -8.09,1.623 -11.817,3.154 l -6.572,-10.554 -10.393,6 0.408,0.765 9.985,-5.765 z" />
        <path
           style="fill:#ffffff"
           id="path57"
           d="m 235.42079,-215.88729 -0.37,0.694 c 3.236,2.503 6.142,5.409 8.645,8.645 l 10.981,-5.861 5.575,9.658 0.425,-0.265 -6,-10.394 -10.981,5.861 c -2.406,-3.108 -5.19,-5.903 -8.275,-8.338 z" />
        <path
           style="fill:#ffffff"
           id="path59"
           d="m 176.00979,-139.53929 -5.491,10.288 0.408,0.235 5.454,-10.218 c -0.127,-0.097 -0.245,-0.207 -0.371,-0.305 z" />
        <path
           style="opacity:0.5;fill:#ffffff"
           id="path61"
           d="m 249.69579,-176.83029 c -0.394,23.923 -19.966,43.267 -43.981,43.267 -24.016,0 -43.587,-19.344 -43.981,-43.267 -0.004,0.244 -0.019,0.487 -0.019,0.732 0,24.262 19.738,44 44,44 24.262,0 44,-19.738 44,-44 0,-0.245 -0.015,-0.488 -0.019,-0.732 z" />
        <path
           style="fill:#ffffff"
           id="path63"
           d="m 253.27579,-184.62829 c -0.513,-3.833 -1.489,-7.514 -2.85,-11.005 l -0.304,0.189 c 1.531,3.727 2.602,7.688 3.153,11.816 l 12.44,0.414 0,-1 -12.439,-0.414 z" />
        <path
           style="fill:#ffffff"
           id="path65-4"
           d="m 250.12079,-158.98229 10.131,6.308 0.425,-0.735 -10.252,-6.384 c -0.106,0.268 -0.194,0.545 -0.304,0.811 z" />
        <path
           style="fill:#ffffff"
           id="path67"
           d="m 156.75279,-212.41029 10.981,5.861 c 2.503,-3.236 5.409,-6.142 8.646,-8.646 l -0.371,-0.694 c -3.084,2.435 -5.87,5.23 -8.275,8.339 l -10.981,-5.861 -6,10.392 0.425,0.265 5.575,-9.656 z" />
        <path
           style="fill:#ffffff"
           id="path69"
           d="m 235.04979,-139.23429 5.453,10.217 0.408,-0.235 -5.491,-10.287 c -0.125,0.098 -0.243,0.208 -0.37,0.305 z" />
        <path
           style="fill:#ffffff"
           id="path71"
           d="m 145.71479,-183.21429 12.439,-0.415 c 0.551,-4.128 1.623,-8.09 3.154,-11.817 l -0.303,-0.189 c -1.361,3.491 -2.339,7.173 -2.851,11.006 l -12.439,0.415 -0.001,12 0,0 0.001,-11 z" />
      </g>
    </g>
  </g>
</svg>
