<?xml version="1.0" encoding="UTF-8"?>
<svg width="128" height="128" enable-background="new 0 0 138 111" overflow="visible" version="1.0" viewBox="0 0 138 111" xml:space="preserve" xmlns="http://www.w3.org/2000/svg" xmlns:xlink="http://www.w3.org/1999/xlink"><defs><linearGradient id="linearGradient3992"><stop stop-color="#eefd56" stop-opacity=".6863" offset="0"/><stop stop-color="#fff" stop-opacity=".7091" offset="1"/></linearGradient><linearGradient id="linearGradient3984"><stop stop-color="#fff9c6" offset="0"/><stop stop-color="#f6f66c" offset=".5796"/><stop stop-color="#aac226" offset="1"/></linearGradient><linearGradient id="linearGradient3976"><stop stop-color="#16367a" stop-opacity="0" offset="0"/><stop stop-color="#7a7a16" stop-opacity="0" offset=".795"/><stop stop-color="#43470c" offset="1"/></linearGradient><linearGradient id="linearGradient3844"><stop stop-color="#fd56f7" stop-opacity=".6863" offset="0"/><stop stop-color="#fff" stop-opacity=".7091" offset="1"/></linearGradient><linearGradient id="linearGradient3836"><stop stop-color="#16367a" stop-opacity="0" offset="0"/><stop stop-color="#7a166f" stop-opacity="0" offset=".795"/><stop stop-color="#59104d" offset="1"/></linearGradient><linearGradient id="linearGradient3828"><stop stop-color="#fdc6ff" offset="0"/><stop stop-color="#f16cf6" offset=".5796"/><stop stop-color="#bd26c2" offset="1"/></linearGradient><linearGradient id="linearGradient3750"><stop stop-color="#fff" offset="0"/><stop stop-color="#fff" stop-opacity="0" offset="1"/></linearGradient><linearGradient id="linearGradient3604"><stop stop-color="#56e4fd" stop-opacity=".6873" offset="0"/><stop stop-color="#fff" stop-opacity=".7091" offset="1"/></linearGradient><linearGradient id="linearGradient3524"><stop stop-color="#16367a" stop-opacity="0" offset="0"/><stop stop-color="#16367a" stop-opacity="0" offset=".795"/><stop stop-color="#16367a" offset="1"/></linearGradient><linearGradient id="linearGradient3497"><stop stop-color="#58e8ff" offset="0"/><stop stop-color="#51d2f4" offset=".5796"/><stop stop-color="#2654c2" offset="1"/></linearGradient><linearGradient id="linearGradient3467"><stop offset="0"/><stop stop-opacity="0" offset="1"/></linearGradient><linearGradient id="linearGradient3227"><stop stop-color="#656565" offset="0"/><stop stop-color="#f5f5f5" offset="1"/></linearGradient><filter id="filter3215"><feGaussianBlur stdDeviation="1.2988175"/></filter><filter id="filter3251"><feGaussianBlur stdDeviation="0.57076996"/></filter><clipPath id="clipPath3265"><path d="m377-19.97a56.03 56.03 0 1 1-112.1 0 56.03 56.03 0 1 1 112.1 0z" fill="none" filter="url(#filter3251)" stroke="url(#linearGradient3269)" stroke-dashoffset="4.15" stroke-linecap="round" stroke-linejoin="round" stroke-width=".9936"/></clipPath><linearGradient id="linearGradient3269" x1="328.4" x2="326.5" y1="33.78" y2="-88.12" gradientUnits="userSpaceOnUse" xlink:href="#linearGradient3467"/><filter id="filter3275"><feGaussianBlur stdDeviation="1.7100444"/></filter><filter id="filter3448"><feGaussianBlur stdDeviation="0.29695312"/></filter><filter id="filter3475"><feGaussianBlur stdDeviation="0.31492188"/></filter><filter id="filter3594"><feGaussianBlur stdDeviation="0.66601563"/></filter><clipPath id="clipPath3598"><path d="m549.1-40.48c-19.32 0-35.01 15.69-35.01 35.01s15.69 34.98 35.01 34.98c19.32 0 34.98-15.66 34.98-34.98s-15.66-35.01-34.98-35.01z" fill="#aac0ef"/></clipPath><filter id="filter3740"><feGaussianBlur stdDeviation="0.60528572"/></filter><filter id="filter3746"><feGaussianBlur stdDeviation="0.23930338"/></filter><radialGradient id="XMLID_8_" cx="102" cy="112.3" r="139.6" gradientUnits="userSpaceOnUse"><stop stop-color="#d5d5d5" offset="0"/><stop stop-color="#eee" offset=".1885"/><stop stop-color="#f2f2f2" offset=".2572"/><stop stop-color="#fafafa" offset=".3011"/><stop stop-color="#FAFAFA" offset=".5313"/><stop stop-color="#dadcdc" offset=".8449"/><stop stop-color="#E1E2E3" offset="1"/></radialGradient><filter id="filter4883"><feGaussianBlur stdDeviation="2.8945254"/></filter><radialGradient id="radialGradient5053" cx="-110.1" cy="163.2" r="52.6" gradientTransform="matrix(4.835 -.05822 .04734 3.932 632.5 -516.9)" gradientUnits="userSpaceOnUse" xlink:href="#XMLID_8_"/><radialGradient id="radialGradient5058" cx="-117.5" cy="167.5" r="52.6" gradientTransform="matrix(4.899 -.05899 .04797 3.984 677.7 -560.5)" gradientUnits="userSpaceOnUse" xlink:href="#XMLID_8_"/><linearGradient id="linearGradient5382" x1="320.9" x2="320.9" y1="30.62" y2="-72.66" gradientUnits="userSpaceOnUse" xlink:href="#linearGradient3227"/><radialGradient id="radialGradient5384" cx="462" cy="-50.08" r="21.35" fx="461.5" fy="-62.78" gradientTransform="matrix(1.924 -.02976 .009209 1.25 -426.6 26.27)" gradientUnits="userSpaceOnUse" xlink:href="#linearGradient3750"/><radialGradient id="radialGradient5386" cx="654.5" cy="-20.36" r="38.29" fx="653.8" fy="3.277" gradientTransform="matrix(.6357 0 0 .6357 -315.5 37.17)" gradientUnits="userSpaceOnUse" xlink:href="#linearGradient3828"/><linearGradient id="linearGradient5390" x1="529.5" x2="529.1" y1="-49.41" y2="-2.032" gradientUnits="userSpaceOnUse" xlink:href="#linearGradient3467"/><linearGradient id="linearGradient5394" x1="425.9" x2="426.3" y1="7.406" y2="-21.59" gradientUnits="userSpaceOnUse" xlink:href="#linearGradient3750"/><linearGradient id="linearGradient5396" x1="425.2" x2="424.9" y1="35.69" y2="12" gradientUnits="userSpaceOnUse" xlink:href="#linearGradient3750"/><linearGradient id="linearGradient5398" x1="529.5" x2="529.6" y1="-49.41" y2="-22.28" gradientUnits="userSpaceOnUse" xlink:href="#linearGradient3467"/><linearGradient id="linearGradient5400" x1="455.3" x2="452.7" y1="-91.46" y2="-34.05" gradientTransform="matrix(.6517 0 0 .6517 -194.4 36.88)" gradientUnits="userSpaceOnUse" xlink:href="#linearGradient3750"/><radialGradient id="radialGradient5402" cx="549.1" cy="-5.5" r="34.64" fy="15.37" gradientTransform="matrix(1 0 0 .9995 0 -.002481)" gradientUnits="userSpaceOnUse" xlink:href="#linearGradient3836"/><radialGradient id="radialGradient5404" cx="455.5" cy="-40.35" r="14.1" fy="-32.88" gradientTransform="matrix(1.486 -8.417e-7 1.041e-6 1.838 -221.6 32.46)" gradientUnits="userSpaceOnUse" xlink:href="#linearGradient3844"/><radialGradient id="radialGradient5406" cx="419.7" cy="-36.61" r="27.47" gradientTransform="matrix(.6524 0 0 .5881 -173.3 28.02)" gradientUnits="userSpaceOnUse" xlink:href="#linearGradient3750"/><radialGradient id="radialGradient5412" cx="654.5" cy="-20.36" r="38.29" fx="653.8" fy="3.277" gradientTransform="matrix(.6357 0 0 .6357 -298.1 105.3)" gradientUnits="userSpaceOnUse" xlink:href="#linearGradient3984"/><linearGradient id="linearGradient5426" x1="455.3" x2="452.7" y1="-91.46" y2="-34.05" gradientTransform="matrix(.6517 0 0 .6517 -177 105.1)" gradientUnits="userSpaceOnUse" xlink:href="#linearGradient3750"/><radialGradient id="radialGradient5428" cx="549.1" cy="-5.5" r="34.64" fy="15.37" gradientTransform="matrix(1 0 0 .9995 0 -.002481)" gradientUnits="userSpaceOnUse" xlink:href="#linearGradient3976"/><radialGradient id="radialGradient5430" cx="455.5" cy="-40.35" r="14.1" fy="-32.88" gradientTransform="matrix(1.486 -8.417e-7 1.041e-6 1.838 -221.6 32.46)" gradientUnits="userSpaceOnUse" xlink:href="#linearGradient3992"/><radialGradient id="radialGradient5432" cx="419.7" cy="-36.61" r="27.47" gradientTransform="matrix(.6524 0 0 .5881 -155.9 96.19)" gradientUnits="userSpaceOnUse" xlink:href="#linearGradient3750"/><radialGradient id="radialGradient5438" cx="654.5" cy="-20.36" r="38.29" fx="653.8" fy="3.277" gradientTransform="matrix(.6357 0 0 .6357 -387.7 35.51)" gradientUnits="userSpaceOnUse" xlink:href="#linearGradient3497"/><linearGradient id="linearGradient5452" x1="455.3" x2="452.7" y1="-91.46" y2="-34.05" gradientTransform="matrix(.6517 0 0 .6517 -266.6 35.22)" gradientUnits="userSpaceOnUse" xlink:href="#linearGradient3750"/><radialGradient id="radialGradient5454" cx="549.1" cy="-5.5" r="34.64" fy="15.37" gradientTransform="matrix(1 0 0 .9995 0 -.002481)" gradientUnits="userSpaceOnUse" xlink:href="#linearGradient3524"/><radialGradient id="radialGradient5456" cx="455.5" cy="-40.35" r="14.1" fy="-32.88" gradientTransform="matrix(1.486 -8.417e-7 1.041e-6 1.838 -221.6 32.46)" gradientUnits="userSpaceOnUse" xlink:href="#linearGradient3604"/><radialGradient id="radialGradient5458" cx="419.7" cy="-36.61" r="27.47" gradientTransform="matrix(.6524 0 0 .5881 -245.5 26.36)" gradientUnits="userSpaceOnUse" xlink:href="#linearGradient3750"/><radialGradient id="radialGradient5516" cx="654.5" cy="-20.36" r="38.29" fx="653.8" fy="3.277" gradientTransform="matrix(.6357 0 0 .6357 -384.6 115.2)" gradientUnits="userSpaceOnUse"><stop stop-color="#c6ff92" offset="0"/><stop stop-color="#9ef451" offset=".5796"/><stop stop-color="#6fc226" offset="1"/></radialGradient><linearGradient id="linearGradient5530" x1="455.3" x2="452.7" y1="-91.46" y2="-34.05" gradientTransform="matrix(.6517 0 0 .6517 -263.4 114.9)" gradientUnits="userSpaceOnUse" xlink:href="#linearGradient3750"/><radialGradient id="radialGradient5532" cx="549.1" cy="-5.5" r="34.64" fy="15.37" gradientTransform="matrix(1 0 0 .9995 0 -.002481)" gradientUnits="userSpaceOnUse"><stop stop-color="#3e6b13" stop-opacity="0" offset="0"/><stop stop-color="#477a16" stop-opacity="0" offset=".795"/><stop stop-color="#426111" offset="1"/></radialGradient><radialGradient id="radialGradient5534" cx="455.5" cy="-40.35" r="14.1" fy="-32.88" gradientTransform="matrix(1.486 -8.417e-7 1.041e-6 1.838 -221.6 32.46)" gradientUnits="userSpaceOnUse"><stop stop-color="#acfd56" stop-opacity=".6863" offset="0"/><stop stop-color="#fff" stop-opacity=".7091" offset="1"/></radialGradient><radialGradient id="radialGradient5536" cx="419.7" cy="-36.61" r="27.47" gradientTransform="matrix(.6524 0 0 .5881 -242.3 106)" gradientUnits="userSpaceOnUse" xlink:href="#linearGradient3750"/><filter id="filter5580"><feGaussianBlur stdDeviation="3.1546906"/></filter></defs>
<filter>
	<feGaussianBlur stdDeviation="4"/>
</filter>
<filter>
	<feGaussianBlur stdDeviation="3"/>
</filter>
<filter>
	<feGaussianBlur stdDeviation="2"/>
</filter><g>


<path transform="matrix(.9475 0 0 .9475 -63.07 29.98)" d="m110.6-40.59 88.19 6.182c4.141 0.2903 7.24 3.857 6.95 7.998l-6.182 88.19c-0.2903 4.141-3.857 7.24-7.998 6.95l-88.19-6.182c-4.141-0.2903-7.24-3.857-6.95-7.998l6.182-88.19c0.2903-4.141 3.857-7.24 7.998-6.95z" filter="url(#filter5580)"/><rect transform="matrix(.9976 .06993 -.06993 .9976 0 0)" x="32.61" y="-14.25" width="99.68" height="99.68" rx="7.223" ry="7.223" fill="#fff"/><rect transform="matrix(.9976 .06993 -.06993 .9976 0 0)" x="33.47" y="-13.39" width="97.96" height="97.96" rx="7.099" ry="7.099" fill="url(#radialGradient5058)"/></g><g transform="matrix(1.082 0 0 1.082 -9.155 -7.851)"><g transform="matrix(.481 0 0 .481 61.25 10.01)" opacity=".332"><g><path transform="matrix(.5702 0 0 .5702 -82.23 36.21)" d="m377-19.97a56.03 56.03 0 0 1-56.03 56.03 56.03 56.03 0 0 1-56.03-56.03 56.03 56.03 0 0 1 56.03-56.03 56.03 56.03 0 0 1 56.03 56.03z" fill="url(#linearGradient5382)" filter="url(#filter3215)" stroke="#000" stroke-dashoffset="4.15" stroke-linecap="round" stroke-linejoin="round" stroke-width=".4988"/><path transform="matrix(.9137 0 0 .6306 -321.8 42.38)" d="m483.3-50.08a21.35 26.68 0 0 1-21.35 26.68 21.35 26.68 0 0 1-21.35-26.68 21.35 26.68 0 0 1 21.35-26.68 21.35 26.68 0 0 1 21.35 26.68z" fill="url(#radialGradient5384)" filter="url(#filter3746)" opacity=".4062"/><path d="m100.6-0.1075c-13.44 0-24.35 10.91-24.35 24.35 0 13.44 10.91 24.33 24.35 24.33 13.44 0 24.33-10.89 24.33-24.33 0-13.44-10.89-24.35-24.33-24.35z" fill="url(#radialGradient5386)" opacity="1"/></g><path transform="matrix(.5702 0 0 .5702 -82.23 36.06)" d="m377-19.97a56.03 56.03 0 0 1-56.03 56.03 56.03 56.03 0 0 1-56.03-56.03 56.03 56.03 0 0 1 56.03-56.03 56.03 56.03 0 0 1 56.03 56.03z" clip-path="url(#clipPath3265)" fill="none" filter="url(#filter3251)" stroke="url(#linearGradient3269)" stroke-dashoffset="4.15" stroke-linecap="round" stroke-linejoin="round" stroke-width=".9936"/><path transform="matrix(.7026 0 0 .7026 -261 28.09)" d="m514.8-41.88c-19.61 0-35.53 15.92-35.53 35.53 0 3.403 0.4796 6.697 1.375 9.812-0.6841-2.729-1.062-5.591-1.062-8.531-1e-5 -19.31 15.69-35 35-35 19.31 1e-6 35 15.69 35 35 0 6.639-1.847 12.83-5.062 18.12 3.652-5.58 5.781-12.24 5.781-19.41 0-19.61-15.89-35.53-35.5-35.53z" fill="url(#linearGradient5390)" filter="url(#filter3475)" opacity=".3906"/><path transform="matrix(.5702 0 0 .5702 -82.23 35.84)" d="m377-19.97a56.03 56.03 0 0 1-56.03 56.03 56.03 56.03 0 0 1-56.03-56.03 56.03 56.03 0 0 1 56.03-56.03 56.03 56.03 0 0 1 56.03 56.03z" clip-path="url(#clipPath3265)" fill="none" filter="url(#filter3275)" stroke="url(#linearGradient3269)" stroke-dashoffset="4.15" stroke-linecap="round" stroke-linejoin="round" stroke-width="2.583"/><g><path transform="matrix(.7026 0 0 .7026 -194.4 28.09)" d="m385.9-16.09c-1.141 3.502-1.75 7.213-1.75 11.09 0 19.82 16.09 35.91 35.91 35.91 19.82 0 35.88-16.09 35.88-35.91 0-3.881-0.6094-7.592-1.75-11.09 0.8842 3.1 1.375 6.368 1.375 9.75 1e-5 19.61-15.89 35.5-35.5 35.5-19.61-1e-6 -35.53-15.89-35.53-35.5 0-3.382 0.4908-6.65 1.375-9.75z" fill="url(#linearGradient5394)" filter="url(#filter3448)" opacity=".5703"/><path transform="matrix(.7026 0 0 .7026 -194.4 28.09)" d="m385.9-16.09c-1.141 3.502-1.75 7.213-1.75 11.09 0 19.82 16.09 34.91 35.91 34.91 19.82 0 35.88-15.09 35.88-34.91 0-3.881-0.6094-7.592-1.75-11.09 0.8842 3.1 1.375 6.368 1.375 9.75 1e-5 19.61-15.89 35.5-35.5 35.5-19.61-1e-6 -35.53-15.89-35.53-35.5 0-3.382 0.4908-6.65 1.375-9.75z" fill="url(#linearGradient5396)" filter="url(#filter3448)" opacity="1"/><path transform="matrix(.7026 0 0 .7026 -261 28.09)" d="m514.8-40.88c-19.61 0-35.53 14.92-35.53 34.53 0 3.403 0.4796 6.697 1.375 9.812-0.6841-2.729-1.062-5.591-1.062-8.531-1e-5 -19.31 15.69-35 35-35 19.31 1e-6 35 15.69 35 35 0 6.639-1.847 12.83-5.062 18.12 3.652-5.58 5.781-12.24 5.781-19.41 0-19.61-15.89-34.53-35.5-34.53z" fill="url(#linearGradient5398)" filter="url(#filter3475)" opacity="1"/><path d="m100.7-1.864c-13.97 0-25.32 11.23-25.32 25.05 0 5.358 1.71 10.31 4.611 14.38-2.693-3.981-4.26-8.777-4.26-13.94-1.1e-5 -13.78 11.19-24.97 24.97-24.97 13.78 0 24.94 11.19 24.94 24.97 0 5.166-1.57 9.962-4.26 13.94 2.897-4.071 4.611-9.024 4.611-14.38 0-13.83-11.32-25.05-25.29-25.05z" fill="url(#linearGradient5400)" opacity="1"/><path transform="matrix(.7026 0 0 .7026 -285.5 28.09)" d="m549.1-40.12c-19.12 1e-6 -34.66 15.53-34.66 34.66-1e-5 17.55 13.1 32.01 30.03 34.28-14.59-2.228-25.78-14.82-25.78-30.03 0-16.78 13.62-30.41 30.41-30.41 16.78 0 30.41 13.62 30.41 30.41 0 15.73-11.96 28.66-27.28 30.22 17.67-1.573 31.5-16.39 31.5-34.47 0-19.12-15.5-34.66-34.62-34.66zm3.125 69.12c-0.5108 0.05186-1.045 0.09875-1.562 0.125 0.5187-0.02306 1.05-0.07936 1.562-0.125zm-7.75-0.1875c0.5116 0.06861 1.013 0.1415 1.531 0.1875-0.5108-0.05186-1.028-0.1107-1.531-0.1875zm1.531 0.1875c0.5101 0.0453 1.015 0.1021 1.531 0.125-0.518-0.02625-1.02-0.07314-1.531-0.125z" clip-path="url(#clipPath3598)" fill="url(#radialGradient5402)" filter="url(#filter3594)" opacity="1"/><path transform="matrix(.7373 0 0 .6411 -235.3 35.52)" d="m469.6-34.83a14.1 17.53 0 0 1-14.1 17.53 14.1 17.53 0 0 1-14.1-17.53 14.1 17.53 0 0 1 14.1-17.53 14.1 17.53 0 0 1 14.1 17.53z" fill="url(#radialGradient5404)" filter="url(#filter3740)" opacity=".4062"/><path d="m101.6 2.66 0.1835 3.833c1.52 0.02729 3 0.1701 4.424 0.3949-0.2959-1.247-0.5883-2.494-0.8971-3.74-1.188-0.2693-2.428-0.4227-3.711-0.4878zm-2.814 0.02323c-1.232 0.09362-2.431 0.297-3.568 0.5807-0.3279 1.321-0.6453 2.648-0.9583 3.972 1.466-0.3296 2.997-0.5366 4.587-0.6504l0.1835-3.902c-0.08373 0.005413-0.1613-0.006338-0.2447 0zm8.767 1.115c0.3775 1.19 0.7499 2.382 1.121 3.577 2.68 0.6577 5.113 1.642 7.157 2.903-1.588-2.851-4.55-5.169-8.278-6.481zm-14.9 0.2787c-3.992 1.601-7.011 4.394-8.217 7.735 1.867-1.549 4.237-2.821 6.932-3.74 0.4258-1.331 0.8509-2.662 1.285-3.995zm9.195 3.693 0.2854 5.598c1.954 0.05081 3.862 0.2263 5.668 0.5575-0.4097-1.902-0.8399-3.809-1.285-5.714-1.501-0.2525-3.06-0.4095-4.669-0.4413zm-3.058 0.06968c-1.689 0.1239-3.306 0.3999-4.853 0.7665-0.4422 1.904-0.8554 3.807-1.264 5.714 1.855-0.4471 3.808-0.7414 5.852-0.8827l0.2651-5.598zm10.32 0.9291c0.6039 1.958 1.208 3.933 1.794 5.9 2.189 0.6209 4.193 1.427 5.974 2.416 0.1484-0.6695 0.2243-1.343 0.2243-2.044 0-1.024-0.1768-1.998-0.4893-2.95-2.095-1.433-4.641-2.573-7.503-3.322zm-18.21 0.7201c-2.706 0.9796-5.068 2.328-6.891 3.949-0.0912 0.5263-0.1427 1.058-0.1427 1.603 0 0.9359 0.1432 1.84 0.4078 2.718 1.425-0.9021 3.025-1.694 4.771-2.346 0.6071-1.971 1.228-3.949 1.855-5.923z" fill="url(#radialGradient5406)" opacity=".5898"/></g></g><g transform="matrix(.481 0 0 .481 49.51 28.72)" opacity=".3789"><g><path transform="matrix(.5702 0 0 .5702 -64.84 104.4)" d="m377-19.97a56.03 56.03 0 0 1-56.03 56.03 56.03 56.03 0 0 1-56.03-56.03 56.03 56.03 0 0 1 56.03-56.03 56.03 56.03 0 0 1 56.03 56.03z" fill="url(#linearGradient5382)" filter="url(#filter3215)" stroke="#000" stroke-dashoffset="4.15" stroke-linecap="round" stroke-linejoin="round" stroke-width=".4988"/><path transform="matrix(.9137 0 0 .6306 -304.4 110.6)" d="m483.3-50.08a21.35 26.68 0 0 1-21.35 26.68 21.35 26.68 0 0 1-21.35-26.68 21.35 26.68 0 0 1 21.35-26.68 21.35 26.68 0 0 1 21.35 26.68z" fill="url(#radialGradient5384)" filter="url(#filter3746)" opacity=".4062"/><path d="m118 68.07c-13.44 0-24.35 10.91-24.35 24.35 0 13.44 10.91 24.33 24.35 24.33s24.33-10.89 24.33-24.33c0-13.44-10.89-24.35-24.33-24.35z" fill="url(#radialGradient5412)" opacity="1"/></g><path transform="matrix(.5702 0 0 .5702 -64.84 104.2)" d="m377-19.97a56.03 56.03 0 0 1-56.03 56.03 56.03 56.03 0 0 1-56.03-56.03 56.03 56.03 0 0 1 56.03-56.03 56.03 56.03 0 0 1 56.03 56.03z" clip-path="url(#clipPath3265)" fill="none" filter="url(#filter3251)" stroke="url(#linearGradient3269)" stroke-dashoffset="4.15" stroke-linecap="round" stroke-linejoin="round" stroke-width=".9936"/><path transform="matrix(.7026 0 0 .7026 -243.7 96.26)" d="m514.8-41.88c-19.61 0-35.53 15.92-35.53 35.53 0 3.403 0.4796 6.697 1.375 9.812-0.6841-2.729-1.062-5.591-1.062-8.531-1e-5 -19.31 15.69-35 35-35 19.31 1e-6 35 15.69 35 35 0 6.639-1.847 12.83-5.062 18.12 3.652-5.58 5.781-12.24 5.781-19.41 0-19.61-15.89-35.53-35.5-35.53z" fill="url(#linearGradient5390)" filter="url(#filter3475)" opacity=".3906"/><path transform="matrix(.5702 0 0 .5702 -64.84 104)" d="m377-19.97a56.03 56.03 0 0 1-56.03 56.03 56.03 56.03 0 0 1-56.03-56.03 56.03 56.03 0 0 1 56.03-56.03 56.03 56.03 0 0 1 56.03 56.03z" clip-path="url(#clipPath3265)" fill="none" filter="url(#filter3275)" stroke="url(#linearGradient3269)" stroke-dashoffset="4.15" stroke-linecap="round" stroke-linejoin="round" stroke-width="2.583"/><g><path transform="matrix(.7026 0 0 .7026 -177 96.26)" d="m385.9-16.09c-1.141 3.502-1.75 7.213-1.75 11.09 0 19.82 16.09 35.91 35.91 35.91 19.82 0 35.88-16.09 35.88-35.91 0-3.881-0.6094-7.592-1.75-11.09 0.8842 3.1 1.375 6.368 1.375 9.75 1e-5 19.61-15.89 35.5-35.5 35.5-19.61-1e-6 -35.53-15.89-35.53-35.5 0-3.382 0.4908-6.65 1.375-9.75z" fill="url(#linearGradient5394)" filter="url(#filter3448)" opacity=".5703"/><path transform="matrix(.7026 0 0 .7026 -177 96.26)" d="m385.9-16.09c-1.141 3.502-1.75 7.213-1.75 11.09 0 19.82 16.09 34.91 35.91 34.91 19.82 0 35.88-15.09 35.88-34.91 0-3.881-0.6094-7.592-1.75-11.09 0.8842 3.1 1.375 6.368 1.375 9.75 1e-5 19.61-15.89 35.5-35.5 35.5-19.61-1e-6 -35.53-15.89-35.53-35.5 0-3.382 0.4908-6.65 1.375-9.75z" fill="url(#linearGradient5396)" filter="url(#filter3448)" opacity="1"/><path transform="matrix(.7026 0 0 .7026 -243.7 96.26)" d="m514.8-40.88c-19.61 0-35.53 14.92-35.53 34.53 0 3.403 0.4796 6.697 1.375 9.812-0.6841-2.729-1.062-5.591-1.062-8.531-1e-5 -19.31 15.69-35 35-35 19.31 1e-6 35 15.69 35 35 0 6.639-1.847 12.83-5.062 18.12 3.652-5.58 5.781-12.24 5.781-19.41 0-19.61-15.89-34.53-35.5-34.53z" fill="url(#linearGradient5398)" filter="url(#filter3475)" opacity="1"/><path d="m118.1 66.31c-13.97 0-25.32 11.23-25.32 25.05 0 5.358 1.71 10.31 4.611 14.38-2.693-3.981-4.26-8.777-4.26-13.94-1.2e-5 -13.78 11.19-24.97 24.97-24.97 13.78 0 24.94 11.19 24.94 24.97 0 5.166-1.57 9.962-4.26 13.94 2.897-4.071 4.611-9.024 4.611-14.38 0-13.83-11.32-25.05-25.29-25.05z" fill="url(#linearGradient5426)" opacity="1"/><path transform="matrix(.7026 0 0 .7026 -268.1 96.26)" d="m549.1-40.12c-19.12 1e-6 -34.66 15.53-34.66 34.66-1e-5 17.55 13.1 32.01 30.03 34.28-14.59-2.228-25.78-14.82-25.78-30.03 0-16.78 13.62-30.41 30.41-30.41 16.78 0 30.41 13.62 30.41 30.41 0 15.73-11.96 28.66-27.28 30.22 17.67-1.573 31.5-16.39 31.5-34.47 0-19.12-15.5-34.66-34.62-34.66zm3.125 69.12c-0.5108 0.05186-1.045 0.09875-1.562 0.125 0.5187-0.02306 1.05-0.07936 1.562-0.125zm-7.75-0.1875c0.5116 0.06861 1.013 0.1415 1.531 0.1875-0.5108-0.05186-1.028-0.1107-1.531-0.1875zm1.531 0.1875c0.5101 0.0453 1.015 0.1021 1.531 0.125-0.518-0.02625-1.02-0.07314-1.531-0.125z" clip-path="url(#clipPath3598)" fill="url(#radialGradient5428)" filter="url(#filter3594)" opacity="1"/><path transform="matrix(.7373 0 0 .6411 -217.9 103.7)" d="m469.6-34.83a14.1 17.53 0 0 1-14.1 17.53 14.1 17.53 0 0 1-14.1-17.53 14.1 17.53 0 0 1 14.1-17.53 14.1 17.53 0 0 1 14.1 17.53z" fill="url(#radialGradient5430)" filter="url(#filter3740)" opacity=".4062"/><path d="m119 70.84 0.1835 3.833c1.52 0.02728 3 0.1701 4.424 0.3949-0.2959-1.247-0.5883-2.494-0.8971-3.74-1.188-0.2692-2.428-0.4227-3.711-0.4878zm-2.814 0.02323c-1.232 0.09362-2.431 0.297-3.568 0.5807-0.3279 1.321-0.6454 2.648-0.9583 3.972 1.466-0.3296 2.997-0.5366 4.587-0.6504l0.1835-3.902c-0.08371 0.005414-0.1613-0.006338-0.2446 0zm8.767 1.115c0.3775 1.19 0.7499 2.382 1.121 3.577 2.68 0.6577 5.113 1.642 7.157 2.903-1.588-2.851-4.55-5.169-8.278-6.481zm-14.9 0.2787c-3.992 1.601-7.011 4.394-8.217 7.735 1.867-1.549 4.237-2.821 6.932-3.74 0.4258-1.331 0.8509-2.662 1.284-3.995zm9.195 3.693 0.2854 5.598c1.954 0.05081 3.862 0.2263 5.668 0.5575-0.4097-1.902-0.84-3.809-1.285-5.714-1.501-0.2525-3.06-0.4095-4.669-0.4413zm-3.058 0.06968c-1.689 0.1239-3.306 0.3999-4.853 0.7665-0.4422 1.904-0.8554 3.807-1.264 5.714 1.855-0.4471 3.808-0.7414 5.852-0.8827l0.2651-5.598zm10.32 0.9291c0.6039 1.958 1.208 3.933 1.794 5.9 2.189 0.6209 4.193 1.427 5.974 2.416 0.1484-0.6695 0.2243-1.343 0.2243-2.044 0-1.024-0.1769-1.998-0.4894-2.95-2.095-1.433-4.641-2.573-7.503-3.322zm-18.21 0.7201c-2.706 0.9796-5.068 2.328-6.891 3.949-0.0912 0.5263-0.1427 1.058-0.1427 1.603 0 0.9359 0.1432 1.84 0.4078 2.718 1.425-0.9021 3.025-1.694 4.771-2.346 0.6071-1.971 1.228-3.949 1.855-5.923z" fill="url(#radialGradient5432)" opacity=".5898"/></g></g><g transform="matrix(.481 0 0 .481 43.86 6.33)" opacity=".582"><g><path transform="matrix(.5702 0 0 .5702 -154.5 34.54)" d="m377-19.97a56.03 56.03 0 0 1-56.03 56.03 56.03 56.03 0 0 1-56.03-56.03 56.03 56.03 0 0 1 56.03-56.03 56.03 56.03 0 0 1 56.03 56.03z" fill="url(#linearGradient5382)" filter="url(#filter3215)" stroke="#000" stroke-dashoffset="4.15" stroke-linecap="round" stroke-linejoin="round" stroke-width=".4988"/><path transform="matrix(.9137 0 0 .6306 -394 40.72)" d="m483.3-50.08a21.35 26.68 0 0 1-21.35 26.68 21.35 26.68 0 0 1-21.35-26.68 21.35 26.68 0 0 1 21.35-26.68 21.35 26.68 0 0 1 21.35 26.68z" fill="url(#radialGradient5384)" filter="url(#filter3746)" opacity=".4062"/><path d="m28.33-1.769c-13.44 0-24.35 10.91-24.35 24.35 0 13.44 10.91 24.33 24.35 24.33 13.44 0 24.33-10.89 24.33-24.33 0-13.44-10.89-24.35-24.33-24.35z" fill="url(#radialGradient5438)" opacity="1"/></g><path transform="matrix(.5702 0 0 .5702 -154.5 34.4)" d="m377-19.97a56.03 56.03 0 0 1-56.03 56.03 56.03 56.03 0 0 1-56.03-56.03 56.03 56.03 0 0 1 56.03-56.03 56.03 56.03 0 0 1 56.03 56.03z" clip-path="url(#clipPath3265)" fill="none" filter="url(#filter3251)" stroke="url(#linearGradient3269)" stroke-dashoffset="4.15" stroke-linecap="round" stroke-linejoin="round" stroke-width=".9936"/><path transform="matrix(.7026 0 0 .7026 -333.3 26.42)" d="m514.8-41.88c-19.61 0-35.53 15.92-35.53 35.53 0 3.403 0.4796 6.697 1.375 9.812-0.6841-2.729-1.062-5.591-1.062-8.531-1e-5 -19.31 15.69-35 35-35 19.31 1e-6 35 15.69 35 35 0 6.639-1.847 12.83-5.062 18.12 3.652-5.58 5.781-12.24 5.781-19.41 0-19.61-15.89-35.53-35.5-35.53z" fill="url(#linearGradient5390)" filter="url(#filter3475)" opacity=".3906"/><path transform="matrix(.5702 0 0 .5702 -154.5 34.18)" d="m377-19.97a56.03 56.03 0 0 1-56.03 56.03 56.03 56.03 0 0 1-56.03-56.03 56.03 56.03 0 0 1 56.03-56.03 56.03 56.03 0 0 1 56.03 56.03z" clip-path="url(#clipPath3265)" fill="none" filter="url(#filter3275)" stroke="url(#linearGradient3269)" stroke-dashoffset="4.15" stroke-linecap="round" stroke-linejoin="round" stroke-width="2.583"/><g><path transform="matrix(.7026 0 0 .7026 -266.6 26.42)" d="m385.9-16.09c-1.141 3.502-1.75 7.213-1.75 11.09 0 19.82 16.09 35.91 35.91 35.91 19.82 0 35.88-16.09 35.88-35.91 0-3.881-0.6094-7.592-1.75-11.09 0.8842 3.1 1.375 6.368 1.375 9.75 1e-5 19.61-15.89 35.5-35.5 35.5-19.61-1e-6 -35.53-15.89-35.53-35.5 0-3.382 0.4908-6.65 1.375-9.75z" fill="url(#linearGradient5394)" filter="url(#filter3448)" opacity=".5703"/><path transform="matrix(.7026 0 0 .7026 -266.6 26.42)" d="m385.9-16.09c-1.141 3.502-1.75 7.213-1.75 11.09 0 19.82 16.09 34.91 35.91 34.91 19.82 0 35.88-15.09 35.88-34.91 0-3.881-0.6094-7.592-1.75-11.09 0.8842 3.1 1.375 6.368 1.375 9.75 1e-5 19.61-15.89 35.5-35.5 35.5-19.61-1e-6 -35.53-15.89-35.53-35.5 0-3.382 0.4908-6.65 1.375-9.75z" fill="url(#linearGradient5396)" filter="url(#filter3448)" opacity="1"/><path transform="matrix(.7026 0 0 .7026 -333.3 26.42)" d="m514.8-40.88c-19.61 0-35.53 14.92-35.53 34.53 0 3.403 0.4796 6.697 1.375 9.812-0.6841-2.729-1.062-5.591-1.062-8.531-1e-5 -19.31 15.69-35 35-35 19.31 1e-6 35 15.69 35 35 0 6.639-1.847 12.83-5.062 18.12 3.652-5.58 5.781-12.24 5.781-19.41 0-19.61-15.89-34.53-35.5-34.53z" fill="url(#linearGradient5398)" filter="url(#filter3475)" opacity="1"/><path d="m28.43-3.525c-13.97 0-25.32 11.23-25.32 25.05 0 5.358 1.71 10.31 4.611 14.38-2.693-3.981-4.26-8.777-4.26-13.94 0-13.78 11.19-24.97 24.97-24.97 13.78 0 24.94 11.19 24.94 24.97 0 5.166-1.57 9.962-4.26 13.94 2.897-4.071 4.611-9.024 4.611-14.38 1.2e-5 -13.83-11.32-25.05-25.29-25.05z" fill="url(#linearGradient5452)" opacity="1"/><path transform="matrix(.7026 0 0 .7026 -357.8 26.42)" d="m549.1-40.12c-19.12 1e-6 -34.66 15.53-34.66 34.66-1e-5 17.55 13.1 32.01 30.03 34.28-14.59-2.228-25.78-14.82-25.78-30.03 0-16.78 13.62-30.41 30.41-30.41 16.78 0 30.41 13.62 30.41 30.41 0 15.73-11.96 28.66-27.28 30.22 17.67-1.573 31.5-16.39 31.5-34.47 0-19.12-15.5-34.66-34.62-34.66zm3.125 69.12c-0.5108 0.05186-1.045 0.09875-1.562 0.125 0.5187-0.02306 1.05-0.07936 1.562-0.125zm-7.75-0.1875c0.5116 0.06861 1.013 0.1415 1.531 0.1875-0.5108-0.05186-1.028-0.1107-1.531-0.1875zm1.531 0.1875c0.5101 0.0453 1.015 0.1021 1.531 0.125-0.518-0.02625-1.02-0.07314-1.531-0.125z" clip-path="url(#clipPath3598)" fill="url(#radialGradient5454)" filter="url(#filter3594)" opacity="1"/><path transform="matrix(.7373 0 0 .6411 -307.6 33.86)" d="m469.6-34.83a14.1 17.53 0 0 1-14.1 17.53 14.1 17.53 0 0 1-14.1-17.53 14.1 17.53 0 0 1 14.1-17.53 14.1 17.53 0 0 1 14.1 17.53z" fill="url(#radialGradient5456)" filter="url(#filter3740)" opacity=".4062"/><path d="m29.41 0.9984 0.1835 3.833c1.52 0.02729 3 0.1701 4.424 0.3949-0.2959-1.247-0.5884-2.494-0.8971-3.74-1.188-0.2693-2.428-0.4227-3.711-0.4878zm-2.814 0.02323c-1.232 0.09362-2.431 0.297-3.568 0.5807-0.3279 1.321-0.6453 2.648-0.9583 3.972 1.466-0.3296 2.997-0.5366 4.587-0.6504l0.1835-3.902c-0.08375 0.005413-0.1613-0.006338-0.2447 0zm8.767 1.115c0.3775 1.19 0.7499 2.382 1.121 3.577 2.68 0.6577 5.113 1.642 7.157 2.903-1.588-2.851-4.55-5.169-8.278-6.481zm-14.9 0.2787c-3.992 1.601-7.011 4.394-8.217 7.735 1.867-1.549 4.237-2.821 6.932-3.74 0.4258-1.331 0.8509-2.662 1.284-3.995zm9.195 3.693 0.2854 5.598c1.954 0.05081 3.862 0.2263 5.668 0.5575-0.4097-1.902-0.8399-3.809-1.285-5.714-1.501-0.2525-3.06-0.4095-4.669-0.4413zm-3.058 0.06968c-1.689 0.1239-3.306 0.3999-4.853 0.7665-0.4422 1.904-0.8554 3.807-1.264 5.714 1.855-0.4471 3.808-0.7414 5.852-0.8827l0.2651-5.598zm10.32 0.9291c0.6039 1.958 1.208 3.933 1.794 5.9 2.189 0.6209 4.193 1.427 5.974 2.416 0.1484-0.6695 0.2243-1.343 0.2243-2.044 0-1.024-0.1769-1.998-0.4893-2.95-2.095-1.433-4.641-2.573-7.503-3.322zm-18.21 0.7201c-2.706 0.9796-5.068 2.328-6.891 3.949-0.0912 0.5263-0.1427 1.058-0.1427 1.603 0 0.9359 0.1432 1.84 0.4078 2.718 1.425-0.9021 3.025-1.694 4.771-2.346 0.6071-1.971 1.228-3.949 1.855-5.923z" fill="url(#radialGradient5458)" opacity=".5898"/></g></g></g><g><path transform="matrix(.9475 0 0 .9475 -52.96 32.72)" d="m64.75-11.05 86.89-23.28c4.08-1.093 8.244 1.311 9.337 5.391l23.28 86.89c1.093 4.079-1.311 8.244-5.391 9.337l-86.89 23.28c-4.08 1.093-8.244-1.311-9.337-5.391l-23.28-86.89c-1.093-4.079 1.311-8.244 5.391-9.337z" fill="#3a3a3a" filter="url(#filter4883)"/><rect transform="matrix(.9659 -.2588 .2588 .9659 0 0)" x="-4.838" y="21.55" width="99.68" height="99.68" rx="7.223" ry="7.223" fill="#fff"/><rect transform="matrix(.9659 -.2588 .2588 .9659 0 0)" x="-3.342" y="23.05" width="96.68" height="96.68" rx="7.006" ry="7.006" fill="url(#radialGradient5053)"/></g><path d="m413.6 50.17v-1.957 1.957z" fill="#fff" fill-opacity=".7569"/><g transform="matrix(1.082 0 0 1.082 .9589 -5.117)"><g transform="matrix(.481 0 0 .481 25.08 15.5)"><g><path transform="matrix(.5702 0 0 .5702 -82.23 36.21)" d="m377-19.97a56.03 56.03 0 0 1-56.03 56.03 56.03 56.03 0 0 1-56.03-56.03 56.03 56.03 0 0 1 56.03-56.03 56.03 56.03 0 0 1 56.03 56.03z" fill="url(#linearGradient5382)" filter="url(#filter3215)" stroke="#000" stroke-dashoffset="4.15" stroke-linecap="round" stroke-linejoin="round" stroke-width=".4988"/><path transform="matrix(.9137 0 0 .6306 -321.8 42.38)" d="m483.3-50.08a21.35 26.68 0 0 1-21.35 26.68 21.35 26.68 0 0 1-21.35-26.68 21.35 26.68 0 0 1 21.35-26.68 21.35 26.68 0 0 1 21.35 26.68z" fill="url(#radialGradient5384)" filter="url(#filter3746)" opacity=".4062"/><path d="m100.6-0.1075c-13.44 0-24.35 10.91-24.35 24.35 0 13.44 10.91 24.33 24.35 24.33 13.44 0 24.33-10.89 24.33-24.33 0-13.44-10.89-24.35-24.33-24.35z" fill="url(#radialGradient5386)"/></g><path transform="matrix(.5702 0 0 .5702 -82.23 36.06)" d="m377-19.97a56.03 56.03 0 0 1-56.03 56.03 56.03 56.03 0 0 1-56.03-56.03 56.03 56.03 0 0 1 56.03-56.03 56.03 56.03 0 0 1 56.03 56.03z" clip-path="url(#clipPath3265)" fill="none" filter="url(#filter3251)" stroke="url(#linearGradient3269)" stroke-dashoffset="4.15" stroke-linecap="round" stroke-linejoin="round" stroke-width=".9936"/><path transform="matrix(.7026 0 0 .7026 -261 28.09)" d="m514.8-41.88c-19.61 0-35.53 15.92-35.53 35.53 0 3.403 0.4796 6.697 1.375 9.812-0.6841-2.729-1.062-5.591-1.062-8.531-1e-5 -19.31 15.69-35 35-35 19.31 1e-6 35 15.69 35 35 0 6.639-1.847 12.83-5.062 18.12 3.652-5.58 5.781-12.24 5.781-19.41 0-19.61-15.89-35.53-35.5-35.53z" fill="url(#linearGradient5390)" filter="url(#filter3475)" opacity=".3906"/><path transform="matrix(.5702 0 0 .5702 -82.23 35.84)" d="m377-19.97a56.03 56.03 0 0 1-56.03 56.03 56.03 56.03 0 0 1-56.03-56.03 56.03 56.03 0 0 1 56.03-56.03 56.03 56.03 0 0 1 56.03 56.03z" clip-path="url(#clipPath3265)" fill="none" filter="url(#filter3275)" stroke="url(#linearGradient3269)" stroke-dashoffset="4.15" stroke-linecap="round" stroke-linejoin="round" stroke-width="2.583"/><g><path transform="matrix(.7026 0 0 .7026 -194.4 28.09)" d="m385.9-16.09c-1.141 3.502-1.75 7.213-1.75 11.09 0 19.82 16.09 35.91 35.91 35.91 19.82 0 35.88-16.09 35.88-35.91 0-3.881-0.6094-7.592-1.75-11.09 0.8842 3.1 1.375 6.368 1.375 9.75 1e-5 19.61-15.89 35.5-35.5 35.5-19.61-1e-6 -35.53-15.89-35.53-35.5 0-3.382 0.4908-6.65 1.375-9.75z" fill="url(#linearGradient5394)" filter="url(#filter3448)" opacity=".5703"/><path transform="matrix(.7026 0 0 .7026 -194.4 28.09)" d="m385.9-16.09c-1.141 3.502-1.75 7.213-1.75 11.09 0 19.82 16.09 34.91 35.91 34.91 19.82 0 35.88-15.09 35.88-34.91 0-3.881-0.6094-7.592-1.75-11.09 0.8842 3.1 1.375 6.368 1.375 9.75 1e-5 19.61-15.89 35.5-35.5 35.5-19.61-1e-6 -35.53-15.89-35.53-35.5 0-3.382 0.4908-6.65 1.375-9.75z" fill="url(#linearGradient5396)" filter="url(#filter3448)"/><path transform="matrix(.7026 0 0 .7026 -261 28.09)" d="m514.8-40.88c-19.61 0-35.53 14.92-35.53 34.53 0 3.403 0.4796 6.697 1.375 9.812-0.6841-2.729-1.062-5.591-1.062-8.531-1e-5 -19.31 15.69-35 35-35 19.31 1e-6 35 15.69 35 35 0 6.639-1.847 12.83-5.062 18.12 3.652-5.58 5.781-12.24 5.781-19.41 0-19.61-15.89-34.53-35.5-34.53z" fill="url(#linearGradient5398)" filter="url(#filter3475)"/><path d="m100.7-1.864c-13.97 0-25.32 11.23-25.32 25.05 0 5.358 1.71 10.31 4.611 14.38-2.693-3.981-4.26-8.777-4.26-13.94-1.1e-5 -13.78 11.19-24.97 24.97-24.97 13.78 0 24.94 11.19 24.94 24.97 0 5.166-1.57 9.962-4.26 13.94 2.897-4.071 4.611-9.024 4.611-14.38 0-13.83-11.32-25.05-25.29-25.05z" fill="url(#linearGradient5400)"/><path transform="matrix(.7026 0 0 .7026 -285.5 28.09)" d="m549.1-40.12c-19.12 1e-6 -34.66 15.53-34.66 34.66-1e-5 17.55 13.1 32.01 30.03 34.28-14.59-2.228-25.78-14.82-25.78-30.03 0-16.78 13.62-30.41 30.41-30.41 16.78 0 30.41 13.62 30.41 30.41 0 15.73-11.96 28.66-27.28 30.22 17.67-1.573 31.5-16.39 31.5-34.47 0-19.12-15.5-34.66-34.62-34.66zm3.125 69.12c-0.5108 0.05186-1.045 0.09875-1.562 0.125 0.5187-0.02306 1.05-0.07936 1.562-0.125zm-7.75-0.1875c0.5116 0.06861 1.013 0.1415 1.531 0.1875-0.5108-0.05186-1.028-0.1107-1.531-0.1875zm1.531 0.1875c0.5101 0.0453 1.015 0.1021 1.531 0.125-0.518-0.02625-1.02-0.07314-1.531-0.125z" clip-path="url(#clipPath3598)" fill="url(#radialGradient5402)" filter="url(#filter3594)"/><path transform="matrix(.7373 0 0 .6411 -235.3 35.52)" d="m469.6-34.83a14.1 17.53 0 0 1-14.1 17.53 14.1 17.53 0 0 1-14.1-17.53 14.1 17.53 0 0 1 14.1-17.53 14.1 17.53 0 0 1 14.1 17.53z" fill="url(#radialGradient5404)" filter="url(#filter3740)" opacity=".4062"/><path d="m101.6 2.66 0.1835 3.833c1.52 0.02729 3 0.1701 4.424 0.3949-0.2959-1.247-0.5883-2.494-0.8971-3.74-1.188-0.2693-2.428-0.4227-3.711-0.4878zm-2.814 0.02323c-1.232 0.09362-2.431 0.297-3.568 0.5807-0.3279 1.321-0.6453 2.648-0.9583 3.972 1.466-0.3296 2.997-0.5366 4.587-0.6504l0.1835-3.902c-0.08373 0.005413-0.1613-0.006338-0.2447 0zm8.767 1.115c0.3775 1.19 0.7499 2.382 1.121 3.577 2.68 0.6577 5.113 1.642 7.157 2.903-1.588-2.851-4.55-5.169-8.278-6.481zm-14.9 0.2787c-3.992 1.601-7.011 4.394-8.217 7.735 1.867-1.549 4.237-2.821 6.932-3.74 0.4258-1.331 0.8509-2.662 1.285-3.995zm9.195 3.693 0.2854 5.598c1.954 0.05081 3.862 0.2263 5.668 0.5575-0.4097-1.902-0.8399-3.809-1.285-5.714-1.501-0.2525-3.06-0.4095-4.669-0.4413zm-3.058 0.06968c-1.689 0.1239-3.306 0.3999-4.853 0.7665-0.4422 1.904-0.8554 3.807-1.264 5.714 1.855-0.4471 3.808-0.7414 5.852-0.8827l0.2651-5.598zm10.32 0.9291c0.6039 1.958 1.208 3.933 1.794 5.9 2.189 0.6209 4.193 1.427 5.974 2.416 0.1484-0.6695 0.2243-1.343 0.2243-2.044 0-1.024-0.1768-1.998-0.4893-2.95-2.095-1.433-4.641-2.573-7.503-3.322zm-18.21 0.7201c-2.706 0.9796-5.068 2.328-6.891 3.949-0.0912 0.5263-0.1427 1.058-0.1427 1.603 0 0.9359 0.1432 1.84 0.4078 2.718 1.425-0.9021 3.025-1.694 4.771-2.346 0.6071-1.971 1.228-3.949 1.855-5.923z" fill="url(#radialGradient5406)" opacity=".5898"/></g></g><g transform="matrix(.481 0 0 .481 12.54 29.56)"><g><path transform="matrix(.5702 0 0 .5702 -154.5 34.54)" d="m377-19.97a56.03 56.03 0 0 1-56.03 56.03 56.03 56.03 0 0 1-56.03-56.03 56.03 56.03 0 0 1 56.03-56.03 56.03 56.03 0 0 1 56.03 56.03z" fill="url(#linearGradient5382)" filter="url(#filter3215)" stroke="#000" stroke-dashoffset="4.15" stroke-linecap="round" stroke-linejoin="round" stroke-width=".4988"/><path transform="matrix(.9137 0 0 .6306 -394 40.72)" d="m483.3-50.08a21.35 26.68 0 0 1-21.35 26.68 21.35 26.68 0 0 1-21.35-26.68 21.35 26.68 0 0 1 21.35-26.68 21.35 26.68 0 0 1 21.35 26.68z" fill="url(#radialGradient5384)" filter="url(#filter3746)" opacity=".4062"/><path d="m28.33-1.769c-13.44 0-24.35 10.91-24.35 24.35 0 13.44 10.91 24.33 24.35 24.33 13.44 0 24.33-10.89 24.33-24.33 0-13.44-10.89-24.35-24.33-24.35z" fill="url(#radialGradient5438)"/></g><path transform="matrix(.5702 0 0 .5702 -154.5 34.4)" d="m377-19.97a56.03 56.03 0 0 1-56.03 56.03 56.03 56.03 0 0 1-56.03-56.03 56.03 56.03 0 0 1 56.03-56.03 56.03 56.03 0 0 1 56.03 56.03z" clip-path="url(#clipPath3265)" fill="none" filter="url(#filter3251)" stroke="url(#linearGradient3269)" stroke-dashoffset="4.15" stroke-linecap="round" stroke-linejoin="round" stroke-width=".9936"/><path transform="matrix(.7026 0 0 .7026 -333.3 26.42)" d="m514.8-41.88c-19.61 0-35.53 15.92-35.53 35.53 0 3.403 0.4796 6.697 1.375 9.812-0.6841-2.729-1.062-5.591-1.062-8.531-1e-5 -19.31 15.69-35 35-35 19.31 1e-6 35 15.69 35 35 0 6.639-1.847 12.83-5.062 18.12 3.652-5.58 5.781-12.24 5.781-19.41 0-19.61-15.89-35.53-35.5-35.53z" fill="url(#linearGradient5390)" filter="url(#filter3475)" opacity=".3906"/><path transform="matrix(.5702 0 0 .5702 -154.5 34.18)" d="m377-19.97a56.03 56.03 0 0 1-56.03 56.03 56.03 56.03 0 0 1-56.03-56.03 56.03 56.03 0 0 1 56.03-56.03 56.03 56.03 0 0 1 56.03 56.03z" clip-path="url(#clipPath3265)" fill="none" filter="url(#filter3275)" stroke="url(#linearGradient3269)" stroke-dashoffset="4.15" stroke-linecap="round" stroke-linejoin="round" stroke-width="2.583"/><g><path transform="matrix(.7026 0 0 .7026 -266.6 26.42)" d="m385.9-16.09c-1.141 3.502-1.75 7.213-1.75 11.09 0 19.82 16.09 35.91 35.91 35.91 19.82 0 35.88-16.09 35.88-35.91 0-3.881-0.6094-7.592-1.75-11.09 0.8842 3.1 1.375 6.368 1.375 9.75 1e-5 19.61-15.89 35.5-35.5 35.5-19.61-1e-6 -35.53-15.89-35.53-35.5 0-3.382 0.4908-6.65 1.375-9.75z" fill="url(#linearGradient5394)" filter="url(#filter3448)" opacity=".5703"/><path transform="matrix(.7026 0 0 .7026 -266.6 26.42)" d="m385.9-16.09c-1.141 3.502-1.75 7.213-1.75 11.09 0 19.82 16.09 34.91 35.91 34.91 19.82 0 35.88-15.09 35.88-34.91 0-3.881-0.6094-7.592-1.75-11.09 0.8842 3.1 1.375 6.368 1.375 9.75 1e-5 19.61-15.89 35.5-35.5 35.5-19.61-1e-6 -35.53-15.89-35.53-35.5 0-3.382 0.4908-6.65 1.375-9.75z" fill="url(#linearGradient5396)" filter="url(#filter3448)"/><path transform="matrix(.7026 0 0 .7026 -333.3 26.42)" d="m514.8-40.88c-19.61 0-35.53 14.92-35.53 34.53 0 3.403 0.4796 6.697 1.375 9.812-0.6841-2.729-1.062-5.591-1.062-8.531-1e-5 -19.31 15.69-35 35-35 19.31 1e-6 35 15.69 35 35 0 6.639-1.847 12.83-5.062 18.12 3.652-5.58 5.781-12.24 5.781-19.41 0-19.61-15.89-34.53-35.5-34.53z" fill="url(#linearGradient5398)" filter="url(#filter3475)"/><path d="m28.43-3.525c-13.97 0-25.32 11.23-25.32 25.05 0 5.358 1.71 10.31 4.611 14.38-2.693-3.981-4.26-8.777-4.26-13.94 0-13.78 11.19-24.97 24.97-24.97 13.78 0 24.94 11.19 24.94 24.97 0 5.166-1.57 9.962-4.26 13.94 2.897-4.071 4.611-9.024 4.611-14.38 1.2e-5 -13.83-11.32-25.05-25.29-25.05z" fill="url(#linearGradient5452)"/><path transform="matrix(.7026 0 0 .7026 -357.8 26.42)" d="m549.1-40.12c-19.12 1e-6 -34.66 15.53-34.66 34.66-1e-5 17.55 13.1 32.01 30.03 34.28-14.59-2.228-25.78-14.82-25.78-30.03 0-16.78 13.62-30.41 30.41-30.41 16.78 0 30.41 13.62 30.41 30.41 0 15.73-11.96 28.66-27.28 30.22 17.67-1.573 31.5-16.39 31.5-34.47 0-19.12-15.5-34.66-34.62-34.66zm3.125 69.12c-0.5108 0.05186-1.045 0.09875-1.562 0.125 0.5187-0.02306 1.05-0.07936 1.562-0.125zm-7.75-0.1875c0.5116 0.06861 1.013 0.1415 1.531 0.1875-0.5108-0.05186-1.028-0.1107-1.531-0.1875zm1.531 0.1875c0.5101 0.0453 1.015 0.1021 1.531 0.125-0.518-0.02625-1.02-0.07314-1.531-0.125z" clip-path="url(#clipPath3598)" fill="url(#radialGradient5454)" filter="url(#filter3594)"/><path transform="matrix(.7373 0 0 .6411 -307.6 33.86)" d="m469.6-34.83a14.1 17.53 0 0 1-14.1 17.53 14.1 17.53 0 0 1-14.1-17.53 14.1 17.53 0 0 1 14.1-17.53 14.1 17.53 0 0 1 14.1 17.53z" fill="url(#radialGradient5456)" filter="url(#filter3740)" opacity=".4062"/><path d="m29.41 0.9984 0.1835 3.833c1.52 0.02729 3 0.1701 4.424 0.3949-0.2959-1.247-0.5884-2.494-0.8971-3.74-1.188-0.2693-2.428-0.4227-3.711-0.4878zm-2.814 0.02323c-1.232 0.09362-2.431 0.297-3.568 0.5807-0.3279 1.321-0.6453 2.648-0.9583 3.972 1.466-0.3296 2.997-0.5366 4.587-0.6504l0.1835-3.902c-0.08375 0.005413-0.1613-0.006338-0.2447 0zm8.767 1.115c0.3775 1.19 0.7499 2.382 1.121 3.577 2.68 0.6577 5.113 1.642 7.157 2.903-1.588-2.851-4.55-5.169-8.278-6.481zm-14.9 0.2787c-3.992 1.601-7.011 4.394-8.217 7.735 1.867-1.549 4.237-2.821 6.932-3.74 0.4258-1.331 0.8509-2.662 1.284-3.995zm9.195 3.693 0.2854 5.598c1.954 0.05081 3.862 0.2263 5.668 0.5575-0.4097-1.902-0.8399-3.809-1.285-5.714-1.501-0.2525-3.06-0.4095-4.669-0.4413zm-3.058 0.06968c-1.689 0.1239-3.306 0.3999-4.853 0.7665-0.4422 1.904-0.8554 3.807-1.264 5.714 1.855-0.4471 3.808-0.7414 5.852-0.8827l0.2651-5.598zm10.32 0.9291c0.6039 1.958 1.208 3.933 1.794 5.9 2.189 0.6209 4.193 1.427 5.974 2.416 0.1484-0.6695 0.2243-1.343 0.2243-2.044 0-1.024-0.1769-1.998-0.4893-2.95-2.095-1.433-4.641-2.573-7.503-3.322zm-18.21 0.7201c-2.706 0.9796-5.068 2.328-6.891 3.949-0.0912 0.5263-0.1427 1.058-0.1427 1.603 0 0.9359 0.1432 1.84 0.4078 2.718 1.425-0.9021 3.025-1.694 4.771-2.346 0.6071-1.971 1.228-3.949 1.855-5.923z" fill="url(#radialGradient5458)" opacity=".5898"/></g></g><g transform="matrix(.481 0 0 .481 23.55 38.97)"><g><path transform="matrix(.5702 0 0 .5702 -151.3 114.2)" d="m377-19.97a56.03 56.03 0 0 1-56.03 56.03 56.03 56.03 0 0 1-56.03-56.03 56.03 56.03 0 0 1 56.03-56.03 56.03 56.03 0 0 1 56.03 56.03z" fill="url(#linearGradient5382)" filter="url(#filter3215)" stroke="#000" stroke-dashoffset="4.15" stroke-linecap="round" stroke-linejoin="round" stroke-width=".4988"/><path transform="matrix(.9137 0 0 .6306 -390.8 120.4)" d="m483.3-50.08a21.35 26.68 0 0 1-21.35 26.68 21.35 26.68 0 0 1-21.35-26.68 21.35 26.68 0 0 1 21.35-26.68 21.35 26.68 0 0 1 21.35 26.68z" fill="url(#radialGradient5384)" filter="url(#filter3746)" opacity=".4062"/><path d="m31.52 77.91c-13.44 0-24.35 10.91-24.35 24.35 0 13.44 10.91 24.33 24.35 24.33 13.44 0 24.33-10.89 24.33-24.33 0-13.44-10.89-24.35-24.33-24.35z" fill="url(#radialGradient5516)"/></g><path transform="matrix(.5702 0 0 .5702 -151.3 114.1)" d="m377-19.97a56.03 56.03 0 0 1-56.03 56.03 56.03 56.03 0 0 1-56.03-56.03 56.03 56.03 0 0 1 56.03-56.03 56.03 56.03 0 0 1 56.03 56.03z" clip-path="url(#clipPath3265)" fill="none" filter="url(#filter3251)" stroke="url(#linearGradient3269)" stroke-dashoffset="4.15" stroke-linecap="round" stroke-linejoin="round" stroke-width=".9936"/><path transform="matrix(.7026 0 0 .7026 -330.1 106.1)" d="m514.8-41.88c-19.61 0-35.53 15.92-35.53 35.53 0 3.403 0.4796 6.697 1.375 9.812-0.6841-2.729-1.062-5.591-1.062-8.531-1e-5 -19.31 15.69-35 35-35 19.31 1e-6 35 15.69 35 35 0 6.639-1.847 12.83-5.062 18.12 3.652-5.58 5.781-12.24 5.781-19.41 0-19.61-15.89-35.53-35.5-35.53z" fill="url(#linearGradient5390)" filter="url(#filter3475)" opacity=".3906"/><path transform="matrix(.5702 0 0 .5702 -151.3 113.9)" d="m377-19.97a56.03 56.03 0 0 1-56.03 56.03 56.03 56.03 0 0 1-56.03-56.03 56.03 56.03 0 0 1 56.03-56.03 56.03 56.03 0 0 1 56.03 56.03z" clip-path="url(#clipPath3265)" fill="none" filter="url(#filter3275)" stroke="url(#linearGradient3269)" stroke-dashoffset="4.15" stroke-linecap="round" stroke-linejoin="round" stroke-width="2.583"/><g><path transform="matrix(.7026 0 0 .7026 -263.4 106.1)" d="m385.9-16.09c-1.141 3.502-1.75 7.213-1.75 11.09 0 19.82 16.09 35.91 35.91 35.91 19.82 0 35.88-16.09 35.88-35.91 0-3.881-0.6094-7.592-1.75-11.09 0.8842 3.1 1.375 6.368 1.375 9.75 1e-5 19.61-15.89 35.5-35.5 35.5-19.61-1e-6 -35.53-15.89-35.53-35.5 0-3.382 0.4908-6.65 1.375-9.75z" fill="url(#linearGradient5394)" filter="url(#filter3448)" opacity=".5703"/><path transform="matrix(.7026 0 0 .7026 -263.4 106.1)" d="m385.9-16.09c-1.141 3.502-1.75 7.213-1.75 11.09 0 19.82 16.09 34.91 35.91 34.91 19.82 0 35.88-15.09 35.88-34.91 0-3.881-0.6094-7.592-1.75-11.09 0.8842 3.1 1.375 6.368 1.375 9.75 1e-5 19.61-15.89 35.5-35.5 35.5-19.61-1e-6 -35.53-15.89-35.53-35.5 0-3.382 0.4908-6.65 1.375-9.75z" fill="url(#linearGradient5396)" filter="url(#filter3448)"/><path transform="matrix(.7026 0 0 .7026 -330.1 106.1)" d="m514.8-40.88c-19.61 0-35.53 14.92-35.53 34.53 0 3.403 0.4796 6.697 1.375 9.812-0.6841-2.729-1.062-5.591-1.062-8.531-1e-5 -19.31 15.69-35 35-35 19.31 1e-6 35 15.69 35 35 0 6.639-1.847 12.83-5.062 18.12 3.652-5.58 5.781-12.24 5.781-19.41 0-19.61-15.89-34.53-35.5-34.53z" fill="url(#linearGradient5398)" filter="url(#filter3475)"/><path d="m31.62 76.16c-13.97 0-25.32 11.23-25.32 25.05 0 5.358 1.71 10.31 4.611 14.38-2.693-3.981-4.26-8.777-4.26-13.94 0-13.78 11.19-24.97 24.97-24.97 13.78 0 24.94 11.19 24.94 24.97 0 5.166-1.57 9.962-4.26 13.94 2.897-4.071 4.611-9.024 4.611-14.38 1.2e-5 -13.83-11.32-25.05-25.29-25.05z" fill="url(#linearGradient5530)"/><path transform="matrix(.7026 0 0 .7026 -354.6 106.1)" d="m549.1-40.12c-19.12 1e-6 -34.66 15.53-34.66 34.66-1e-5 17.55 13.1 32.01 30.03 34.28-14.59-2.228-25.78-14.82-25.78-30.03 0-16.78 13.62-30.41 30.41-30.41 16.78 0 30.41 13.62 30.41 30.41 0 15.73-11.96 28.66-27.28 30.22 17.67-1.573 31.5-16.39 31.5-34.47 0-19.12-15.5-34.66-34.62-34.66zm3.125 69.12c-0.5108 0.05186-1.045 0.09875-1.562 0.125 0.5187-0.02306 1.05-0.07936 1.562-0.125zm-7.75-0.1875c0.5116 0.06861 1.013 0.1415 1.531 0.1875-0.5108-0.05186-1.028-0.1107-1.531-0.1875zm1.531 0.1875c0.5101 0.0453 1.015 0.1021 1.531 0.125-0.518-0.02625-1.02-0.07314-1.531-0.125z" clip-path="url(#clipPath3598)" fill="url(#radialGradient5532)" filter="url(#filter3594)"/><path transform="matrix(.7373 0 0 .6411 -304.4 113.5)" d="m469.6-34.83a14.1 17.53 0 0 1-14.1 17.53 14.1 17.53 0 0 1-14.1-17.53 14.1 17.53 0 0 1 14.1-17.53 14.1 17.53 0 0 1 14.1 17.53z" fill="url(#radialGradient5534)" filter="url(#filter3740)" opacity=".4062"/><path d="m32.6 80.68 0.1835 3.833c1.52 0.02728 3 0.1701 4.424 0.3949-0.2959-1.247-0.5883-2.494-0.8971-3.74-1.188-0.2693-2.428-0.4227-3.711-0.4878zm-2.814 0.02323c-1.232 0.09362-2.431 0.297-3.568 0.5807-0.3279 1.321-0.6454 2.648-0.9583 3.972 1.466-0.3296 2.997-0.5366 4.588-0.6504l0.1835-3.902c-0.08371 0.005415-0.1612-0.006338-0.2446 0zm8.767 1.115c0.3776 1.19 0.7499 2.382 1.121 3.577 2.68 0.6577 5.113 1.642 7.157 2.903-1.588-2.851-4.55-5.169-8.278-6.481zm-14.9 0.2787c-3.992 1.601-7.011 4.394-8.217 7.735 1.867-1.549 4.237-2.821 6.932-3.74 0.4258-1.331 0.8509-2.662 1.284-3.995zm9.195 3.693 0.2854 5.598c1.954 0.05081 3.862 0.2263 5.668 0.5575-0.4096-1.902-0.8399-3.809-1.284-5.714-1.501-0.2525-3.06-0.4095-4.669-0.4413zm-3.058 0.06968c-1.689 0.1239-3.306 0.3999-4.853 0.7665-0.4422 1.904-0.8554 3.807-1.264 5.714 1.855-0.4471 3.808-0.7414 5.852-0.8827l0.2651-5.598zm10.32 0.9291c0.6039 1.958 1.208 3.933 1.794 5.9 2.189 0.6209 4.193 1.427 5.974 2.416 0.1484-0.6695 0.2243-1.343 0.2243-2.044 0-1.024-0.1769-1.998-0.4893-2.95-2.095-1.433-4.641-2.573-7.503-3.322zm-18.21 0.7201c-2.706 0.9796-5.068 2.328-6.891 3.949-0.09123 0.5263-0.1427 1.058-0.1427 1.603 0 0.9359 0.1432 1.84 0.4078 2.718 1.425-0.9021 3.025-1.694 4.771-2.346 0.6071-1.971 1.228-3.949 1.855-5.923z" fill="url(#radialGradient5536)" opacity=".5898"/></g></g><g transform="matrix(.481 0 0 .481 29.57 30.61)"><g><path transform="matrix(.5702 0 0 .5702 -64.84 104.4)" d="m377-19.97a56.03 56.03 0 0 1-56.03 56.03 56.03 56.03 0 0 1-56.03-56.03 56.03 56.03 0 0 1 56.03-56.03 56.03 56.03 0 0 1 56.03 56.03z" fill="url(#linearGradient5382)" filter="url(#filter3215)" stroke="#000" stroke-dashoffset="4.15" stroke-linecap="round" stroke-linejoin="round" stroke-width=".4988"/><path transform="matrix(.9137 0 0 .6306 -304.4 110.6)" d="m483.3-50.08a21.35 26.68 0 0 1-21.35 26.68 21.35 26.68 0 0 1-21.35-26.68 21.35 26.68 0 0 1 21.35-26.68 21.35 26.68 0 0 1 21.35 26.68z" fill="url(#radialGradient5384)" filter="url(#filter3746)" opacity=".4062"/><path d="m118 68.07c-13.44 0-24.35 10.91-24.35 24.35 0 13.44 10.91 24.33 24.35 24.33s24.33-10.89 24.33-24.33c0-13.44-10.89-24.35-24.33-24.35z" fill="url(#radialGradient5412)"/></g><path transform="matrix(.5702 0 0 .5702 -64.84 104.2)" d="m377-19.97a56.03 56.03 0 0 1-56.03 56.03 56.03 56.03 0 0 1-56.03-56.03 56.03 56.03 0 0 1 56.03-56.03 56.03 56.03 0 0 1 56.03 56.03z" clip-path="url(#clipPath3265)" fill="none" filter="url(#filter3251)" stroke="url(#linearGradient3269)" stroke-dashoffset="4.15" stroke-linecap="round" stroke-linejoin="round" stroke-width=".9936"/><path transform="matrix(.7026 0 0 .7026 -243.7 96.26)" d="m514.8-41.88c-19.61 0-35.53 15.92-35.53 35.53 0 3.403 0.4796 6.697 1.375 9.812-0.6841-2.729-1.062-5.591-1.062-8.531-1e-5 -19.31 15.69-35 35-35 19.31 1e-6 35 15.69 35 35 0 6.639-1.847 12.83-5.062 18.12 3.652-5.58 5.781-12.24 5.781-19.41 0-19.61-15.89-35.53-35.5-35.53z" fill="url(#linearGradient5390)" filter="url(#filter3475)" opacity=".3906"/><path transform="matrix(.5702 0 0 .5702 -64.84 104)" d="m377-19.97a56.03 56.03 0 0 1-56.03 56.03 56.03 56.03 0 0 1-56.03-56.03 56.03 56.03 0 0 1 56.03-56.03 56.03 56.03 0 0 1 56.03 56.03z" clip-path="url(#clipPath3265)" fill="none" filter="url(#filter3275)" stroke="url(#linearGradient3269)" stroke-dashoffset="4.15" stroke-linecap="round" stroke-linejoin="round" stroke-width="2.583"/><g><path transform="matrix(.7026 0 0 .7026 -177 96.26)" d="m385.9-16.09c-1.141 3.502-1.75 7.213-1.75 11.09 0 19.82 16.09 35.91 35.91 35.91 19.82 0 35.88-16.09 35.88-35.91 0-3.881-0.6094-7.592-1.75-11.09 0.8842 3.1 1.375 6.368 1.375 9.75 1e-5 19.61-15.89 35.5-35.5 35.5-19.61-1e-6 -35.53-15.89-35.53-35.5 0-3.382 0.4908-6.65 1.375-9.75z" fill="url(#linearGradient5394)" filter="url(#filter3448)" opacity=".5703"/><path transform="matrix(.7026 0 0 .7026 -177 96.26)" d="m385.9-16.09c-1.141 3.502-1.75 7.213-1.75 11.09 0 19.82 16.09 34.91 35.91 34.91 19.82 0 35.88-15.09 35.88-34.91 0-3.881-0.6094-7.592-1.75-11.09 0.8842 3.1 1.375 6.368 1.375 9.75 1e-5 19.61-15.89 35.5-35.5 35.5-19.61-1e-6 -35.53-15.89-35.53-35.5 0-3.382 0.4908-6.65 1.375-9.75z" fill="url(#linearGradient5396)" filter="url(#filter3448)"/><path transform="matrix(.7026 0 0 .7026 -243.7 96.26)" d="m514.8-40.88c-19.61 0-35.53 14.92-35.53 34.53 0 3.403 0.4796 6.697 1.375 9.812-0.6841-2.729-1.062-5.591-1.062-8.531-1e-5 -19.31 15.69-35 35-35 19.31 1e-6 35 15.69 35 35 0 6.639-1.847 12.83-5.062 18.12 3.652-5.58 5.781-12.24 5.781-19.41 0-19.61-15.89-34.53-35.5-34.53z" fill="url(#linearGradient5398)" filter="url(#filter3475)"/><path d="m118.1 66.31c-13.97 0-25.32 11.23-25.32 25.05 0 5.358 1.71 10.31 4.611 14.38-2.693-3.981-4.26-8.777-4.26-13.94-1.2e-5 -13.78 11.19-24.97 24.97-24.97 13.78 0 24.94 11.19 24.94 24.97 0 5.166-1.57 9.962-4.26 13.94 2.897-4.071 4.611-9.024 4.611-14.38 0-13.83-11.32-25.05-25.29-25.05z" fill="url(#linearGradient5426)"/><path transform="matrix(.7026 0 0 .7026 -268.1 96.26)" d="m549.1-40.12c-19.12 1e-6 -34.66 15.53-34.66 34.66-1e-5 17.55 13.1 32.01 30.03 34.28-14.59-2.228-25.78-14.82-25.78-30.03 0-16.78 13.62-30.41 30.41-30.41 16.78 0 30.41 13.62 30.41 30.41 0 15.73-11.96 28.66-27.28 30.22 17.67-1.573 31.5-16.39 31.5-34.47 0-19.12-15.5-34.66-34.62-34.66zm3.125 69.12c-0.5108 0.05186-1.045 0.09875-1.562 0.125 0.5187-0.02306 1.05-0.07936 1.562-0.125zm-7.75-0.1875c0.5116 0.06861 1.013 0.1415 1.531 0.1875-0.5108-0.05186-1.028-0.1107-1.531-0.1875zm1.531 0.1875c0.5101 0.0453 1.015 0.1021 1.531 0.125-0.518-0.02625-1.02-0.07314-1.531-0.125z" clip-path="url(#clipPath3598)" fill="url(#radialGradient5428)" filter="url(#filter3594)"/><path transform="matrix(.7373 0 0 .6411 -217.9 103.7)" d="m469.6-34.83a14.1 17.53 0 0 1-14.1 17.53 14.1 17.53 0 0 1-14.1-17.53 14.1 17.53 0 0 1 14.1-17.53 14.1 17.53 0 0 1 14.1 17.53z" fill="url(#radialGradient5430)" filter="url(#filter3740)" opacity=".4062"/><path d="m119 70.84 0.1835 3.833c1.52 0.02728 3 0.1701 4.424 0.3949-0.2959-1.247-0.5883-2.494-0.8971-3.74-1.188-0.2692-2.428-0.4227-3.711-0.4878zm-2.814 0.02323c-1.232 0.09362-2.431 0.297-3.568 0.5807-0.3279 1.321-0.6454 2.648-0.9583 3.972 1.466-0.3296 2.997-0.5366 4.587-0.6504l0.1835-3.902c-0.08371 0.005414-0.1613-0.006338-0.2446 0zm8.767 1.115c0.3775 1.19 0.7499 2.382 1.121 3.577 2.68 0.6577 5.113 1.642 7.157 2.903-1.588-2.851-4.55-5.169-8.278-6.481zm-14.9 0.2787c-3.992 1.601-7.011 4.394-8.217 7.735 1.867-1.549 4.237-2.821 6.932-3.74 0.4258-1.331 0.8509-2.662 1.284-3.995zm9.195 3.693 0.2854 5.598c1.954 0.05081 3.862 0.2263 5.668 0.5575-0.4097-1.902-0.84-3.809-1.285-5.714-1.501-0.2525-3.06-0.4095-4.669-0.4413zm-3.058 0.06968c-1.689 0.1239-3.306 0.3999-4.853 0.7665-0.4422 1.904-0.8554 3.807-1.264 5.714 1.855-0.4471 3.808-0.7414 5.852-0.8827l0.2651-5.598zm10.32 0.9291c0.6039 1.958 1.208 3.933 1.794 5.9 2.189 0.6209 4.193 1.427 5.974 2.416 0.1484-0.6695 0.2243-1.343 0.2243-2.044 0-1.024-0.1769-1.998-0.4894-2.95-2.095-1.433-4.641-2.573-7.503-3.322zm-18.21 0.7201c-2.706 0.9796-5.068 2.328-6.891 3.949-0.0912 0.5263-0.1427 1.058-0.1427 1.603 0 0.9359 0.1432 1.84 0.4078 2.718 1.425-0.9021 3.025-1.694 4.771-2.346 0.6071-1.971 1.228-3.949 1.855-5.923z" fill="url(#radialGradient5432)" opacity=".5898"/></g></g></g></svg>
