<?xml version="1.0" encoding="UTF-8"?>
<svg width="128" height="128" enable-background="new" version="1.0" xmlns="http://www.w3.org/2000/svg" xmlns:xlink="http://www.w3.org/1999/xlink"><defs><linearGradient id="linearGradient5880"><stop stop-color="#fff" offset="0"/><stop stop-color="#fff" stop-opacity="0" offset="1"/></linearGradient><linearGradient id="linearGradient5515"><stop stop-color="#fff" stop-opacity="0" offset="0"/><stop stop-color="#fff" offset=".3251"/><stop stop-color="#fff" stop-opacity="0" offset="1"/></linearGradient><linearGradient id="linearGradient5267"><stop stop-color="#fff" offset="0"/><stop stop-color="#fff" stop-opacity=".5036" offset=".5"/><stop stop-color="#fff" offset="1"/></linearGradient><linearGradient id="linearGradient5247"><stop stop-color="#fff" offset="0"/><stop stop-color="#fff" stop-opacity=".7914" offset=".5"/><stop stop-color="#fff" stop-opacity="0" offset="1"/></linearGradient><linearGradient id="linearGradient5131"><stop offset="0"/><stop stop-opacity="0" offset="1"/></linearGradient><linearGradient id="linearGradient3285"><stop stop-color="#474747" offset="0"/><stop stop-color="#474747" stop-opacity="0" offset="1"/></linearGradient><radialGradient id="radialGradient4925" cx="-84" cy="64" r="60" gradientUnits="userSpaceOnUse" xlink:href="#linearGradient5880"/><mask id="mask4921" maskUnits="userSpaceOnUse"><path d="m-84 4c-3.274 0.01728-5.376 0.1739-8.625 0.625-0.962 0.1532-1.75 0.7805-1.75 1.75l-0.5938 9.438c-0.08851 0.9552-0.7566 1.584-1.469 1.812-0.02183 0.006995-0.0406 0.02503-0.0625 0.03125-4.117 1.105-8.023 2.722-11.63 4.812-0.6516 0.2819-1.492 0.2649-2.188-0.3125l-7.094-6.25c-0.6855-0.6855-1.68-0.5719-2.469 0-2.617 1.979-4.235 3.354-6.562 5.656-2.303 2.327-3.678 3.946-5.656 6.562-0.5719 0.7885-0.6855 1.783 0 2.469l6.25 7.094c0.4737 0.5705 0.7362 1.309 0.4688 1.844l-0.0625 0.125c-2.246 3.8-3.995 7.936-5.125 12.31-0.01184 0.02064-0.01867 0.04216-0.03125 0.0625-0.3172 0.5128-0.8554 0.9316-1.594 1l-9.438 0.5938c-0.9694 0-1.597 0.788-1.75 1.75-0.4511 3.249-0.6077 5.351-0.625 8.625 0.01728 3.274 0.1739 5.376 0.625 8.625 0.1532 0.9619 0.7806 1.75 1.75 1.75l9.438 0.5938c0.8674 0.08037 1.443 0.6466 1.719 1.281 1.103 4.143 2.766 8.064 4.875 11.69 0.3729 0.6685 0.3816 1.614-0.25 2.375l-6.25 7.094c-0.6855 0.6855-0.5719 1.68 0 2.469 1.979 2.617 3.354 4.235 5.656 6.562 2.327 2.303 3.946 3.678 6.562 5.656 0.7885 0.5719 1.783 0.6855 2.469 0l7.094-6.25c0.7606-0.6316 1.706-0.6229 2.375-0.25l0.09375-0.09375c3.528 2.017 7.328 3.61 11.34 4.688v0.1562c0.7364 0.209 1.44 0.8593 1.531 1.844l0.5938 9.438c0 0.9694 0.788 1.597 1.75 1.75 3.249 0.4511 5.351 0.6077 8.625 0.625 3.274-0.01728 5.376-0.1739 8.625-0.625 0.9619-0.1532 1.75-0.7806 1.75-1.75l0.5938-9.438c0.09122-0.9845 0.7948-1.635 1.531-1.844v-0.1562c4.016-1.078 7.816-2.67 11.34-4.688l0.09375 0.09375c0.6685-0.3729 1.614-0.3816 2.375 0.25l7.094 6.25c0.6855 0.6855 1.68 0.5719 2.469 0 2.617-1.979 4.235-3.354 6.562-5.656 2.303-2.327 3.678-3.946 5.656-6.562 0.5719-0.7885 0.6855-1.783 0-2.469l-6.25-7.094c-0.6316-0.7606-0.6229-1.706-0.25-2.375 2.109-3.623 3.772-7.544 4.875-11.69 0.2753-0.6347 0.8514-1.201 1.719-1.281l9.438-0.5938c0.9694 0 1.597-0.7881 1.75-1.75 0.4511-3.249 0.6077-5.351 0.625-8.625-0.01728-3.274-0.1739-5.376-0.625-8.625-0.1532-0.962-0.7806-1.75-1.75-1.75l-9.438-0.5938c-0.7384-0.06842-1.277-0.4872-1.594-1-0.00563-0.02192-0.02559-0.04059-0.03125-0.0625-1.13-4.376-3.151-8.365-5.125-12.31l-0.0625-0.125c-0.2674-0.5349-0.00497-1.273 0.4688-1.844l6.25-7.094c0.6855-0.6855 0.5719-1.68 0-2.469-1.979-2.617-3.354-4.235-5.656-6.562-2.327-2.303-3.946-3.678-6.562-5.656-0.7885-0.5719-1.783-0.6855-2.469 0l-7.094 6.25c-0.6954 0.5774-1.536 0.5944-2.188 0.3125-3.602-2.09-7.508-3.707-11.62-4.812-0.0219-0.006217-0.04067-0.02426-0.0625-0.03125-0.7121-0.2282-1.38-0.8573-1.469-1.812l-0.5938-9.438c0-0.9695-0.7881-1.597-1.75-1.75-3.249-0.4511-5.351-0.6077-8.625-0.625zm0 44c8.832-1e-6 16 7.168 16 16-1e-6 8.832-7.168 16-16 16-8.832 0-16-7.168-16-16 1e-6 -8.832 7.168-16 16-16z" fill="url(#radialGradient4925)"/></mask><filter id="filter5054"><feGaussianBlur stdDeviation="1.2828183"/></filter><clipPath id="clipPath5073"><path d="m76.91-70.06c-2.912 3.972-7.607 6.562-12.91 6.562-4.896 0-9.283-2.189-12.22-5.656-23.14-4.286-26.62 14.04-31.5 30.75 0.4088 0.434 0.8071 0.8646 1.281 1.344 2.327 2.303 3.946 3.678 6.562 5.656 0.7885 0.5719 1.783 0.6855 2.469 0l7.094-6.25c0.7606-0.6316 1.706-0.6229 2.375-0.25l0.09375-0.09375c3.528 2.017 7.328 3.61 11.34 4.688v0.1562c0.7364 0.209 1.44 0.8593 1.531 1.844l0.5938 9.438c1e-6 0.9694 0.788 1.597 1.75 1.75 3.249 0.4511 5.351 0.6077 8.625 0.625 3.274-0.01728 5.376-0.1739 8.625-0.625 0.9619-0.1532 1.75-0.7806 1.75-1.75l0.5938-9.438c0.09122-0.9845 0.7948-1.635 1.531-1.844v-0.1562c4.016-1.078 7.816-2.67 11.34-4.688l0.09375 0.09375c0.6685-0.3729 1.614-0.3816 2.375 0.25l7.094 6.25c0.6855 0.6855 1.68 0.5719 2.469 0 2.617-1.979 4.235-3.354 6.562-5.656 0.4854-0.4906 0.8952-0.9314 1.312-1.375 3.924-7.087-25.61-43.43-30.84-31.62z" fill="url(#radialGradient5077)" opacity=".4312"/></clipPath><radialGradient id="radialGradient5077" cx="94.82" cy="67.9" r="43.73" gradientTransform="matrix(1 0 0 .5781 0 -101.8)" gradientUnits="userSpaceOnUse" xlink:href="#linearGradient5880"/><filter id="filter5162"><feGaussianBlur stdDeviation="0.60500001"/></filter><filter id="filter5257"><feGaussianBlur stdDeviation="0.022901589"/></filter><filter id="filter5309"><feGaussianBlur stdDeviation="0.093056358"/></filter><filter id="filter5505" x="-.1128" y="-.06669" width="1.226" height="1.133"><feGaussianBlur stdDeviation="0.13268874"/></filter><filter id="filter5581"><feGaussianBlur stdDeviation="0.20386597"/></filter><filter id="filter5718"><feGaussianBlur stdDeviation="0.48701799"/></filter><filter id="filter5836"><feGaussianBlur stdDeviation="0.12356379"/></filter><filter id="filter5876"><feGaussianBlur stdDeviation="0.11909804"/></filter><filter id="filter5960"><feGaussianBlur stdDeviation="0.069666275"/></filter><filter id="filter3310"><feGaussianBlur stdDeviation="0.11377897"/></filter><radialGradient id="radialGradient6335" cx="54.67" cy="6.85" r="1.289" fx="54.05" fy="6.341" gradientTransform="matrix(1 0 0 1.902 0 -6.178)" gradientUnits="userSpaceOnUse" xlink:href="#linearGradient5247"/><linearGradient id="linearGradient6339" x1="43.71" x2="18.25" y1="11.36" y2="21.73" gradientUnits="userSpaceOnUse" xlink:href="#linearGradient5267"/><linearGradient id="linearGradient6343" x1="52.72" x2="38.63" y1="17.8" y2="22.66" gradientUnits="userSpaceOnUse" xlink:href="#linearGradient5267"/><radialGradient id="radialGradient6347" cx="54.67" cy="6.85" r="1.289" gradientTransform="matrix(1 0 0 1.902 0 -6.178)" gradientUnits="userSpaceOnUse" xlink:href="#linearGradient3285"/><linearGradient id="linearGradient6353" x1="114.3" x2="114.3" y1="49.94" y2="61.88" gradientUnits="userSpaceOnUse" xlink:href="#linearGradient5515"/><linearGradient id="linearGradient6359" x1="310.8" x2="310.8" y1="-27.66" y2="270.2" gradientUnits="userSpaceOnUse"><stop offset="0"/><stop stop-color="#fff" offset=".5"/><stop stop-color="#fff" offset="1"/></linearGradient><linearGradient id="linearGradient6386" x1="63.99" x2="63.99" y1="80.37" y2="66.13" gradientUnits="userSpaceOnUse" xlink:href="#linearGradient5880"/><linearGradient id="linearGradient6408" x1="62.94" x2="63.02" y1="3.85" y2="9.852" gradientTransform="translate(-.02961 -.4586)" gradientUnits="userSpaceOnUse"><stop stop-color="#fff" offset="0"/><stop stop-color="#fff" stop-opacity="0" offset="1"/></linearGradient><linearGradient id="linearGradient6412" x1="283.5" x2="282.5" y1="-52.5" y2="128.5" gradientTransform="translate(-230 39.47)" gradientUnits="userSpaceOnUse" xlink:href="#linearGradient5131"/><radialGradient id="radialGradient6415" cx="-84" cy="64" r="60" gradientTransform="translate(148)" gradientUnits="userSpaceOnUse" xlink:href="#linearGradient5880"/><linearGradient id="linearGradient6421" x1="64" x2="64" y1="81.5" y2="12.68" gradientTransform="translate(1.5e-6)" gradientUnits="userSpaceOnUse" spreadMethod="reflect"><stop stop-color="#b4b4b4" offset="0"/><stop stop-color="#d1d1d1" offset=".5"/><stop stop-color="#fafafa" offset="1"/></linearGradient><linearGradient id="linearGradient6430" x1="320" x2="310" y1="88.53" y2="-16.47" gradientTransform="translate(-230 40.27)" gradientUnits="userSpaceOnUse" xlink:href="#linearGradient5131"/><filter id="filter6444"><feGaussianBlur stdDeviation="0.84700004"/></filter><filter id="filter3606"><feGaussianBlur stdDeviation="0.50964986"/></filter><linearGradient id="linearGradient2852" x1="1303" x2="1308" y1="-275.4" y2="-280.1" gradientUnits="userSpaceOnUse"><stop offset="0"/><stop stop-opacity="0" offset="1"/></linearGradient><linearGradient id="linearGradient2850" x1="1308" x2="1316" y1="-275" y2="-297.2" gradientUnits="userSpaceOnUse" xlink:href="#linearGradient5595"/><linearGradient id="linearGradient2846" x1="1075" x2="1079" y1="-311.7" y2="-302.5" gradientTransform="matrix(.7847 0 0 .7828 -780.3 287.8)" gradientUnits="userSpaceOnUse"><stop offset="0"/><stop stop-opacity="0" offset="1"/></linearGradient><linearGradient id="linearGradient2844" x1="1308" x2="1312" y1="-275" y2="-291.9" gradientUnits="userSpaceOnUse" xlink:href="#linearGradient5595"/><linearGradient id="linearGradient2842" x1="1587" x2="1603" y1="-287.6" y2="-287.6" gradientTransform="matrix(.7847 0 0 .7828 -1195 282.3)" gradientUnits="userSpaceOnUse" spreadMethod="reflect" xlink:href="#linearGradient9182"/><linearGradient id="linearGradient2840" x1="1070" x2="1075" y1="-301.6" y2="-301.6" gradientTransform="matrix(.7847 0 -.00864 .5282 -782.6 211.8)" gradientUnits="userSpaceOnUse" spreadMethod="reflect" xlink:href="#linearGradient9182"/><linearGradient id="linearGradient2838" x1="1304" x2="1317" y1="-279.2" y2="-290.2" gradientUnits="userSpaceOnUse"><stop offset="0"/><stop stop-opacity="0" offset="1"/></linearGradient><linearGradient id="linearGradient2836" x1="871.2" x2="922.9" y1="-296.4" y2="-253.7" gradientTransform="matrix(-.6284 -.03801 -.0381 .627 671.4 277.4)" gradientUnits="userSpaceOnUse" xlink:href="#linearGradient5880"/><radialGradient id="radialGradient2834" cx="1029" cy="-242.7" r="4.972" fy="-244.9" gradientUnits="userSpaceOnUse" xlink:href="#linearGradient7964"/><linearGradient id="linearGradient2832" x1="1191" x2="1218" y1="-239.7" y2="-239.7" gradientTransform="translate(-184.7 -8.594)" gradientUnits="userSpaceOnUse" spreadMethod="reflect" xlink:href="#linearGradient7866"/><radialGradient id="radialGradient2828" cx="1005" cy="-232" r="19.92" fx="1004" fy="-217.4" gradientTransform="matrix(1 0 0 .5441 0 -105.7)" gradientUnits="userSpaceOnUse" xlink:href="#linearGradient7974"/><linearGradient id="linearGradient2826" x1="1532" x2="1517" y1="-294.2" y2="-258.6" gradientUnits="userSpaceOnUse" xlink:href="#linearGradient5880"/><radialGradient id="radialGradient2824" cx="1524" cy="-260.5" r="24.75" fx="1522" fy="-250.7" gradientTransform="matrix(1.311 .1241 -.0541 1.689 -487 -8.419)" gradientUnits="userSpaceOnUse" xlink:href="#linearGradient7488"/><linearGradient id="linearGradient2822" x1="1007" x2="1022" y1="-277.2" y2="-277.3" gradientUnits="userSpaceOnUse" xlink:href="#linearGradient5880" spreadMethod="reflect"/><radialGradient id="radialGradient2820" cx="1514" cy="-242" r="25.38" fx="1511" fy="-244.9" gradientTransform="matrix(1.577 -.3469 .2373 1.184 -822.1 572.6)" gradientUnits="userSpaceOnUse" xlink:href="#linearGradient5131"/><radialGradient id="radialGradient2818" cx="1524" cy="-239.1" r="25.38" fx="1518" fy="-243.7" gradientTransform="matrix(1.577 -.3469 .2373 1.184 -822.1 572.6)" gradientUnits="userSpaceOnUse" xlink:href="#linearGradient5880"/><linearGradient id="linearGradient2816" x1="758.9" x2="765.2" y1="-688.4" y2="-688.5" gradientUnits="userSpaceOnUse" xlink:href="#linearGradient5991"/><linearGradient id="linearGradient2814" x1="1342" x2="1379" y1="-272" y2="-258.9" gradientTransform="matrix(-.6284 -.03801 -.0381 .627 952.1 294.4)" gradientUnits="userSpaceOnUse" spreadMethod="reflect" xlink:href="#linearGradient5595"/><linearGradient id="linearGradient2812" x1="941.5" x2="905.3" y1="-297.2" y2="-261" gradientTransform="translate(90.23)" gradientUnits="userSpaceOnUse" xlink:href="#linearGradient5880"/><radialGradient id="radialGradient2804" cx="1005" cy="-232" r="19.92" fx="1004" fy="-217.4" gradientTransform="matrix(.9983 .0576 -.02941 .5098 -5.154 -171.6)" gradientUnits="userSpaceOnUse" xlink:href="#linearGradient7974"/><linearGradient id="linearGradient2802" x1="1514" x2="1527" y1="-288.7" y2="-257.3" gradientUnits="userSpaceOnUse" xlink:href="#linearGradient5880"/><radialGradient id="radialGradient2796" cx="1524" cy="-239.1" r="25.38" fx="1521" fy="-241.9" gradientTransform="matrix(1.577 -.3469 .2373 1.184 -822.1 572.6)" gradientUnits="userSpaceOnUse" xlink:href="#linearGradient5131"/><radialGradient id="radialGradient2794" cx="1524" cy="-239.1" r="25.38" fx="1531" fy="-239.9" gradientTransform="matrix(1.577 -.3469 .2373 1.184 -822.1 572.6)" gradientUnits="userSpaceOnUse" xlink:href="#linearGradient5880"/><linearGradient id="linearGradient2790" x1="1342" x2="1379" y1="-272" y2="-258.9" gradientTransform="translate(-356.4)" gradientUnits="userSpaceOnUse" spreadMethod="reflect" xlink:href="#linearGradient5595"/><linearGradient id="linearGradient2788" x1="1587" x2="1626" y1="-287.6" y2="-275.5" gradientTransform="matrix(.6333 0 0 .6319 -951.9 230.2)" gradientUnits="userSpaceOnUse" spreadMethod="reflect" xlink:href="#linearGradient9182"/><radialGradient id="radialGradient2786" cx="1042" cy="-326" r="5.626" gradientTransform="matrix(1.344 0 0 .4007 -359.1 -194.3)" gradientUnits="userSpaceOnUse" xlink:href="#linearGradient5880"/><linearGradient id="linearGradient2784" x1="1041" x2="1051" y1="-346.5" y2="-306.5" gradientUnits="userSpaceOnUse" xlink:href="#linearGradient5131"/><radialGradient id="radialGradient2782" cx="1058" cy="-345.9" r="11.96" gradientTransform="matrix(1 0 0 .4656 .2803 -180.9)" gradientUnits="userSpaceOnUse" xlink:href="#linearGradient5880"/><linearGradient id="linearGradient2780" x1="1044" x2="1029" y1="-328.6" y2="-323.6" gradientUnits="userSpaceOnUse" xlink:href="#linearGradient5131"/><linearGradient id="linearGradient2774" x1="1143" x2="1150" y1="-320.3" y2="-265.9" gradientUnits="userSpaceOnUse" xlink:href="#linearGradient5131"/><linearGradient id="linearGradient2768" x1="1050" x2="1054" y1="-359.1" y2="-304.6" gradientUnits="userSpaceOnUse" xlink:href="#linearGradient5880"/><linearGradient id="linearGradient2766" x1="924.3" x2="940.1" y1="-593.1" y2="-593.1" gradientUnits="userSpaceOnUse" xlink:href="#linearGradient5991"/><linearGradient id="linearGradient2764" x1="1321" x2="1396" y1="-304.5" y2="-307.3" gradientTransform="matrix(-1 0 0 1 2302 36.5)" gradientUnits="userSpaceOnUse" xlink:href="#linearGradient5595"/><linearGradient id="linearGradient2762" x1="990.3" x2="1001" y1="-289.3" y2="-310" gradientTransform="translate(.25 .25)" gradientUnits="userSpaceOnUse" xlink:href="#linearGradient5131"/><radialGradient id="radialGradient2760" cx="1042" cy="-326" r="5.626" gradientTransform="matrix(1.278 .02222 -.006966 .4006 -291.9 -217.5)" gradientUnits="userSpaceOnUse" xlink:href="#linearGradient5880"/><linearGradient id="linearGradient2754" x1="1043" x2="1024" y1="-326.6" y2="-321.8" gradientUnits="userSpaceOnUse" xlink:href="#linearGradient5131"/><radialGradient id="radialGradient2746" cx="1040" cy="-288.6" r="43.1" fx="1058" fy="-298" gradientTransform="matrix(.4067 .3407 -.2269 .2696 -458.1 -206.6)" gradientUnits="userSpaceOnUse"><stop offset="0"/><stop stop-opacity="0" offset="1"/></radialGradient><linearGradient id="linearGradient2736" x1="1321" x2="1396" y1="-304.5" y2="-307.3" gradientTransform="matrix(.6286 -.03478 .03487 .6271 -812.7 299.3)" gradientUnits="userSpaceOnUse" xlink:href="#linearGradient5595"/><linearGradient id="linearGradient2730" x1="1342" x2="1379" y1="-272" y2="-258.9" gradientTransform="matrix(-.2494 -.01537 -.01512 .2535 421.2 124.5)" gradientUnits="userSpaceOnUse" spreadMethod="reflect" xlink:href="#linearGradient5595"/><linearGradient id="linearGradient10263" x1="1587" x2="1626" y1="-287.6" y2="-275.5" gradientTransform="matrix(.8534 .05023 -.0477 .9127 -73.97 -100.1)" gradientUnits="userSpaceOnUse" spreadMethod="reflect" xlink:href="#linearGradient9182"/><clipPath id="clipPath10259"><path d="m1295-283.3s6.98-5.026 13.96-4.616c7.781 0.458 13.26 6.47 13.26 6.47l-8.207 7.736s-2.37-2.163-5.31-2.462c-2.94-0.2995-6.45 1.264-6.45 1.264l-7.246-8.392z" fill="url(#linearGradient10263)" fill-rule="evenodd"/></clipPath><filter id="filter10253" x="-.1613" y="-.1612" width="1.323" height="1.322"><feGaussianBlur stdDeviation="0.98542663"/></filter><clipPath id="clipPath8998"><path transform="matrix(1.105 0 .03541 .9594 -810.1 3.539)" d="m1550-264.5a24.75 24.75 0 1 1-49.5 0 24.75 24.75 0 1 1 49.5 0z" fill="url(#radialGradient2824)"/></clipPath><filter id="filter8002" x="-.04108" y="-.1022" width="1.082" height="1.204"><feGaussianBlur stdDeviation="0.81845238"/></filter><filter id="filter7958"><feGaussianBlur stdDeviation="0.37171029"/></filter><filter id="filter7845"><feGaussianBlur stdDeviation="0.26782521"/></filter><filter id="filter7328"><feGaussianBlur stdDeviation="0.37286051"/></filter><linearGradient id="linearGradient7266" x1="1321" x2="1396" y1="-304.5" y2="-307.3" gradientTransform="matrix(.9907 0 0 .9891 -304.4 -2.797)" gradientUnits="userSpaceOnUse" xlink:href="#linearGradient5595"/><clipPath id="clipPath7262"><path d="m1055-342.3c-2.66-0.04004-5.336 0.6576-7.647 1.978-3.297 1.885-5.102 5.521-6.408 9.242-8.571 0.4199-19.49 2.672-26.97 15.55l-9.597 20.71h0.0928c-0.062 0.1049-0.1241 0.2029-0.1857 0.3091l57.96 28.75h13.99c7.691 1e-5 12.35-8.05 13.25-15.7h0.031v-0.1855c0.0331-0.3018 0.0406-0.5966 0.0619-0.8964l0.031-0.2473c0.023-0.382 0.0583-0.7673 0.0618-1.144l1.331-19.6c0.542-4.303-0.2184-8.499-2.477-10.76l-24.18-24.14c-2.56-2.556-5.93-3.812-9.35-3.864z" fill="url(#linearGradient7266)" fill-rule="evenodd"/></clipPath><filter id="filter7256" x="-.1955" y="-.09138" width="1.391" height="1.183"><feGaussianBlur stdDeviation="0.90989293"/></filter><filter id="filter7023"><feGaussianBlur stdDeviation="0.60163542"/></filter><linearGradient id="linearGradient7005" x1="1342" x2="1379" y1="-272" y2="-258.9" gradientTransform="matrix(.8971 -.4419 .4419 .8971 -319.7 157.5)" gradientUnits="userSpaceOnUse" spreadMethod="reflect" xlink:href="#linearGradient5595"/><clipPath id="clipPath7001"><path d="m774.8-708.8c-11.3 5.569-17.89 16.14-17.71 26.56l-0.0121 16.17 0.1818 4.683c0.3917 3.171 1.355 6.284 2.95 9.241 7.964 14.77 28.5 19.82 45.83 11.28 16.5-8.129 24.17-25.67 17.99-40.07l-0.331-0.7427-8.382-17.02c-0.01486-0.02791-0.02637-0.05626-0.04143-0.0841-7.045-13.07-25.18-17.55-40.47-10.02z" fill="url(#linearGradient7005)"/></clipPath><linearGradient id="linearGradient6969" x1="1342" x2="1379" y1="-272" y2="-258.9" gradientTransform="translate(-445.1)" gradientUnits="userSpaceOnUse" spreadMethod="reflect" xlink:href="#linearGradient5595"/><clipPath id="clipPath6965"><path d="m919.5-293.5c-12.6 0-23.18 6.573-27.63 16l-7.156 14.5-1.906 4.281c-1.05 3.018-1.561 6.236-1.438 9.594 0.6188 16.77 16.81 30.38 36.13 30.38 18.39 0 33.02-12.35 33.84-28l0.0312-0.8125v-18.97c-1e-3 -0.03161 0.0012-0.06212 0-0.09375-0.5459-14.84-14.83-26.88-31.88-26.88z" fill="url(#linearGradient6969)"/></clipPath><filter id="filter6959" x="-.1059" y="-.1407" width="1.212" height="1.281"><feGaussianBlur stdDeviation="3.802569"/></filter><clipPath id="clipPath6641"><path transform="matrix(1.073 0 -2.062e-5 1.074 -111.4 18.59)" d="m1550-264.5a24.75 24.75 0 1 1-49.5 0 24.75 24.75 0 1 1 49.5 0z" fill="none" stroke="#000" stroke-linecap="round" stroke-linejoin="round" stroke-width="3.54"/></clipPath><filter id="filter6637"><feGaussianBlur stdDeviation="0.77462889"/></filter><filter id="filter6198" x="-.1123" y="-.2265" width="1.225" height="1.453"><feGaussianBlur stdDeviation="0.4135875"/></filter><filter id="filter6072"><feGaussianBlur stdDeviation="0.083138439"/></filter><linearGradient id="linearGradient6054" x1="1321" x2="1381" y1="-304.5" y2="-304.5" gradientTransform="matrix(.94 -.3413 .3413 .94 -245.9 186.6)" gradientUnits="userSpaceOnUse" xlink:href="#linearGradient5595"/><clipPath id="clipPath6050"><path d="m926.5-604.2c-2.538 0.8782-4.836 2.463-6.573 4.514-2.478 2.927-2.936 7.004-2.892 10.99-7.987 3.351-17.57 9.254-20.22 24.06l-1.961 22.99 0.08808-0.03196c-0.02265 0.121-0.04777 0.2356-0.06951 0.3577l64.91 7.354 13.28-4.82c7.298-2.649 8.94-11.9 7.155-19.49l0.02933-0.01065-0.06399-0.1762c-0.07261-0.2982-0.1673-0.5809-0.2505-0.8732l-0.05589-0.2457c-0.11-0.3709-0.2094-0.7492-0.3359-1.108l-5.498-19.08c-0.9704-4.276-3.139-8.001-6.061-9.369l-31.27-14.61c-3.31-1.547-6.941-1.58-10.2-0.451z" fill="url(#linearGradient6054)" fill-rule="evenodd"/></clipPath><filter id="filter6035"><feGaussianBlur stdDeviation="1.0516022"/></filter><linearGradient id="linearGradient5987" x1="1321" x2="1381" y1="-304.5" y2="-304.5" gradientTransform="translate(-317.5)" gradientUnits="userSpaceOnUse" xlink:href="#linearGradient5595"/><clipPath id="clipPath5983"><path d="m1054-343.2c-2.685-0.04048-5.386 0.6648-7.719 2-3.328 1.905-5.15 5.581-6.469 9.344-8.652 0.4245-19.67 2.702-27.22 15.72l-9.688 20.94h0.0937c-0.0626 0.106-0.1253 0.2051-0.1874 0.3125l58.5 29.06h14.12c7.764 1e-5 12.47-8.138 13.38-15.88h0.0312v-0.1875c0.0335-0.3051 0.041-0.6031 0.0625-0.9062l0.0313-0.25c0.0232-0.3862 0.0589-0.7757 0.0624-1.156l1.344-19.81c0.5471-4.351-0.2204-8.592-2.5-10.88l-24.41-24.41c-2.584-2.584-5.985-3.854-9.438-3.906z" fill="url(#linearGradient5987)" fill-rule="evenodd"/></clipPath><filter id="filter5977"><feGaussianBlur stdDeviation="0.27275091"/></filter><clipPath id="clipPath5917"><path d="m1054-343.2c-2.685-0.04048-5.386 0.6648-7.719 2-3.328 1.905-5.15 5.581-6.469 9.344-8.652 0.4245-19.67 2.702-27.22 15.72l-9.688 20.94h0.0937c-0.0626 0.106-0.1253 0.2051-0.1874 0.3125l58.5 29.06h14.12c7.764 1e-5 12.47-8.138 13.38-15.88h0.0312v-0.1875c0.0335-0.3051 0.041-0.6031 0.0625-0.9062l0.0313-0.25c0.0232-0.3862 0.0589-0.7757 0.0624-1.156l1.344-19.81c0.5471-4.351-0.2204-8.592-2.5-10.88l-24.41-24.41c-2.584-2.584-5.985-3.854-9.438-3.906z" fill="url(#linearGradient5987)" fill-rule="evenodd"/></clipPath><filter id="filter5911" x="-.1148" y="-.08689" width="1.23" height="1.174"><feGaussianBlur stdDeviation="0.87156593"/></filter><clipPath id="clipPath5757"><path d="m1166-265.9h14.14c12.52 0 17.13-21.13 10.6-27.67l-26.99-26.99c-5.081-5.081-13.11-5.483-19-2.107-3.681 2.107-5.679 6.188-7.138 10.35-9.57 0.4695-21.76 2.981-30.1 17.38l58.5 29.05z" fill="#3d3b3c" fill-rule="evenodd"/></clipPath><filter id="filter5753"><feGaussianBlur stdDeviation="1.4374244"/></filter><filter id="filter5698"><feGaussianBlur stdDeviation="0.26202037"/></filter><filter id="filter5622"><feGaussianBlur stdDeviation="0.3713333"/></filter><linearGradient id="linearGradient5595"><stop stop-color="#dddbdc" offset="0"/><stop stop-color="#878485" offset=".7432"/><stop stop-color="#4e4c4d" offset=".8092"/><stop stop-color="#2e2c2d" offset="1"/></linearGradient><linearGradient id="linearGradient5991"><stop stop-opacity="0" offset="0"/><stop stop-opacity=".6833" offset=".25"/><stop offset=".5"/><stop stop-opacity=".7295" offset=".75"/><stop stop-opacity="0" offset="1"/></linearGradient><linearGradient id="linearGradient7488"><stop stop-color="#eb7331" offset="0"/><stop stop-color="#eb7331" stop-opacity="0" offset="1"/></linearGradient><linearGradient id="linearGradient7866"><stop stop-color="#f4bea0" offset="0"/><stop stop-color="#e5702f" stop-opacity="0" offset="1"/></linearGradient><linearGradient id="linearGradient7964"><stop stop-color="#fff0c3" offset="0"/><stop stop-color="#c13d00" stop-opacity="0" offset="1"/></linearGradient><linearGradient id="linearGradient7974"><stop stop-color="#a04e21" offset="0"/><stop stop-color="#a04e21" stop-opacity="0" offset="1"/></linearGradient><linearGradient id="linearGradient9182"><stop stop-color="#3a3a3c" offset="0"/><stop stop-color="#5d5d60" offset=".5"/><stop stop-color="#97989b" offset="1"/></linearGradient><radialGradient id="radialGradient3462" cx="-1.249" cy="23.73" r="60" fy="61.4" gradientTransform="matrix(1.358 1.503 -1.633 1.476 -61.05 -44.65)" gradientUnits="userSpaceOnUse"><stop stop-opacity="0" offset="0"/><stop stop-opacity="0" offset=".6105"/><stop stop-opacity=".3777" offset=".6847"/><stop stop-opacity="0" offset=".75"/><stop stop-opacity="0" offset="1"/></radialGradient><radialGradient id="radialGradient3466" cx="89.56" cy="80.49" r="43.73" gradientTransform="matrix(1 0 0 .5781 0 -101.8)" gradientUnits="userSpaceOnUse" xlink:href="#linearGradient5880"/></defs><g transform="matrix(.75 0 0 .75 16 2.75)"><path d="m64 4c-3.274 0.01728-5.376 0.1739-8.625 0.625-0.962 0.1532-1.75 0.7806-1.75 1.75l-0.5938 9.438c-0.08851 0.9552-0.7566 1.584-1.469 1.812-0.02183 7e-3 -0.0406 0.02503-0.0625 0.03125-4.117 1.105-8.023 2.722-11.62 4.812-0.6516 0.2819-1.492 0.2649-2.188-0.3125l-7.094-6.25c-0.6855-0.6855-1.68-0.5719-2.469 0-2.617 1.979-4.235 3.354-6.562 5.656-2.303 2.327-3.678 3.946-5.656 6.562-0.5719 0.7885-0.6855 1.783 0 2.469l6.25 7.094c0.4737 0.5705 0.7362 1.309 0.4688 1.844l-0.0625 0.125c-2.246 3.8-3.995 7.936-5.125 12.31-0.01184 0.02064-0.01867 0.04216-0.03125 0.0625-0.3172 0.5128-0.8554 0.9316-1.594 1l-9.438 0.5938c-0.9694 0-1.597 0.788-1.75 1.75-0.4511 3.249-0.6077 5.351-0.625 8.625 0.01728 3.274 0.1739 5.376 0.625 8.625 0.1532 0.962 0.7806 1.75 1.75 1.75l9.438 0.5938c0.8674 0.08037 1.443 0.6466 1.719 1.281 1.103 4.143 2.766 8.064 4.875 11.69 0.3729 0.6685 0.3816 1.614-0.25 2.375l-6.25 7.094c-0.6855 0.6855-0.5719 1.68 0 2.469 1.979 2.617 3.354 4.235 5.656 6.562 2.327 2.303 3.946 3.678 6.562 5.656 0.7885 0.5719 1.783 0.6855 2.469 0l7.094-6.25c0.7606-0.6316 1.706-0.6229 2.375-0.25l0.09375-0.09375c3.528 2.017 7.328 3.61 11.34 4.688v0.1562c0.7364 0.209 1.44 0.8593 1.531 1.844l0.5938 9.438c0 0.9694 0.788 1.597 1.75 1.75 3.249 0.4511 5.351 0.6077 8.625 0.625 3.274-0.01728 5.376-0.1739 8.625-0.625 0.962-0.1532 1.75-0.7806 1.75-1.75l0.5938-9.438c0.09122-0.9845 0.7948-1.635 1.531-1.844v-0.1562c4.016-1.078 7.816-2.67 11.34-4.688l0.09375 0.09375c0.6685-0.3729 1.614-0.3816 2.375 0.25l7.094 6.25c0.6855 0.6855 1.68 0.5719 2.469 0 2.617-1.979 4.235-3.354 6.563-5.656 2.303-2.327 3.678-3.946 5.656-6.562 0.5719-0.7885 0.6855-1.783 0-2.469l-6.25-7.094c-0.6316-0.7606-0.6229-1.706-0.25-2.375 2.109-3.623 3.772-7.544 4.875-11.69 0.2753-0.6347 0.8514-1.201 1.719-1.281l9.438-0.5938c0.9694 0 1.597-0.788 1.75-1.75 0.4511-3.249 0.6077-5.351 0.625-8.625-0.01728-3.274-0.1739-5.376-0.625-8.625-0.1532-0.962-0.7806-1.75-1.75-1.75l-9.438-0.5938c-0.7384-0.06842-1.277-0.4872-1.594-1-0.00563-0.02192-0.02559-0.04059-0.03125-0.0625-1.13-4.376-3.151-8.365-5.125-12.31l-0.0625-0.125c-0.2674-0.5349-0.00497-1.273 0.4688-1.844l6.25-7.094c0.6855-0.6855 0.5719-1.68 0-2.469-1.979-2.617-3.354-4.235-5.656-6.562-2.327-2.303-3.946-3.678-6.563-5.656-0.7885-0.5719-1.783-0.6855-2.469 0l-7.094 6.25c-0.6954 0.5774-1.536 0.5944-2.188 0.3125-3.602-2.09-7.508-3.707-11.62-4.812-0.0219-0.00622-0.04067-0.02425-0.0625-0.03125-0.7121-0.2282-1.38-0.8573-1.469-1.812l-0.5938-9.438c0-0.9694-0.788-1.597-1.75-1.75-3.249-0.4511-5.351-0.6077-8.625-0.625zm0 44c8.832 0 16 7.168 16 16s-7.168 16-16 16-16-7.168-16-16 7.168-16 16-16z" fill="#363636" stroke="#767676" stroke-dashoffset="1.088" stroke-linecap="round" stroke-linejoin="round" stroke-width="2"/><path d="m63.97 4.767c-3.274 0.01728-5.376 0.1739-8.625 0.625-0.962 0.1532-1.75 0.7806-1.75 1.75l-0.5938 9.438c-0.08851 0.9552-0.7566 1.584-1.469 1.812-0.02183 7e-3 -0.0406 0.02503-0.0625 0.03125-4.117 1.105-8.023 2.722-11.62 4.812-0.6516 0.2819-1.492 0.2649-2.188-0.3125l-7.094-6.25c-0.6855-0.6855-1.68-0.5719-2.469 0-2.617 1.979-4.235 3.354-6.562 5.656-2.303 2.327-3.678 3.946-5.656 6.562-0.5719 0.7885-0.6855 1.783 0 2.469l6.25 7.094c0.4737 0.5705 0.7362 1.309 0.4688 1.844l-0.0625 0.125c-2.246 3.8-3.995 7.936-5.125 12.31-0.01184 0.02064-0.01867 0.04216-0.03125 0.0625-0.3172 0.5128-0.8554 0.9316-1.594 1l-9.438 0.5938c-0.9694 0-1.597 0.788-1.75 1.75-0.4511 3.249-0.6077 5.351-0.625 8.625 0.01728 3.274 0.1739 5.376 0.625 8.625 0.1532 0.9619 0.7806 1.75 1.75 1.75l9.438 0.5938c0.8674 0.08037 1.443 0.6466 1.719 1.281 1.103 4.143 2.766 8.064 4.875 11.69 0.3729 0.6685 0.3816 1.614-0.25 2.375l-6.25 7.094c-0.6855 0.6855-0.5719 1.68 0 2.469 1.979 2.617 3.354 4.235 5.656 6.562 2.327 2.303 3.946 3.678 6.562 5.656 0.7885 0.5719 1.783 0.6855 2.469 0l7.094-6.25c0.7606-0.6316 1.706-0.6229 2.375-0.25l0.09375-0.09375c3.528 2.017 7.328 3.61 11.34 4.688v0.1562c0.7364 0.209 1.44 0.8593 1.531 1.844l0.5938 9.438c0 0.9694 0.788 1.597 1.75 1.75 3.249 0.4511 5.351 0.6077 8.625 0.625 3.274-0.01728 5.376-0.1739 8.625-0.625 0.962-0.1532 1.75-0.7806 1.75-1.75l0.5938-9.438c0.09122-0.9845 0.7948-1.635 1.531-1.844v-0.1562c4.016-1.078 7.816-2.67 11.34-4.688l0.09375 0.09375c0.6685-0.3729 1.614-0.3816 2.375 0.25l7.094 6.25c0.6855 0.6855 1.68 0.5719 2.469 0 2.617-1.979 4.235-3.354 6.563-5.656 2.303-2.327 3.678-3.946 5.656-6.562 0.5719-0.7885 0.6855-1.783 0-2.469l-6.25-7.094c-0.6316-0.7606-0.6229-1.706-0.25-2.375 2.109-3.623 3.772-7.544 4.875-11.69 0.2753-0.6347 0.8514-1.201 1.719-1.281l9.438-0.5938c0.9694 0 1.597-0.7881 1.75-1.75 0.4511-3.249 0.6077-5.351 0.625-8.625-0.01728-3.274-0.1739-5.376-0.625-8.625-0.1532-0.962-0.7806-1.75-1.75-1.75l-9.438-0.5938c-0.7384-0.06842-1.277-0.4872-1.594-1-0.00563-0.02192-0.02559-0.04059-0.03125-0.0625-1.13-4.376-3.151-8.365-5.125-12.31l-0.0625-0.125c-0.2674-0.5349-0.00497-1.273 0.4688-1.844l6.25-7.094c0.6855-0.6855 0.5719-1.68 0-2.469-1.979-2.617-3.354-4.235-5.656-6.562-2.327-2.303-3.946-3.678-6.563-5.656-0.7885-0.5719-1.783-0.6855-2.469 0l-7.094 6.25c-0.6954 0.5774-1.536 0.5944-2.188 0.3125-3.602-2.09-7.508-3.707-11.62-4.812-0.0219-0.00622-0.04067-0.02425-0.0625-0.03125-0.7121-0.2282-1.38-0.8573-1.469-1.812l-0.5938-9.438c0-0.9694-0.788-1.597-1.75-1.75-3.249-0.4511-5.351-0.6077-8.625-0.625z" fill="none" filter="url(#filter6444)" stroke="url(#linearGradient6430)" stroke-dashoffset="1.088" stroke-linecap="round" stroke-linejoin="round"/><g><path d="m64 4c-3.274 0.01728-5.376 0.1739-8.625 0.625-0.962 0.1532-1.75 0.7806-1.75 1.75l-0.5938 9.438c-0.08851 0.9552-0.7566 1.584-1.469 1.812-0.02183 7e-3 -0.0406 0.02503-0.0625 0.03125-4.117 1.105-8.023 2.722-11.62 4.812-0.6515 0.2819-1.492 0.2649-2.188-0.3125l-7.094-6.25c-0.6855-0.6855-1.68-0.5719-2.469 0-2.617 1.979-4.235 3.354-6.562 5.656-2.303 2.327-3.678 3.946-5.656 6.562-0.5719 0.7885-0.6855 1.783 0 2.469l6.25 7.094c0.4737 0.5705 0.7362 1.309 0.4688 1.844l-0.0625 0.125c-2.246 3.8-3.995 7.936-5.125 12.31-0.01184 0.02064-0.01867 0.04216-0.03125 0.0625-0.3172 0.5128-0.8554 0.9316-1.594 1l-9.438 0.5938c-0.9694 0-1.597 0.788-1.75 1.75-0.4511 3.249-0.6077 5.351-0.625 8.625 0.01728 3.274 0.1739 5.376 0.625 8.625 0.1532 0.9619 0.7806 1.75 1.75 1.75l9.438 0.5938c0.8673 0.08037 1.443 0.6466 1.719 1.281 1.103 4.143 2.766 8.064 4.875 11.69 0.3729 0.6685 0.3816 1.614-0.25 2.375l-6.25 7.094c-0.6855 0.6855-0.5719 1.68 0 2.469 1.979 2.617 3.354 4.235 5.656 6.562 2.327 2.303 3.946 3.678 6.562 5.656 0.7885 0.5719 1.783 0.6855 2.469 0l7.094-6.25c0.7606-0.6316 1.706-0.6229 2.375-0.25l0.09375-0.09375c3.528 2.017 7.328 3.61 11.34 4.688v0.1562c0.7364 0.209 1.44 0.8593 1.531 1.844l0.5938 9.438c0 0.9694 0.788 1.597 1.75 1.75 3.249 0.4511 5.351 0.6077 8.625 0.625 3.274-0.01728 5.376-0.1739 8.625-0.625 0.9619-0.1532 1.75-0.7806 1.75-1.75l0.5938-9.438c0.09122-0.9845 0.7948-1.635 1.531-1.844v-0.1562c4.016-1.078 7.816-2.67 11.34-4.688l0.09375 0.09375c0.6685-0.3729 1.614-0.3816 2.375 0.25l7.094 6.25c0.6855 0.6855 1.68 0.5719 2.469 0 2.617-1.979 4.235-3.354 6.563-5.656 2.303-2.327 3.678-3.946 5.656-6.562 0.5719-0.7885 0.6855-1.783 0-2.469l-6.25-7.094c-0.6316-0.7606-0.6229-1.706-0.25-2.375 2.109-3.623 3.772-7.544 4.875-11.69 0.2753-0.6347 0.8514-1.201 1.719-1.281l9.438-0.5938c0.9694 0 1.597-0.7881 1.75-1.75 0.4511-3.249 0.6077-5.351 0.625-8.625-0.01728-3.274-0.1739-5.376-0.625-8.625-0.1532-0.962-0.7806-1.75-1.75-1.75l-9.438-0.5938c-0.7384-0.06842-1.277-0.4872-1.594-1-0.00563-0.02192-0.02559-0.04059-0.03125-0.0625-1.13-4.376-3.151-8.365-5.125-12.31l-0.0625-0.125c-0.2674-0.5349-0.00497-1.273 0.4688-1.844l6.25-7.094c0.6855-0.6855 0.5719-1.68 0-2.469-1.979-2.617-3.354-4.235-5.656-6.562-2.327-2.303-3.946-3.678-6.563-5.656-0.7885-0.5719-1.783-0.6855-2.469 0l-7.094 6.25c-0.6954 0.5774-1.536 0.5944-2.188 0.3125-3.602-2.09-7.508-3.707-11.62-4.812-0.0219-0.00622-0.04067-0.02425-0.0625-0.03125-0.7121-0.2282-1.38-0.8573-1.469-1.812l-0.5938-9.438c0-0.9694-0.7881-1.597-1.75-1.75-3.249-0.4511-5.351-0.6077-8.625-0.625zm0 44c8.832-1e-6 16 7.168 16 16-1e-6 8.832-7.168 16-16 16-8.832 0-16-7.168-16-16 1e-6 -8.832 7.168-16 16-16z" fill="url(#linearGradient6421)"/><path transform="translate(148)" d="m-84 4c-3.274 0.01728-5.376 0.1739-8.625 0.625-0.962 0.1532-1.75 0.7805-1.75 1.75l-0.5938 9.438c-0.08851 0.9552-0.7566 1.584-1.469 1.812-0.02183 0.006995-0.0406 0.02503-0.0625 0.03125-4.117 1.105-8.023 2.722-11.63 4.812-0.6516 0.2819-1.492 0.2649-2.188-0.3125l-7.094-6.25c-0.6855-0.6855-1.68-0.5719-2.469 0-2.617 1.979-4.235 3.354-6.562 5.656-2.303 2.327-3.678 3.946-5.656 6.562-0.5719 0.7885-0.6855 1.783 0 2.469l6.25 7.094c0.4737 0.5705 0.7362 1.309 0.4688 1.844l-0.0625 0.125c-2.246 3.8-3.995 7.936-5.125 12.31-0.01184 0.02064-0.01867 0.04216-0.03125 0.0625-0.3172 0.5128-0.8554 0.9316-1.594 1l-9.438 0.5938c-0.9694 0-1.597 0.788-1.75 1.75-0.4511 3.249-0.6077 5.351-0.625 8.625 0.01728 3.274 0.1739 5.376 0.625 8.625 0.1532 0.9619 0.7806 1.75 1.75 1.75l9.438 0.5938c0.8674 0.08037 1.443 0.6466 1.719 1.281 1.103 4.143 2.766 8.064 4.875 11.69 0.3729 0.6685 0.3816 1.614-0.25 2.375l-6.25 7.094c-0.6855 0.6855-0.5719 1.68 0 2.469 1.979 2.617 3.354 4.235 5.656 6.562 2.327 2.303 3.946 3.678 6.562 5.656 0.7885 0.5719 1.783 0.6855 2.469 0l7.094-6.25c0.7606-0.6316 1.706-0.6229 2.375-0.25l0.09375-0.09375c3.528 2.017 7.328 3.61 11.34 4.688v0.1562c0.7364 0.209 1.44 0.8593 1.531 1.844l0.5938 9.438c0 0.9694 0.788 1.597 1.75 1.75 3.249 0.4511 5.351 0.6077 8.625 0.625 3.274-0.01728 5.376-0.1739 8.625-0.625 0.9619-0.1532 1.75-0.7806 1.75-1.75l0.5938-9.438c0.09122-0.9845 0.7948-1.635 1.531-1.844v-0.1562c4.016-1.078 7.816-2.67 11.34-4.688l0.09375 0.09375c0.6685-0.3729 1.614-0.3816 2.375 0.25l7.094 6.25c0.6855 0.6855 1.68 0.5719 2.469 0 2.617-1.979 4.235-3.354 6.562-5.656 2.303-2.327 3.678-3.946 5.656-6.562 0.5719-0.7885 0.6855-1.783 0-2.469l-6.25-7.094c-0.6316-0.7606-0.6229-1.706-0.25-2.375 2.109-3.623 3.772-7.544 4.875-11.69 0.2753-0.6347 0.8514-1.201 1.719-1.281l9.438-0.5938c0.9694 0 1.597-0.7881 1.75-1.75 0.4511-3.249 0.6077-5.351 0.625-8.625-0.01728-3.274-0.1739-5.376-0.625-8.625-0.1532-0.962-0.7806-1.75-1.75-1.75l-9.438-0.5938c-0.7384-0.06842-1.277-0.4872-1.594-1-0.00563-0.02192-0.02559-0.04059-0.03125-0.0625-1.13-4.376-3.151-8.365-5.125-12.31l-0.0625-0.125c-0.2674-0.5349-0.00497-1.273 0.4688-1.844l6.25-7.094c0.6855-0.6855 0.5719-1.68 0-2.469-1.979-2.617-3.354-4.235-5.656-6.562-2.327-2.303-3.946-3.678-6.562-5.656-0.7885-0.5719-1.783-0.6855-2.469 0l-7.094 6.25c-0.6954 0.5774-1.536 0.5944-2.188 0.3125-3.602-2.09-7.508-3.707-11.62-4.812-0.0219-0.006217-0.04067-0.02426-0.0625-0.03125-0.7121-0.2282-1.38-0.8573-1.469-1.812l-0.5938-9.438c0-0.9695-0.7881-1.597-1.75-1.75-3.249-0.4511-5.351-0.6077-8.625-0.625zm0 44c8.832-1e-6 16 7.168 16 16-1e-6 8.832-7.168 16-16 16-8.832 0-16-7.168-16-16 1e-6 -8.832 7.168-16 16-16z" fill="url(#radialGradient3462)" mask="url(#mask4921)"/><path transform="translate(1.5e-6,143.5)" d="m76.91-70.06c-2.912 3.972-7.607 6.562-12.91 6.562-4.896 0-9.283-2.189-12.22-5.656l-31.5 30.75c0.4088 0.434 0.8071 0.8646 1.281 1.344 2.327 2.303 3.946 3.678 6.562 5.656 0.7885 0.5719 1.783 0.6855 2.469 0l7.094-6.25c0.7606-0.6316 1.706-0.6229 2.375-0.25l0.09375-0.09375c3.528 2.017 7.328 3.61 11.34 4.688v0.1562c0.7364 0.209 1.44 0.8593 1.531 1.844l0.5938 9.438c1e-6 0.9694 0.788 1.597 1.75 1.75 3.249 0.4511 5.351 0.6077 8.625 0.625 3.274-0.01728 5.376-0.1739 8.625-0.625 0.9619-0.1532 1.75-0.7806 1.75-1.75l0.5938-9.438c0.09122-0.9845 0.7948-1.635 1.531-1.844v-0.1562c4.016-1.078 7.816-2.67 11.34-4.688l0.09375 0.09375c0.6685-0.3729 1.614-0.3816 2.375 0.25l7.094 6.25c0.6855 0.6855 1.68 0.5719 2.469 0 2.617-1.979 4.235-3.354 6.562-5.656 0.4854-0.4906 0.8952-0.9314 1.312-1.375l-30.84-31.62z" clip-path="url(#clipPath5073)" fill="url(#radialGradient5077)" filter="url(#filter5054)" opacity=".9592"/><path transform="matrix(-1 0 0 -1 128 -15.49)" d="m76.91-70.06c-2.912 3.972-7.607 6.562-12.91 6.562-4.896 0-9.283-2.189-12.22-5.656l-31.5 30.75c0.4088 0.434 0.8071 0.8646 1.281 1.344 2.327 2.303 3.946 3.678 6.562 5.656 0.7885 0.5719 1.783 0.6855 2.469 0l7.094-6.25c0.7606-0.6316 1.706-0.6229 2.375-0.25l0.09375-0.09375c3.528 2.017 7.328 3.61 11.34 4.688v0.1562c0.7364 0.209 1.44 0.8593 1.531 1.844l0.5938 9.438c1e-6 0.9694 0.788 1.597 1.75 1.75 3.249 0.4511 5.351 0.6077 8.625 0.625 3.274-0.01728 5.376-0.1739 8.625-0.625 0.9619-0.1532 1.75-0.7806 1.75-1.75l0.5938-9.438c0.09122-0.9845 0.7948-1.635 1.531-1.844v-0.1562c4.016-1.078 7.816-2.67 11.34-4.688l0.09375 0.09375c0.6685-0.3729 1.614-0.3816 2.375 0.25l7.094 6.25c0.6855 0.6855 1.68 0.5719 2.469 0 2.617-1.979 4.235-3.354 6.562-5.656 0.4854-0.4906 0.8952-0.9314 1.312-1.375l-30.84-31.62z" clip-path="url(#clipPath5073)" fill="url(#radialGradient3466)" filter="url(#filter5054)" opacity=".9918"/><path d="m64 4c-3.274 0.01728-5.376 0.1739-8.625 0.625-0.962 0.1532-1.75 0.7806-1.75 1.75l-0.5938 9.438c-0.08851 0.9552-0.7566 1.584-1.469 1.812-0.02183 7e-3 -0.0406 0.02503-0.0625 0.03125-4.117 1.105-8.023 2.722-11.62 4.812-0.6516 0.2819-1.492 0.2649-2.188-0.3125l-7.094-6.25c-0.6855-0.6855-1.68-0.5719-2.469 0-2.617 1.979-4.235 3.354-6.562 5.656-2.303 2.327-3.678 3.946-5.656 6.562-0.5719 0.7885-0.6855 1.783 0 2.469l6.25 7.094c0.4737 0.5705 0.7362 1.309 0.4688 1.844l-0.0625 0.125c-2.246 3.8-3.995 7.936-5.125 12.31-0.01184 0.02064-0.01867 0.04216-0.03125 0.0625-0.3172 0.5128-0.8554 0.9316-1.594 1l-9.438 0.5938c-0.9694 0-1.597 0.788-1.75 1.75-0.4511 3.249-0.6077 5.351-0.625 8.625 0.01728 3.274 0.1739 5.376 0.625 8.625 0.1532 0.9619 0.7806 1.75 1.75 1.75l9.438 0.5938c0.8674 0.08037 1.443 0.6466 1.719 1.281 1.103 4.143 2.766 8.064 4.875 11.69 0.3729 0.6685 0.3816 1.614-0.25 2.375l-6.25 7.094c-0.6855 0.6855-0.5719 1.68 0 2.469 1.979 2.617 3.354 4.235 5.656 6.562 2.327 2.303 3.946 3.678 6.562 5.656 0.7885 0.5719 1.783 0.6855 2.469 0l7.094-6.25c0.7606-0.6316 1.706-0.6229 2.375-0.25l0.09375-0.09375c3.528 2.017 7.328 3.61 11.34 4.688v0.1562c0.7364 0.209 1.44 0.8593 1.531 1.844l0.5938 9.438c0 0.9694 0.788 1.597 1.75 1.75 3.249 0.4511 5.351 0.6077 8.625 0.625 3.274-0.01728 5.376-0.1739 8.625-0.625 0.962-0.1532 1.75-0.7806 1.75-1.75l0.5938-9.438c0.09122-0.9845 0.7948-1.635 1.531-1.844v-0.1562c4.016-1.078 7.816-2.67 11.34-4.688l0.09375 0.09375c0.6685-0.3729 1.614-0.3816 2.375 0.25l7.094 6.25c0.6855 0.6855 1.68 0.5719 2.469 0 2.617-1.979 4.235-3.354 6.563-5.656 2.303-2.327 3.678-3.946 5.656-6.562 0.5719-0.7885 0.6855-1.783 0-2.469l-6.25-7.094c-0.6316-0.7606-0.6229-1.706-0.25-2.375 2.109-3.623 3.772-7.544 4.875-11.69 0.2753-0.6347 0.8514-1.201 1.719-1.281l9.438-0.5938c0.9694 0 1.597-0.7881 1.75-1.75 0.4511-3.249 0.6077-5.351 0.625-8.625-0.01728-3.274-0.1739-5.376-0.625-8.625-0.1532-0.962-0.7806-1.75-1.75-1.75l-9.438-0.5938c-0.7384-0.06842-1.277-0.4872-1.594-1-0.00563-0.02192-0.02559-0.04059-0.03125-0.0625-1.13-4.376-3.151-8.365-5.125-12.31l-0.0625-0.125c-0.2674-0.5349-0.00497-1.273 0.4688-1.844l6.25-7.094c0.6855-0.6855 0.5719-1.68 0-2.469-1.979-2.617-3.354-4.235-5.656-6.562-2.327-2.303-3.946-3.678-6.563-5.656-0.7885-0.5719-1.783-0.6855-2.469 0l-7.094 6.25c-0.6954 0.5774-1.536 0.5944-2.188 0.3125-3.602-2.09-7.508-3.707-11.62-4.812-0.0219-0.00622-0.04067-0.02425-0.0625-0.03125-0.7121-0.2282-1.38-0.8573-1.469-1.812l-0.5938-9.438c0-0.9694-0.788-1.597-1.75-1.75-3.249-0.4511-5.351-0.6077-8.625-0.625zm0 44c8.832-1e-6 16 7.168 16 16s-7.168 16-16 16-16-7.168-16-16c0-8.832 7.168-16 16-16z" fill="url(#radialGradient6415)" opacity=".7323"/></g><path d="m63.97 3.967c-3.274 0.01728-5.376 0.1739-8.625 0.625-0.962 0.1532-1.75 0.7806-1.75 1.75l-0.5938 9.438c-0.08851 0.9552-0.7566 1.584-1.469 1.812-0.02183 7e-3 -0.0406 0.02503-0.0625 0.03125-4.117 1.105-8.023 2.722-11.62 4.812-0.6516 0.2819-1.492 0.2649-2.188-0.3125l-7.094-6.25c-0.6855-0.6855-1.68-0.5719-2.469 0-2.617 1.979-4.235 3.354-6.562 5.656-2.303 2.327-3.678 3.946-5.656 6.562-0.5719 0.7885-0.6855 1.783 0 2.469l6.25 7.094c0.4737 0.5705 0.7362 1.309 0.4688 1.844l-0.0625 0.125c-2.246 3.8-3.995 7.936-5.125 12.31-0.01184 0.02064-0.01867 0.04216-0.03125 0.0625-0.3172 0.5128-0.8554 0.9316-1.594 1l-9.438 0.5938c-0.9694 0-1.597 0.788-1.75 1.75-0.4511 3.249-0.6077 5.351-0.625 8.625 0.01728 3.274 0.1739 5.376 0.625 8.625 0.1532 0.9619 0.7806 1.75 1.75 1.75l9.438 0.5938c0.8674 0.08037 1.443 0.6466 1.719 1.281 1.103 4.143 2.766 8.064 4.875 11.69 0.3729 0.6685 0.3816 1.614-0.25 2.375l-6.25 7.094c-0.6855 0.6855-0.5719 1.68 0 2.469 1.979 2.617 3.354 4.235 5.656 6.562 2.327 2.303 3.946 3.678 6.562 5.656 0.7885 0.5719 1.783 0.6855 2.469 0l7.094-6.25c0.7606-0.6316 1.706-0.6229 2.375-0.25l0.09375-0.09375c3.528 2.017 7.328 3.61 11.34 4.688v0.1562c0.7364 0.209 1.44 0.8593 1.531 1.844l0.5938 9.438c0 0.9694 0.788 1.597 1.75 1.75 3.249 0.4511 5.351 0.6077 8.625 0.625 3.274-0.01728 5.376-0.1739 8.625-0.625 0.962-0.1532 1.75-0.7806 1.75-1.75l0.5938-9.438c0.09122-0.9845 0.7948-1.635 1.531-1.844v-0.1562c4.016-1.078 7.816-2.67 11.34-4.688l0.09375 0.09375c0.6685-0.3729 1.614-0.3816 2.375 0.25l7.094 6.25c0.6855 0.6855 1.68 0.5719 2.469 0 2.617-1.979 4.235-3.354 6.563-5.656 2.303-2.327 3.678-3.946 5.656-6.562 0.5719-0.7885 0.6855-1.783 0-2.469l-6.25-7.094c-0.6316-0.7606-0.6229-1.706-0.25-2.375 2.109-3.623 3.772-7.544 4.875-11.69 0.2753-0.6347 0.8514-1.201 1.719-1.281l9.438-0.5938c0.9694 0 1.597-0.7881 1.75-1.75 0.4511-3.249 0.6077-5.351 0.625-8.625-0.01728-3.274-0.1739-5.376-0.625-8.625-0.1532-0.962-0.7806-1.75-1.75-1.75l-9.438-0.5938c-0.7384-0.06842-1.277-0.4872-1.594-1-0.00563-0.02192-0.02559-0.04059-0.03125-0.0625-1.13-4.376-3.151-8.365-5.125-12.31l-0.0625-0.125c-0.2674-0.5349-0.00497-1.273 0.4688-1.844l6.25-7.094c0.6855-0.6855 0.5719-1.68 0-2.469-1.979-2.617-3.354-4.235-5.656-6.562-2.327-2.303-3.946-3.678-6.563-5.656-0.7885-0.5719-1.783-0.6855-2.469 0l-7.094 6.25c-0.6954 0.5774-1.536 0.5944-2.188 0.3125-3.602-2.09-7.508-3.707-11.62-4.812-0.0219-0.00622-0.04067-0.02425-0.0625-0.03125-0.7121-0.2282-1.38-0.8573-1.469-1.812l-0.5938-9.438c0-0.9694-0.788-1.597-1.75-1.75-3.249-0.4511-5.351-0.6077-8.625-0.625zm0 44c8.832 0 16 7.168 16 16s-7.168 16-16 16-16-7.168-16-16c0-8.832 7.168-16 16-16z" fill="none" filter="url(#filter5162)" stroke="url(#linearGradient6412)" stroke-dashoffset="1.088" stroke-linecap="round" stroke-linejoin="round"/><g><path d="m15.49 28.94c-0.16 0.5854-0.05599 1.194 0.4062 1.656l6.25 7.094c0.2137 0.2574 0.3703 0.5521 0.4688 0.8438 0.2674-0.5349 0.00497-1.273-0.4688-1.844l-6.25-7.094c-0.1973-0.1973-0.3332-0.42-0.4062-0.6562zm96.97 0c-0.07302 0.2363-0.1777 0.4589-0.375 0.6562l-6.25 7.094c-0.4659 0.5611-0.7147 1.28-0.4688 1.812 0.1001-0.2795 0.2639-0.5658 0.4688-0.8125l6.25-7.094c0.4622-0.4622 0.535-1.071 0.375-1.656zm-48.47 18.06c-8.832 0-16 7.168-16 16 0 0.17 0.02598 0.3313 0.03125 0.5 0.2686-8.597 7.307-15.5 15.97-15.5 8.662-1e-6 15.7 6.903 15.97 15.5 0.005266-0.1686 0.03125-0.3301 0.03125-0.5 0-8.832-7.168-16-16-16zm60 16.5c-0.0312 2.98-0.1986 5.054-0.625 8.125-0.1532 0.9619-0.7806 1.75-1.75 1.75l-9.438 0.5938c-0.8674 0.08037-1.443 0.6466-1.719 1.281-1.103 4.143-2.766 8.064-4.875 11.69-0.2374 0.4255-0.3477 0.9691-0.2188 1.5 0.04379-0.1838 0.1302-0.3413 0.2188-0.5 2.109-3.623 3.772-7.544 4.875-11.69 0.2753-0.6347 0.8514-1.201 1.719-1.281l9.438-0.5938c0.9694 0 1.597-0.7881 1.75-1.75 0.4511-3.249 0.6077-5.351 0.625-8.625-9.4e-4 -0.1793 0.00181-0.3274 0-0.5zm-120 1.781c0.05113 2.57 0.206 4.551 0.5938 7.344 0.1532 0.9619 0.7806 1.75 1.75 1.75l9.437 0.5938c0.8674 0.08037 1.443 0.6466 1.719 1.281 1.103 4.143 2.766 8.064 4.875 11.69 0.08835 0.1584 0.1437 0.3166 0.1875 0.5 0.1289-0.5309 0.04985-1.075-0.1875-1.5-2.109-3.623-3.772-7.544-4.875-11.69-0.2753-0.6347-0.8514-1.201-1.719-1.281l-9.437-0.5938c-0.9694 0-1.597-0.7881-1.75-1.75-0.3383-2.437-0.5213-4.219-0.5938-6.344zm11.47 32.78c-0.1807 0.5845-0.00102 1.251 0.4062 1.812 1.979 2.617 3.354 4.235 5.656 6.562 2.327 2.303 3.946 3.678 6.562 5.656 0.7885 0.5719 1.783 0.6855 2.469 0l7.094-6.25c0.7606-0.6316 1.706-0.6229 2.375-0.25l0.09375-0.09375c3.528 2.017 7.328 3.61 11.34 4.688v0.1562c0.7364 0.209 1.44 0.8593 1.531 1.844l0.5938 9.438c-2e-6 0.9694 0.788 1.597 1.75 1.75 3.249 0.4511 5.351 0.6077 8.625 0.625 3.274-0.01728 5.376-0.1739 8.625-0.625 0.9619-0.1532 1.75-0.7806 1.75-1.75l0.5938-9.438c0.09122-0.9845 0.7948-1.635 1.531-1.844v-0.1562c4.016-1.078 7.816-2.67 11.34-4.688l0.09375 0.09375c0.6685-0.3729 1.614-0.3816 2.375 0.25l7.094 6.25c0.6855 0.6855 1.68 0.5719 2.469 0 2.617-1.979 4.235-3.354 6.562-5.656 2.303-2.327 3.678-3.946 5.656-6.562 0.4073-0.5615 0.5557-1.228 0.375-1.812-0.07726 0.2828-0.1887 0.5557-0.375 0.8125-1.979 2.617-3.354 4.235-5.656 6.562-2.327 2.303-3.946 3.678-6.562 5.656-0.7885 0.5719-1.783 0.6855-2.469 0l-7.094-6.25c-0.7606-0.6316-1.706-0.6229-2.375-0.25l-0.09375-0.09375c-3.528 2.017-7.328 3.61-11.34 4.688v0.1562c-0.7364 0.209-1.44 0.8593-1.531 1.844l-0.5938 9.438c0 0.9694-0.7881 1.597-1.75 1.75-3.249 0.4511-5.351 0.6077-8.625 0.625-3.274-0.01728-5.376-0.1739-8.625-0.625-0.962-0.1532-1.75-0.7806-1.75-1.75l-0.5938-9.438c-0.09122-0.9845-0.7949-1.635-1.531-1.844v-0.1562c-4.016-1.078-7.816-2.67-11.34-4.688l-0.09375 0.09375c-0.6685-0.3729-1.614-0.3816-2.375 0.25l-7.094 6.25c-0.6855 0.6855-1.68 0.5719-2.469 0-2.617-1.979-4.235-3.354-6.562-5.656-2.303-2.327-3.678-3.946-5.656-6.562-0.1862-0.2568-0.329-0.5297-0.4062-0.8125z" fill="#fff" opacity=".7323"/><path d="m55.23 4.109c4.559-0.4362 12.19-0.6029 16.94-0.03575 1.906 0.2275 2.538 2.878 2.145 7.364-0.02725 0.3109-0.5719-5.961-2.502-6.041-4.671-0.1946-11.68-0.4665-16.23 0-1.046 0.1072-1.962 2.193-1.966 1.859-0.01787-1.394-0.2462-2.968 1.609-3.146z" fill="url(#linearGradient6408)" fill-rule="evenodd" filter="url(#filter5257)"/><path transform="matrix(.9 .436 -.436 .9 8.657 -23.81)" d="m55.96 6.85a1.289 2.452 0 0 1-1.289 2.452 1.289 2.452 0 0 1-1.289-2.452 1.289 2.452 0 0 1 1.289-2.452 1.289 2.452 0 0 1 1.289 2.452z" fill="url(#radialGradient6335)"/><path transform="matrix(-.9 .436 .436 .9 119.1 -23.81)" d="m55.96 6.85a1.289 2.452 0 0 1-1.289 2.452 1.289 2.452 0 0 1-1.289-2.452 1.289 2.452 0 0 1 1.289-2.452 1.289 2.452 0 0 1 1.289 2.452z" fill="url(#radialGradient6335)"/></g><g><path d="m51.36 18.3c-4.048 1.238-7.859 2.71-11.53 4.9-0.997 0.3636-1.596 0.003434-2.427-0.5055l-6.875-6.113c-0.4333-0.3582-1.502-0.9246-2.325-0.2022-4.572 3.96-8.216 8.205-12.23 12.33l1.49-0.7889c3.572-3.458 7.012-6.961 10.85-10.33 0.5699-0.4721 1.423-0.2909 1.921 0.2022l6.584 5.804c1.006 0.9837 2.29 1.379 3.628 0.9161 3.645-2.35 7.471-3.979 11.5-5.567 0.8454-0.3486 1.516-1.7 1.403-2.807-0.1174 0.7144-0.9994 1.847-1.981 2.16z" fill="url(#linearGradient6339)" fill-rule="evenodd" filter="url(#filter5309)"/><path transform="matrix(.2034 1.237 -.9791 .257 24.51 -52.47)" d="m55.96 6.85a1.289 2.452 0 0 1-1.289 2.452 1.289 2.452 0 0 1-1.289-2.452 1.289 2.452 0 0 1 1.289-2.452 1.289 2.452 0 0 1 1.289 2.452z" fill="url(#radialGradient6335)"/></g><g transform="matrix(-1 0 0 1 128.4 0)"><path d="m51.36 18.3c-4.048 1.238-7.859 2.71-11.53 4.9-0.997 0.3636-1.167-0.497-1.998-1.006l-6.875-6.113c-0.4333-0.3582-1.93-0.4242-2.754 0.2982-5.214 3.318-8.714 7.707-12.23 12.33l1.49-0.7889c2.484-2.865 6.004-6.412 10.85-10.33 0.5699-0.4721 1.852-0.7913 2.35-0.2982l6.584 5.804c1.006 0.9837 1.861 1.88 3.199 1.417 3.645-2.35 7.471-3.979 11.5-5.567 0.8454-0.3486 1.516-1.7 1.403-2.807-0.1174 0.7144-0.9994 1.847-1.981 2.16z" fill="url(#linearGradient6343)" fill-rule="evenodd" filter="url(#filter5309)"/><path transform="matrix(.2034 1.237 -.9791 .257 24.51 -52.47)" d="m55.96 6.85a1.289 2.452 0 0 1-1.289 2.452 1.289 2.452 0 0 1-1.289-2.452 1.289 2.452 0 0 1 1.289-2.452 1.289 2.452 0 0 1 1.289 2.452z" fill="url(#radialGradient6335)"/></g><g><path transform="matrix(-.9947 -.4812 -.3575 .9613 168.3 49.78)" d="m55.96 6.85a1.289 2.452 0 0 1-1.289 2.452 1.289 2.452 0 0 1-1.289-2.452 1.289 2.452 0 0 1 1.289-2.452 1.289 2.452 0 0 1 1.289 2.452z" fill="url(#radialGradient6347)" filter="url(#filter5505)" opacity=".3197"/><path transform="matrix(.9947 -.4812 .3575 .9613 -39.94 50.08)" d="m55.96 6.85a1.289 2.452 0 0 1-1.289 2.452 1.289 2.452 0 0 1-1.289-2.452 1.289 2.452 0 0 1 1.289-2.452 1.289 2.452 0 0 1 1.289 2.452z" fill="url(#radialGradient6347)" filter="url(#filter5505)" opacity=".3197"/><path d="m109.7 50.2c0.1883 0.7366-0.02503 2.115 0.4715 3.245 0.2905 0.661 0.6951 1.085 1.226 1.105 4.787 0.1783 6.947 0.1345 10.11 0.3539 0.4714 0.03268 1.058 0.3259 1.289 1.241 0.4149 1.648 0.3506 4.988 0.784 6.57 0.7407 2.835 0.2963-4.805-0.05055-7.103-0.2823-1.586-0.9702-2.281-1.82-2.325-3.371-0.1779-6.747-0.06461-10.41-0.2022-0.254 0.03372-0.529-0.2638-0.7814-0.694-0.4501-0.7671-0.4172-1.849-0.8153-2.19z" fill="url(#linearGradient6353)" fill-rule="evenodd" filter="url(#filter5581)"/><path transform="matrix(-1 0 0 1 128.3 .7)" d="m109.7 49.7c0.1883 0.7366-0.02503 2.115 0.4715 3.245 0.2905 0.661 0.6951 1.085 1.226 1.105 4.787 0.1783 6.947 0.6345 10.11 0.8539 0.4714 0.03268 1.058 0.3259 1.289 1.241 0.4149 1.648 0.3506 4.988 0.784 6.57 0.7407 2.835 0.2963-4.805-0.05055-7.103-0.2823-1.586-0.9702-2.281-1.82-2.325-3.371-0.1779-6.747-0.5646-10.41-0.7022-0.254 0.03372-0.529-0.2638-0.7814-0.694-0.4501-0.7671-0.4172-1.849-0.8153-2.19z" fill="url(#linearGradient6353)" fill-rule="evenodd" filter="url(#filter5581)"/><path d="m48.31 64.19c-0.004749 0.1587-0.04717 0.3118-0.04717 0.4717 0 8.677 7.077 15.71 15.75 15.71s15.71-7.03 15.71-15.71c0-0.1599-0.04242-0.3129-0.04717-0.4717-0.2284 8.478-7.127 15.28-15.66 15.28-8.533 0-15.48-6.805-15.71-15.28z" fill="url(#linearGradient6386)" filter="url(#filter5876)" opacity=".8736"/><path d="m79.68 63.99c0.004749-0.1587 0.04717-0.3118 0.04717-0.4717 0-8.677-7.077-15.71-15.75-15.71s-15.71 7.03-15.71 15.71c0 0.1599 0.04242 0.3129 0.04717 0.4717 0.2284-8.478 7.127-15.28 15.66-15.28 8.533 0 15.48 6.805 15.71 15.28z" fill="#565656" filter="url(#filter5718)" opacity=".8736"/><path d="m80.26 64.3c0.004927-0.1647 0.04894-0.3235 0.04894-0.4894 0-9.002-7.343-16.3-16.34-16.3s-16.3 7.294-16.3 16.3c0 0.1659 0.04401 0.3247 0.04894 0.4894 0.2369-8.796 7.394-16.27 16.25-16.27 8.852 0 16.06 7.475 16.3 16.27z" fill="#fff" filter="url(#filter5836)" opacity=".8736"/><path d="m48.31 64.19c-0.004749 0.1587-0.04717 0.3118-0.04717 0.4717 0 8.677 7.077 16.71 15.75 16.71s15.71-8.03 15.71-16.71c0-0.1599-0.04242-0.3129-0.04717-0.4717-0.2284 8.478-7.127 15.28-15.66 15.28-8.533 0-15.48-6.805-15.71-15.28z" fill="url(#linearGradient6386)" filter="url(#filter5876)" opacity=".3457"/><path d="m112.3 97.9c0.05231 0.5576-0.1265 1.038-0.3575 1.501l-3.36 4.361 3.074-4.361c-0.135-0.5164-0.1901-1.073-0.5004-1.501-1.786-2.201-4.06-4.32-5.076-6.649l6.22 6.649z" fill="#fff" fill-rule="evenodd" filter="url(#filter5960)"/><path transform="matrix(-1 0 0 1 128.4 0)" d="m112.3 97.9c0.05231 0.5576-0.1265 1.038-0.3575 1.501l-3.36 4.361 3.074-4.361c-0.135-0.5164-0.1901-1.073-0.5004-1.501-1.786-2.201-4.06-4.32-5.076-6.649l6.22 6.649z" fill="#fff" fill-rule="evenodd" filter="url(#filter5960)"/></g><path transform="matrix(.5892 0 0 .5892 -119.2 -.13)" d="m366 108.8a55.19 55.19 0 0 1-55.19 55.19 55.19 55.19 0 0 1-55.19-55.19 55.19 55.19 0 0 1 55.19-55.19 55.19 55.19 0 0 1 55.19 55.19z" fill="none" filter="url(#filter3310)" stroke="url(#linearGradient6359)" stroke-dashoffset="1.088" stroke-linecap="round" stroke-linejoin="round" stroke-width="1.697"/><path d="m64 31.47c-17.95 0-32.53 14.58-32.53 32.53 0 17.95 14.58 32.53 32.53 32.53 17.95 0 32.53-14.58 32.53-32.53 0-17.95-14.58-32.53-32.53-32.53zm0 17.94c8.051 0 14.59 6.543 14.59 14.59s-6.543 14.59-14.59 14.59-14.59-6.543-14.59-14.59 6.543-14.59 14.59-14.59z" fill="#343434" fill-opacity=".07755" filter="url(#filter3310)"/></g><g transform="translate(.8525 -11.57)"><path d="m-106.4 44.12v-2.795 2.795z" fill="#fff" fill-opacity=".7569"/><g transform="matrix(.999 0 0 .965 -.7992 32.8)"><g transform="matrix(-1.002 0 0 1 125.8 1.975)"><g><path d="m85.21 29.17c3.143 0.1936 5.683 2.022 6.649 4.48l1.566 3.785 0.4108 1.114c0.2162 0.781 0.2952 1.605 0.2135 2.454-0.4079 4.24-4.651 7.44-9.47 7.144-4.588-0.2826-8.05-3.636-8.018-7.617l0.00451-0.2064 0.2868-4.808c7.3e-4 -0.007997 6.4e-4 -0.01576 0.00142-0.02376 0.3605-3.752 4.106-6.584 8.357-6.322z" fill="url(#linearGradient2730)"/><rect transform="matrix(-.2304 .09822 .09666 .2342 332.3 119)" x="758.1" y="-703.2" width="7.926" height="28.85" ry="0" clip-path="url(#clipPath7001)" fill="url(#linearGradient2816)" filter="url(#filter7023)" opacity=".5678"/><path transform="matrix(-.3527 -.02173 -.02986 .3104 615.2 155.7)" d="m1550-264.5a24.75 24.75 0 0 1-24.75 24.75 24.75 24.75 0 0 1-24.75-24.75 24.75 24.75 0 0 1 24.75-24.75 24.75 24.75 0 0 1 24.75 24.75z" fill="#312f30"/><path transform="matrix(-.3282 -.02022 -.02777 .2886 578.4 147.8)" d="m1550-264.5a24.75 24.75 0 0 1-24.75 24.75 24.75 24.75 0 0 1-24.75-24.75 24.75 24.75 0 0 1 24.75-24.75 24.75 24.75 0 0 1 24.75 24.75z" clip-path="url(#clipPath6641)" filter="url(#filter6637)" stroke="#000" stroke-linecap="round" stroke-linejoin="round" stroke-width="3.101"/></g><path transform="matrix(-.2513 -.01379 -.01611 .2786 333.8 124.5)" d="m1021-275.2c-5.975-4.137-21.07-5.423-28.75-2.5" fill="none" filter="url(#filter7845)" stroke="url(#linearGradient2822)" stroke-width="1.331"/></g><g transform="matrix(1.002 0 0 1 1.762 2.148)"><g><path d="m85.21 29.17c3.143 0.1936 5.683 2.022 6.649 4.48l1.566 3.785 0.4108 1.114c0.2162 0.781 0.2952 1.605 0.2135 2.454-0.4079 4.24-4.651 7.44-9.47 7.144-4.588-0.2826-8.05-3.636-8.018-7.617l0.00451-0.2064 0.2868-4.808c7.3e-4 -0.007997 6.4e-4 -0.01576 0.00142-0.02376 0.3605-3.752 4.106-6.584 8.357-6.322z" fill="url(#linearGradient2730)"/><rect transform="matrix(-.2304 .09822 .09666 .2342 332.3 119)" x="758.1" y="-703.2" width="7.926" height="28.85" ry="0" clip-path="url(#clipPath7001)" fill="url(#linearGradient2816)" filter="url(#filter7023)" opacity=".5678"/><path transform="matrix(-.3527 -.02173 -.02986 .3104 615.2 155.7)" d="m1550-264.5a24.75 24.75 0 0 1-24.75 24.75 24.75 24.75 0 0 1-24.75-24.75 24.75 24.75 0 0 1 24.75-24.75 24.75 24.75 0 0 1 24.75 24.75z" fill="#312f30"/><path transform="matrix(-.3282 -.02022 -.02777 .2886 578.4 147.8)" d="m1550-264.5a24.75 24.75 0 0 1-24.75 24.75 24.75 24.75 0 0 1-24.75-24.75 24.75 24.75 0 0 1 24.75-24.75 24.75 24.75 0 0 1 24.75 24.75z" clip-path="url(#clipPath6641)" filter="url(#filter6637)" stroke="#000" stroke-linecap="round" stroke-linejoin="round" stroke-width="3.101"/></g><path transform="matrix(-.2513 -.01379 -.01611 .2786 333.8 124.5)" d="m1021-275.2c-5.975-4.137-21.07-5.423-28.75-2.5" fill="none" filter="url(#filter7845)" stroke="url(#linearGradient2822)" stroke-width="1.331"/></g><g><path d="m37.71 36.35c-1.689 0.06801-3.363 0.6043-4.782 1.523-2.026 1.311-3.043 3.679-3.741 6.085-5.424 0.5671-12.27 2.379-16.56 10.8l-5.36 13.47 0.0589-0.00326c-0.03565 0.06868-0.07161 0.133-0.1069 0.2025l37.79 16.19 8.879-0.4913c4.88-0.2701 7.552-5.537 7.854-10.42l0.01958-0.001087-0.006548-0.1176c0.01045-0.1925 0.004785-0.3797 0.00768-0.5705l0.01096-0.1579c0.001134-0.243 0.01001-0.4885-0.001071-0.7273l0.154-12.47c0.1922-2.747-0.4381-5.381-1.951-6.733l-16.19-14.46c-1.714-1.53-3.897-2.209-6.069-2.122z" fill="url(#linearGradient2736)" fill-rule="evenodd"/><rect transform="matrix(.6028 .1813 -.1818 .6014 -630.6 231.7)" x="924.4" y="-612.9" width="15.56" height="39.6" clip-path="url(#clipPath6050)" fill="url(#linearGradient2766)" filter="url(#filter6035)" opacity=".7326"/><path d="m44.95 84.62 8.89-0.4919c7.871-0.4355 10.03-13.85 5.697-17.72l-17.91-15.99c-3.371-3.01-8.43-2.983-12.02-0.6605-2.241 1.45-3.354 4.078-4.126 6.739-5.999 0.6273-13.57 2.627-18.32 11.95l37.78 16.18z" fill="#3d3b3c" fill-rule="evenodd"/><path transform="matrix(.6286 -.03478 .03487 .6271 -613.1 288.3)" d="m1049-326.3c-3.121-0.04706-6.258 0.7292-8.969 2.281-3.868 2.215-6.217 6.002-7.75 10.38-7.594 0.3726-17 3.725-24.81 11l-4.469 7.438c8.339-14.12 20.44-16.6 29.94-17.06 1.459-4.162 3.444-8.236 7.125-10.34 5.897-3.376 13.92-2.987 19 2.094l27 27c2.659 2.663 3.498 7.731 2.688 12.81 0.0577-0.3333 0.1171-0.6671 0.1563-1h0.0312v-0.1875c0.0335-0.3051 0.041-0.6031 0.0625-0.9062l0.0313-0.25c0.0232-0.3862 0.0591-0.7757 0.0624-1.156l0.5626-7.793c-0.4313-0.8414-0.9435-1.599-1.563-2.219l-28.09-27.58c-3.003-3.003-6.987-4.44-11-4.5zm35.09 56.25c-0.3665 0.424-0.7492 0.8167-1.156 1.188 0.4071-0.3704 0.7899-0.7628 1.156-1.188zm-5.406 3.719c-0.293 0.09401-0.6019 0.1505-0.9062 0.2188 0.3045-0.06641 0.6131-0.1265 0.9062-0.2188zm-1.062 0.2812c-0.2978 0.06173-0.5977 0.08907-0.9063 0.125 0.3035-0.0341 0.6133-0.0659 0.9063-0.125z" fill="url(#linearGradient2768)" fill-rule="evenodd" filter="url(#filter5622)"/></g><g transform="matrix(.6286 -.03478 .03487 .6271 -641.4 292.5)"><path transform="matrix(1.408 0 0 1.327 -724.5 90.28)" d="m1314-281.5a6.234 6.234 0 0 1-6.234 6.234 6.234 6.234 0 0 1-6.234-6.234 6.234 6.234 0 0 1 6.234-6.234 6.234 6.234 0 0 1 6.234 6.234z" fill="#1f1f1f" filter="url(#filter5698)"/><path transform="matrix(1.265 0 0 1.192 -537.2 53.17)" d="m1314-281.5a6.5 6.5 0 0 1-6.5 6.5 6.5 6.5 0 0 1-6.5-6.5 6.5 6.5 0 0 1 6.5-6.5 6.5 6.5 0 0 1 6.5 6.5z" fill="url(#linearGradient2850)"/></g><g><path transform="matrix(.7569 -.04188 .03956 .7116 -927.8 331.9)" d="m1314-281.5a6.11 6.11 0 0 1-6.11 6.11 6.11 6.11 0 0 1-6.11-6.11 6.11 6.11 0 0 1 6.11-6.11 6.11 6.11 0 0 1 6.11 6.11z" fill="#3b3b3b" filter="url(#filter5698)"/><path transform="matrix(.6799 -.03762 .03554 .6392 -828.2 306.4)" d="m1314-281.5a6.5 6.5 0 0 1-6.5 6.5 6.5 6.5 0 0 1-6.5-6.5 6.5 6.5 0 0 1 6.5-6.5 6.5 6.5 0 0 1 6.5 6.5z" fill="url(#linearGradient2850)"/><path d="m44.95 84.62 8.89-0.4919c7.871-0.4355 10.03-13.85 5.697-17.72l-17.91-15.99c-3.371-3.01-8.43-2.983-12.02-0.6605-2.241 1.45-3.354 4.078-4.126 6.739-5.999 0.6273-13.57 2.627-18.32 11.95l37.78 16.18z" fill="url(#radialGradient2746)" fill-rule="evenodd"/><path transform="matrix(.6286 -.03478 .03487 .6271 -678.5 291.9)" d="m1153-323.8c-2.92-0.04402-5.87 0.7044-8.406 2.156-3.619 2.072-5.566 6.065-7 10.16-9.407 0.4616-21.39 2.94-29.59 17.09l0.8973 0.3447c7.881-13.41 20.03-16.1 29.02-16.54 1.379-3.932 3.448-7.79 6.927-9.781 5.572-3.19 13.14-2.447 17.94 2.354l25.5 26.03c1.58 1.943 1.831 26.16-10 26.16h1.125c12.31 1e-5 16.83-20.78 10.41-27.22l-26.53-26.53c-2.809-2.809-6.528-4.162-10.28-4.219z" clip-path="url(#clipPath5757)" fill="url(#linearGradient2774)" fill-rule="evenodd" filter="url(#filter5753)" opacity=".8242"/><rect transform="matrix(.774 .6331 -.8117 .5841 0 0)" x="95.24" y="25.32" width="1.301" height="6.291"/></g><g transform="matrix(.6286 -.03478 .03487 .6271 -609.1 272.5)"><path transform="matrix(.2349 0 0 .2214 740.8 -231.7)" d="m1314-281.5a6.11 6.11 0 0 1-6.11 6.11 6.11 6.11 0 0 1-6.11-6.11 6.11 6.11 0 0 1 6.11-6.11 6.11 6.11 0 0 1 6.11 6.11z" filter="url(#filter5698)"/><path transform="matrix(.211 0 0 .1989 772 -237.9)" d="m1314-281.5a6.5 6.5 0 0 1-6.5 6.5 6.5 6.5 0 0 1-6.5-6.5 6.5 6.5 0 0 1 6.5-6.5 6.5 6.5 0 0 1 6.5 6.5z" fill="url(#linearGradient2850)"/><rect transform="matrix(.737 .6759 -.8422 .5392 0 0)" x="328.4" y="-957.9" width=".4037" height="1.951"/></g><g transform="matrix(.6286 -.03478 .03487 .6271 -620 276.4)"><path transform="matrix(.2349 0 0 .2214 740.8 -231.7)" d="m1314-281.5a6.11 6.11 0 0 1-6.11 6.11 6.11 6.11 0 0 1-6.11-6.11 6.11 6.11 0 0 1 6.11-6.11 6.11 6.11 0 0 1 6.11 6.11z" filter="url(#filter5698)"/><path transform="matrix(.211 0 0 .1989 772 -237.9)" d="m1314-281.5a6.5 6.5 0 0 1-6.5 6.5 6.5 6.5 0 0 1-6.5-6.5 6.5 6.5 0 0 1 6.5-6.5 6.5 6.5 0 0 1 6.5 6.5z" fill="url(#linearGradient2850)"/><rect transform="matrix(.737 .6759 -.8422 .5392 0 0)" x="328.4" y="-957.9" width=".4037" height="1.951"/></g><path transform="matrix(.6286 -.03478 .03487 .6271 -613.1 288.3)" d="m1040-331.9c-4.484 0.2264-16.6 1.472-19.78 7.188l3.844 10.78 8.906 2.094 7.031-20.06z" clip-path="url(#clipPath5917)" fill="url(#linearGradient2754)" fill-rule="evenodd" filter="url(#filter5911)"/><g fill="none"><path transform="matrix(.6286 -.03478 .03487 .6271 -613.1 288.3)" d="m1047-340.8c5.347-3.087 12.65-1.989 16.28 1.636l6.616 6.52" clip-path="url(#clipPath5983)" filter="url(#filter5977)" opacity=".7326" stroke="url(#radialGradient2782)" stroke-width="1px"/><path transform="matrix(.6345 -.03511 .03525 .634 -619.5 290.4)" d="m1088-312.4-24.41-24.41c-2.584-2.584-5.985-3.854-9.438-3.906-2.685-0.04048-5.386 0.6648-7.719 2-3.328 1.905-5.15 5.581-6.469 9.344-8.652 0.4245-20.11 2.789-27.66 15.81" clip-path="url(#clipPath7262)" filter="url(#filter6072)" opacity=".5824" stroke="url(#linearGradient2784)" stroke-width=".594"/><path transform="matrix(.6286 -.03478 .03487 .6271 -613.1 288.3)" d="m1038-321.5c2.997-3.037 7.111-4.602 10.88-4.429" filter="url(#filter6198)" stroke="url(#radialGradient2760)" stroke-width="1px"/><path transform="matrix(.6286 -.03478 .03487 .6271 -601.1 277.6)" d="m999.9-306.6-10.61 19.8" filter="url(#filter7256)" stroke="url(#linearGradient2762)" stroke-width="1px"/></g><g transform="matrix(.6284 .03801 -.0381 .627 -506.3 193.2)"><g><path d="m930.5-306.7c2.685-0.04048 5.386 0.6648 7.719 2 3.328 1.905 5.15 5.581 6.469 9.344 8.652 0.4245 19.67 2.702 27.22 15.72l9.688 20.94h-0.0937c0.0626 0.106 0.1253 0.2051 0.1874 0.3125l-58.5 29.06h-14.12c-7.764 1e-5 -12.47-8.138-13.38-15.88h-0.0312v-0.1875c-0.0335-0.3051-0.041-0.6031-0.0625-0.9062l-0.0313-0.25c-0.0232-0.3862-0.0589-0.7757-0.0624-1.156l-1.344-19.81c-0.5471-4.351 0.2204-8.592 2.5-10.88l24.41-24.41c2.584-2.584 5.985-3.854 9.438-3.906z" fill="url(#linearGradient2764)" fill-rule="evenodd"/><rect transform="matrix(-.94 .3413 .3413 .94 2008 -55)" x="924.4" y="-612.9" width="15.56" height="39.6" clip-path="url(#clipPath6050)" fill="url(#linearGradient2766)" filter="url(#filter6035)" opacity=".7326"/><path d="m923.2-229.4h-14.14c-12.52 0-17.13-21.13-10.6-27.67l26.99-26.99c5.081-5.081 13.11-5.483 19-2.107 3.681 2.107 5.679 6.188 7.138 10.35 9.57 0.4695 21.76 2.981 30.1 17.38l-58.5 29.05z" fill="#3d3b3c" fill-rule="evenodd"/><path transform="matrix(-1 0 0 1 1985 36.5)" d="m1049-326.3c-3.121-0.04706-6.258 0.7292-8.969 2.281-3.868 2.215-6.217 6.002-7.75 10.38-7.594 0.3726-17 3.725-24.81 11l-4.469 7.438c8.339-14.12 20.44-16.6 29.94-17.06 1.459-4.162 3.444-8.236 7.125-10.34 5.897-3.376 13.92-2.987 19 2.094l27 27c2.659 2.663 3.498 7.731 2.688 12.81 0.0577-0.3333 0.1171-0.6671 0.1563-1h0.0312v-0.1875c0.0335-0.3051 0.041-0.6031 0.0625-0.9062l0.0313-0.25c0.0232-0.3862 0.0591-0.7757 0.0624-1.156l0.5626-7.793c-0.4313-0.8414-0.9435-1.599-1.563-2.219l-28.09-27.58c-3.003-3.003-6.987-4.44-11-4.5zm35.09 56.25c-0.3665 0.424-0.7492 0.8167-1.156 1.188 0.4071-0.3704 0.7899-0.7628 1.156-1.188zm-5.406 3.719c-0.293 0.09401-0.6019 0.1505-0.9062 0.2188 0.3045-0.06641 0.6131-0.1265 0.9062-0.2188zm-1.062 0.2812c-0.2978 0.06173-0.5977 0.08907-0.9063 0.125 0.3035-0.0341 0.6133-0.0659 0.9063-0.125z" fill="url(#linearGradient2768)" fill-rule="evenodd" filter="url(#filter5622)"/></g><g transform="translate(-204.6 40.74)"><path transform="matrix(1.408 0 0 1.327 -724.5 90.28)" d="m1314-281.5a6.234 6.234 0 0 1-6.234 6.234 6.234 6.234 0 0 1-6.234-6.234 6.234 6.234 0 0 1 6.234-6.234 6.234 6.234 0 0 1 6.234 6.234z" fill="#1f1f1f" filter="url(#filter5698)"/><path transform="matrix(1.265 0 0 1.192 -537.2 53.17)" d="m1314-281.5a6.5 6.5 0 0 1-6.5 6.5 6.5 6.5 0 0 1-6.5-6.5 6.5 6.5 0 0 1 6.5-6.5 6.5 6.5 0 0 1 6.5 6.5z" fill="url(#linearGradient2850)"/></g><g><path transform="matrix(1.204 0 0 1.135 -662.2 78.14)" d="m1314-281.5a6.11 6.11 0 0 1-6.11 6.11 6.11 6.11 0 0 1-6.11-6.11 6.11 6.11 0 0 1 6.11-6.11 6.11 6.11 0 0 1 6.11 6.11z" fill="#3b3b3b" filter="url(#filter5698)"/><path transform="matrix(1.082 0 0 1.019 -502 46.41)" d="m1314-281.5a6.5 6.5 0 0 1-6.5 6.5 6.5 6.5 0 0 1-6.5-6.5 6.5 6.5 0 0 1 6.5-6.5 6.5 6.5 0 0 1 6.5 6.5z" fill="url(#linearGradient2850)"/><path transform="matrix(-1 0 0 1 2089 36.5)" d="m1153-323.8c-2.92-0.04402-5.87 0.7044-8.406 2.156-3.619 2.072-5.566 6.065-7 10.16-9.407 0.4616-21.39 2.94-29.59 17.09l0.8973 0.3447c7.881-13.41 20.03-16.1 29.02-16.54 1.379-3.932 3.448-7.79 6.927-9.781 5.572-3.19 13.14-2.447 17.94 2.354l25.5 26.03c1.58 1.943 1.831 26.16-10 26.16h1.125c12.31 1e-5 16.83-20.78 10.41-27.22l-26.53-26.53c-2.809-2.809-6.528-4.162-10.28-4.219z" clip-path="url(#clipPath5757)" fill="url(#linearGradient2774)" fill-rule="evenodd" filter="url(#filter5753)" opacity=".8242"/><rect transform="matrix(.737 .6759 -.8422 .5392 0 0)" x="298.6" y="-826.5" width="2.069" height="10"/></g><g transform="matrix(-1 0 0 1 1977 11.75)"><path transform="matrix(.2349 0 0 .2214 740.8 -231.7)" d="m1314-281.5a6.11 6.11 0 0 1-6.11 6.11 6.11 6.11 0 0 1-6.11-6.11 6.11 6.11 0 0 1 6.11-6.11 6.11 6.11 0 0 1 6.11 6.11z" filter="url(#filter5698)"/><path transform="matrix(.211 0 0 .1989 772 -237.9)" d="m1314-281.5a6.5 6.5 0 0 1-6.5 6.5 6.5 6.5 0 0 1-6.5-6.5 6.5 6.5 0 0 1 6.5-6.5 6.5 6.5 0 0 1 6.5 6.5z" fill="url(#linearGradient2850)"/><rect transform="matrix(.737 .6759 -.8422 .5392 0 0)" x="328.4" y="-957.9" width=".4037" height="1.951"/></g><g transform="matrix(-1 0 0 1 1995 17.05)"><path transform="matrix(.2349 0 0 .2214 740.8 -231.7)" d="m1314-281.5a6.11 6.11 0 0 1-6.11 6.11 6.11 6.11 0 0 1-6.11-6.11 6.11 6.11 0 0 1 6.11-6.11 6.11 6.11 0 0 1 6.11 6.11z" filter="url(#filter5698)"/><path transform="matrix(.211 0 0 .1989 772 -237.9)" d="m1314-281.5a6.5 6.5 0 0 1-6.5 6.5 6.5 6.5 0 0 1-6.5-6.5 6.5 6.5 0 0 1 6.5-6.5 6.5 6.5 0 0 1 6.5 6.5z" fill="url(#linearGradient2850)"/><rect transform="matrix(.737 .6759 -.8422 .5392 0 0)" x="328.4" y="-957.9" width=".4037" height="1.951"/></g><path transform="matrix(-1 0 0 1 1985 36.5)" d="m1040-331.9c-4.484 0.2264-9.599 0.9724-14.53 3.438l-0.6563 1.781 8.156 14.84 7.031-20.06z" clip-path="url(#clipPath5917)" fill="url(#linearGradient2780)" fill-rule="evenodd" filter="url(#filter5911)"/><g fill="none"><path transform="matrix(-1 0 0 1 1985 36.5)" d="m1047-340.8c5.347-3.087 12.65-1.989 16.28 1.636l6.616 6.52" clip-path="url(#clipPath5983)" filter="url(#filter5977)" opacity=".7326" stroke="url(#radialGradient2782)" stroke-width="1px"/><path transform="matrix(-1.009 0 0 1.011 1995 39.33)" d="m1088-312.4-24.41-24.41c-2.584-2.584-5.985-3.854-9.438-3.906-2.685-0.04048-5.386 0.6648-7.719 2-3.328 1.905-5.15 5.581-6.469 9.344-8.652 0.4245-19.67 2.702-27.22 15.72" filter="url(#filter6072)" opacity=".5824" stroke="url(#linearGradient2784)" stroke-width=".594"/><path transform="matrix(-1 0 0 1 1985 36.5)" d="m1038-321.5c2.997-3.037 7.111-4.602 10.88-4.429" filter="url(#filter6198)" stroke="url(#radialGradient2786)" stroke-width="1px"/></g></g><path d="m53.57 48.15s4.97-3.752 10.15-3.752c5.774 0 10.06 3.927 10.06 3.927l-5.773 5.672s-1.837-1.396-4.024-1.484c-2.187-0.08726-4.723 1.134-4.723 1.134l-5.686-5.498z" fill="url(#linearGradient2788)" fill-rule="evenodd"/><g transform="matrix(.6286 -.03478 .03487 .6271 -601.1 277.6)"><g><path d="m1008-293.5c-12.6 0-23.18 6.573-27.63 16l-7.156 14.5-1.906 4.281c-1.05 3.018-1.561 6.236-1.438 9.594 0.6188 16.77 16.81 30.38 36.13 30.38 18.39 0 33.02-12.35 33.84-28l0.0312-0.8125v-18.97c-1e-3 -0.03161 0.0012-0.06212 0-0.09375-0.5459-14.84-14.83-26.88-31.88-26.88z" fill="url(#linearGradient2790)"/><rect transform="matrix(.8971 .4419 -.4419 .8971 0 0)" x="758.1" y="-703.2" width="7.926" height="28.85" ry="0" clip-path="url(#clipPath7001)" fill="url(#linearGradient2816)" filter="url(#filter7023)" opacity=".5678"/><path transform="matrix(1.414 0 .04529 1.227 -1139 75.49)" d="m1550-264.5a24.75 24.75 0 0 1-24.75 24.75 24.75 24.75 0 0 1-24.75-24.75 24.75 24.75 0 0 1 24.75-24.75 24.75 24.75 0 0 1 24.75 24.75z" fill="#312f30"/></g><path transform="matrix(1.316 0 .04215 1.141 -990.2 53.4)" d="m1550-264.5a24.75 24.75 0 0 1-24.75 24.75 24.75 24.75 0 0 1-24.75-24.75 24.75 24.75 0 0 1 24.75-24.75 24.75 24.75 0 0 1 24.75 24.75z" clip-path="url(#clipPath6641)" fill="none" filter="url(#filter6637)" stroke="#000" stroke-linecap="round" stroke-linejoin="round" stroke-width="3.101"/><g><path transform="translate(88.9 -.1)" d="m913.2-314.2c-6.344 0-21.67 13.42-10.47 25.28 19.69-4.202 40.21 18.33 49.22 33.72l11.12-5.531c15 3.968 2.751-14.06 2.75-14.09-0.5459-14.84-35.58-39.38-52.62-39.38z" clip-path="url(#clipPath6965)" filter="url(#filter6959)" opacity=".7106"/><path transform="matrix(1.205 0 .03858 1.045 -821.3 29.9)" d="m1525-289.9c-14 0-25.38 11.37-25.38 25.38s11.37 25.38 25.38 25.38 25.38-11.37 25.38-25.38-11.37-25.38-25.38-25.38zm0 1.25c13.32 0 24.12 10.8 24.12 24.12s-10.91 22.77-24.23 22.77-24.02-9.45-24.02-22.77 10.8-24.12 24.12-24.12z" fill="url(#radialGradient2794)" filter="url(#filter7328)"/><path transform="matrix(1.164 0 .0373 1.011 -760.5 19.8)" d="m1525-289.9c-14 0-25.38 11.37-25.38 25.38s11.37 25.38 25.38 25.38 25.38-11.37 25.38-25.38-11.37-25.38-25.38-25.38zm0 1.25c13.32 0 24.12 10.8 24.12 24.12s-11.14 18.14-24.46 18.14-23.79-4.815-23.79-18.14 10.8-24.12 24.12-24.12z" fill="url(#radialGradient2796)"/></g><path transform="matrix(1.007 .006665 -.002069 1.099 -7.473 20.97)" d="m1021-275.2c-5.975-4.137-21.07-5.423-28.75-2.5" fill="none" filter="url(#filter7845)" stroke="url(#linearGradient2822)" stroke-width="1.331"/><path transform="matrix(1.105 0 .03541 .9594 -671 3.539)" d="m1550-264.5a24.75 24.75 0 0 1-24.75 24.75 24.75 24.75 0 0 1-24.75-24.75 24.75 24.75 0 0 1 24.75-24.75 24.75 24.75 0 0 1 24.75 24.75z"/><path transform="matrix(1.105 0 .03541 .9594 -671 3.539)" d="m1550-264.5a24.75 24.75 0 0 1-24.75 24.75 24.75 24.75 0 0 1-24.75-24.75 24.75 24.75 0 0 1 24.75-24.75 24.75 24.75 0 0 1 24.75 24.75z" fill="url(#radialGradient2824)"/><path transform="matrix(1.144 0 .03664 .9929 -729.4 12.67)" d="m1550-264.5a24.75 24.75 0 0 1-24.75 24.75 24.75 24.75 0 0 1-24.75-24.75 24.75 24.75 0 0 1 24.75-24.75 24.75 24.75 0 0 1 24.75 24.75z" fill="none" stroke="url(#linearGradient2802)" stroke-linecap="round" stroke-linejoin="round" stroke-width="1.003"/><path d="m1025-232a19.92 8.008 0 0 1-19.92 8.008 19.92 8.008 0 0 1-19.92-8.008 19.92 8.008 0 0 1 19.92-8.008 19.92 8.008 0 0 1 19.92 8.008z" fill="url(#radialGradient2804)" filter="url(#filter8002)"/><g transform="translate(139)" clip-path="url(#clipPath8998)"><path transform="matrix(.9557 0 0 .9557 -96.02 -10.42)" d="m979-261.5c-0.0814 0.8794-0.1271 1.782-0.0937 2.688 0.4838 13.11 13.15 23.75 28.25 23.75 15.1 0 26.95-10.64 26.47-23.75-0.0151-0.4096-0.0239-0.8142-0.0624-1.219-1.114 11.83-11.97 22.23-26.02 22.23-14.63-1e-5 -27.35-11.16-28.55-23.7z" fill="url(#linearGradient2832)" filter="url(#filter7958)" opacity=".8571"/><path transform="matrix(.9557 0 0 .9557 -93.29 -23.31)" d="m979-261.5c-0.0814 0.8794-0.1271 1.782-0.0937 2.688 0.4838 13.11 13.15 23.75 28.25 23.75 15.1 0 26.95-10.64 26.47-23.75-0.0151-0.4096-0.0239-0.8142-0.0624-1.219-1.114 11.83-14.01 23.05-28.06 23.05-14.63-1e-5 -25.31-11.98-26.5-24.52z" fill="url(#linearGradient2832)" filter="url(#filter7958)"/><path transform="matrix(1.025 0 0 1.043 -162.6 -.3998)" d="m979-261.5c-0.0814 0.8794-0.1271 1.782-0.0937 2.688 0.4838 13.11 12.2 23.35 27.31 23.35 15.1 1e-5 27.9-10.25 27.41-23.35-0.0151-0.4096-0.0239-0.8142-0.0624-1.219-1.114 11.83-10.01 23.05-28.06 23.05-14.63 0-25.31-11.98-26.5-24.52z" opacity=".3736"/></g><path transform="translate(-5.8 -7.182)" d="m1034-242.7a4.972 4.972 0 0 1-4.972 4.972 4.972 4.972 0 0 1-4.972-4.972 4.972 4.972 0 0 1 4.972-4.972 4.972 4.972 0 0 1 4.972 4.972z" fill="url(#radialGradient2834)"/><path d="m1004-274c-8.985 0-16.85 3.752-21.63 9.562 2.972 6.218 12.28 10.75 23.25 10.75 9.89 0 18.4-3.657 22.16-8.938-5.06-6.824-13.9-11.38-23.78-11.38z" fill="url(#linearGradient2812)"/></g><g><path transform="matrix(-.6284 -.03801 -.0381 .627 672.3 277.4)" d="m913.2-314.2c-6.344 0-21.67 13.42-10.47 25.28 19.69-4.202 40.21 18.33 49.22 33.72l11.12-5.531c15 3.968 2.751-14.06 2.75-14.09-0.5459-14.84-35.58-39.38-52.62-39.38z" clip-path="url(#clipPath6965)" filter="url(#filter6959)" opacity=".7106"/><path d="m105.7 58.47c7.919 0.479 14.32 5.002 16.75 11.08l3.945 9.363 1.035 2.757c0.5448 1.932 0.7436 3.969 0.5379 6.07-1.028 10.49-11.72 18.41-23.86 17.67-11.56-0.6992-20.28-8.995-20.2-18.84l0.01135-0.5106 0.7227-11.89c0.001832-0.01978 0.001612-0.03899 0.003571-0.05878 0.9082-9.28 10.34-16.29 21.05-15.64z" fill="url(#linearGradient2814)"/><rect transform="matrix(-.5806 .243 .2435 .5792 728.2 280.8)" x="758.1" y="-703.2" width="7.926" height="28.85" ry="0" clip-path="url(#clipPath7001)" fill="url(#linearGradient2816)" filter="url(#filter7023)" opacity=".5678"/><path transform="matrix(-.8886 -.05375 -.07522 .7677 1441 371.4)" d="m1550-264.5a24.75 24.75 0 0 1-24.75 24.75 24.75 24.75 0 0 1-24.75-24.75 24.75 24.75 0 0 1 24.75-24.75 24.75 24.75 0 0 1 24.75 24.75z" fill="#312f30"/></g><path transform="matrix(-.8269 -.05002 -.06997 .714 1348 351.9)" d="m1550-264.5a24.75 24.75 0 0 1-24.75 24.75 24.75 24.75 0 0 1-24.75-24.75 24.75 24.75 0 0 1 24.75-24.75 24.75 24.75 0 0 1 24.75 24.75z" clip-path="url(#clipPath6641)" fill="none" filter="url(#filter6637)" stroke="#000" stroke-linecap="round" stroke-linejoin="round" stroke-width="3.101"/><path transform="matrix(-.757 -.04578 -.06408 .654 1243 330.8)" d="m1525-289.9c-14 0-25.38 11.37-25.38 25.38s11.37 25.38 25.38 25.38 25.38-11.37 25.38-25.38-11.37-25.38-25.38-25.38zm0 1.25c13.32 0 24.12 10.8 24.12 24.12s-10.91 22.77-24.23 22.77-24.02-9.45-24.02-22.77 10.8-24.12 24.12-24.12z" fill="url(#radialGradient2818)" filter="url(#filter3606)"/><path transform="matrix(-.7318 -.04426 -.06194 .6322 1205 322.1)" d="m1525-289.9c-14 0-25.38 11.37-25.38 25.38s11.37 25.38 25.38 25.38 25.38-11.37 25.38-25.38-11.37-25.38-25.38-25.38zm0 1.25c13.32 0 24.12 10.8 24.12 24.12s-11.14 18.14-24.46 18.14-23.79-4.815-23.79-18.14 10.8-24.12 24.12-24.12z" fill="url(#radialGradient2820)"/><path transform="matrix(-.6332 -.0341 -.04058 .6893 732.1 294.2)" d="m1021-275.2c-5.975-4.137-21.07-5.423-28.75-2.5" fill="none" filter="url(#filter7845)" stroke="url(#linearGradient2822)" stroke-width="1.331"/><path transform="matrix(-.6947 -.04202 -.0588 .6002 1150 308.5)" d="m1550-264.5a24.75 24.75 0 0 1-24.75 24.75 24.75 24.75 0 0 1-24.75-24.75 24.75 24.75 0 0 1 24.75-24.75 24.75 24.75 0 0 1 24.75 24.75z"/><path transform="matrix(-.6947 -.04202 -.0588 .6002 1150 308.5)" d="m1550-264.5a24.75 24.75 0 0 1-24.75 24.75 24.75 24.75 0 0 1-24.75-24.75 24.75 24.75 0 0 1 24.75-24.75 24.75 24.75 0 0 1 24.75 24.75z" fill="url(#radialGradient2824)"/><path transform="matrix(-.7189 -.04348 -.06085 .6211 1186 316.5)" d="m1550-264.5a24.75 24.75 0 0 1-24.75 24.75 24.75 24.75 0 0 1-24.75-24.75 24.75 24.75 0 0 1 24.75-24.75 24.75 24.75 0 0 1 24.75 24.75z" fill="none" stroke="url(#linearGradient2826)" stroke-linecap="round" stroke-linejoin="round" stroke-width="1.003"/><path transform="matrix(-.6284 -.03801 -.0381 .627 728.2 280.8)" d="m1025-232a19.92 8.008 0 0 1-19.92 8.008 19.92 8.008 0 0 1-19.92-8.008 19.92 8.008 0 0 1 19.92-8.008 19.92 8.008 0 0 1 19.92 8.008z" fill="url(#radialGradient2828)" filter="url(#filter8002)"/><g transform="matrix(-.6284 -.03801 -.0381 .627 640.8 275.5)" clip-path="url(#clipPath8998)"><path transform="matrix(.9557 0 0 .9557 -96.02 -10.42)" d="m979-261.5c-0.0814 0.8794-0.1271 1.782-0.0937 2.688 0.4838 13.11 13.15 23.75 28.25 23.75 15.1 0 26.95-10.64 26.47-23.75-0.0151-0.4096-0.0239-0.8142-0.0624-1.219-1.114 11.83-11.97 22.23-26.02 22.23-14.63-1e-5 -27.35-11.16-28.55-23.7z" fill="url(#linearGradient2832)" filter="url(#filter7958)" opacity=".8571"/><path transform="matrix(.9557 0 0 .9557 -93.29 -23.31)" d="m979-261.5c-0.0814 0.8794-0.1271 1.782-0.0937 2.688 0.4838 13.11 13.15 23.75 28.25 23.75 15.1 0 26.95-10.64 26.47-23.75-0.0151-0.4096-0.0239-0.8142-0.0624-1.219-1.114 11.83-14.01 23.05-28.06 23.05-14.63-1e-5 -25.31-11.98-26.5-24.52z" fill="url(#linearGradient2832)" filter="url(#filter7958)"/><path transform="matrix(1.025 0 0 1.043 -162.6 -.3998)" d="m979-261.5c-0.0814 0.8794-0.1271 1.782-0.0937 2.688 0.4838 13.11 12.2 23.35 27.31 23.35 15.1 1e-5 27.9-10.25 27.41-23.35-0.0151-0.4096-0.0239-0.8142-0.0624-1.219-1.114 11.83-10.01 23.05-28.06 23.05-14.63 0-25.31-11.98-26.5-24.52z" opacity=".3736"/></g><g><path transform="matrix(-.6284 -.03801 -.0381 .627 754.7 277.9)" d="m1034-242.7a4.972 4.972 0 0 1-4.972 4.972 4.972 4.972 0 0 1-4.972-4.972 4.972 4.972 0 0 1 4.972-4.972 4.972 4.972 0 0 1 4.972 4.972z" fill="url(#radialGradient2834)" opacity=".6484"/><path d="m107.7 70.88c5.646 0.3415 10.45 2.993 13.23 6.817-2.104 3.785-8.124 6.273-15.02 5.856-6.215-0.3759-11.42-2.992-13.58-6.446 3.44-4.086 9.166-6.603 15.38-6.228z" fill="url(#linearGradient2836)"/><path transform="matrix(.7399 -.04062 .03867 .6902 -893.3 296.3)" d="m1314-281.5a6.11 6.11 0 0 1-6.11 6.11 6.11 6.11 0 0 1-6.11-6.11 6.11 6.11 0 0 1 6.11-6.11 6.11 6.11 0 0 1 6.11 6.11z" clip-path="url(#clipPath10259)" fill="url(#linearGradient2838)" filter="url(#filter10253)"/><path d="m60.35 47.3c0.1109-0.7201 1.078-1.694 3.378-1.694 2.303 0 3.333 0.9554 3.321 1.694l0.8946 7.675h-8.582l0.9887-7.675z" fill="url(#linearGradient2840)"/><path d="m51 56.71s6.157-4.649 12.57-4.649c7.154 0 12.46 4.865 12.46 4.865l-7.152 7.028s-2.276-1.73-4.985-1.838c-2.709-0.1081-5.852 1.406-5.852 1.406l-7.044-6.811z" fill="url(#linearGradient2842)" fill-rule="evenodd"/><path transform="matrix(.9434 -.0522 .0493 .8869 -1156 375.2)" d="m1314-281.5a6.11 6.11 0 0 1-6.11 6.11 6.11 6.11 0 0 1-6.11-6.11 6.11 6.11 0 0 1 6.11-6.11 6.11 6.11 0 0 1 6.11 6.11z" fill="#3b3b3b" filter="url(#filter5698)"/><path transform="matrix(.8474 -.04689 .04429 .7967 -1032 343.4)" d="m1314-281.5a6.5 6.5 0 0 1-6.5 6.5 6.5 6.5 0 0 1-6.5-6.5 6.5 6.5 0 0 1 6.5-6.5 6.5 6.5 0 0 1 6.5 6.5z" fill="url(#linearGradient2844)"/><path d="m60.35 47.3c0.1109-0.7201 1.078-1.694 3.378-1.694 2.303 0 3.333 0.9554 3.321 1.694l0.8946 7.675h-8.582l0.9887-7.675z" fill="url(#linearGradient2846)"/></g><g transform="matrix(.6286 -.03478 .03487 .6271 -602.5 302.3)"><path transform="matrix(.2349 0 0 .2214 740.8 -231.7)" d="m1314-281.5a6.11 6.11 0 0 1-6.11 6.11 6.11 6.11 0 0 1-6.11-6.11 6.11 6.11 0 0 1 6.11-6.11 6.11 6.11 0 0 1 6.11 6.11z" filter="url(#filter5698)"/><path transform="matrix(.211 0 0 .1989 772 -237.9)" d="m1314-281.5a6.5 6.5 0 0 1-6.5 6.5 6.5 6.5 0 0 1-6.5-6.5 6.5 6.5 0 0 1 6.5-6.5 6.5 6.5 0 0 1 6.5 6.5z" fill="url(#linearGradient2850)"/><rect transform="matrix(.737 .6759 -.8422 .5392 0 0)" x="328.4" y="-957.9" width=".4037" height="1.951"/></g><g transform="matrix(.6286 -.03478 .03487 .6271 -566.2 302.5)"><path transform="matrix(.2349 0 0 .2214 740.8 -231.7)" d="m1314-281.5a6.11 6.11 0 0 1-6.11 6.11 6.11 6.11 0 0 1-6.11-6.11 6.11 6.11 0 0 1 6.11-6.11 6.11 6.11 0 0 1 6.11 6.11z" filter="url(#filter5698)"/><path transform="matrix(.211 0 0 .1989 772 -237.9)" d="m1314-281.5a6.5 6.5 0 0 1-6.5 6.5 6.5 6.5 0 0 1-6.5-6.5 6.5 6.5 0 0 1 6.5-6.5 6.5 6.5 0 0 1 6.5 6.5z" fill="url(#linearGradient2850)"/><rect transform="matrix(.737 .6759 -.8422 .5392 0 0)" x="328.4" y="-957.9" width=".4037" height="1.951"/></g><path transform="matrix(.8474 -.04689 .04429 .7967 -1032 343.4)" d="m1314-281.5a6.5 6.5 0 0 1-6.5 6.5 6.5 6.5 0 0 1-6.5-6.5 6.5 6.5 0 0 1 6.5-6.5 6.5 6.5 0 0 1 6.5 6.5z" fill="url(#linearGradient2852)" opacity=".3553"/></g></g></svg>
