<?xml version="1.0" encoding="UTF-8" standalone="no"?>
<svg
   xmlns:ns="http://ns.adobe.com/SaveForWeb/1.0/"
   xmlns:dc="http://purl.org/dc/elements/1.1/"
   xmlns:cc="http://creativecommons.org/ns#"
   xmlns:rdf="http://www.w3.org/1999/02/22-rdf-syntax-ns#"
   xmlns:svg="http://www.w3.org/2000/svg"
   xmlns="http://www.w3.org/2000/svg"
   xmlns:xlink="http://www.w3.org/1999/xlink"
   xml:space="preserve"
   enable-background="new 0 0 128 128"
   overflow="visible"
   viewBox="0 0 128 128"
   height="128"
   width="128"
   id="Layer_1"
   version="1.1"><defs
   id="defs105"><radialGradient
     gradientUnits="userSpaceOnUse"
     gradientTransform="matrix(0.9792,0,0,0.9725,133.0002,20.8762)"
     r="55.148"
     cy="-0.2148"
     cx="48"
     id="radialGradient3351"><stop
       id="stop3353"
       style="stop-color:#909975;stop-opacity:1;"
       offset="0" /><stop
       id="stop3361"
       style="stop-color:#f2eee5;stop-opacity:1;"
       offset="1" /></radialGradient><radialGradient
     xlink:href="#linearGradient3880"
     id="radialGradient3902"
     gradientUnits="userSpaceOnUse"
     gradientTransform="scale(1,0.125)"
     cx="56"
     cy="0"
     fx="44.494534"
     fy="-6.2420459"
     r="32" /><radialGradient
     xlink:href="#linearGradient3880"
     id="radialGradient3896"
     gradientUnits="userSpaceOnUse"
     gradientTransform="scale(1,0.125)"
     cx="56"
     cy="0"
     fx="44.494534"
     fy="-6.2420459"
     r="32" /><radialGradient
     xlink:href="#linearGradient3880"
     id="radialGradient3890"
     gradientUnits="userSpaceOnUse"
     gradientTransform="scale(1,0.125)"
     cx="56"
     cy="0"
     fx="44.494534"
     fy="-6.2420459"
     r="32" /><radialGradient
     xlink:href="#linearGradient3880"
     id="radialGradient3886"
     cx="56"
     cy="0"
     fx="44.494534"
     fy="-6.2420459"
     r="32"
     gradientTransform="scale(1,0.125)"
     gradientUnits="userSpaceOnUse" /><filter
     id="filter3850"><feGaussianBlur
       stdDeviation="0.95374318"
       id="feGaussianBlur3852" /></filter><linearGradient
     xlink:href="#radialGradient3351"
     id="linearGradient3810"
     gradientUnits="userSpaceOnUse"
     gradientTransform="matrix(0.8776237,0,0,0.8776237,-108.35269,12.790918)"
     x1="193.78946"
     y1="59.78125"
     x2="215.63715"
     y2="59.78125"
     spreadMethod="reflect" /><filter
     id="filter3798"><feGaussianBlur
       stdDeviation="0.26380028"
       id="feGaussianBlur3800" /></filter><filter
     id="filter3794"><feGaussianBlur
       stdDeviation="0.26380028"
       id="feGaussianBlur3796" /></filter><linearGradient
     xlink:href="#linearGradient3569"
     id="linearGradient3648"
     gradientUnits="userSpaceOnUse"
     spreadMethod="reflect"
     x1="60.771305"
     y1="15.0625"
     x2="88.066513"
     y2="15.0625" /><linearGradient
     xlink:href="#linearGradient3569"
     id="linearGradient3645"
     gradientUnits="userSpaceOnUse"
     spreadMethod="reflect"
     x1="60.771305"
     y1="15.0625"
     x2="88.066513"
     y2="15.0625" /><linearGradient
     xlink:href="#linearGradient3569"
     id="linearGradient3643"
     gradientUnits="userSpaceOnUse"
     spreadMethod="reflect"
     x1="60.771305"
     y1="15.0625"
     x2="88.066513"
     y2="15.0625" /><linearGradient
     xlink:href="#linearGradient3569"
     id="linearGradient3641"
     gradientUnits="userSpaceOnUse"
     spreadMethod="reflect"
     x1="60.771305"
     y1="15.0625"
     x2="88.066513"
     y2="15.0625" /><filter
     id="filter3629"><feGaussianBlur
       stdDeviation="0.13790379"
       id="feGaussianBlur3631" /></filter><filter
     id="filter3605"><feGaussianBlur
       stdDeviation="0.22076896"
       id="feGaussianBlur3607" /></filter><linearGradient
     xlink:href="#linearGradient4045"
     id="linearGradient4051"
     x1="60.396191"
     y1="6.6136646"
     x2="60.396191"
     y2="12.073788"
     gradientUnits="userSpaceOnUse"
     gradientTransform="translate(16,0)" /><filter
     x="-0.034965621"
     width="1.0699312"
     y="-0.93707865"
     height="2.8741573"
     id="filter4039"><feGaussianBlur
       stdDeviation="1.5251931"
       id="feGaussianBlur4041" /></filter><filter
     x="-0.23834054"
     width="1.4766811"
     y="-0.01944416"
     height="1.0388883"
     id="filter3997"><feGaussianBlur
       stdDeviation="0.80688202"
       id="feGaussianBlur3999" /></filter><linearGradient
     xlink:href="#linearGradient2575"
     id="linearGradient3963"
     x1="180.4375"
     y1="59.484375"
     x2="188.5625"
     y2="59.484375"
     gradientUnits="userSpaceOnUse"
     gradientTransform="translate(-99.23437,0)" /><linearGradient
     xlink:href="#linearGradient3837"
     id="linearGradient3942"
     gradientUnits="userSpaceOnUse"
     gradientTransform="translate(-135.5291,-0.296875)"
     x1="193.78946"
     y1="59.78125"
     x2="220.94405"
     y2="59.78125" /><linearGradient
     xlink:href="#linearGradient3871"
     id="linearGradient3935"
     gradientUnits="userSpaceOnUse"
     gradientTransform="translate(-135.36504,0)"
     x1="210.54687"
     y1="52.591824"
     x2="230.1729"
     y2="52.591824" /><linearGradient
     xlink:href="#linearGradient3883"
     id="linearGradient3932"
     gradientUnits="userSpaceOnUse"
     gradientTransform="translate(-135.36504,0)"
     x1="197.65625"
     y1="9.2500019"
     x2="226.5625"
     y2="34.250004" /><linearGradient
     xlink:href="#linearGradient3893"
     id="linearGradient3929"
     gradientUnits="userSpaceOnUse"
     gradientTransform="translate(-135.36504,0)"
     x1="201.63591"
     y1="74.828888"
     x2="211.5796"
     y2="80.629371" /><radialGradient
     xlink:href="#linearGradient3779"
     id="radialGradient3920"
     gradientUnits="userSpaceOnUse"
     gradientTransform="matrix(1.8977981,1.3403251e-7,-1.863763e-7,2.6389461,-162.99627,-106.25459)"
     cx="200.92145"
     cy="64.46875"
     fx="200.92145"
     fy="64.46875"
     r="26.97573" /><radialGradient
     xlink:href="#linearGradient3771"
     id="radialGradient3918"
     gradientUnits="userSpaceOnUse"
     gradientTransform="matrix(1.2828719,0,0,2.8333783,-87.050985,-105.5079)"
     cx="238.03082"
     cy="59.78125"
     fx="238.03082"
     fy="59.78125"
     r="23.47573" /><radialGradient
     xlink:href="#linearGradient3803"
     id="radialGradient3916"
     gradientUnits="userSpaceOnUse"
     gradientTransform="matrix(0.7071068,0.7071068,-2.0618473,2.0618473,213.58585,-187.37083)"
     cx="180.99957"
     cy="59.78125"
     fx="180.99957"
     fy="59.78125"
     r="22.22573" /><filter
     id="filter3867"><feGaussianBlur
       stdDeviation="0.27751822"
       id="feGaussianBlur3869" /></filter><clipPath
     clipPathUnits="userSpaceOnUse"
     id="clipPath3824"><path
       style="opacity:0.20599252;fill:#9c9c9c;fill-opacity:1;stroke:none;stroke-width:0.5;stroke-linecap:round;stroke-linejoin:round;stroke-miterlimit:4;stroke-dashoffset:1.08779998;stroke-opacity:1"
       d="M 218.31207,14.09375 C 206.17822,14.09375 196.33634,19.645615 196.33634,33.875 C 196.33634,44.394613 211.7205,52.817738 214.59118,63.53125 C 212.23986,72.306511 196.33634,82.873505 196.33634,93.53125 C 196.33634,107.95361 206.17822,113.65625 218.31207,113.65625 C 230.44593,113.65625 240.2878,107.95361 240.2878,93.53125 C 240.28779,82.873504 224.61835,73.180052 222.03296,63.53125 C 224.86896,52.947146 240.28779,44.394613 240.2878,33.875 C 240.2878,19.645614 230.44593,14.09375 218.31207,14.09375 z"
       id="path3826" /></clipPath><filter
     id="filter3799"><feGaussianBlur
       stdDeviation="0.40593809"
       id="feGaussianBlur3801" /></filter><filter
     id="filter3767"><feGaussianBlur
       stdDeviation="1.1199548"
       id="feGaussianBlur3769" /></filter><filter
     x="-0.10216047"
     width="1.2043209"
     y="-0.050306506"
     height="1.100613"
     id="filter3755"><feGaussianBlur
       stdDeviation="2.2965444"
       id="feGaussianBlur3757" /></filter><linearGradient
     xlink:href="#linearGradient3143"
     id="linearGradient3486"
     gradientUnits="userSpaceOnUse"
     gradientTransform="matrix(0.5000001,0,0,0.5000002,48,-44.000025)"
     spreadMethod="reflect"
     x1="48"
     y1="112"
     x2="112"
     y2="112" /><linearGradient
     xlink:href="#linearGradient3143"
     id="linearGradient3481"
     gradientUnits="userSpaceOnUse"
     gradientTransform="matrix(0.5094973,0,0,0.5870287,46.977137,42.949012)"
     spreadMethod="reflect"
     x1="48"
     y1="112"
     x2="112"
     y2="112" /><linearGradient
     xlink:href="#linearGradient3143"
     id="linearGradient3477"
     gradientUnits="userSpaceOnUse"
     spreadMethod="reflect"
     x1="26.204611"
     y1="60"
     x2="32"
     y2="60"
     gradientTransform="matrix(1,0,0,1.1818182,87.999998,-10.909091)" /><linearGradient
     xlink:href="#linearGradient3143"
     id="linearGradient3473"
     x1="25.687912"
     y1="60"
     x2="32"
     y2="60"
     gradientUnits="userSpaceOnUse"
     spreadMethod="reflect"
     gradientTransform="matrix(1,0,0,1.1818182,16,-10.909091)" /><linearGradient
     xlink:href="#linearGradient3143"
     id="linearGradient3463"
     gradientUnits="userSpaceOnUse"
     spreadMethod="reflect"
     x1="48"
     y1="112"
     x2="112"
     y2="112"
     gradientTransform="matrix(1,0,0,0.4999997,16,-51.999973)" /><linearGradient
     xlink:href="#linearGradient3143"
     id="linearGradient3459"
     x1="48"
     y1="112"
     x2="112"
     y2="112"
     gradientUnits="userSpaceOnUse"
     spreadMethod="reflect"
     gradientTransform="matrix(1,0,0,0.5000002,16,59.999975)" /><linearGradient
     id="linearGradient3143"><stop
       id="stop3145"
       offset="0"
       style="stop-color:#4e4a54;stop-opacity:1;" /><stop
       style="stop-color:#3f3c44;stop-opacity:1;"
       offset="0.10221675"
       id="stop3285" /><stop
       style="stop-color:#312e34;stop-opacity:1;"
       offset="0.2044335"
       id="stop3283" /><stop
       style="stop-color:#141215;stop-opacity:1;"
       offset="0.408867"
       id="stop3281" /><stop
       id="stop3147"
       offset="1"
       style="stop-color:#000000;stop-opacity:1;" /></linearGradient><linearGradient
     id="linearGradient2575"
     gradientUnits="userSpaceOnUse"
     x1="28"
     y1="57.5"
     x2="28"
     y2="0">
			<stop
   offset="0"
   style="stop-color:#FFEA00"
   id="stop2577" />
			<stop
   offset="1"
   style="stop-color:#ffa000;stop-opacity:1;"
   id="stop2579" />
		</linearGradient><linearGradient
     id="linearGradient3771"><stop
       style="stop-color:#000000;stop-opacity:1;"
       offset="0"
       id="stop3773" /><stop
       style="stop-color:#000000;stop-opacity:0;"
       offset="1"
       id="stop3775" /></linearGradient><linearGradient
     id="linearGradient3779"><stop
       style="stop-color:#000000;stop-opacity:1;"
       offset="0"
       id="stop3781" /><stop
       style="stop-color:#000000;stop-opacity:0;"
       offset="1"
       id="stop3783" /></linearGradient><linearGradient
     id="linearGradient3803"><stop
       style="stop-color:#000000;stop-opacity:1;"
       offset="0"
       id="stop3805" /><stop
       style="stop-color:#000000;stop-opacity:0;"
       offset="1"
       id="stop3807" /></linearGradient><linearGradient
     id="linearGradient3837"><stop
       style="stop-color:#b8b8b8;stop-opacity:1;"
       offset="0"
       id="stop3839" /><stop
       style="stop-color:#ffffff;stop-opacity:1;"
       offset="1"
       id="stop3841" /></linearGradient><linearGradient
     id="linearGradient3871"><stop
       style="stop-color:#ffffff;stop-opacity:1;"
       offset="0"
       id="stop3874" /><stop
       style="stop-color:#ffffff;stop-opacity:0;"
       offset="1"
       id="stop3876" /></linearGradient><linearGradient
     id="linearGradient3883"><stop
       style="stop-color:#ffffff;stop-opacity:1;"
       offset="0"
       id="stop3885" /><stop
       style="stop-color:#ffffff;stop-opacity:0;"
       offset="1"
       id="stop3887" /></linearGradient><linearGradient
     id="linearGradient3893"><stop
       style="stop-color:#ffffff;stop-opacity:1;"
       offset="0"
       id="stop3895" /><stop
       style="stop-color:#ffffff;stop-opacity:0;"
       offset="1"
       id="stop3897" /></linearGradient><linearGradient
     id="linearGradient4045"><stop
       style="stop-color:#121212;stop-opacity:1;"
       offset="0"
       id="stop4047" /><stop
       style="stop-color:#121212;stop-opacity:0;"
       offset="1"
       id="stop4049" /></linearGradient><linearGradient
     id="linearGradient3569"><stop
       style="stop-color:#000000;stop-opacity:1;"
       offset="0"
       id="stop3571" /><stop
       style="stop-color:#000000;stop-opacity:0;"
       offset="1"
       id="stop3573" /></linearGradient><linearGradient
     id="linearGradient3880"><stop
       style="stop-color:#ffffff;stop-opacity:1;"
       offset="0"
       id="stop3882" /><stop
       style="stop-color:#ffffff;stop-opacity:0;"
       offset="1"
       id="stop3884" /></linearGradient><linearGradient
     y2="108.51858"
     x2="212"
     y1="76"
     x1="108"
     gradientTransform="matrix(-0.5,0,0,0.4305231,182,51.362312)"
     gradientUnits="userSpaceOnUse"
     id="linearGradient2688"
     xlink:href="#radialGradient3351" /></defs>
<metadata
   id="metadata3">
	<ns:sfw>
		<ns:slices>
			<ns:slice
   sliceID="1316743234"
   width="128"
   height="128"
   x="0"
   y="0" />
		</ns:slices>
		<ns:sliceSourceBounds
   bottomLeftOrigin="true"
   width="128"
   height="128"
   x="0"
   y="0" />
		<ns:optimizationSettings>
			<ns:targetSettings
   fileFormat="PNG24Format"
   targetSettingsID="0">
				<ns:PNG24Format
   interlaced="false"
   noMatteColor="false"
   matteColor="#FFFFFF"
   filtered="false"
   transparency="true">
					</ns:PNG24Format>
			</ns:targetSettings>
			<ns:targetSettings
   fileFormat="PNG24Format"
   targetSettingsID="1696735251">
				<ns:PNG24Format
   interlaced="false"
   noMatteColor="false"
   matteColor="#FFFFFF"
   filtered="false"
   transparency="true">
					</ns:PNG24Format>
			</ns:targetSettings>
		</ns:optimizationSettings>
	</ns:sfw>
<rdf:RDF><cc:Work
     rdf:about=""><dc:format>image/svg+xml</dc:format><dc:type
       rdf:resource="http://purl.org/dc/dcmitype/StillImage" /><dc:title></dc:title></cc:Work></rdf:RDF></metadata>

<radialGradient
   gradientUnits="userSpaceOnUse"
   r="139.5585"
   cy="112.3047"
   cx="102"
   id="XMLID_7_">
	<stop
   id="stop16"
   style="stop-color:#ffffff;stop-opacity:1;"
   offset="0" />
	
	
	
	
	<stop
   id="stop26"
   style="stop-color:#dfdfdf;stop-opacity:1;"
   offset="0.1737" />
	<stop
   id="stop28"
   style="stop-color:#ECF2F5"
   offset="0.2099" />
	<stop
   id="stop30"
   style="stop-color:#FAFCFD"
   offset="0.2435" />
	<stop
   id="stop32"
   style="stop-color:#FFFFFF"
   offset="0.2722" />
</radialGradient>

<radialGradient
   gradientUnits="userSpaceOnUse"
   r="139.55859"
   cy="112.3047"
   cx="102"
   id="XMLID_8_">
	<stop
   id="stop37"
   style="stop-color:#ffffff;stop-opacity:1;"
   offset="0" />
	
	<stop
   id="stop41"
   style="stop-color:#bdbebf;stop-opacity:1;"
   offset="0.11366145" />
	
	
	<stop
   id="stop47"
   style="stop-color:#ECECEC"
   offset="0.20296688" />
	<stop
   id="stop49"
   style="stop-color:#FAFAFA"
   offset="0.2363" />
	<stop
   id="stop51"
   style="stop-color:#FFFFFF"
   offset="0.38818121" />
	<stop
   id="stop53"
   style="stop-color:#FAFAFA"
   offset="0.5313" />
	<stop
   id="stop55"
   style="stop-color:#EBECEC"
   offset="0.8449" />
	<stop
   id="stop57"
   style="stop-color:#E1E2E3"
   offset="1" />
</radialGradient>

<linearGradient
   y2="94.5366"
   x2="86.5356"
   y1="102.3447"
   x1="94.3438"
   gradientUnits="userSpaceOnUse"
   id="XMLID_9_">
	<stop
   id="stop62"
   style="stop-color:#FFFFFF"
   offset="0" />
	<stop
   id="stop64"
   style="stop-color:#555753"
   offset="1" />
</linearGradient>

<linearGradient
   y2="94.5865"
   x2="86.5865"
   y1="103"
   x1="95"
   gradientUnits="userSpaceOnUse"
   id="XMLID_10_">
	<stop
   id="stop69"
   style="stop-color:#FFFFFF"
   offset="0" />
	<stop
   id="stop71"
   style="stop-color:#555753"
   offset="1" />
</linearGradient>

<linearGradient
   y2="95.293"
   x2="87.293"
   y1="103"
   x1="95"
   gradientUnits="userSpaceOnUse"
   id="XMLID_11_">
	<stop
   id="stop76"
   style="stop-color:#FFFFFF"
   offset="0" />
	<stop
   id="stop78"
   style="stop-color:#393B38"
   offset="1" />
</linearGradient>

<linearGradient
   y2="96.0002"
   x2="88.0002"
   y1="104"
   x1="96"
   gradientUnits="userSpaceOnUse"
   id="XMLID_12_">
	<stop
   id="stop83"
   style="stop-color:#888A85"
   offset="0" />
	<stop
   id="stop85"
   style="stop-color:#8C8E89"
   offset="0.0072" />
	<stop
   id="stop87"
   style="stop-color:#ABACA9"
   offset="0.0673" />
	<stop
   id="stop89"
   style="stop-color:#C5C6C4"
   offset="0.1347" />
	<stop
   id="stop91"
   style="stop-color:#DBDBDA"
   offset="0.2115" />
	<stop
   id="stop93"
   style="stop-color:#EBEBEB"
   offset="0.3012" />
	<stop
   id="stop95"
   style="stop-color:#F7F7F6"
   offset="0.4122" />
	<stop
   id="stop97"
   style="stop-color:#FDFDFD"
   offset="0.5679" />
	<stop
   id="stop99"
   style="stop-color:#FFFFFF"
   offset="1" />
</linearGradient>


<g
   transform="translate(-16,0.1595895)"
   id="g2656"
   style="overflow:visible"><path
     style="opacity:0.30337082;fill:url(#linearGradient3963);fill-opacity:1;stroke:none;stroke-width:0.5;stroke-linecap:round;stroke-linejoin:round;stroke-miterlimit:4;stroke-dashoffset:1.08779998;stroke-opacity:1;filter:url(#filter3997)"
     d="M 82.689408,9.6875 C 82.174198,9.6875 81.684588,9.8337303 81.203128,10.0625 C 84.150718,11.443627 86.355568,17.248903 86.355568,29.5 C 86.355558,38.980671 84.921748,46.85021 83.549468,56.0625 C 83.698488,57.070603 83.841308,58.077184 83.925998,59.125 C 83.849678,60.069285 83.709378,61.04759 83.549468,62.03125 C 84.884598,70.729119 86.355558,79.535706 86.355568,89.125 C 86.355568,101.54225 84.150718,107.49083 81.203128,108.90625 C 81.684588,109.14069 82.174198,109.28125 82.689408,109.28125 C 86.349208,109.28125 89.328128,103.54736 89.328128,89.125 C 89.328118,78.467254 84.598778,68.773802 83.818978,59.125 C 84.674358,48.540896 89.328118,40.019613 89.328128,29.5 C 89.328128,15.270614 86.349208,9.6875 82.689408,9.6875 z"
     id="path3950" /><g
     id="g3812"
     transform="translate(-138.07598,-4.390625)"
     clip-path="url(#clipPath3824)"><path
       style="opacity:1;fill:none;fill-opacity:1;stroke:url(#radialGradient3916);stroke-width:0.5;stroke-linecap:round;stroke-linejoin:round;stroke-miterlimit:4;stroke-dashoffset:1.08779998;stroke-opacity:1;filter:url(#filter3799)"
       d="M 218.31207,14.09375 C 206.17822,14.09375 196.33634,19.645615 196.33634,33.875 C 196.33634,44.394613 211.72051,52.817738 214.59118,63.53125 C 212.23987,72.306511 196.33634,82.873505 196.33634,93.53125 C 196.33634,107.95361 206.17822,113.65625 218.31207,113.65625 C 230.44593,113.65625 240.2878,107.95361 240.2878,93.53125 C 240.2878,82.873504 224.61836,73.180052 222.03296,63.53125 C 224.86897,52.947146 240.2878,44.394613 240.2878,33.875 C 240.2878,19.645614 230.44593,14.09375 218.31207,14.09375 z"
       id="path3721" /><path
       id="path3723"
       d="M 218.31207,14.09375 C 206.17822,14.09375 196.33634,19.645615 196.33634,33.875 C 196.33634,44.394613 211.7205,52.817738 214.59118,63.53125 C 212.23986,72.306511 196.33634,82.873505 196.33634,93.53125 C 196.33634,107.95361 206.17822,113.65625 218.31207,113.65625 C 230.44593,113.65625 240.2878,107.95361 240.2878,93.53125 C 240.28779,82.873504 224.61835,73.180052 222.03296,63.53125 C 224.86896,52.947146 240.28779,44.394613 240.2878,33.875 C 240.2878,19.645614 230.44593,14.09375 218.31207,14.09375 z"
       style="opacity:0.53183522;fill:none;fill-opacity:1;stroke:url(#radialGradient3918);stroke-width:3;stroke-linecap:round;stroke-linejoin:round;stroke-miterlimit:4;stroke-dasharray:none;stroke-dashoffset:1.08779998;stroke-opacity:1;filter:url(#filter3767)" /><path
       style="opacity:0.2284644;fill:none;fill-opacity:1;stroke:url(#radialGradient3920);stroke-width:10;stroke-linecap:round;stroke-linejoin:round;stroke-miterlimit:4;stroke-dasharray:none;stroke-dashoffset:1.08779998;stroke-opacity:1;filter:url(#filter3755)"
       d="M 218.31207,14.09375 C 206.17822,14.09375 196.33634,19.645615 196.33634,33.875 C 196.33634,44.394613 211.7205,52.817738 214.59118,63.53125 C 212.23986,72.306511 196.33634,82.873505 196.33634,93.53125 C 196.33634,107.95361 206.17822,113.65625 218.31207,113.65625 C 230.44593,113.65625 240.2878,107.95361 240.2878,93.53125 C 240.28779,82.873504 224.61835,73.180052 222.03296,63.53125 C 224.86896,52.947146 240.28779,44.394613 240.2878,33.875 C 240.2878,19.645614 230.44593,14.09375 218.31207,14.09375 z"
       id="path3725" /><path
       id="path3828"
       d="M 218.31207,14.09375 C 206.17822,14.09375 196.33634,19.645615 196.33634,33.875 C 196.33634,44.394613 211.7205,52.817738 214.59118,63.53125 C 212.23986,72.306511 196.33634,82.873505 196.33634,93.53125 C 196.33634,107.95361 206.17822,113.65625 218.31207,113.65625 C 230.44593,113.65625 240.2878,107.95361 240.2878,93.53125 C 240.28779,82.873504 224.61835,73.180052 222.03296,63.53125 C 224.86896,52.947146 240.28779,44.394613 240.2878,33.875 C 240.2878,19.645614 230.44593,14.09375 218.31207,14.09375 z"
       style="opacity:1;fill:none;fill-opacity:1;stroke:#000000;stroke-width:1;stroke-linecap:round;stroke-linejoin:round;stroke-miterlimit:4;stroke-dasharray:none;stroke-dashoffset:1.08779998;stroke-opacity:1;filter:url(#filter3850)" /></g><path
     style="opacity:0.78277151;fill:url(#linearGradient3648);fill-opacity:1;stroke:none;stroke-width:3;stroke-linecap:round;stroke-linejoin:round;stroke-miterlimit:4;stroke-dasharray:none;stroke-dashoffset:1.08779998;stroke-opacity:1;filter:url(#filter3798)"
     d="M 64.397094,9.6875 C 56.220084,9.6875 49.087964,12.219475 45.303344,18.21875 C 49.849104,19.561052 56.943534,20.237501 64.959594,20.2375 C 72.408044,20.2375 79.090624,19.682669 83.647094,18.5 C 79.908094,12.305393 72.696284,9.6875 64.397094,9.6875 z"
     id="path2977"
     transform="matrix(0.8615336,0,0,1,24.927649,0)" /><g
     id="g3637"
     transform="matrix(-1,0,0,-1,144.95044,118.79687)"
     style="opacity:0.55805209"><path
       style="opacity:0.78277151;fill:url(#linearGradient3641);fill-opacity:1;stroke:none;stroke-width:3;stroke-linecap:round;stroke-linejoin:round;stroke-miterlimit:4;stroke-dasharray:none;stroke-dashoffset:1.08779998;stroke-opacity:1;filter:url(#filter3629)"
       d="M 64.397094,9.6875 C 56.220084,9.6875 49.087964,12.219475 45.303344,18.21875 C 49.849104,19.561052 56.943534,20.437501 64.959594,20.4375 C 72.408044,20.4375 79.090624,19.682669 83.647094,18.5 C 79.908094,12.305393 72.696284,9.6875 64.397094,9.6875 z"
       id="path3633" /><path
       id="path3635"
       d="M 64.397094,9.6875 C 56.220084,9.6875 49.087964,12.219475 45.303344,18.21875 C 49.891666,16.989313 56.943534,16.628907 64.959594,16.628906 C 72.408044,16.628906 79.105236,17.283013 83.647094,18.5 C 79.908094,12.305393 72.696284,9.6875 64.397094,9.6875 z"
       style="opacity:0.78277151;fill:url(#linearGradient3643);fill-opacity:1;stroke:none;stroke-width:3;stroke-linecap:round;stroke-linejoin:round;stroke-miterlimit:4;stroke-dasharray:none;stroke-dashoffset:1.08779998;stroke-opacity:1;filter:url(#filter3605)" /></g><path
     style="opacity:1;fill:url(#linearGradient2688);fill-opacity:1;stroke:none;stroke-width:0.5;stroke-linecap:round;stroke-linejoin:round;stroke-miterlimit:4;stroke-dashoffset:1.08779998;stroke-opacity:1"
     d="M 68.886471,43.163393 C 71.593361,47.52917 77.064231,51.568656 78.351601,56.373175 C 78.338331,56.422713 79.514151,57.678297 79.499461,57.728024 L 79.593541,57.840929 L 79.593541,85.983371 L 82.077431,85.983371 L 82.077431,57.633938 C 81.889471,57.214052 82.942501,56.792572 82.830131,56.373175 C 84.027671,51.903896 88.933501,48.031354 91.768371,43.934905 L 80.496781,50.29517 L 68.886471,43.163393 z"
     id="path3802" /><path
     id="path3496"
     d="M 80.236088,9.703125 C 68.102238,9.703125 58.260358,15.25499 58.260358,29.484375 C 58.260358,40.003988 73.644518,48.427113 76.515198,59.140625 C 74.163878,67.915886 58.260358,78.48288 58.260358,89.140625 C 58.260358,103.56299 68.102238,109.26563 80.236088,109.26563 C 92.369948,109.26563 102.21182,103.56299 102.21182,89.140625 C 102.21181,78.482879 86.542368,68.789427 83.956978,59.140625 C 86.792978,48.556521 102.21181,40.003988 102.21182,29.484375 C 102.21182,15.254989 92.369948,9.703125 80.236088,9.703125 z"
     style="opacity:0.20599252;fill:url(#linearGradient3942);fill-opacity:1;stroke:none;stroke-width:0.5;stroke-linecap:round;stroke-linejoin:round;stroke-miterlimit:4;stroke-dashoffset:1.08779998;stroke-opacity:1" /><path
     style="opacity:1;fill:url(#linearGradient3810);fill-opacity:1;stroke:none;stroke-width:0.5;stroke-linecap:round;stroke-linejoin:round;stroke-miterlimit:4;stroke-dashoffset:1.08779998;stroke-opacity:1"
     d="M 81.199231,84.166408 L 61.891511,94.25908 C 63.157886,104.72999 71.236953,108.95928 81.007251,108.95928 C 90.25952,108.95928 97.4792,104.8801 99.348739,95.587355 L 81.199231,84.166408 z"
     id="path2979" /><rect
     ry="3.5185578"
     rx="3.5185578"
     y="104"
     x="55.129093"
     height="12.486969"
     width="48.911736"
     id="rect3479"
     style="opacity:1;fill:url(#linearGradient3481);fill-opacity:1;stroke:none;stroke-width:0.49613535;stroke-linecap:round;stroke-linejoin:round;stroke-miterlimit:4;stroke-dasharray:none;stroke-dashoffset:1.08779998;stroke-opacity:1" /><path
     style="opacity:0.39325843;fill:#373737;fill-opacity:1;stroke:none;stroke-width:0.5;stroke-linecap:round;stroke-linejoin:round;stroke-miterlimit:4;stroke-dashoffset:1.08779998;stroke-opacity:1"
     d="M 61.891511,94.341358 C 63.190196,104.75211 71.262599,108.95928 81.007251,108.95928 C 90.221566,108.95928 97.511716,104.79658 99.421312,95.586903 C 95.057426,98.020015 89.122694,97.963631 82.07686,97.963631 C 73.557583,97.963631 66.104675,97.70593 61.891511,94.341358 z"
     id="path3814" /><path
     style="fill:url(#linearGradient3935);fill-opacity:1;fill-rule:evenodd;stroke:none;stroke-width:1px;stroke-linecap:butt;stroke-linejoin:miter;stroke-opacity:1;filter:url(#filter3867)"
     d="M 75.181828,50.265627 C 76.418808,53.4355 77.655788,56.605373 78.892768,59.775246 C 78.569168,62.951702 78.936088,62.951702 81.236518,59.775246 C 83.825638,53.301954 88.169268,47.307165 94.807858,41.938275 C 89.504808,46.150621 84.569338,50.870608 81.041208,56.515627 C 80.585478,56.580731 80.129748,56.645835 79.674018,56.710939 C 78.176618,54.562502 76.679228,52.414064 75.181828,50.265627 z"
     id="path3845" /><path
     id="path3577"
     d="M 64.397094,9.6875 C 56.220084,9.6875 49.087964,12.219475 45.303344,18.21875 C 49.891666,16.989313 56.943534,16.628907 64.959594,16.628906 C 72.408044,16.628906 79.105236,17.283013 83.647094,18.5 C 79.908094,12.305393 72.696284,9.6875 64.397094,9.6875 z"
     style="opacity:0.78277151;fill:url(#linearGradient3645);fill-opacity:1;stroke:none;stroke-width:3;stroke-linecap:round;stroke-linejoin:round;stroke-miterlimit:4;stroke-dasharray:none;stroke-dashoffset:1.08779998;stroke-opacity:1;filter:url(#filter3794)"
     transform="matrix(0.8615336,0,0,1,24.927649,0)" /><rect
     ry="0.84041047"
     rx="0.84041005"
     y="5.7902913"
     x="56"
     height="10.209717"
     width="48"
     id="rect4043"
     style="opacity:1;fill:url(#linearGradient4051);fill-opacity:1;stroke:none;stroke-width:0.49613535;stroke-linecap:round;stroke-linejoin:round;stroke-miterlimit:4;stroke-dasharray:none;stroke-dashoffset:1.08779998;stroke-opacity:1" /><path
     style="fill:url(#linearGradient3932);fill-opacity:1;fill-rule:evenodd;stroke:none;stroke-width:1px;stroke-linecap:butt;stroke-linejoin:miter;stroke-opacity:1"
     d="M 80.650578,11.203128 C 67.293058,11.855855 62.020038,16.593608 60.061868,27.609377 C 62.034138,31.262447 67.035628,33.314089 71.275588,34.250002 C 68.616698,24.223961 72.536848,15.369794 80.650578,11.203128 z"
     id="path3881" /><path
     style="fill:url(#linearGradient3929);fill-opacity:1;fill-rule:evenodd;stroke:none;stroke-width:1px;stroke-linecap:butt;stroke-linejoin:miter;stroke-opacity:1"
     d="M 76.214558,65.851944 C 68.566958,73.115009 60.955828,80.253837 59.917958,90.98738 C 61.830298,95.045382 65.441068,94.857277 68.756798,95.406798 C 68.039398,82.885746 72.782328,74.914974 76.214558,65.851944 z"
     id="path3891" /><rect
     style="opacity:1;fill:url(#linearGradient3459);fill-opacity:1;stroke:none;stroke-width:0.49613535;stroke-linecap:round;stroke-linejoin:round;stroke-miterlimit:4;stroke-dasharray:none;stroke-dashoffset:1.08779998;stroke-opacity:1"
     id="rect2871"
     width="96"
     height="8.0000076"
     x="32"
     y="112"
     rx="1.6808201"
     ry="0.84041047" /><rect
     style="opacity:0.89513113;fill:url(#linearGradient3473);fill-opacity:1;stroke:none;stroke-width:0.5;stroke-linecap:round;stroke-linejoin:round;stroke-miterlimit:4;stroke-dasharray:none;stroke-dashoffset:1.08779998;stroke-opacity:1"
     id="rect3465"
     width="8"
     height="104"
     x="40"
     y="8"
     rx="0"
     ry="0" /><rect
     ry="0"
     rx="0"
     y="8"
     x="112"
     height="104"
     width="8"
     id="rect3475"
     style="opacity:0.89513113;fill:url(#linearGradient3477);fill-opacity:1;stroke:none;stroke-width:0.5;stroke-linecap:round;stroke-linejoin:round;stroke-miterlimit:4;stroke-dasharray:none;stroke-dashoffset:1.08779998;stroke-opacity:1" /><rect
     style="opacity:1;fill:url(#linearGradient3486);fill-opacity:1;stroke:none;stroke-width:0.49613535;stroke-linecap:round;stroke-linejoin:round;stroke-miterlimit:4;stroke-dasharray:none;stroke-dashoffset:1.08779998;stroke-opacity:1"
     id="rect3483"
     width="48"
     height="12.219788"
     x="56"
     y="3.7802198"
     rx="2.8096411"
     ry="2.8096411" /><rect
     ry="1.1055746"
     rx="1.1055746"
     y="0"
     x="32"
     height="8.000001"
     width="96"
     id="rect3461"
     style="opacity:1;fill:url(#linearGradient3463);fill-opacity:1;stroke:none;stroke-width:0.49613535;stroke-linecap:round;stroke-linejoin:round;stroke-miterlimit:4;stroke-dasharray:none;stroke-dashoffset:1.08779998;stroke-opacity:1" /><rect
     style="opacity:0.78277151;fill:#121212;fill-opacity:1;stroke:none;stroke-width:3;stroke-linecap:round;stroke-linejoin:round;stroke-miterlimit:4;stroke-dasharray:none;stroke-dashoffset:1.08779998;stroke-opacity:1;filter:url(#filter4039)"
     id="rect4001"
     width="96.09375"
     height="2.34375"
     x="32.015625"
     y="118.23438"
     rx="16.04812"
     ry="1.171875" /><path
     style="opacity:1;fill:url(#radialGradient3886);fill-opacity:1;stroke:none;stroke-width:1;stroke-linecap:round;stroke-linejoin:round;stroke-miterlimit:4;stroke-dasharray:none;stroke-dashoffset:1.08779998;stroke-opacity:1"
     id="path3854"
     d="M 88,0 A 32,4 0 0 1 56,4 32,4 0 0 1 24,0 32,4 0 0 1 56,-4 32,4 0 0 1 88,0 Z"
     transform="matrix(1.4263736,0,0,0.2409394,-0.703297,1.067012)" /><path
     transform="matrix(1.4263736,0,0,0.2409394,-0.703297,1.067012)"
     d="M 88,0 A 32,4 0 0 1 56,4 32,4 0 0 1 24,0 32,4 0 0 1 56,-4 32,4 0 0 1 88,0 Z"
     id="path3888"
     style="opacity:1;fill:url(#radialGradient3890);fill-opacity:1;stroke:none;stroke-width:1;stroke-linecap:round;stroke-linejoin:round;stroke-miterlimit:4;stroke-dasharray:none;stroke-dashoffset:1.08779998;stroke-opacity:1" /><path
     transform="matrix(1.4263736,0,0,0.2409394,-0.703297,113.10923)"
     d="M 88,0 A 32,4 0 0 1 56,4 32,4 0 0 1 24,0 32,4 0 0 1 56,-4 32,4 0 0 1 88,0 Z"
     id="path3892"
     style="opacity:1;fill:url(#radialGradient3896);fill-opacity:1;stroke:none;stroke-width:1;stroke-linecap:round;stroke-linejoin:round;stroke-miterlimit:4;stroke-dasharray:none;stroke-dashoffset:1.08779998;stroke-opacity:1" /><path
     style="opacity:1;fill:url(#radialGradient3902);fill-opacity:1;stroke:none;stroke-width:1;stroke-linecap:round;stroke-linejoin:round;stroke-miterlimit:4;stroke-dasharray:none;stroke-dashoffset:1.08779998;stroke-opacity:1"
     id="path3900"
     d="M 88,0 A 32,4 0 0 1 56,4 32,4 0 0 1 24,0 32,4 0 0 1 56,-4 32,4 0 0 1 88,0 Z"
     transform="matrix(0.742578,0,0,0.2248956,37.19141,104.97172)" /></g></svg>