<svg xmlns="http://www.w3.org/2000/svg" viewBox="0 0 24 24"><path d="M12 14C9.58 14 7.3 13.4 6 12.45V9.64C7.47 10.47 9.61 11 12 11S16.53 10.47 18 9.64V12.08C18.33 12.03 18.66 12 19 12C19.34 12 19.67 12.03 20 12.08V7C20 4.79 16.42 3 12 3S4 4.79 4 7V17C4 19.21 7.59 21 12 21C12.1 21 12.2 21 12.29 21C12.11 20.36 12 19.69 12 19C8.13 19 6 17.5 6 17V14.77C7.61 15.55 9.72 16 12 16C12.24 16 12.47 16 12.7 15.97C13.1 15.14 13.65 14.41 14.32 13.81C13.58 13.93 12.8 14 12 14M12 5C15.87 5 18 6.5 18 7S15.87 9 12 9 6 7.5 6 7 8.13 5 12 5M22.7 19.6V18.6L23.8 17.8C23.9 17.7 24 17.6 23.9 17.5L22.9 15.8C22.9 15.7 22.7 15.7 22.6 15.7L21.4 16.2C21.1 16 20.8 15.8 20.5 15.7L20.3 14.4C20.3 14.3 20.2 14.2 20.1 14.2H18.1C17.9 14.2 17.8 14.3 17.8 14.4L17.6 15.7C17.3 15.9 17.1 16 16.8 16.2L15.6 15.7C15.5 15.7 15.4 15.7 15.3 15.8L14.3 17.5C14.3 17.6 14.3 17.7 14.4 17.8L15.5 18.6V19.6L14.4 20.4C14.3 20.5 14.2 20.6 14.3 20.7L15.3 22.4C15.4 22.5 15.5 22.5 15.6 22.5L16.8 22C17 22.2 17.3 22.4 17.6 22.5L17.8 23.8C17.9 23.9 18 24 18.1 24H20.1C20.2 24 20.3 23.9 20.3 23.8L20.5 22.5C20.8 22.3 21 22.2 21.3 22L22.5 22.4C22.6 22.4 22.7 22.4 22.8 22.3L23.8 20.6C23.9 20.5 23.9 20.4 23.8 20.4L22.7 19.6M19 20.5C18.2 20.5 17.5 19.8 17.5 19S18.2 17.5 19 17.5 20.5 18.2 20.5 19 19.8 20.5 19 20.5Z" /></svg>