<svg xmlns="http://www.w3.org/2000/svg" viewBox="0 0 24 24"><path d="M11 18.95C7.77 18.72 6 17.45 6 17V14.77C7.13 15.32 8.5 15.69 10 15.87C10 15.21 10.04 14.54 10.21 13.89C8.5 13.67 6.97 13.16 6 12.45V9.64C7.43 10.45 9.5 10.97 11.82 11C11.85 10.97 11.87 10.93 11.9 10.9C14.1 8.71 17.5 8.41 20 10.03V7C20 4.79 16.42 3 12 3S4 4.79 4 7V17C4 19.21 7.59 21 12 21C12.34 21 12.68 21 13 20.97C12.62 20.72 12.24 20.44 11.9 20.1C11.55 19.74 11.25 19.36 11 18.95M12 5C15.87 5 18 6.5 18 7S15.87 9 12 9 6 7.5 6 7 8.13 5 12 5M20.31 17.9C20.75 17.21 21 16.38 21 15.5C21 13 19 11 16.5 11S12 13 12 15.5 14 20 16.5 20C17.37 20 18.19 19.75 18.88 19.32L22 22.39L23.39 21L20.31 17.9M16.5 18C15.12 18 14 16.88 14 15.5S15.12 13 16.5 13 19 14.12 19 15.5 17.88 18 16.5 18Z" /></svg>