<svg xmlns="http://www.w3.org/2000/svg" width="24" height="24"><path style="stroke-width:.65502" d="M7.275.645a2.949 2.949 0 0 0-1.404.298c-1.34.571-2.058 2.064-1.918 3.475-.085.269.215.925-.248.816-.77-.119-1.655.327-1.71 1.176-.016 2.092-.004 4.183-.009 6.276-.119.769.329 1.654 1.176 1.712 1.855.012 3.711.006 5.567.004v-1.308H3.297v-6.55h7.861v4.106h1.301c0-1.252.002-2.504.008-3.755.137-.804-.444-1.689-1.309-1.66h-.656c-.021-.693.062-1.395-.09-2.077C10.112 1.7 8.71.688 7.275.645zm-.048 1.314c.465-.001.929.17 1.28.475.869.681.665 1.836.686 2.8H5.32c-.139-.22-.017-.701-.058-1.02-.153-1.14.789-2.292 1.965-2.255zm.097 6.559c-.37-.04-.752.069-1.025.373-.834.75-.195 2.3.928 2.238.736.016 1.37-.659 1.308-1.393-.008-.676-.594-1.153-1.21-1.218z" transform="translate(-.218 .136) scale(1.04251)"/><path style="fill:#000;fill-opacity:1;fill-rule:evenodd;stroke-width:.857645" d="M11.773 18.34c-1.322.064-2.213-1.618-1.424-2.677.676-1.116 2.527-.937 2.994.27.513 1.094-.357 2.434-1.57 2.406zm5.146 2.572v-8.576H6.627v8.576h10.292zm0-10.292c1.038-.032 1.855.99 1.715 1.993-.01 2.84.019 5.68-.014 8.519-.096.979-1.095 1.626-2.034 1.495-3.378-.006-6.757.012-10.135-.009-1.032-.072-1.677-1.125-1.54-2.094.007-2.788-.01-5.577.01-8.365.068-1.003 1.084-1.67 2.038-1.539.432.09.635-.048.526-.498-.025-1.262-.04-2.616.77-3.67 1.263-1.913 4.126-2.424 5.971-1.064 1.326.884 1.959 2.516 1.835 4.071v1.161h.858zm-5.146-4.288c-1.49-.044-2.739 1.385-2.573 2.85v1.438h5.146c-.053-1.126.231-2.4-.575-3.336a2.578 2.578 0 0 0-1.998-.952z" transform="matrix(.99434 0 0 .99434 3.623 .679)"/></svg>