<?xml version="1.0" encoding="UTF-8"?><!DOCTYPE svg PUBLIC "-//W3C//DTD SVG 1.1//EN" "http://www.w3.org/Graphics/SVG/1.1/DTD/svg11.dtd"><svg xmlns="http://www.w3.org/2000/svg" xmlns:xlink="http://www.w3.org/1999/xlink" version="1.1" id="mdi-comment-multiple-outline" width="24" height="24" viewBox="0 0 24 24"><path d="M12,23A1,1 0 0,1 11,22V19H7A2,2 0 0,1 5,17V7C5,5.89 5.9,5 7,5H21A2,2 0 0,1 23,7V17A2,2 0 0,1 21,19H16.9L13.2,22.71C13,22.9 12.75,23 12.5,23V23H12M13,17V20.08L16.08,17H21V7H7V17H13M3,15H1V3A2,2 0 0,1 3,1H19V3H3V15Z" /></svg>