<?xml version="1.0" encoding="UTF-8"?><!DOCTYPE svg PUBLIC "-//W3C//DTD SVG 1.1//EN" "http://www.w3.org/Graphics/SVG/1.1/DTD/svg11.dtd"><svg xmlns="http://www.w3.org/2000/svg" xmlns:xlink="http://www.w3.org/1999/xlink" version="1.1" width="24" height="24" viewBox="0 0 24 24"><path d="M12,3A9,9 0 0,0 3,12H0L4,16L8,12H5A7,7 0 0,1 12,5A7,7 0 0,1 19,12A7,7 0 0,1 12,19C10.5,19 9.09,18.5 7.94,17.7L6.5,19.14C8.04,20.3 9.94,21 12,21A9,9 0 0,0 21,12A9,9 0 0,0 12,3M14,12A2,2 0 0,0 12,10A2,2 0 0,0 10,12A2,2 0 0,0 12,14A2,2 0 0,0 14,12Z" /></svg>