<?xml version="1.0" encoding="UTF-8" standalone="no"?>
<svg
   viewBox="0 0 48 48"
   style="fill-rule:evenodd;clip-rule:evenodd;stroke-linejoin:round;stroke-miterlimit:2"
   version="1.1"
   id="svg10"
   sodipodi:docname="entry-expire.svg"
   inkscape:version="1.1.2 (0a00cf5339, 2022-02-04)"
   xmlns:inkscape="http://www.inkscape.org/namespaces/inkscape"
   xmlns:sodipodi="http://sodipodi.sourceforge.net/DTD/sodipodi-0.dtd"
   xmlns="http://www.w3.org/2000/svg"
   xmlns:svg="http://www.w3.org/2000/svg">
  <defs
     id="defs14" />
  <sodipodi:namedview
     id="namedview12"
     pagecolor="#ffffff"
     bordercolor="#666666"
     borderopacity="1.0"
     inkscape:pageshadow="2"
     inkscape:pageopacity="0.0"
     inkscape:pagecheckerboard="0"
     showgrid="false"
     inkscape:zoom="16"
     inkscape:cx="30"
     inkscape:cy="17.59375"
     inkscape:window-width="1720"
     inkscape:window-height="1370"
     inkscape:window-x="0"
     inkscape:window-y="0"
     inkscape:window-maximized="0"
     inkscape:current-layer="g4" />
  <g
     transform="matrix(0.983029,0,0,0.983029,-2.1525036,-4.6916677)"
     id="g4"
     style="display:inline;fill:#000000;fill-opacity:1"
     inkscape:groupmode="layer"
     inkscape:label="#g4">
    <path
       id="circle2"
       style="fill:#000000;fill-opacity:1;stroke-width:0.983029"
       d="M 24,4 A 19.999724,19.999724 0 0 0 4,24 19.999724,19.999724 0 0 0 24,44 19.999724,19.999724 0 0 0 44,24 19.999724,19.999724 0 0 0 24,4 Z m -8.361328,10.15625 h 4.679687 L 24,20.941406 27.681641,14.15625 h 4.679687 L 26.630859,23.931641 32.5,33.84375 H 27.792969 L 24,26.949219 20.207031,33.84375 H 15.5 l 5.869141,-9.912109 z"
       transform="matrix(1.017264,0,0,1.017264,2.1896644,4.7726646)" />
  </g>
  <g
     transform="matrix(27.6873,0,0,27.6873,15.195439,33.842835)"
     id="g8"
     style="display:inline;fill:#ffffff;fill-opacity:1"
     inkscape:groupmode="layer"
     inkscape:label="#g8" />
</svg>
