<svg viewBox="0 0 24 24" xmlns="http://www.w3.org/2000/svg" xml:space="preserve" style="fill-rule:evenodd;clip-rule:evenodd;stroke-linejoin:round;stroke-miterlimit:2"><path d="M22.326 14.864h-2.652v-12h2.652v12m0 5h-2.652v-3h2.652v3Z" style="fill-rule:nonzero" transform="matrix(1.13122 0 0 1 -1.2557 2.1364)"/><path d="M18 8c1.097 0 2 .903 2 2v10c0 1.097-.903 2-2 2H6c-1.11 0-2-.9-2-2V10c0-1.097.903-2 2-2h9V6c0-1.646-1.354-3-3-3S9 4.354 9 6H7c0-2.743 2.257-5 5-5s5 2.257 5 5v2h1m-6 9c1.097 0 2-.903 2-2s-.903-2-2-2-2 .903-2 2 .903 2 2 2Z" style="fill-rule:nonzero" transform="translate(-1)"/></svg>