<?xml version="1.0" encoding="UTF-8" standalone="no"?>
<svg
   version="1.1"
   id="mdi-eye-outline"
   width="24"
   height="24"
   viewBox="0 0 24 24"
   sodipodi:docname="masked-password-off.svg"
   inkscape:version="1.2.1 (9c6d41e4, 2022-07-14)"
   xmlns:inkscape="http://www.inkscape.org/namespaces/inkscape"
   xmlns:sodipodi="http://sodipodi.sourceforge.net/DTD/sodipodi-0.dtd"
   xmlns="http://www.w3.org/2000/svg"
   xmlns:svg="http://www.w3.org/2000/svg">
  <defs
     id="defs89">
    <linearGradient
       id="linearGradient7649"
       inkscape:swatch="solid">
      <stop
         style="stop-color:#000000;stop-opacity:0.90277779;"
         offset="0"
         id="stop7647" />
    </linearGradient>
    <linearGradient
       id="linearGradient2667"
       inkscape:swatch="solid">
      <stop
         style="stop-color:#000000;stop-opacity:0.53725493;"
         offset="0"
         id="stop2665" />
    </linearGradient>
  </defs>
  <sodipodi:namedview
     id="namedview87"
     pagecolor="#ffffff"
     bordercolor="#666666"
     borderopacity="1.0"
     inkscape:showpageshadow="2"
     inkscape:pageopacity="0.0"
     inkscape:pagecheckerboard="0"
     inkscape:deskcolor="#d1d1d1"
     showgrid="false"
     inkscape:zoom="33.875"
     inkscape:cx="13.225092"
     inkscape:cy="10.553506"
     inkscape:window-width="1920"
     inkscape:window-height="959"
     inkscape:window-x="1920"
     inkscape:window-y="25"
     inkscape:window-maximized="0"
     inkscape:current-layer="mdi-eye-outline" />
  <rect
     style="fill:none;fill-opacity:1;stroke:#000000;stroke-width:1;stroke-linecap:round;stroke-linejoin:round;stroke-dasharray:none;stroke-opacity:1"
     id="rect2663"
     width="3.0996313"
     height="12.95941"
     x="0.85608858"
     y="5.1070108"
     ry="0.44280443" />
  <rect
     style="fill:none;fill-opacity:1;stroke:#000000;stroke-width:1;stroke-linecap:round;stroke-linejoin:round;stroke-dasharray:none;stroke-opacity:1"
     id="rect2663-4"
     width="3.0996313"
     height="12.95941"
     x="5.7712178"
     y="5.0922508"
     ry="0.44280443" />
  <rect
     style="fill:none;fill-opacity:0.53725493;stroke:#000000;stroke-width:1;stroke-linecap:round;stroke-linejoin:round;stroke-dasharray:none;stroke-opacity:1"
     id="rect2663-4-6"
     width="3.0996313"
     height="12.95941"
     x="10.464945"
     y="5.0922508"
     ry="0.44280443" />
  <path
     style="fill:#000000;fill-opacity:0.974026;stroke:#000000;stroke-width:1;stroke-linecap:round;stroke-linejoin:round;stroke-dasharray:none;stroke-opacity:1"
     id="path8046-5-7"
     sodipodi:type="arc"
     sodipodi:cx="12.014759"
     sodipodi:cy="11.321443"
     sodipodi:rx="0.26568264"
     sodipodi:ry="0.28044274"
     sodipodi:start="0"
     sodipodi:end="6.270046"
     sodipodi:arc-type="slice"
     d="m 12.280442,11.321443 a 0.26568264,0.28044274 0 0 1 -0.26481,0.280441 0.26568264,0.28044274 0 0 1 -0.26655,-0.278599 0.26568264,0.28044274 0 0 1 0.263059,-0.282272 0.26568264,0.28044274 0 0 1 0.268278,0.276745 l -0.26566,0.0037 z" />
  <rect
     style="fill:none;fill-opacity:0.53725493;stroke:#000000;stroke-width:1;stroke-linecap:round;stroke-linejoin:round;stroke-dasharray:none;stroke-opacity:1"
     id="rect2663-4-6-0"
     width="3.0996313"
     height="12.95941"
     x="15.247232"
     y="5.1217713"
     ry="0.44280443" />
  <rect
     style="fill:none;fill-opacity:1;stroke:#000000;stroke-width:1;stroke-linecap:round;stroke-linejoin:round;stroke-dasharray:none;stroke-opacity:1"
     id="rect2663-4-6-0-3"
     width="3.0996313"
     height="12.95941"
     x="19.999998"
     y="5.1512914"
     ry="0.44280443" />
  <path
     style="opacity:1;fill:#000000;fill-opacity:0.974026;stroke:#000000;stroke-width:1;stroke-linecap:round;stroke-linejoin:round;stroke-dasharray:none;stroke-opacity:1"
     id="path8046"
     sodipodi:type="arc"
     sodipodi:cx="7.321033"
     sodipodi:cy="11.321033"
     sodipodi:rx="0.26568264"
     sodipodi:ry="0.28044274"
     sodipodi:start="0"
     sodipodi:end="6.270046"
     sodipodi:arc-type="slice"
     d="m 7.5867156,11.321033 a 0.26568264,0.28044274 0 0 1 -0.2648099,0.280441 0.26568264,0.28044274 0 0 1 -0.2665496,-0.278599 0.26568264,0.28044274 0 0 1 0.2630588,-0.282272 0.26568264,0.28044274 0 0 1 0.2682778,0.276745 l -0.2656597,0.0037 z" />
  <path
     style="fill:#000000;fill-opacity:0.974026;stroke:#000000;stroke-width:1;stroke-linecap:round;stroke-linejoin:round;stroke-dasharray:none;stroke-opacity:1"
     id="path8046-5"
     sodipodi:type="arc"
     sodipodi:cx="2.4206638"
     sodipodi:cy="11.321443"
     sodipodi:rx="0.26568264"
     sodipodi:ry="0.28044274"
     sodipodi:start="0"
     sodipodi:end="6.270046"
     sodipodi:arc-type="slice"
     d="m 2.6863465,11.321443 a 0.26568264,0.28044274 0 0 1 -0.2648099,0.280441 0.26568264,0.28044274 0 0 1 -0.2665497,-0.278599 0.26568264,0.28044274 0 0 1 0.2630588,-0.282272 0.26568264,0.28044274 0 0 1 0.2682778,0.276745 l -0.2656597,0.0037 z" />
  <path
     style="fill:#000000;fill-opacity:0.974026;stroke:#000000;stroke-width:0.99988;stroke-linecap:round;stroke-linejoin:round;stroke-dasharray:none;stroke-opacity:1"
     id="path8046-8"
     sodipodi:type="arc"
     sodipodi:cx="21.549629"
     sodipodi:cy="11.321445"
     sodipodi:rx="0.26556012"
     sodipodi:ry="0.28050381"
     sodipodi:start="0"
     sodipodi:end="6.270046"
     sodipodi:arc-type="slice"
     d="m 21.815189,11.321445 a 0.26556012,0.28050381 0 0 1 -0.264687,0.280503 0.26556012,0.28050381 0 0 1 -0.266427,-0.27866 0.26556012,0.28050381 0 0 1 0.262937,-0.282333 0.26556012,0.28050381 0 0 1 0.268154,0.276805 l -0.265537,0.0037 z" />
  <path
     style="fill:#000000;fill-opacity:0.974026;stroke:#000000;stroke-width:1;stroke-linecap:round;stroke-linejoin:round;stroke-dasharray:none;stroke-opacity:1"
     id="path8046-5-8"
     sodipodi:type="arc"
     sodipodi:cx="16.797049"
     sodipodi:cy="11.321443"
     sodipodi:rx="0.26568264"
     sodipodi:ry="0.28044274"
     sodipodi:start="0"
     sodipodi:end="6.270046"
     sodipodi:arc-type="slice"
     d="m 17.062731,11.321443 a 0.26568264,0.28044274 0 0 1 -0.26481,0.280441 0.26568264,0.28044274 0 0 1 -0.266549,-0.278599 0.26568264,0.28044274 0 0 1 0.263058,-0.282272 0.26568264,0.28044274 0 0 1 0.268278,0.276745 l -0.265659,0.0037 z" />
</svg>
