<svg viewBox="0 0 128 128" xmlns="http://www.w3.org/2000/svg" xml:space="preserve" style="fill-rule:evenodd;clip-rule:evenodd;stroke-linejoin:round;stroke-miterlimit:2"><path d="M22.5 101.382V88.3094c0-9.1756 7.4383-16.6154 16.6154-16.6154l11.528.1398c12.5786 0 21.5115-2.3424 26.7973-7.0258 5.2858-4.6835 7.9851-8.4576 7.9851-16.9566 0-6.1551-1.6287-11.224-4.7734-15.5733-3.0775-4.4165-7.1586-7.3271-12.2445-8.7317-3.2789-.8707-9.334-1.3047-18.1656-1.3047l-9.1856-.1284v28.1362H22.5V4.75l26.1364.1284c9.768 0 17.2292.4682 22.3808 1.4046 7.2271 1.2048 13.2823 3.513 18.167 6.926 4.8847 3.3445 8.7988 8.0622 11.7422 14.1516 3.0119 6.088 4.5735 12.5958 4.5735 19.89 0 12.5115-4.0382 20.301-12.0005 28.9998-7.9623 8.6303-22.9161 12.4345-43.7268 12.4345 0 0-7.5968.1384-8.716.1384-8.4061 0-15.6061 5.2016-18.5566 12.5586ZM22.5 124.2501c0-13.2305 8.192-24.0806 18.5567-24.9993v24.902L22.5 124.25Z"/></svg>