<svg xmlns="http://www.w3.org/2000/svg" viewBox="0 0 24 24"><path d="M13.03 18C13.08 18.7 13.24 19.38 13.5 20H6.5C5 20 3.69 19.5 2.61 18.43C1.54 17.38 1 16.09 1 14.58C1 13.28 1.39 12.12 2.17 11.1S4 9.43 5.25 9.15C5.67 7.62 6.5 6.38 7.75 5.43S10.42 4 12 4C13.95 4 15.6 4.68 16.96 6.04C18.32 7.4 19 9.05 19 11C19.04 11 19.07 11 19.1 11C18.36 11.07 17.65 11.23 17 11.5V11C17 9.62 16.5 8.44 15.54 7.46C14.56 6.5 13.38 6 12 6S9.44 6.5 8.46 7.46C7.5 8.44 7 9.62 7 11H6.5C5.53 11 4.71 11.34 4.03 12.03C3.34 12.71 3 13.53 3 14.5S3.34 16.29 4.03 17C4.71 17.66 5.53 18 6.5 18H13.03M19 13.5V12L16.75 14.25L19 16.5V15C20.38 15 21.5 16.12 21.5 17.5C21.5 17.9 21.41 18.28 21.24 18.62L22.33 19.71C22.75 19.08 23 18.32 23 17.5C23 15.29 21.21 13.5 19 13.5M19 20C17.62 20 16.5 18.88 16.5 17.5C16.5 17.1 16.59 16.72 16.76 16.38L15.67 15.29C15.25 15.92 15 16.68 15 17.5C15 19.71 16.79 21.5 19 21.5V23L21.25 20.75L19 18.5V20Z" /></svg>