<?xml version="1.0" encoding="UTF-8"?><!DOCTYPE svg PUBLIC "-//W3C//DTD SVG 1.1//EN" "http://www.w3.org/Graphics/SVG/1.1/DTD/svg11.dtd"><svg xmlns="http://www.w3.org/2000/svg" xmlns:xlink="http://www.w3.org/1999/xlink" version="1.1" id="mdi-lightbulb-off-outline" width="24" height="24" viewBox="0 0 24 24"><path d="M12,2C9.76,2 7.78,3.05 6.5,4.68L7.93,6.11C8.84,4.84 10.32,4 12,4A5,5 0 0,1 17,9C17,10.68 16.16,12.16 14.89,13.06L16.31,14.5C17.94,13.21 19,11.24 19,9A7,7 0 0,0 12,2M3.28,4L2,5.27L5.04,8.3C5,8.53 5,8.76 5,9C5,11.38 6.19,13.47 8,14.74V17A1,1 0 0,0 9,18H14.73L18.73,22L20,20.72L3.28,4M7.23,10.5L12.73,16H10V13.58C8.68,13 7.66,11.88 7.23,10.5M9,20V21A1,1 0 0,0 10,22H14A1,1 0 0,0 15,21V20H9Z" /></svg>