<?xml version="1.0" encoding="UTF-8"?><!DOCTYPE svg PUBLIC "-//W3C//DTD SVG 1.1//EN" "http://www.w3.org/Graphics/SVG/1.1/DTD/svg11.dtd"><svg xmlns="http://www.w3.org/2000/svg" xmlns:xlink="http://www.w3.org/1999/xlink" version="1.1" width="24" height="24" viewBox="0 0 24 24"><path d="M22 13C22 13.53 21.79 14.04 21.41 14.41L21 14.83C20.91 11.97 18.84 9.62 16.11 9.11L11 4H4V11L9.11 16.11C9.62 18.84 11.97 20.91 14.83 21L14.41 21.41C14.04 21.79 13.53 22 13 22C12.47 22 11.97 21.79 11.59 21.42L2.59 12.42C2.21 12.04 2 11.53 2 11V4C2 2.9 2.9 2 4 2H11C11.53 2 12.04 2.21 12.41 2.58L21.41 11.58C21.79 11.96 22 12.47 22 13M5 6.5C5 7.33 5.67 8 6.5 8S8 7.33 8 6.5 7.33 5 6.5 5 5 5.67 5 6.5M15.11 10.61C12.61 10.61 10.61 12.61 10.61 15.11S12.61 19.61 15.11 19.61C16 19.61 16.8 19.36 17.5 18.93L20.61 22L22 20.61L18.92 17.5C19.36 16.82 19.61 16 19.61 15.11C19.61 12.61 17.61 10.61 15.11 10.61M15.11 12.61C16.5 12.61 17.61 13.73 17.61 15.11S16.5 17.61 15.11 17.61 12.61 16.5 12.61 15.11 13.73 12.61 15.11 12.61" /></svg>