<svg xmlns="http://www.w3.org/2000/svg" viewBox="0 0 24 24"><path d="M21 13.1C20.9 13.1 20.7 13.2 20.6 13.3L19.6 14.3L21.7 16.4L22.7 15.4C22.9 15.2 22.9 14.8 22.7 14.6L21.4 13.3C21.3 13.2 21.2 13.1 21 13.1M19.1 14.9L13 20.9V23H15.1L21.2 16.9L19.1 14.9M12.5 7V12.2L16.5 14.6L15.5 15.6L11 13V7H12.5M11 21.9C5.9 21.4 2 17.1 2 12C2 6.5 6.5 2 12 2C17.3 2 21.6 6.1 22 11.3C21.7 11.2 21.4 11.1 21 11.1C20.6 11.1 20.3 11.2 20 11.3C19.6 7.2 16.2 4 12 4C7.6 4 4 7.6 4 12C4 16.1 7.1 19.5 11.1 19.9L11 20.1V21.9Z" /></svg>