<?xml version="1.0" encoding="UTF-8"?><!DOCTYPE svg PUBLIC "-//W3C//DTD SVG 1.1//EN" "http://www.w3.org/Graphics/SVG/1.1/DTD/svg11.dtd"><svg xmlns="http://www.w3.org/2000/svg" xmlns:xlink="http://www.w3.org/1999/xlink" version="1.1" id="mdi-account-arrow-right-outline" width="24" height="24" viewBox="0 0 24 24"><path d="M19,21V19H15V17H19V15L22,18L19,21M13,18C13,18.71 13.15,19.39 13.42,20H2V17C2,14.79 5.58,13 10,13C11,13 11.96,13.09 12.85,13.26C13.68,13.42 14.44,13.64 15.11,13.92C13.83,14.83 13,16.32 13,18M4,17V18H11C11,16.96 11.23,15.97 11.64,15.08L10,15C6.69,15 4,15.9 4,17M10,4A4,4 0 0,1 14,8A4,4 0 0,1 10,12A4,4 0 0,1 6,8A4,4 0 0,1 10,4M10,6A2,2 0 0,0 8,8A2,2 0 0,0 10,10A2,2 0 0,0 12,8A2,2 0 0,0 10,6Z" /></svg>