<?xml version="1.0" encoding="utf-8"?>
<!-- Generator: Adobe Illustrator 19.2.1, SVG Export Plug-In . SVG Version: 6.00 Build 0)  -->
<svg version="1.1" xmlns="http://www.w3.org/2000/svg" xmlns:xlink="http://www.w3.org/1999/xlink" x="0px" y="0px"
	 viewBox="0 0 32 32" style="enable-background:new 0 0 32 32;" xml:space="preserve">
<style type="text/css">
	.st0{display:none;}
	.st1{fill:#0078D7;enable-background:new    ;}
	.st2{fill:#0078D7;}
</style>
<g id="Layer_1" class="st0">
	
		<image style="display:inline;overflow:visible;" width="32" height="27" xlink:href="3192E23713ECC30D.png"  transform="matrix(1 0 0 1 0 2.5)">
	</image>
</g>
<g id="Layer_2">
	<g>
		<path class="st1" d="z"/>
		<g>
			<path class="st2" d="M16,29.8c-9.6,0-15.5-8.5-15.8-8.9c-0.6-0.9-0.4-2.4,0.5-3c0.9-0.6,2.2-0.7,2.8,0.2
				c0.1,0.1,5.1,7.1,12.5,7.1c7.4,0,12.4-7.1,12.5-7.1c0.6-0.9,1.9-0.8,2.8-0.2c0.9,0.6,1.1,2.1,0.5,3C31.5,21.3,25.6,29.8,16,29.8z
				"/>
		</g>
		<circle class="st2" cx="7.4" cy="6.5" r="4"/>
		<circle class="st2" cx="24.6" cy="6.5" r="4"/>
	</g>
</g>
</svg>
