<?xml version="1.0" encoding="UTF-8" standalone="no"?>
<!DOCTYPE svg PUBLIC "-//W3C//DTD SVG 1.1//EN" "http://www.w3.org/Graphics/SVG/1.1/DTD/svg11.dtd">
<svg width="100%" height="100%" viewBox="0 0 24 24" version="1.1" xmlns="http://www.w3.org/2000/svg" xmlns:xlink="http://www.w3.org/1999/xlink" xml:space="preserve" xmlns:serif="http://www.serif.com/" style="fill-rule:evenodd;clip-rule:evenodd;stroke-linejoin:round;stroke-miterlimit:2;">
    <g transform="matrix(0.722673,-0.722673,0.722673,0.722673,-9.84661,10.66)">
        <path d="M6.086,22.736C3.148,21.904 1,19.206 1,16C1,14.07 1.78,12.32 3.05,11.05L9.77,4.33L11.288,5.868L15.078,2.078C15.258,1.898 15.508,1.788 15.788,1.788C16.068,1.788 16.318,1.898 16.498,2.078L21.919,7.502L21.919,7.512C22.059,7.682 22.139,7.902 22.139,8.142C22.139,8.442 22.009,8.712 21.799,8.902L18.069,12.642L19.67,14.23L18.255,15.645L9.77,7.16L4.46,12.46C3.56,13.37 3,14.62 3,16C3,18.186 4.405,20.046 6.361,20.725C6.182,21.382 6.09,22.059 6.086,22.736ZM7.133,18.873C5.897,18.502 5,17.358 5,16C5,14.34 6.34,13 8,13C9.505,13 10.747,14.102 10.966,15.545C10.021,15.925 9.136,16.499 8.371,17.264C7.879,17.756 7.466,18.298 7.133,18.873ZM20.35,8.046L15.859,3.553L12.431,7.001L16.901,11.484L20.35,8.046ZM8,15C7.45,15 7,15.45 7,16C7,16.55 7.45,17 8,17C8.55,17 9,16.55 9,16C9,15.45 8.55,15 8,15Z"/>
    </g>
    <g transform="matrix(0.832215,6.28971e-17,-6.28971e-17,0.832215,6.96368,6.76821)">
        <path d="M17.65,6.35C16.2,4.9 14.21,4 12,4C7.611,4 4,7.611 4,12C4,16.389 7.611,20 12,20C15.73,20 18.84,17.45 19.73,14L17.65,14C16.83,16.33 14.61,18 12,18C8.708,18 6,15.292 6,12C6,8.708 8.708,6 12,6C13.66,6 15.14,6.69 16.22,7.78L13,11L20,11L20,4L17.65,6.35Z" style="fill-rule:nonzero;"/>
    </g>
</svg>
